<svg enable-background="new 0 0 3484.5 2000" viewBox="0 0 3484.5 2000" xmlns="http://www.w3.org/2000/svg"><path d="m341.8 1842s-187.4-647.3 167.6-1029c227.4-244.4 598.3-171.8 598.3-171.8s506.5-739.1 1001.8-424.2c665.8 423.3 650.9 2.1 1001.5 247.6 418.4 292.9 0 1417.6 0 1417.6z" fill="#49b3b3"/><path d="m3073.5 717.5c-292.3-345.4-512 125.1-939.2-182.4-611.8-440.4-656.6 714.4-863 681.3-294.3-47.1-329.1-296.4-669.8-87.7-85.1 52.1-199 185.7-230.6 342-33.1 164 7.8 355.2 7.8 355.2l2707.6 51.3c74.1-180 219.3-885.3-12.8-1159.7z" fill="#58d6d3"/><g fill="#ffb265"><path d="m3142.1 1887.3h-2815.6c-30.2 0-54.6-24.5-54.6-54.6v-6.8h2924.8v6.8c0 30.1-24.5 54.6-54.6 54.6z"/><path d="m1389.5 520h291.5c27.8 0 50.3-22.5 50.3-50.3v-100.7c0-27.8-22.5-50.3-50.3-50.3h-291.6c-27.8 0-50.3 22.5-50.3 50.3v100.7c0 27.8 22.6 50.3 50.4 50.3z"/><path d="m1621.3 496.6-119.3 105.9 26.1-109.2z"/></g><path d="m2631.4 808.6-6.5-29.4s-21.2 13.4-33.5 32.6c-12.4 19.2-18.2 70.4-21.8 72.3-3.5 1.9-42.6-58.3-49.5-67.8-8.5-11.7-11.6-25.2-16.9-35.5-5.3-10.2-23.9-13.7-31-12.4s9.7 31.2 9.7 31.2 42.4 73.6 56.5 113.9 58.2 59.5 65.3 53.8c7.1-5.8 27.7-158.7 27.7-158.7z" fill="#f48c7f"/><path d="m2502.8 786.5s-1.8-7.7-6.5-9.3c-4.8-1.6-13-.2-13.6 0-.5.2-9.7-4.8-9.7-4.8l7.6 14.1s14.8 17.4 19.7 10.9c5-6.5 2.5-10.9 2.5-10.9z" fill="#f7a491"/><path d="m2470.4 773s-5.3 27.2-4 32.9c1.4 5.7 4.8 2.6 5.4 1.4 2.6-5.1 4.5-22.5 4.5-22.5z" fill="#f48c7f"/><path d="m2481.9 795.6s-2.5 16.9-5.2 18.8c-1.7 1.3-3.9.5-4.6-2.9s3.4-24.2 3.4-24.2z" fill="#f48c7f"/><path d="m2497.5 843.5 8.9-4.3-37.7-77.3c-4.9 2.4-6.9 8.3-4.5 13.2z" fill="#184655"/><path d="m2592.1 687.5c-5.3-24.2-10.5-48.5 3.5-75 11.3-21.5 30.9-33.8 53.6-36.5 64.3-7.6 50.5 52.4 140.4 65.4 27.9 4 53.8 7.9 77.2 21.8 42.1 25.1 58 65.3 30.1 130.8-68.3 160.4-236.1 24.2-256.8-7.4-15.5-23.5-44.5-83.5-48-99.1z" fill="#13375b"/><path d="m2849.2 1700.9s4.6 46.5 16.3 55c11.8 8.5 27.5 40.1 19.6 57.2-2.5 5.3-7.4 8.4-12.9 10.1-16.5 5.1-34.1-3.5-41.2-19.3-3.9-8.8-7.4-20.6-8.1-35.4-1.8-37.8-13.5-57-13.5-57z" fill="#f7a491"/><path d="m2668.4 1719.9s-3.7 46.9-.7 62.1c1.6 8.2 10.6 25 6.5 32.6-4.1 7.7-8.8 9.6-8.8 9.6l-106.7 1.7c-5.8.1-2-3.6 2.7-7.1 7.7-5.6 13.9-9.4 38.4-21.2 1.6-.8 7.4-4.5 9.5-5.7 5.3-3.2 10.7-8.3 15.3-13.5 7.7-8.5 8.3-49.8 8.3-49.8z" fill="#f7a491"/><path d="m2585 1096.6s-13.4 76.1-4.6 126 51.2 512.6 51.2 512.6l47.1 2.6s9.9-193.3 8.1-220.1c-1.8-26.9-15.7-71.9-15.7-71.9l4.7-156-59.4-205z" fill="#498457"/><path d="m2723.3 1080.6s37.1 55.7 45.9 101.7c8.8 46.1-6.5 187.7 10.5 248 9.2 32.7 44 83.2 49.3 125.4s26.1 152.9 26.1 152.9l-47 9.3-109.3-276.3-85.8-249.7-22-128.6z" fill="#67c081"/><path d="m2693.3 763.8s32.5 3.7 51.9 24.8-31.4 190.9-34.9 217.7c-3.5 26.9 28.9 89.6 28.9 89.6s-121.3 22.4-154.2.7c0 0-3.5-193.3 0-212.5s32.9-97.3 40-105c7-7.6 68.3-15.3 68.3-15.3z" fill="#fff"/><path d="m2739.2 804.5c-3.1-9.5-13.9-14-23-10.1-12.5 5.4-29.8 15.7-38.3 33.3-14.1 29.4-63.5 130.5-78.8 134.4-15.3 3.8-77.7-105-77.7-105s1.8-19.2-3.5-30.1-21.2-22.4-23.5-18.6c-2.4 3.8 8.8 13.4 8.8 15.4 0 1.9-4.7 3.2-11.2-.6s-10-11.6-10-11.6-10.6 19.3.6 36.6 15.9 24.3 15.9 24.3 72.4 160.6 98.8 162.5c24.7 1.9 166.7-155.6 141.9-230.5z" fill="#f7a491"/><path d="m2677 698.4s.3 1.4.7 3.9c2.2 11.8 10.6 50.8 16.3 61.6 6.9 13-23.5 54.4-52.8 49.3-8.7-1.5 7.4-38 6.6-41.9-1.5-7.4-3.5-17.5-5.5-27.9-1.2-5.8-2.3-11.8-3.4-17.3-3.1-15.8-5.7-28.8-5.7-28.8z" fill="#f7a491"/><path d="m2677.7 702.3c-.5-2.5-.7-3.9-.7-3.9l-43.9-1.1s2.6 12.9 5.7 28.8c1.1 5.5 2.3 11.4 3.4 17.2 6.8-1 13.9-4.3 21-10.5 7.7-6.8 12.8-14.9 15.9-23.6-.6-2.7-1.1-5.1-1.4-6.9z" fill="#f47458"/><path d="m2650.6 594.1s17.9 2.5 30.9 19.2 26.9 68.5-5.3 96.6-64-3.7-68.7-37.5c-4.8-33.8-3.9-79.6 43.1-78.3z" fill="#f7a491"/><path d="m2597.1 660.9c3.8 7.5 10.3 11.6 14.4 9.2s4.3-10.3.5-17.8-10.3-11.6-14.4-9.2-4.3 10.3-.5 17.8z" fill="#f7a491"/><path d="m2645.1 593.3s27.6 49.2 47.4 51.5 22.4 28.4 22.4 28.4-7.1-60.3-26.6-71.9c-19.6-11.6-43.2-8-43.2-8z" fill="#13375b"/><path d="m2686 656.5c-1.6 8.7 1.6 16.8 7.2 17.9s11.4-5 13-13.7-1.6-16.8-7.2-17.9c-5.5-1.2-11.3 4.9-13 13.7z" fill="#f7a491"/><path d="m2827.8 1795.6c25.6 4.7 42.7-10.3 51.6-21.5 6.5 12.7 10.5 28.5 5.7 39-4.2 9.2-15.7 11.7-25.4 12.1-10.3.4-19.9-5-25-13.9-2.3-4.3-4.8-9.5-6.9-15.7z" fill="#498457"/><path d="m2609.2 1791.9c28.2 7.2 49.1 2.3 60.8-2.4 3 8.5 7 19.2 4.9 25.4-2.6 7.5-6.3 9.2-9.5 9.3-25.8.7-94.4 1.6-114.1 1.9-2.7 0-4.3-3.2-2.5-5.3 4.8-5.8 58.3-27.6 60.4-28.9z" fill="#498457"/><path d="m2385.8 458.4h235.2c22.4 0 40.6-18.2 40.6-40.6v-81.2c0-22.4-18.2-40.6-40.6-40.6h-235.2c-22.4 0-40.6 18.2-40.6 40.6v81.2c0 22.4 18.2 40.6 40.6 40.6z" fill="#ffb265"/><path d="m2560.9 436 30.8 92.4-89.6-92.4z" fill="#ffb265"/><path d="m2568.8 383.3c0 8.2 7.1 14.8 15.9 14.8s15.8-6.6 15.8-14.8-7.1-14.8-15.8-14.8c-8.8.1-15.9 6.7-15.9 14.8z" fill="#fff"/><path d="m2487.8 383.3c0 8.2 7.1 14.8 15.8 14.8 8.8 0 15.8-6.6 15.8-14.8s-7.1-14.8-15.8-14.8c-8.7.1-15.8 6.7-15.8 14.8z" fill="#fff"/><path d="m2406.8 383.3c0 8.2 7.1 14.8 15.8 14.8s15.8-6.6 15.8-14.8-7.1-14.8-15.8-14.8-15.8 6.7-15.8 14.8z" fill="#fff"/><path d="m1124.8 432.4h-278.3c-26.5 0-48-21.5-48-48v-96.1c0-26.5 21.5-48 48-48h278.3c26.5 0 48 21.5 48 48v96.1c0 26.5-21.5 48-48 48z" fill="#4c78bc"/><path d="m917.7 405.9-36.4 109.3 106-109.3z" fill="#4c78bc"/><path d="m908.3 343.7c0 9.7-8.4 17.5-18.8 17.5s-18.7-7.8-18.7-17.5 8.4-17.5 18.7-17.5c10.4 0 18.8 7.8 18.8 17.5z" fill="#fff"/><path d="m1004.2 343.7c0 9.7-8.4 17.5-18.7 17.5-10.4 0-18.8-7.8-18.8-17.5s8.4-17.5 18.8-17.5c10.3 0 18.7 7.8 18.7 17.5z" fill="#fff"/><path d="m1100 343.7c0 9.7-8.4 17.5-18.8 17.5s-18.8-7.8-18.8-17.5 8.4-17.5 18.8-17.5 18.8 7.8 18.8 17.5z" fill="#fff"/><path d="m1932.7 1129.8c19.9-5.7 20.4-2.2 22.9-3 3-.9 27-33.5 27-33.5s71.5-95.3 75.1-100.6l22.5-123.4 67.7-.5s-28.3 133.2-31.1 139.8-116 123-125.6 133.6c0 0-6.2 17.2-10.5 27.9-4.3 10.6-13.4 18.4-15.1 21.2-.3.4-6.5 9.3-17.4 17.9-9.4 7.4-4.4-4.1-4.4-4.1s14.5-17.1 12.8-18.1c-1.3-.8-8.6 9-18.9 17.4-2.6 2.1-5.3 4.3-7.7 6.2-6.4 5-11.8 2.4-6.1-4 2-2.3 5.5-5.9 8.3-8.1 3.1-2.4 5-5.7 7.3-8.1 4.5-4.8 7.8-8.3 7.5-8.4-.4-.1-.3-1.8-3.2.4-3.5 2.6-9.4 9.9-14.9 13.4-3.1 2-9.3 6.4-9.3 6.4s-10.8 5-11.4 4.4c-3.1-3 3.1-8.5 7.7-10.6 2.1-2.9 8.7-7.4 8.7-7.4s11-12.3 9.1-14c-.8-.7-8.6 5.9-17.4 11.2-8.2 4.9-17.4 8.5-18.8 6.9-2.4-2.6 6-9 6-9s6.2-4.2 8.1-5.7c2.2-1.8 8.5-7.8 8.5-7.8s20.7-21.9 18.7-23.4-8.4-3.5-10.2-2.6-4.1 4.3-5.9 5.2-5.1.4-6.6-1.7c-1.5-2.2 5.2-9.9 5.2-9.9s5.7-6.3 11.4-8z" fill="#f48c7f"/><path d="m2045.1 1748.8s2.4 42.6 2.4 42.7c.9 5.4 4.4 18.8 4.4 23.7 0 18.5-82.1-15.7-63.7-23.8 1.7-.7 10.4-6.3 10.9-12.6.8-9.7 3-29.3 3-29.3z" fill="#f7a491"/><path d="m1988.4 1791.1s19.3 5.6 29.2 7.1c9.9 1.4 22.9-10.5 29.9-7.3 7.7 3.5 6.9 38.3 6.9 38.3s-102.9 6.1-132-3.3c-11.5-3.7 26.6-21.7 66-34.8z" fill="#184655"/><path d="m2226 1752.8s2.4 42.6 2.4 42.7c.9 5.4 4.4 18.8 4.4 23.7 0 18.5-82.1-15.7-63.7-23.8 1.7-.7 13-10.5 13.5-16.8.8-9.7.4-25.1.4-25.1z" fill="#f7a491"/><path d="m2169.3 1795.1s19.3 5.6 29.2 7.1c9.9 1.4 22.9-10.5 29.9-7.3 7.7 3.5 8 35.3 8 35.3s-110 8-135.9.5c-11.7-3.3 29.4-22.4 68.8-35.6z" fill="#184655"/><path d="m2095.9 1138.4-34.7 15-73 348.7 3 261.4 58.5 1.4s27.2-228.7 27.2-246.4 126.1-310.2 126.1-310.2z" fill="#355389"/><path d="m2122.7 1157.6s25.6 268.7 25.6 314 20.7 298.8 20.7 298.8l58.7-.3s4.2-77.3 10.5-190.9c1-17.8-1.3-53.7 0-72.2 9.1-132.6 27.2-257.4 18.6-306.8-1.4-8-4-28.8-9.1-34-38.4-39.9-125-8.6-125-8.6z" fill="#466eb6"/><path d="m2051.1 945.5 71-4.8s3.5-63.5 3.5-93.7c0-36.7 11.2-90.9 6.8-89.9-12.3 2.9-33.5 14.2-43.3 27.9-34.1 47.5-38 160.5-38 160.5z" fill="#498457"/><path d="m2219.4 755.7s40.5 5.6 51.1 13.5c12 8.8 25.3 28.5 25.3 28.5s-49.7 235-49.8 274.5c-.1 30.6 10.8 105.7 10.8 105.7s-150.2 9.5-207.1-13c0 0 18-89.3 18-112.8s21.5-236.8 26.4-251.7c4.4-13.5 12.5-37.8 40-43.8 27.4-5.8 85.3-.9 85.3-.9z" fill="#67c081"/><path d="m2208.3 692.5 10 65.6s-36.6 78.1-58.5 71.4c-18.3-5.7-7.1-74.8-7.1-74.8s10-37.1 7-55.7c-2.9-18.6 48.6-6.5 48.6-6.5z" fill="#f7a491"/><path d="m2159.8 698.9c-3-18.6 48.5-6.5 48.5-6.5l.8 5.4c-1.5 3.6-3.3 6.8-5.6 9.1-11.5 12.3-29.5 19.7-45 20.2 1.6-9.8 2.5-20.6 1.3-28.2z" fill="#f47458"/><path d="m2216.7 599.6c1.5-.5 11.7 74.7-7.7 95.4s-57.1 27.5-70.7 11.2c-15-18-14.2-98.9 15.9-120.2 30.2-21.3 62.5 13.6 62.5 13.6z" fill="#f7a491"/><path d="m2165.7 545.8c23.3 4.7 38.4 18.8 43.9 24.9 10.6 1.2 24.9 7 39.8 31.4 18.2 30 4.8 63.2-16.5 79.6-21.2 16.3-21 35.2-21 35.2l-3.3-9.8c-2.5-7.4-3.5-15.2-2.7-23 .5-4.6 1.5-9.7 3.4-13.8 5.1-10.9-11-18.1-15.5-27.2-3.5-7-3.6-22.9-9.1-34.5l-6.5-8.8s-15.1-11.6-29.8-8.4c-14.6 3.3-12.5-51.7 17.3-45.6z" fill="#13375b"/><path d="m2194.9 656.5c-.2 9.2 4 16.7 9.4 16.8 5.3.1 9.8-7.3 9.9-16.5.2-9.2-4-16.7-9.4-16.8-5.3-.1-9.7 7.3-9.9 16.5z" fill="#f7a491"/><path d="m2116.1 994.8-1 5.6c-.5 2.9-3.2 4.8-6.1 4.3l-116.1-20.1c-2.9-.5-4.8-3.2-4.3-6.1l1-5.6c.5-2.9 3.2-4.8 6.1-4.3l116.1 20.1c2.9.5 4.8 3.2 4.3 6.1z" fill="#13375b"/><path d="m2280.7 786c-13.6-.4-25.7 89.5-17 98.3 8.6 8.9 10.3 119.5 10.3 119.5l-128.5-3.2c-2.5-1.7-29.4-19.8-33.3-23.7-4-4.1-23.7-2.1-28.9 3.6s11.5 1 16.2 4.1c4.6 3.1-3.5 10.9-3.5 10.9s-32.6 4.7-38.9-2-23.3-18.1-25.6-11.4c-1.2 3.5 7.6 14 12.5 18.4-6.2-4.6-13.5-9.5-16-8.6-4.6 1.6-2.7 7.4-.2 9.2 2.5 1.7 28.4 21.5 32.4 22.9 3.9 1.4 64.1 2.8 74.5 5.1 0 0 169.5 38.6 179.1 36.2 8.5-2.1 16.9-56.4 16.9-97.9-.1-41.5-7.4-180.2-50-181.4z" fill="#f7a491"/><path d="m2263 765.5s23.7 5.5 48.2 33c22.3 25 36.3 165.2 36.3 165.2l-76.9 12.4-6.1-67.8-20.5-31z" fill="#67c081"/><path d="m1275.3 630.8s-62.9-16.2-70.4 50.8 26.6 77.3 8.1 109.7c-18.5 32.3-39.2 8.1-43.3 99.9-4 91.8 206.4 203.3 261.9 148.8 180.2-177.1-33.6-249.3-25-303.5 8.7-54.3-16.1-100.3-49-119.9-32.9-19.9-74.8-19.9-82.3 14.2z" fill="#13375b"/><path d="m1489 1769s-1.1 17.5 7.8 27.4 42 15.2 46.4 26.5-33.3 12-46 8.5-45.7-6.2-54-6.6 10.6-55.4 12.3-56.9c1.7-1.6 33.5 1.1 33.5 1.1z" fill="#ff7446"/><path d="m1295.8 1758.2s8.2 36.9 7.4 51.1-18.1 36.3-31.4 35.6-24.3-9.6-21.1-26.9 13.3-58.5 13.3-58.5z" fill="#ff7446"/><path d="m1197.1 1135.8s-8.5-280.8 4.8-294.1c5.3-5.3 49-19.7 78.8-24.6 44.6-7.3 79.6-4.2 79.6-4.2s45.5 54.5 45.5 74.7 2.9 250.4 2.9 250.4c35.2 13 89.7 246.1 93.7 306.2 4.1 60.1-4.7 339.5-4.7 339.5l-51.3-5.6c-28-43.9-40.6-275-48.8-303.7-11.3-39.7-64.3-161.2-64.3-161.2l-27.3-11.9s6.3 183.2 4 225.5c-2.3 42.2.3 246.8.3 246.8l-51.4-2.8c-40.2-72.2-69-405.2-68-422.6s-16.8-46-20.5-96c-2.9-39.6 26.7-116.4 26.7-116.4z" fill="#466eb6"/><path d="m1287 1128.6h91.2v9.7h-91.2z" fill="#fff" transform="matrix(-1 0 0 -1 2665.2346 2266.7979)"/><path d="m1324.4 1142.1h17.6c3.2 0 5.9-2.6 5.9-5.9v-4.2c0-3.2-2.6-5.9-5.9-5.9h-17.6c-3.2 0-5.9 2.6-5.9 5.9v4.2c0 3.3 2.6 5.9 5.9 5.9z" fill="#004289"/><path d="m1197.1 1135.8s-7.5-249.3 2.7-289.2c13.3-9 55.8-24.9 66.2-25.7-1.9 20.5 16.7 135.8 35.8 195 12 37.4 10.3 83.2 5.7 118.9-2.8 22.2-7.2 43.6-12.2 62.3-1.1.3-29.4 15.5-78.6 15.5-2.1-.1-20.5-1.3-41.6-4.6 7.9-35.7 22-72.2 22-72.2z" fill="#004289" opacity=".38"/><path d="m1348.2 1199.8c-1.1-3.5 7.3-44.1 9.9-65.1h.1c17.3-140.4 1.7-319.2 1.5-321.9 1 1 4 4.4 8 9.2 12.2 15.6 35.6 47.1 37.9 63.2 0 .5.1 1 .1 1.4v.4c0 2.5 0 7.6.1 14.6 0 1.4.1 2.8.2 4.2.6 59.2 2.8 232.2 2.8 232.2 11.4 4.2 24.7 31.4 37.8 68.2-42.5 2.6-95.4 3.4-98.4-6.4z" fill="#004289" opacity=".38"/><path d="m1147.3 1172.4c-.1 35.2 94.7 37.7 139.7 17.5l-4.9-152.6-15.5-217.4s-56.9 11.3-76.3 24.5c0 0-6.3 226-11.8 272-5.5 45.9-31.2 40-31.2 56z" fill="#e89f5d"/><path d="m1410.4 825.2s22.2 180 22.2 226.8c0 46.9 8.9 127.8 8.9 127.8s-48 18.4-81.4 10.1c0 0 31.8-180.5 31.8-192.3s-32.2-184.9-32.2-184.9 30.5 1.7 50.7 12.5z" fill="#e89f5d"/><path d="m1440.1 1781.5 62.2 4 .1-16-64.8-3.6z" fill="#271798"/><path d="m1252 1771.1 61.7 4.1.3-16-64.7-3.6z" fill="#271798"/><path d="m1446.7 1792.9c4.9 6.2 20.9 18.9 67.7 13.3 12.2 4.9 26 9.6 28.8 16.6 4.4 11.3-33.3 12-46 8.5s-45.7-6.2-54-6.6c-4.5-.2-.9-16.6 3.5-31.8z" fill="#184655"/><path d="m1303.2 1809.3c-.8 14.2-18.1 36.3-31.4 35.6s-24.3-9.6-21.1-26.9c1.1-5.8 3-14.4 5-23.1 1.7 10.8 6.7 29.2 20.9 22.8 15.4-6.9 22.2-22.9 24.9-29.1 1.1 7.9 1.9 15.7 1.7 20.7z" fill="#184655"/><path d="m1436 1120.9c-18-.9-40.9-2.1-63.4-3.2 1.3-7.8 2.7-15.8 4.1-23.9l57.6 3.1c.5 7.9 1.1 16.1 1.7 24z" fill="#001653" opacity=".18"/><path d="m1284.6 1113.7c-.1 0-.2 0-.3 0-14 0-68.4 14.9-88.2 14.9-7.6 0-13.8-2.2-18.7-4.9 0-.2.1-.3.1-.5.4-2.1.7-4.4 1-6.9.1-1.2.3-2.5.4-3.9.7-6.8 1.2-14.5 1.7-21.8h103.2z" fill="#001653" opacity=".18"/><path d="m1410 825.6s16.8 3.5 40.6 83.1c23.7 79.6 8 181.8-8.4 192.4s-175.5 6.7-175.5 6.7l-.6-57.3s120.5-18.8 132.4-33.5c2.9-3.6-2.1-19-1.1-36.5 3.1-53.8 12.6-154.9 12.6-154.9z" fill="#e89f5d"/><path d="m1404.1 1008.5s16.5-11.3 22.7-18.9 18.6-17.8 19.1-12.4c.6 5.4-5.1 13.2-5.1 13.2s22.5-15.7 25.5-13.3 5.9 19.3 3.9 37.9c-2.1 18.6-54.8 32.1-54.8 32.1z" fill="#dc7a63"/><path d="m1193.7 1116.7c57.4 9.6 178.5-33.1 227.6-48.5l-18.4-63.7s-144.6 40-163.6 31.5c-9.4-4.2-33.4-48.8-42.2-94.1-9-46.3-6.8-97.5-6.8-97.5s-41.6 54.4-29.8 169.4c8.9 87.8 7.9 98.6 33.2 102.9z" fill="#ffb265"/><path d="m1208.2 985.9s13.5 11.5 24.1 20.1 27.1 31.8 27.1 31.8-19.6 4.7-26.5 5.4-29.5-11.9-37.4-11.1-5.6-10.9 4.1-8.9c9.6 2 19.2 3 19.2 3s-22.6-14.8-33.2-23.5c-10.6-8.6-2-15.1 6.6-8.1s18 11 18 11-30.4-25.7-26-31.1 24 11.4 24 11.4z" fill="#dc7a63"/><path d="m1332.9 749.9s3.2 45.5 7.5 55.4c1.2 2.8 3.3 4.9 5.6 6.5 12 8-9.4 109.3-20.3 107-11.7-2.4-40.8-65.2-50.1-85.6-2.8-6-.3-13.3 5.8-16h.1c10.1-4.5 2.7-87.8 2.7-87.8z" fill="#f26e5a"/><path d="m1290.7 726.1s-2.4 1.3-2.1 4.9c.5 7 4.2 15.7 7.3 22 14.5 29 35.5 43 49.9 45-3.6-14.7-6.2-51.3-6.2-51.3z" fill="#f26e5a" opacity=".65"/><path d="m1282.4 693.6s7.4-32.8 32.1-42.6c24.6-9.7 47.2-2.4 55.7 29.7s-3.8 83.1-18.8 98.8-67.2-10.5-69-85.9z" fill="#fc7e72"/><path d="m1289.8 704s-12.3-19.1-19.9-8.1c-7.6 11.1-.9 37.5 13.5 38.8 14.2 1.5 6.4-30.7 6.4-30.7z" fill="#fc7e72"/><path d="m664.3 1753.9s-.1 1.4-.1 3.8c0 7.2 1.2 23 11.1 34.7 13.2 15.6 13.3 35-.7 38.3s-47.2-1.1-47.2-1.1-7.5-14.8-2.4-54.4 8.1-83.1 8.1-83.1l37.9-6.7z" fill="#ff7446"/><path d="m671.8 1770.7s14.1 21.7 17.4 30.7 2.6 31.5 0 33.8c-22.7 20.4-65.9 2-65.9 2s-3-14.9-4.5-33.3c-1.5-18.3-.7-35.4 4.5-35.4 5.1 0 6 9.6 17.7 6.9 11.6-2.6 18.8-7.4 30.8-4.7z" fill="#184655"/><path d="m619.7 1813.1c8.8 3.9 20.7 8.4 31.7 10.2 11.8 1.9 27.7-4.1 39.7-10 .6 9.6-.3 20.4-2 21.9-22.7 20.4-65.9 2-65.9 2s-2-10.2-3.5-24.1z" fill="#fff"/><path d="m773.8 1727.8c-4.9 17.6-.1 36.9 12.6 48.5 4.4 4 9.4 7.8 15.1 10.6 22.1 11 50.7 8.5 54.7 31s-140.1-6.3-140.1-6.3 10-54.7 10.6-63.9-.9-42.8-.9-42.8l55.6-4.5z" fill="#ff7446"/><path d="m721.9 1772.8s-1.8 8.7-5.8 23.4-1.5 28.6-1.5 28.6 134.9 7.3 140.4 2.4c5.5-4.8 2.7-22.5 1.3-24.1s-18.5-6.8-27.3-13c-8.8-6.1-38.8-29.4-48.9-28.5s-14.8 9.4-34.1 10.4c-19.2 1.1-19.3-3.5-24.1.8z" fill="#184655"/><path d="m855 1827.2c-5.5 4.8-140.4-2.4-140.4-2.4s-1.7-9.1-.1-20.4c70.4 14.8 141.8-1.3 141.8-1.3 1.4 1.6 4.2 19.3-1.3 24.1z" fill="#fff"/><path d="m714.5 1804.4c48.1 10.9 101.4 8.6 141.8-1.3-73.4 12.6-132.7 2.8-128.6 3.3-.2 0-14.1-2.1-13.2-2z" fill="#9cb9bd"/><path d="m608.6 1189.8 12.7 554.1 60.6-8.7s19.2-444.7 30.5-457.9c11.2-13.2 15.7.8 15.7.8s48.4 185 39.4 221.9-49.2 234.6-49.2 234.6l58.2 2.6s66.4-151.6 66.4-257-41-280.7-41-280.7z" fill="#466eb6"/><g fill="#004289"><path d="m716 1720.7h70v16.3h-70z" transform="matrix(-1 0 0 -1 1502.0513 3457.6592)"/><path d="m615.9 1723.3h70.7v20.6h-70.7z" transform="matrix(-1 0 0 -1 1302.5111 3467.2075)"/><path d="m634.3 1731.4c.1 0 .3 0 .4-.1 1-.3 1.6-1.4 1.4-2.5-11.2-58.7-11.9-440-11.9-443.8 0-1.2-.8-2.1-1.8-2.1s-1.8.9-1.8 2.1c0 15.7.7 385.6 12 444.7.1 1 .9 1.7 1.7 1.7z"/><path d="m728.2 1731.4c.7 0 1.4-.5 1.7-1.4 2.7-8.7 66.6-213.4 63-241.6-3.6-27.9-44.4-203.3-46.1-210.8-.3-1.1-1.2-1.8-2.2-1.5s-1.5 1.5-1.3 2.6c.4 1.8 42.5 182.7 46 210.3 3.5 27.2-62.2 237.4-62.8 239.5-.3 1.1.1 2.3 1.1 2.7.2.2.4.2.6.2z"/></g><path d="m791.1 801.7 84.7 111.7-99.8 36.4z" fill="#498457"/><path d="m570.8 765.7c12.9-12.9 42.8-22.3 62.3-27.4 11.2-2.9 22.9-3.6 34.4-2l43.9 6s57.1 36.7 78.5 58.1 40.8 155.4 40.8 155.4l-9.7 51.1 11.2 224.8c-4.9 0-152.2 18-234.1-6.5 0 0 0-119.9-2.3-192.7-9.7-55.5-42.1-249.8-25-266.8z" fill="#67c081"/><path d="m571.7 764.8c6.7-6.3 17.1-11.4 25.6-14.9s16.2-8.9 30.9 51.8-4 134.5 2.6 141c6.5 6.5 149.8-.9 149.8-.9s-83.7 48.2-124.6 83.3c-16.4 14.1-59.9 21.5-59.9 21-.1-4.8-.3-9.4-.4-13.8-4.6-26.7-43.8-249.1-24-267.5z" fill="#498457"/><path d="m933.2 892.7-72 136c-1.7 3.2-5.1 5.1-8.6 4.9l-85.5-5c-6.1-.4-10.2-6.6-8.1-12.4l44.1-124.1c1.2-3.5 4.4-5.9 8.1-6.1l113.4-6.8c7.2-.6 12 7.1 8.6 13.5z" fill="#f7cc7f"/><path d="m752.3 1015.4 44.7-123c1.3-3.5 4.5-5.9 8.2-6.1l4.4-.3c-2.6.9-4.7 3-5.6 5.6l-44.7 124.1c-1.9 5.3 1.3 11 6.6 12.2l-5.4-.3c-6.2-.3-10.3-6.4-8.2-12.2z" fill="#db9044"/><path d="m591.1 931.1 6.8 24.4s144.7-37.3 161.7-45.5c13.7-6.6 68.3-21.2 88.7-19.8 3.3.2 3.7 4.9.5 5.7-12.8 3.1-38.3 9.5-38.3 12.1 0 3.4 25.6 8.4 23.8 12.6-3.7 8.4-16.3 13.2-18.7 21.1-2.4 7.8-28.4 1.7-37.3 1.7s-174 100.2-223.9 76.4-19.7-129.2-19.7-129.2z" fill="#f99662"/><path d="m862.4 983.4c3.3-3.3 3.1-11.5 7-15.3 3.8-3.8 8 3.9 9-4.8s-5.1-22.1.8-21.4 14.1 25.1 14.1 25.1c4.3 10-14.9 47.2-25.1 44.7s-14.1-14.6-14.1-20.2 5-4.8 8.3-8.1z" fill="#f99662"/><path d="m711.4 742.3c.1 0 .1.1.2.1 0 0 .1 0 .1.1.1 0 .1.1.2.1 0 0 .1.1.1.1.1.1.2.1.3.2 0 0 .1.1.1.1.1.1.3.2.4.3h.1s.1 0 .1.1c0 0 .1 0 .1.1.1 0 .1.1.2.1 0 0 .1 0 .1.1.3.2.6.4.9.6.1 0 .1.1.2.1 5.4 3.5 17 11.2 29.9 20.3s5.3 21.5 2.8 35.2c-2.5 13.8-7.9 18.1-15.5 15s-22-23.4-25.3-22.3-25.4 28.9-36.1 24.6c-7.2-2.9-28.8-50.1-39.6-78.2.8-.2 1.5-.4 2.3-.6 11.2-2.9 22.9-3.6 34.4-2z" fill="#fff"/><path d="m734.4 707.5c-3.4 18-5.1 37.5-2 48.8 0 0-7.1 30.9-24.9 32.4s-51.4-53.1-51.4-53.1l37-58.1z" fill="#f99662"/><path d="m730.9 735.8c-21.3-3.7-41.3-20-46.8-44.3l9-14.2 41.3 30.1c-1.8 9.6-3.1 19.5-3.5 28.4z" fill="#f26e5a" opacity=".4"/><path d="m772.3 598.3s17.4 109.2-13.7 121.8-73.2-7.6-76.4-44.7c-3.2-37 4.8-112.5 90.1-77.1z" fill="#f99662"/><path d="m740.7 575.9s59.4-17.5 62.9-.2-16 30.2-29.7 31.4c-13.6 1.2-48.4-.6-59 11.9s-29.5 70.4-29.5 70.4l-10.7 16.8s-4.4-30.5-19.7-49.1c-15.4-18.6-6.7-50.7 8-72.7 14.8-22 64.3-7.3 77.7-8.5z" fill="#13375b"/><path d="m702.9 649.2s-5.6-15.3-14-13.1c-19 4.9-5.1 38.7 1.2 39.7 12.6 1.8 17.8-8.2 12.8-26.6z" fill="#f99662"/><path d="m624.4 812.5c.6 36.2-19 143.1-19 143.1s-76.1-1.5-82.2-7.6 13.5-167.4 47.1-190c40.1-27 53.5 19.6 54.1 54.5z" fill="#67c081"/><path d="m1887.9 422.5h291.6c27.8 0 50.3-22.5 50.3-50.3v-100.7c0-27.8-22.5-50.3-50.3-50.3h-291.6c-27.8 0-50.3 22.5-50.3 50.3v100.7c0 27.8 22.5 50.3 50.3 50.3z" fill="#4c78bc"/><path d="m2106.3 358.5 7.4 142.6-100.6-146z" fill="#4c78bc"/></svg>