<svg enable-background="new 0 0 3511.81 2000" viewBox="0 0 3511.81 2000" xmlns="http://www.w3.org/2000/svg"><path d="m360.97 1846.35c-178.48-143.3-191.73-254.55-80.66-398.33 85.39-110.54-296.28-443.12 20.42-808.88 316.7-365.77 1090.75-599.48 1837.79-276.05 473.9 205.17 693.33-179.15 1013.39 250 308.58 413.75 57.59 1027.25-231.79 1233.28-1109.26 0-2559.15-.02-2559.15-.02z" fill="#47b4b4" opacity=".21"/><path d="m2069.25 503.63v1302.31c0 20.41-16.71 37.11-37.14 37.11h-651.22c-20.42 0-37.12-16.7-37.12-37.11v-1302.31c0-20.42 16.69-37.13 37.12-37.13h651.22c20.42 0 37.14 16.71 37.14 37.13z" fill="#47b4b4"/><path d="m1812.82 518.61h-188.59c-4.04 0-7.34-3.3-7.34-7.34 0-4.04 3.3-7.34 7.34-7.34h188.59c4.04 0 7.34 3.3 7.34 7.34 0 4.04-3.31 7.34-7.34 7.34z" fill="#86e2df" opacity=".4"/><path d="m1590.74 518.61c-4.04 0-7.34-3.3-7.34-7.34 0-4.04 3.3-7.34 7.34-7.34 4.04 0 7.34 3.3 7.34 7.34-.01 4.04-3.31 7.34-7.34 7.34z" fill="#86e2df" opacity=".4"/><path d="m1762.81 1766.99c0 12.99-5.24 24.77-13.72 33.32-8.58 8.66-20.47 14.01-33.61 14.01-26.14 0-47.33-21.19-47.33-47.33 0-16.8 8.76-31.55 21.96-39.94 7.32-4.67 16.03-7.37 25.37-7.37 26.14 0 47.33 21.18 47.33 47.31z" fill="#47b4b4"/><path d="m1387.21 551.3h643.33v1145.11h-643.33z" fill="#dceaff"/><path d="m1749.09 1800.31c-8.58 8.66-20.47 14.01-33.61 14.01-26.14 0-47.33-21.19-47.33-47.33 0-16.8 8.76-31.55 21.96-39.94 4.65 20.15 18.4 53.85 58.98 73.26z" fill="#2f7573"/><path d="m3110.27 1851.34h-2889.81c-2.74 0-4.98-2.24-4.98-4.98 0-2.74 2.24-4.98 4.98-4.98h2889.81c2.74 0 4.98 2.24 4.98 4.98 0 2.74-2.24 4.98-4.98 4.98z" fill="#2e3552"/><path d="m1567.73 1527.53c0 16.88 13.68 30.56 30.56 30.56h348.45c19.48 0 35.28-15.79 35.28-35.28v-72.46c0-10.48-3.93-20.08-10.37-27.43l10.37-47.4-59.8 33.13h-322.21c-17.83 0-32.28 14.45-32.28 32.28z" fill="#fff"/><g fill="#ffb93e"><path d="m1916.72 1455.81-8.72 17.68-19.51 2.83 14.12 13.76-3.34 19.43 17.45-9.17 17.45 9.17-3.34-19.43 14.12-13.76-19.51-2.83z"/><path d="m1843.14 1455.81-8.73 17.68-19.5 2.83 14.11 13.76-3.33 19.43 17.45-9.17 17.44 9.17-3.33-19.43 14.12-13.76-19.51-2.83z"/><path d="m1769.55 1455.81-8.72 17.68-19.51 2.83 14.12 13.76-3.33 19.43 17.44-9.17 17.45 9.17-3.33-19.43 14.11-13.76-19.5-2.83z"/><path d="m1695.97 1455.81-8.73 17.68-19.5 2.83 14.11 13.76-3.33 19.43 17.45-9.17 17.45 9.17-3.34-19.43 14.12-13.76-19.51-2.83z"/><path d="m1622.38 1455.81-8.72 17.68-19.51 2.83 14.12 13.76-3.33 19.43 17.44-9.17 17.45 9.17-3.33-19.43 14.11-13.76-19.5-2.83z"/></g><path d="m1567.73 1011.94c0 16.88 13.68 30.56 30.56 30.56h348.45c19.48 0 35.28-15.79 35.28-35.28v-72.46c0-10.48-3.93-20.08-10.37-27.43l10.37-47.4-59.8 33.13h-322.21c-17.83 0-32.28 14.45-32.28 32.28z" fill="#fff"/><path d="m1916.72 940.22-8.72 17.68-19.51 2.83 14.12 13.76-3.34 19.43 17.45-9.17 17.45 9.17-3.34-19.43 14.12-13.76-19.51-2.83z" fill="#ffb93e"/><path d="m1843.14 940.22-8.73 17.68-19.5 2.83 14.11 13.76-3.33 19.43 17.45-9.17 17.44 9.17-3.33-19.43 14.12-13.76-19.51-2.83z" fill="#ffb93e"/><path d="m1769.55 940.22-8.72 17.68-19.51 2.83 14.12 13.76-3.33 19.43 17.44-9.17 17.45 9.17-3.33-19.43 14.11-13.76-19.5-2.83z" fill="#ffb93e"/><path d="m1695.97 940.22-8.73 17.68-19.5 2.83 14.11 13.76-3.33 19.43 17.45-9.17 17.45 9.17-3.34-19.43 14.12-13.76-19.51-2.83z" fill="#ffb93e"/><path d="m1622.38 940.22-8.72 17.68-19.51 2.83 14.12 13.76-3.33 19.43 17.44-9.17 17.45 9.17-3.33-19.43 14.11-13.76-19.5-2.83z" fill="#ffb93e"/><path d="m2512.18 864.7c0-.8 11.77-25.14 8.02-27.01-3.74-1.87-10.45-1.59-11.23 2.67-.78 4.27 3.21 24.34 3.21 24.34z" fill="#ffb27d"/><path d="m2687.86 562.24s69.01-82.93 105.55-29.87c0 0 27.26 11.31 37.12 57.7 10.06 47.34-21.42 83.32-37.7 74.42-10.44-5.7-18.34 12.56-18.34 12.56z" fill="#284166"/><path d="m2602.27 1003.53c-54.87-20.21-107.71-114.1-107.71-114.1l17.3-12.11c14.41 21.08 79.25 61.56 79.25 61.56 1.48-17.77 3.63-33.89 6.28-48.48 18-99.23 59.18-128.62 70.23-134.86 1.78-1.01 2.79-1.41 2.79-1.41s-.04.73-.12 2.11c-.16 2.99-.51 9-1.09 17.25-4.28 61.43-21.09 246.94-66.93 230.04z" fill="#ffb27d"/><path d="m2785.87 523.96s9.28-37.12 63.79-25.52c0 0-26.1-3.29-33.25 6.77 0 0 20.68-9.47 33.64-1.55 12.95 7.93 15.08 34.6 13.15 42.72s-16.24 32.28-25.71 32.28-20.68-8.31-20.68-8.31z" fill="#284166"/><path d="m2867.44 1104.85c-27.1-60.79-40.07-77.98-40.52-97.1-.36-15.12 7.1-31.44 21.58-71.46 3.41-9.43 5.76-19.13 7.21-28.93 11.46-77.14-33.15-160.54-60.88-166.22-7.71-2.04-20.79-29.9-20.63-74.8l-3.47.68-58.38 11.56s1.33 18.37 1.37 35.68c.04 14.42-.83 28.1-4.1 29.82-4.2.38-6.68.63-6.68.63s-48.68 67.6-52.77 130.48c-4.09 62.87 38.98 90.19-.32 215.84-40.14 128.33 232.56 47.41 217.59 13.82z" fill="#ffb27d"/><path d="m2712.35 678.59s1.33 18.37 1.37 35.68c32.67-.92 49.94-30.72 57.01-47.24z" fill="#e8945b"/><path d="m2776.76 660.67s17.12-27.05 21.23-50.18c2.93-16.51-5.48-77.73-66.99-68.91 0 0-17.87 1.76-34.66 13.1-13.36 9.02-32.63 28.49-11.08 81.91l5.6 18.04z" fill="#233862"/><path d="m2701.44 694.98s77.3 1.28 77.35-46.87 10.07-80.41-39.28-83.26-58.96 15.51-62.89 31.58c-3.92 16.06 4.72 96.98 24.82 98.55z" fill="#ffb27d"/><path d="m2704.3 563.67s21.16 56.49 53.64 64.84 46.57-.35 46.57-.35-24.91-19.79-30.08-54.34c0 0-54.16-37.04-70.13-10.15z" fill="#284166"/><path d="m2709.55 568.25s-15.81 12.61-19.66 24.87-5.59 37.5-12.94 36.64c0 0-15.94-38.39 1.98-60.11 18.99-23.03 30.62-1.4 30.62-1.4z" fill="#284166"/><path d="m2799 1688.15c-22.99 56.3-52.99 65.88-62.43-4.91-.51-56.17-7.45-122.56-29.65-185.94-76.27-217.82-63.94-376.35-63.94-376.35l143.42 16.77 6.68.78c.6 65.87 2.3 155.3 3.78 225.23 1.32 62.89 2.47 110.01 2.47 110.01 27.59 59.39 17.57 143.22-.33 214.41z" fill="#457f54"/><path d="m2967.97 1169.42-23.21 6.96s-76.55-127.01-83.51-160.05c-2.27-10.76-7.84-32.29-14.33-56.41-13.44-49.96-30.79-111.08-30.79-111.08l-5.71-24.74-19.48-84.39s37.31 3.81 59.13 12.94c7.23 3.01 12.74 6.61 14.67 10.84 16.03 35.25 32.04 124.22 43.29 187.68 6.27 35.37 11.05 62.83 13.55 68.64 6.95 16.22 28.22 105.53 46.39 149.61z" fill="#ffb27d"/><path d="m2881.29 1675.8c-17.03 48.16-56.53 72.41-76.41 18-7.77-70.12-18.42-144.32-30.47-166.96-47.83-89.82-62.23-428.88-62.23-428.88l145.42-7.21c14.62 24.59 21 64.91 22.51 110.76 3.83 115.72-23.38 266.61-27.44 288.43 0 .01 0 .03-.01.05-.32 1.69.17 3.35.96 4.87 28.91 57.28 33.1 122.8 27.67 180.94z" fill="#67c081"/><path d="m2706.61 570.16s15.08 59.15 56.06 78.1c0 0-40.98-36.34-44.46-75.39s-11.6-2.71-11.6-2.71z" fill="#233862"/><path d="m2885.67 1148.74c.25 4.9-.01 8.82-.9 11.62-3.09 9.74-13.72 14.17-39.41 11.51-15.7-1.63-22.7-27.95-25.82-50.39-9.43 32.12-22.63 50.14-39.7 53.93-24.91 5.54-150.53 20.81-158.75-38.91-9.05-65.68 18.04-181.98 19.53-244.69-3.69-22.24-4.96-41.53-4.56-58.11 1.05-44.67 14.16-69.71 24.24-79.79 2.85-2.19 5.71-3.56 17.17-5.53 5.86-1 13.97-2.15 25.48-3.66 0 0 4.69-.53 4.59-.36-2.13 3.8-30.58 46.88-28.36 57.96 2.32 11.6 103.23 1.15 110.19-5.22 6.96-6.38 17.97-55.23 17.97-55.23s35.73 3.9 53.21 16.62c0 0-.07.08-.19.22 2.11 1.51 3.69 3.12 4.59 4.84 18.65 35.5 37.27 125.11 50.37 189.02-31.74 17.49-59.48 12.29-68.09 9.98 11.25 73.61 36.77 152.65 38.44 186.19z" fill="#ffb265"/><path d="m2511.86 877.32c.01-2.39 2-36.91-4.15-44.17-6.15-7.25-18.69-17.57-22.64-17.25s-19.38 20.83-14.74 36.54c4.64 15.72 24.22 36.98 24.22 36.98 8-.93 13.8-4.93 17.31-12.1z" fill="#ffb27d"/><path d="m2293.92 826.75c9.03 14.89 26.02 21.1 37.94 13.87 11.93-7.23 14.27-25.17 5.24-40.06s-26.02-21.1-37.94-13.87c-11.92 7.24-14.27 25.17-5.24 40.06z" fill="#b5453c"/><path d="m2462.56 800.77 9.38-4.89c1.29-.67 1.8-2.27 1.12-3.57l-3.2-6.15c-.67-1.3-2.27-1.8-3.57-1.12l-9.38 4.89c-1.3.67-1.8 2.27-1.12 3.57l3.2 6.15c.68 1.29 2.28 1.8 3.57 1.12z" fill="#cf645b"/><path d="m2477.51 742.82c12.69 28.17 33.27 55.89 42.81 90.11 3.22 11.53-6.8 25.52-15.15 27.56-8.2 1.99-12.55-2.18-15.83-8.48-3.29-6.31-3.49-25.95-10.28-38.98s-33.62-26.36-42.72-43.83c-9.09-17.48 41.17-26.38 41.17-26.38z" fill="#b5453c"/><path d="m2473.25 754.41 10.63-5.54c11.04-5.75 15.34-19.37 9.58-30.41l-3.66-7.03c-5.75-11.04-19.37-15.34-30.41-9.58l-10.63 5.54c-11.05 5.75-15.34 19.37-9.58 30.41l3.66 7.03c5.74 11.04 19.36 15.33 30.41 9.58z" fill="#b5453c"/><path d="m2355.43 887.2c24.35-55.82 58.53-94.25 86.96-112.77l-26.98-48.48c-36.17 11.06-87.91 14.32-140.34 6.95z" fill="#b5453c"/><path d="m2358.37 893.38.43-.23c4.46-2.32 6.2-7.83 3.87-12.29-27.34-42.49-53.25-93.61-78.26-150.27-2.32-4.46-7.83-6.2-12.29-3.87l-.43.23c-4.46 2.32-6.2 7.83-3.87 12.29 24.94 58.71 50.96 109.28 78.26 150.27 2.32 4.46 7.82 6.19 12.29 3.87z" fill="#cf645b"/><path d="m2414.26 758.68c11.76 21.11 28.59 20.46 49.7 8.7s22.75-27.47 9.74-47.84c-14.1-22.08-27.17-17.41-48.29-5.65-21.11 11.75-22.91 23.67-11.15 44.79z" fill="#cf645b"/><path d="m2881.29 1675.8c-8.25 88.01-44.56 144.92-44.56 144.92l-12.4 11.29s-11.3-64.44-19.46-138.21c8.59.62 46.48 2 76.42-18z" fill="#ffb27d"/><path d="m2799 1688.15c-19.45 77.36-48.72 136.67-48.72 136.67l-25.49-1.77s12.5-59.47 11.78-139.81c8.65 4.35 26.5 8.78 62.43 4.91z" fill="#d9935c"/><path d="m2764.96 1846.19h-16.27c-5.45-.86-9.48-2.44-15.07-3.17-8.49-1.11-12.4 2.37-13.18 3.17-.1.1-.15.16-.15.16h-69.13c-1.74-2.48-.07-8.23 1.57-12.47 1.1-2.88 3.5-5.06 6.47-5.92 7.33-2.12 21.78-4.01 35.02-15.99 7.45-6.73 35.96-24.74 35.96-24.74l.15-.03c.63.01 3.61.93 16.57 11.88 6.7 5.65 18.13-7.98 18.13-7.98s2.15 1.77 3.75 5.08c1.29 2.61 2.23 6.19 1.48 10.61-1.03 6.23 2.3 17.8 4.95 25.63 1.61 4.74 2.97 8.11 2.97 8.11s.78 3.91-13.22 5.66z" fill="#2f7573"/><path d="m2768.77 1796.18c-3.89 2.74-12.09 8.13-17.53 8.84-7.34.96-21.07-17.78-21.07-17.78l.15-.03c.63.01 3.61.93 16.57 11.88 6.7 5.65 18.13-7.98 18.13-7.98s2.15 1.76 3.75 5.07z" fill="#214f4d"/><path d="m2764.96 1846.19h-16.27c-5.45-.86-9.48-2.44-15.07-3.17-8.49-1.11-12.4 2.37-13.18 3.17-.1.1-.15.16-.15.16h-69.13c-1.74-2.48-.07-8.23 1.57-12.47 2.1-1.87 2.69 8.11 3.85 9.7s56.39.58 59.58-1.74 12.76-6.38 26.1-3.19c11.61 2.77 28.72-4.34 32.95-6.23 1.61 4.74 2.97 8.11 2.97 8.11s.78 3.91-13.22 5.66z" fill="#214f4d"/><path d="m2851.8 1846.19h-16.27c-5.45-.86-9.48-2.44-15.07-3.17-8.49-1.11-12.4 2.37-13.18 3.17-.1.1-.15.16-.15.16h-69.13c-1.74-2.48-.07-8.23 1.57-12.47 1.1-2.88 3.5-5.06 6.47-5.92 7.33-2.12 21.78-4.01 35.02-15.99 7.45-6.73 35.96-24.74 35.96-24.74l.15-.03c.63.01 3.61.93 16.57 11.88 6.7 5.65 18.13-7.98 18.13-7.98s2.15 1.77 3.75 5.08c1.29 2.61 2.23 6.19 1.48 10.61-1.03 6.23 2.3 17.8 4.95 25.63 1.61 4.74 2.97 8.11 2.97 8.11s.77 3.91-13.22 5.66z" fill="#2f7573"/><path d="m2855.61 1796.18c-3.89 2.74-12.08 8.13-17.53 8.84-7.34.96-21.07-17.78-21.07-17.78l.15-.03c.63.01 3.61.93 16.57 11.88 6.7 5.65 18.13-7.98 18.13-7.98s2.15 1.76 3.75 5.07z" fill="#214f4d"/><path d="m2851.8 1846.19h-16.27c-5.45-.86-9.48-2.44-15.07-3.17-8.49-1.11-12.4 2.37-13.18 3.17-.1.1-.15.16-.15.16h-69.13c-1.74-2.48-.07-8.23 1.57-12.47 2.1-1.87 2.69 8.11 3.85 9.7s56.39.58 59.58-1.74 12.76-6.38 26.09-3.19c11.61 2.77 28.72-4.34 32.95-6.23 1.61 4.74 2.97 8.11 2.97 8.11s.78 3.91-13.21 5.66z" fill="#214f4d"/><path d="m2885.67 1148.74c-17.25-5.77-39.39-21.09-65.99-55.46-70.4-90.99-5.98-197.91 2.66-199.9 8.63-1.99 24.89 69.18 24.89 69.18 11.25 73.6 36.77 152.64 38.44 186.18z" fill="#ef7e29" opacity=".6"/><path d="m2664.61 751.87s-48.21 24.26-64.26 122.15c0 0 15.79 21.64 38.03 28.03 3.18.91 6.49 1.51 9.9 1.69 27.3 1.46 16.33-151.87 16.33-151.87z" fill="#ffb265"/><path d="m2480.83 819.2s15.46-23.58 19.1-22.3c5.2 1.82-13.51 30.91-13.51 30.91s13.86-21.74 16.03-20.1c4.93 3.72-2.92 17.38-10.71 27.85 0 0 13.94-12.76 14.39-10.46 1.59 8.05-21.68 37.93-21.68 37.93l-8.65-26.44z" fill="#ffb27d"/><path d="m2470.21 839.83c.72-2.8 4.36-57.55 5.91-52.35 1.56 5.19 5.26 33.9 5.26 33.9z" fill="#ffb27d"/><path d="m2716.54 666.4s-1.34 5.67-15.45 4.8c0 0-11.85-.73-11.49-6.97 0 0 11.49-4.44 26.94 2.17z" fill="#fff"/><path d="m2967.97 1169.42s27.99 18.61 32.27 26.46c4.28 7.84 14.26 36.73 14.26 36.73s-7.13 1.07-14.26-11.41-30.67-11.41-38.51-18.19c-7.85-6.78-16.97-26.63-16.97-26.63 3.89-6.7 12.28-8.28 23.21-6.96z" fill="#ffb27d"/><path d="m2947.81 1182.51s4.65 21.92 10.36 28.33c5.71 6.42 13.55 17.12 16.76 14.26 3.21-2.85-3.57-26.74-3.57-26.74z" fill="#ffb27d"/><path d="m2996.32 1198.37c.71 1.07 25.32 27.22 25.32 27.22s-8.91 4.04-11.41 0c-2.5-4.05-13.91-27.22-13.91-27.22z" fill="#ffb27d"/><path d="m1026.7 784.85c-5.4 15.76-9.4 26.65-19.97 31.16-11.98 5.11-16.98 12.33-16.98 12.33l-9.67-5.62-11.55-6.72s.27-1.28.84-3.37c.56-2.08 1.43-3.84 2.98-10.27s.45-21.44 2.96-28.15c2.29-6.12 7.28-18.65 9.51-18.26 5.4.93-.5 16.14 1.81 19.52 2.09 3.06 2.55 5.04 3.04 4.81.03-.02.06-.03.09-.05 15.16-6.66 23.17-35.52 31.31-30.67 3.04 1.83 8.82 25.99 5.63 35.29z" fill="#ffb27d"/><path d="m708.35 700.19s96.62 168.52 131.67 199.52l128.52-95.82s18.65 5.72 26.82 24.44c0 0-78.04 159.01-154.89 165.75-76.84 6.74-184.69-190.59-184.69-190.59z" fill="#245e5b"/><path d="m489.71 1846.35h-55.82c-7.03-3.82-13.29-12.55-15.27-25.58-2.73-17.99-22.88-27.79-27.25-42.5-4.35-14.7 17.98-35.4 17.98-35.4l3.74-4.82 3.89-5 37.05 8.72s.92 8.83 1.47 20.07c.4 8.11.62 17.48.16 25.7-1.09 19.61 5.48 40.74 22.91 44.55 12.9 2.82 12.32 10.47 11.14 14.26z" fill="#2f7573"/><path d="m813.69 1846.35h-127.67c-6.14-7.49-3.88-35.14-2.95-44.17.19-1.82.32-2.88.32-2.88s43.6-34.87 49.58-8.17c.18.84.4 1.66.65 2.46 7.54 24.97 41.38 36.32 60.92 39.48 12.71 2.07 17.41 8.68 19.15 13.28z" fill="#2f7573"/><path d="m789.36 1133.75s-6.62 82.59-14.4 181.87c-10.58 134.86-23.29 300.51-24.55 331.9-2.17 54.49-10.9 141.66-10.9 141.66s-20.69 20.71-62.11 11.98c0 0-36.91-124.43-47.45-256.09-.16-2.16-.33-4.33-.49-6.51-9.81-134.03-25.06-416.25-25.06-416.25z" fill="#67c081"/><path d="m789.36 1133.75s-6.62 82.59-14.4 181.87l-145.01 229.45c-.16-2.16-.33-4.33-.49-6.51-9.81-134.03-25.06-416.25-25.06-416.25z" fill="#457f54"/><path d="m759.13 1143.55s-119.32 299.11-197.77 439.67c-78.46 140.56-102.97 179.79-102.97 179.79s-44.95-17.98-49.03-30.24c0 0 30-271.37 82.54-337.52 29.69-37.38 64.56-149.55 66.2-188.78 1.63-39.23 10.62-116.86 10.62-116.86z" fill="#67c081"/><path d="m729.43 707.52c-46.62 14.71-127.3-24.99-127.3-24.99s42.99-32.26 40.74-99.35l36.05 29.05 24.49 19.73s-.1 11.63-2.78 32.02c-.71 5.36-1.58 11.34-2.7 17.87 20.02 10.99 31.5 25.67 31.5 25.67z" fill="#ffb27d"/><path d="m703.41 631.96s-.1 11.63-2.78 32.02c-27.13-4.66-57.91-48.51-57.91-48.51 13.81-3.99 25.91-4.71 36.2-3.24z" fill="#ed975d"/><path d="m717.66 630.86s-77.01 12.79-84.24-35.29-22.04-78.82 26.83-89.02 61.2 6.71 67.52 22.17c6.31 15.46 9.74 97.57-10.11 102.14z" fill="#ffb27d"/><path d="m794.51 1140.63c-1.4 1.16-3.03 1.87-4.9 1.87-17.51-.24-68.57 9.49-111.77 5.05-36.42-3.5-68.66-14.29-103.27-29.8-4.6-2.06-15.18-7.71-14.94-12.85.15-5.63.71-13.79 1.41-24.06 2.45-35.73 6.72-97.19 2.56-168.1-.75-13.2-1.14-26.3-1.19-39.19-.36-96.1 18.7-180.62 56.99-209.23 3.27-2.34 23.35 7.47 41.8 16.57 17.04 8.41 34.09 9.34 50.2 6.08l16.11 14.24c19.61 18.21 41.1 42.96 50.43 80.55 7.95 31.98 12.61 89.66 15.18 149.43 1.17 27.08 2.11 54.4 2.34 80.32v.93c.23 2.57.23 5.38.23 7.95.92 66.53-.02 119.3-1.18 120.24z" fill="#318482"/><path d="m561.04 1080.83c2.45-35.73 6.72-97.19 2.56-168.1-.75-13.2-1.14-26.3-1.19-39.19 15.95-38.69 28.99-66.75 28.99-66.75h40.2s29.47 201.33-70.56 274.04z" fill="#245e5b"/><path d="m485.49 1087.75s-9.01 11.99-9.36 16.79c-1.36 18.27-1.25 34.96-2.9 40.4-3.88 12.81-6.68 26.9-12.68 29.23s-20.09-24.75-20.55-30.61c-1.45-18.39 2.7-34.78 15.22-50.99l7.71-16.54z" fill="#ffb27d"/><path d="m462.59 1096.94c14.48 2.82 30.17 1.68 30.17 1.68s42.98-132.77 48.51-144.9 127.67-155.68 127.67-155.68l-50.88-127.33s-132.1 220.66-145.51 251.67c-22.16 51.23-29.86 166.11-29.86 166.11s8.53 6.24 19.9 8.45z" fill="#318482"/><path d="m633.36 590.94s7.9-1.32 6.63-12.21-1.26-25.11 7.59-22.46 9.29 9.74 12.93 5.6 3.7-21.57 30.04-22.79c26.34-1.21 37.04 7.95 49.28 2.57 12.25-5.38 12.89-23.92 12.89-23.92s-3.48 6.62-8.74 8.72c0 0 20.43-27.94-3.22-47.11-23.65-19.16-47.77-6.62-61.46-5.79-30.16 1.83-49.64 3.64-59.5 23.45-9.86 19.83-5.8 74.86 13.56 93.94z" fill="#284166"/><path d="m471.28 1102.04s8.67 9.04 9.22 12.8c1.76 12.07 5.79 17.29 3.77 18.6-4.2 2.73-9.76-6.21-12.41-14.23-2.66-8.02-.58-17.17-.58-17.17z" fill="#ffb27d"/><path d="m1158.4 664.49c4.06 16.94-3.64 33.3-17.21 36.55-13.56 3.25-27.85-7.84-31.91-24.78s3.64-33.3 17.21-36.55 27.86 7.84 31.91 24.78z" fill="#b5453c"/><path d="m1020.28 764.66-10.1 3.13c-1.4.43-2.88-.35-3.31-1.74l-2.05-6.62c-.43-1.39.35-2.88 1.74-3.31l10.1-3.13c1.4-.43 2.88.35 3.31 1.74l2.05 6.62c.43 1.4-.35 2.88-1.74 3.31z" fill="#cf645b"/><path d="m968.88 733.99c17.39 30.46 16.26 42.1 29.2 77.97 8.64 23.94 29.01 28.84 39.23 22.49 5.09-3.16 2.54-13.45-.98-18.24-4.21-5.73-14.83-17.19-19.17-31.23-4.35-14.04 5.35-42.39-.48-61.2-5.81-18.82-47.8 10.21-47.8 10.21z" fill="#b5453c"/><path d="m980.07 739.23-11.46 3.55c-11.9 3.68-24.52-2.98-28.21-14.87l-2.34-7.57c-3.68-11.9 2.98-24.53 14.87-28.21l11.46-3.55c11.9-3.68 24.53 2.98 28.21 14.87l2.34 7.57c3.68 11.89-2.98 24.52-14.87 28.21z" fill="#b5453c"/><path d="m1157.22 750.71c-44.1-15.25-97.64-23.91-141.14-18.97l-14.94-53.44c35.76-9.41 74.87-43.35 104.63-93.79z" fill="#b5453c"/><path d="m1159.48 757.17-.47.15c-4.81 1.49-9.91-1.2-11.4-6.01-10.46-49.43-28.01-103.99-50.1-161.85-1.49-4.81 1.2-9.91 6.01-11.4l.47-.14c4.81-1.49 9.91 1.2 11.4 6.01 23.58 59.27 40.67 113.51 50.1 161.85 1.49 4.8-1.21 9.91-6.01 11.39z" fill="#cf645b"/><path d="m1024.99 700.76c6.49 23.28-5.92 34.65-29.2 41.14s-35.49-3.52-40.58-27.15c-5.51-25.61 7.06-31.49 30.34-37.98s32.94.72 39.44 23.99z" fill="#cf645b"/><path d="m1008.56 767.91c.02-5.91 8.28-18.56 9.58-18.71 4.03 1.77 6.51 20.22 5.44 29.87s-.94 15.28-6.97 6.79c-4.3-6.04-8.06-15.25-8.05-17.95z" fill="#ffb27d"/><path d="m980.19 779.82c-2.15-7.84-.03-16.98.7-18.81.72-1.84 3.64-7.3 4.38-6.91 1.52.79 2.42 3.81 1.65 9.06-2.03 13.94 4.86 20 3.2 33.13-6.92 2.24-9.93-16.47-9.93-16.47z" fill="#ffb27d"/><path d="m1864.97 1268.58c0 17.74-14.38 32.12-32.12 32.12h-366.19c-20.47 0-37.07-16.6-37.07-37.07v-76.15c0-11.01 4.13-21.1 10.9-28.82l-10.9-49.82 62.85 34.82h338.62c18.73 0 33.92 15.19 33.92 33.92v91z" fill="#fff"/><path d="m1497.6 1188.47 9.16 18.58 20.5 2.98-14.83 14.45 3.5 20.42-18.33-9.64-18.34 9.64 3.5-20.42-14.83-14.45 20.5-2.98z" fill="#ffb93e"/><path d="m1574.93 1188.47 9.16 18.58 20.5 2.98-14.83 14.45 3.5 20.42-18.33-9.64-18.34 9.64 3.5-20.42-14.83-14.45 20.5-2.98z" fill="#ffb93e"/><path d="m1652.26 1188.47 9.16 18.58 20.5 2.98-14.83 14.45 3.5 20.42-18.33-9.64-18.34 9.64 3.5-20.42-14.83-14.45 20.5-2.98z" fill="#ffb93e"/><path d="m1729.59 1188.47 9.16 18.58 20.5 2.98-14.83 14.45 3.5 20.42-18.33-9.64-18.34 9.64 3.5-20.42-14.83-14.45 20.5-2.98z" fill="#cfcfcf"/><path d="m1806.92 1188.47 9.16 18.58 20.5 2.98-14.83 14.45 3.5 20.42-18.33-9.64-18.34 9.64 3.5-20.42-14.83-14.45 20.5-2.98z" fill="#cfcfcf"/><path d="m1864.97 784.46c0 17.74-14.38 32.12-32.12 32.12h-366.19c-20.47 0-37.07-16.6-37.07-37.07v-76.15c0-11.01 4.13-21.1 10.9-28.82l-10.9-49.82 62.85 34.82h338.62c18.73 0 33.92 15.19 33.92 33.92v91z" fill="#fff"/><path d="m1497.6 704.35 9.16 18.58 20.5 2.98-14.83 14.46 3.5 20.41-18.33-9.64-18.34 9.64 3.5-20.41-14.83-14.46 20.5-2.98z" fill="#ffb93e"/><path d="m1574.93 704.35 9.16 18.58 20.5 2.98-14.83 14.46 3.5 20.41-18.33-9.64-18.34 9.64 3.5-20.41-14.83-14.46 20.5-2.98z" fill="#ffb93e"/><path d="m1652.26 704.35 9.16 18.58 20.5 2.98-14.83 14.46 3.5 20.41-18.33-9.64-18.34 9.64 3.5-20.41-14.83-14.46 20.5-2.98z" fill="#ffb93e"/><path d="m1729.59 704.35 9.16 18.58 20.5 2.98-14.83 14.46 3.5 20.41-18.33-9.64-18.34 9.64 3.5-20.41-14.83-14.46 20.5-2.98z" fill="#cfcfcf"/><path d="m1806.92 704.35 9.16 18.58 20.5 2.98-14.83 14.46 3.5 20.41-18.33-9.64-18.34 9.64 3.5-20.41-14.83-14.46 20.5-2.98z" fill="#cfcfcf"/></svg>