<svg enable-background="new 0 0 973.28 1080" viewBox="0 0 973.28 1080" xmlns="http://www.w3.org/2000/svg"><path d="m.18 418.71c2.57-5.29 4.79-10.79 7.78-15.83 10.78-18.15 28.12-23.9 47.96-25.64 87.14-7.62 174.25-15.61 261.4-23.15 7.65-.66 11.43-3.74 14.36-10.67 34.72-81.91 69.84-163.64 104.61-245.53 9.45-22.26 25.28-35.6 49.78-35.47 24.09.13 39.67 13.43 48.97 35.29 34.56 81.29 69.54 162.4 103.84 243.8 3.76 8.92 8.48 11.99 17.84 12.8 89.34 7.79 178.65 15.96 267.94 24.32 22.45 2.1 37.48 14.92 44.09 36.1 6.53 20.93.75 39.61-15.63 54.08-56.6 50-113.49 99.67-170.27 149.47-11.88 10.42-23.65 20.97-35.7 31.18-4.03 3.42-5.26 6.43-3.97 12.05 20.21 87.93 40.05 175.94 60.02 263.93 5.41 23.84-1.27 44.92-19.2 57.27-19.84 13.67-40 12.7-60.39.47-76.61-45.98-153.37-91.71-229.9-137.81-6.04-3.64-10.25-3.39-16.11.13-76.84 46.19-153.78 92.23-230.82 138.1-31.93 19.01-68.77 5.59-78.75-28.26-2.85-9.67-2.42-19.3-.21-29 19.84-87.04 39.53-174.11 59.68-261.08 1.9-8.19.27-12.92-6.05-18.42-66.73-58.08-133.06-116.65-199.81-174.73-10.41-9.06-16.9-19.98-21.46-32.54 0-6.95 0-13.9 0-20.86z" fill="#fdc113"/></svg>