<svg width="63" height="60" viewBox="0 0 63 60" fill="none" xmlns="http://www.w3.org/2000/svg">
<path opacity="0.35" d="M28.0629 7.50298C29.4866 4.61846 33.6001 4.61934 35.0225 7.50448L40.2383 18.0843C40.8033 19.2301 41.896 20.0245 43.1603 20.2083L54.8361 21.9055C58.0188 22.3682 59.2893 26.2798 56.9857 28.5243L48.5422 36.7515C47.6274 37.6428 47.2099 38.9272 47.4256 40.186L49.4196 51.8191C49.9629 54.9889 46.6356 57.4056 43.7892 55.9087L33.3498 50.4185C32.2194 49.824 30.8689 49.8239 29.7384 50.4181L19.2878 55.9113C16.4414 57.4074 13.1149 54.9906 13.6582 51.8213L15.6524 40.186C15.8682 38.9272 15.4507 37.6428 14.5359 36.7515L6.09234 28.5243C3.78882 26.2798 5.05923 22.3682 8.24198 21.9055L19.9188 20.2081C21.1825 20.0244 22.2749 19.2307 22.8401 18.0856L28.0629 7.50298Z" fill="#FFB93E"/>
<mask id="mask0_1457_1207" style="mask-type:alpha" maskUnits="userSpaceOnUse" x="4" y="5" width="55" height="52">
<path d="M28.0629 7.50298C29.4866 4.61846 33.6001 4.61934 35.0225 7.50448L40.2383 18.0843C40.8033 19.2301 41.896 20.0245 43.1603 20.2083L54.8361 21.9055C58.0188 22.3682 59.2893 26.2798 56.9857 28.5243L48.5422 36.7515C47.6274 37.6428 47.2099 38.9272 47.4256 40.186L49.4196 51.8191C49.9629 54.9889 46.6356 57.4056 43.7892 55.9087L33.3498 50.4185C32.2194 49.824 30.8689 49.8239 29.7384 50.4181L19.2878 55.9113C16.4414 57.4074 13.1149 54.9906 13.6582 51.8213L15.6524 40.186C15.8682 38.9272 15.4507 37.6428 14.5359 36.7515L6.09234 28.5243C3.78882 26.2798 5.05923 22.3682 8.24198 21.9055L19.9188 20.2081C21.1825 20.0244 22.2749 19.2307 22.8401 18.0856L28.0629 7.50298Z" fill="#FFB93E"/>
</mask>
<g mask="url(#mask0_1457_1207)">
<path d="M31.4999 55.5V0.5L31 1C28.3333 4.16667 22 11.3 18 14.5C13 18.5 13.5 13 11.9999 13C10.4999 13 5.49995 16.5 1.49995 18.5C-2.50005 20.5 1.49995 25 1.49995 28C1.49995 31 10.4999 35.5 10.4999 36.5C10.4999 37.5 8.99995 47 8.99995 48.5C8.99995 50 11.4999 60.5 11.9999 62C12.3999 63.2 25.1666 58.1667 31.4999 55.5Z" fill="#FFB93E"/>
</g>
</svg>
