<svg width="55" height="52" viewBox="0 0 55 52" fill="none" xmlns="http://www.w3.org/2000/svg">
<path opacity="0.35" d="M24.0629 2.50298C25.4866 -0.381541 29.6001 -0.380656 31.0225 2.50448L36.2383 13.0843C36.8033 14.2301 37.896 15.0245 39.1603 15.2083L50.8361 16.9055C54.0188 17.3682 55.2893 21.2798 52.9857 23.5243L44.5422 31.7515C43.6274 32.6428 43.2099 33.9272 43.4256 35.186L45.4196 46.8191C45.9629 49.9889 42.6356 52.4056 39.7892 50.9087L29.3498 45.4185C28.2194 44.824 26.8689 44.8239 25.7384 45.4181L15.2878 50.9113C12.4414 52.4074 9.11492 49.9906 9.65816 46.8213L11.6524 35.186C11.8682 33.9272 11.4507 32.6428 10.5359 31.7515L2.09234 23.5243C-0.211179 21.2798 1.05923 17.3682 4.24198 16.9055L15.9188 15.2081C17.1825 15.0244 18.2749 14.2307 18.8401 13.0856L24.0629 2.50298Z" fill="#FFB93E"/>
</svg>
