<svg enable-background="new 0 0 3710 3710" viewBox="0 0 3710 3710" xmlns="http://www.w3.org/2000/svg" xmlns:xlink="http://www.w3.org/1999/xlink"><linearGradient id="a"><stop offset="0" stop-color="#09005d"/><stop offset="1" stop-color="#1a0f91"/></linearGradient><linearGradient id="b" gradientUnits="userSpaceOnUse" x1="2111.1497" x2="2080.6511" xlink:href="#a" y1="2979.0049" y2="2375.1431"/><linearGradient id="c" gradientUnits="userSpaceOnUse" x1="2136.0398" x2="1951.7654" y1="311.2406" y2="2689.4404"><stop offset="0" stop-color="#53d8ff"/><stop offset="1" stop-color="#3840f7"/></linearGradient><linearGradient id="d" gradientUnits="userSpaceOnUse" x1="2113.0476" x2="1832.465" xlink:href="#a" y1="2751.1436" y2="3367.2053"/><linearGradient id="e"><stop offset="0" stop-color="#febbba"/><stop offset="1" stop-color="#ff928e"/></linearGradient><linearGradient id="f" gradientTransform="matrix(-1 0 0 1 19947.5723 0)" gradientUnits="userSpaceOnUse" x1="18805.4805" x2="18461.8574" xlink:href="#e" y1="2766.7334" y2="2962.8687"/><linearGradient id="g" gradientTransform="matrix(-1 0 0 1 19947.5723 0)" gradientUnits="userSpaceOnUse" x1="18772.2402" x2="19947.9473" xlink:href="#e" y1="2815.6479" y2="2079.6372"/><linearGradient id="h" gradientUnits="userSpaceOnUse" x1="1743.9346" x2="2086.2334" xlink:href="#e" y1="2653.679" y2="2653.679"/><linearGradient id="i" gradientTransform="matrix(.9974 -.0717 .0717 .9974 13216.9805 105.0094)" gradientUnits="userSpaceOnUse" x1="-11753.7969" x2="-11737.0645" xlink:href="#e" y1="1546.3411" y2="1423.9266"/><linearGradient id="j" gradientTransform="matrix(.5458 -.8379 .8379 .5458 10797.9961 -4320.769)" gradientUnits="userSpaceOnUse" x1="-10631.0605" x2="-10473.5098" xlink:href="#e" y1="-4033.0537" y2="-4313.4419"/><linearGradient id="k" gradientTransform="matrix(.5458 -.8379 .8379 .5458 10797.9961 -4320.769)" gradientUnits="userSpaceOnUse" x1="-10597.5234" x2="-10439.9727" xlink:href="#e" y1="-4014.2119" y2="-4294.5981"/><path d="m2914.3 2836.1c-56.9 60-110.8 98.6-153.4 129.2-500.4 359.1-1092.6 254.4-1218.4 228.8-185.8-37.7-545.1-110.7-804.8-416.1-392.9-462.1-331.7-1190-27-1670.6 55.7-87.9 350.2-575.8 948.8-654 362.2-47.3 784.5 48.1 1090.2 304.3 641.9 537.7 596.2 1624.1 164.6 2078.4z" fill="#49b3b3" opacity=".21"/><path d="m1856.3 2293.5-50.7 454.3h587.7l-76.5-454.3z" fill="url(#b)"/><path d="m833.7 1141.7v1070.6c0 88.1 70.2 160.1 158.2 162.4 391 10.1 1758.7 34.5 2131 29 64-.9 115.8-52.1 117.7-116.1 7.2-248.7 18.8-846.8-24.3-1124.5-9.1-58.5-58.4-102.2-117.6-104.1-327.6-10.5-1777.5-43.8-2149.6-35.4-64.2 1.5-115.4 53.9-115.4 118.1z" fill="#005957"/><path d="m900.9 1136.5v1017.2c0 51.4 41.3 93.3 92.7 94.1l2075.8 25.6c51 .8 92.8-40.2 92.9-91.2l3.5-1008.1c.1-36.5-28.9-66.3-65.3-67.2l-2125.3-42.9c-40.8-1-74.3 31.7-74.3 72.5z" fill="url(#c)"/><path d="m3177.9 2315.6-2277.1-38.8c-1.8 0-3.3-1.6-3.3-3.4s1.5-3.3 3.4-3.3l2277.1 38.8c1.8 0 3.3 1.6 3.3 3.4-.1 1.8-1.6 3.3-3.4 3.3z" fill="#51af65"/><path d="m2519.9 2840.7h-860.1c-23.4 0-40.9-16.6-36.4-34.5l11-43.6c3.3-13.1 17.8-22.8 34.9-23.3l829.2-25.9c17.9-.6 33.8 9 37.7 22.6l19.9 69.5c5.2 18.1-12.5 35.2-36.2 35.2z" fill="url(#d)"/><path d="m900.9 1136.5v1017.2c0 51.4 41.3 93.3 92.7 94.1l2075.8 25.6c51 .8 92.8-40.2 92.9-91.2l3.5-1008.1c.1-36.5-28.9-66.3-65.3-67.2l-2125.3-42.9c-40.8-1-74.3 31.7-74.3 72.5z" fill="#49b3b3"/><path d="m3165.3 1292 .4-118.1c.1-36.5-28.9-66.2-65.3-67.1l-2124.7-42.9c-40.8-1-73.8 31.8-73.8 72.6v155.5z" fill="#ffb265"/><ellipse cx="1037.5" cy="1202.3" fill="#51af65" rx="24.3" ry="24.3" transform="matrix(.2298 -.9732 .9732 .2298 -370.9598 1935.8295)"/><ellipse cx="1121.8" cy="1202.3" fill="#51af65" rx="24.3" ry="24.3" transform="matrix(.2298 -.9732 .9732 .2298 -306.0233 2017.8804)"/><ellipse cx="1203.5" cy="1202.3" fill="#51af65" rx="24.3" ry="24.3" transform="matrix(.1602 -.9871 .9871 .1602 -175.9945 2197.7009)"/><path d="m3039.2 2217.8-1995.3-28.8c-30.3-.4-54.7-25.1-54.7-55.5v-199.7c0-28.2 23-51 51.3-50.7l2000 22.7c23 .3 41.4 19 41.4 41.9v227.9c.1 23.6-19.2 42.5-42.7 42.2z" fill="#8afff9" opacity=".39"/><path d="m2320.9 1858.2-1275.5-18.3c-31.1-.4-56.2-25.8-56.2-57v-394.9c0-22.3 18.1-40.4 40.4-40.4h1282.8c25.6 0 46.4 20.8 46.4 46.4v426.9c0 20.8-17.1 37.6-37.9 37.3z" fill="#8afff9" opacity=".39"/><path d="m3039.8 1858.7h-607.7c-21.5 0-38.9-17.4-38.9-38.9v-423.8c0-26.7 21.7-48.4 48.4-48.4h611c16.1 0 29.2 13.1 29.2 29.2v439.8c.2 23.3-18.7 42.1-42 42.1z" fill="#8afff9" opacity=".39"/><path d="m595.4 2805.1c0 16.2 13.2 29.4 29.4 29.4h1591.7c16.2 0 29.4-13.2 29.4-29.4l13.2-914.7c0-16.2-19.1-47.7-54-45.4l-1555.6-40.2c-20.3-.5-40 7.3-54.3 21.6-14.4 14.3-22.3 33.9-21.8 54.2z" fill="#005957"/><path d="m624.4 2776.9c0 15.3 12.5 27.8 27.8 27.8h1525.8c15.3 0 27.8-12.5 27.8-27.8l12.5-830.4c-1.5-50-45.3-67.9-71.8-66.9l-1490.9-40c-14.3-.4-28.1 5.1-38.2 15.2s-15.7 23.9-15.3 38.1z" fill="#49b3b3"/><path d="m471.9 2910.5h1865.2c3.1 0 5.7-2.5 5.7-5.7v-69.1c0-3.1-2.5-5.7-5.7-5.7h-1865.2c-3.1 0-5.7 2.5-5.7 5.7v69.1c0 3.1 2.6 5.7 5.7 5.7z" fill="#005957"/><path d="m2217.2 2030.3 1.2-83.2c-1.5-50-45.3-68.2-71.8-67.1l-1490.9-40.1c-14.3-.4-28.1 5-38.2 15.1s-15.7 24.4-15.3 38.7l3.4 136.7h1611.6z" fill="#ffb265"/><path d="m2189.5 2382.5c-2.3 0-4.1-1.9-4.1-4.1l1-67.3c0-2.2 1.9-4 4.1-4 2.3 0 4.1 1.9 4 4.1l-1 67.3c0 2.2-1.8 4-4 4z" fill="#fff"/><path d="m2191.9 2217.4c-2.3 0-4.1-1.9-4.1-4.1l3.8-257.9c-.1-15.3-4.7-27.6-13.8-36.3-17-16.3-44-15.4-45.1-15.4l-476.5-12.8c-2.3-.1-4-1.9-4-4.2.1-2.3 1.8-4.2 4.2-4l476.2 12.8c3-.2 31.7-.7 50.8 17.7 10.8 10.3 16.3 24.5 16.3 42.2l-3.8 258c0 2.2-1.8 4-4 4z" fill="#51af65"/><path d="m1543.2 2453.3h-835.7c-20.8 0-37.6-16.8-37.6-37.6v-307.2c0-20.8 16.8-37.6 37.6-37.6h835.7c20.8 0 37.6 16.8 37.6 37.6v307.2c0 20.8-16.8 37.6-37.6 37.6z" fill="#8afff9" opacity=".39"/><path d="m2146.1 2453.3h-490.8c-14.9 0-27-12.1-27-27v-328.5c0-14.9 12.1-27 27-27h490.8c14.9 0 27 12.1 27 27v328.5c-.1 15-12.1 27-27 27z" fill="#8afff9" opacity=".39"/><path d="m2139.9 2768.6h-1436.9c-18.3 0-33.1-14.8-33.1-33.1v-193.3c0-18.3 14.8-33.1 33.1-33.1h1436.9c18.3 0 33.1 14.8 33.1 33.1v193.3c0 18.2-14.8 33.1-33.1 33.1z" fill="#8afff9" opacity=".39"/><ellipse cx="681.6" cy="1932.4" fill="#51af65" rx="19.1" ry="19.1" transform="matrix(.1602 -.9871 .9871 .1602 -1334.9823 2295.6462)"/><ellipse cx="745.4" cy="1934.2" fill="#51af65" rx="19.1" ry="19.1" transform="matrix(.7071 -.7071 .7071 .7071 -1149.3612 1093.6174)"/><ellipse cx="805" cy="1937.8" fill="#51af65" rx="19.1" ry="19.1" transform="matrix(.7071 -.7071 .7071 .7071 -1134.4221 1136.7745)"/><ellipse cx="2159.6" cy="1338.8" fill="#fff" rx="262.8" ry="266.1"/><path d="m2150.4 1482.2c-11.4 0-22-6-27.9-16l-98.9-166.7c-9.3-15.6-4.3-35.8 11.1-45.2s35.4-4.3 44.6 11.3l68.6 115.7 90.7-180.5c8.2-16.2 27.7-22.7 43.7-14.4s22.4 28.1 14.2 44.3l-117.4 233.4c-5.4 10.7-16 17.6-27.8 18-.2.1-.6.1-.9.1z" fill="#67c081"/><ellipse cx="979.7" cy="2360.1" fill="#fff" rx="262.8" ry="266.1"/><path d="m970.4 2503.5c-11.4 0-22-6-27.9-16l-98.9-166.7c-9.3-15.6-4.3-35.8 11.1-45.2s35.4-4.3 44.6 11.3l68.6 115.7 90.7-180.5c8.2-16.2 27.7-22.7 43.7-14.4s22.4 28.1 14.2 44.3l-117.4 233.4c-5.4 10.7-16 17.6-27.8 18-.1 0-.5.1-.9.1z" fill="#67c081"/><path d="m924.6 1093.5c33.9-65.8 96.9-112.2 170.1-120.5l5-316.9c0-2.7-2.2-4.9-4.9-4.9-206.5 2.2-388.7 130.8-473.7 321.1-1.2 2.8.1 6 3 7.1z" fill="#67c081"/><path d="m1332.6 1245.3c-4.2-.1-8 2.6-9.3 6.6-3.5 11.3-10 33.1-11.1 35.8-5.2 13.4-11.2 26.4-18.3 38.9-13.1 23.1-29.9 44.3-50.7 61.1-52.5 42.5-128 50.4-191 29.4-1.8-.6-3.6-1.2-5.3-1.9-3.3-1.2-7 .1-8.6 3.2l-158.8 289.6c77.1 38.7 149.7 48.8 240.7 42.9 264.5-17 472.2-231.7 495.3-498z" fill="#498457"/><path d="m1332.6 1245.3c-17.2 105.7-95.3 188.3-201.5 191.9-29.9 1-65.5-5.9-91.7-16.5-2.7-1.1-5.9 0-7.3 2.6l-163.2 280.7c77.1 38.7 164.2 57.6 255.2 51.8 264.5-17 472.2-238.2 495.3-504.6z" fill="#67c081"/><path d="m834.9 1659.7 158-283.5c1.1-2 .6-4.5-1.1-6-48.7-41-87.6-95.9-87.6-167.2 0-17.6-7.8-43.1-4.2-59.6l-297.2-106.3c-16.5 53.7-25.4 110.8-25.4 170 0 191.3 101.7 359.6 241.2 456.3 5.5 3.9 13 2.1 16.3-3.7z" fill="#498457"/><path d="m819.1 1651.6 163.8-280c2.1-3.6 1.4-8.1-1.7-10.8-47-41.3-76.9-103.4-76.9-173.5 0-17.6 1.9-34.7 5.5-51.2l-302.5-113.1c-2.4-.9-5.1.4-5.8 2.9-15.6 52.3-24 107.9-24 165.4-.1 196.1 96.7 364.9 241.6 460.3z" fill="#67c081"/><path d="m1152.6 974.5c93.7 15.7 166.4 94.6 178.8 193.3.7 5.3 5 9.3 10.3 9.5l453.4 15.2c1.4-1.4 2.2-2.1 3.6-3.5-1.4-379.3-273.4-704.3-637.7-747.3z" fill="#498457"/><path d="m1194.3 3086.5c.4-.2 218.4-381.8 247.8-417.8 5-6 12.6-9.1 20.4-8.2l60.8 7.2 71.5 154.6-119.1-69.3c11.8 81.5-141.2 202.6-193.6 246.8-5.3 4.5-5.8 12.5-1 17.5l20.9 21.9c-34.4 34.9-74.1 57.2-118.8 67.6z" fill="url(#f)"/><path d="m1290 3027.4s13.4 4.3 17.9 16.2c2.2 5.7-.2 12.1-5.1 15.7-22 15.8-94.6 66.7-128.1 76.6-2.7.8-5.4-1.7-4.7-4.5 1.7-7.8 7.3-23.3 25.2-46.1l-1.6 3.3c-2 4.1 2.4 8.4 6.4 6.1 22.4-12.5 68-40.2 90-67.3z" fill="#ffb265"/><path d="m1279.2 3180.2c.4-.2 33.1-79 33.4-79.3 30-182.5 103.1-338.9 124.7-380 3.6-6.9 10.5-11.5 18.3-12.1l61-5.2 101.3 136.9-130.6-43.8c28 77.4-97.3 227-139.7 280.8-4.3 5.5-3.1 13.4 2.6 17.4l24.9 17.2c-26.6 41.1-60.9 71-102.7 90.2z" fill="url(#g)"/><path d="m1361 3103s14 1.5 20.8 12.3c3.3 5.1 2.3 11.9-1.8 16.4-18.4 19.9-79.2 84.4-109.9 101-2.5 1.4-5.6-.5-5.5-3.4.1-8 2.4-24.3 15.4-50.2l-.9 3.5c-1.2 4.4 4.1 7.7 7.6 4.7 19.1-17 58.2-53.4 74.3-84.3z" fill="#ffb265"/><path d="m1802.5 2674.7s55.2 82.1 59.8 119.6c4.5 37.5-15.3 50.4-73.1 55.2-172 14.2-256.8-37.3-256.8-37.3-11.8-75-20.1-94.1-118.4-134.9 0 0 124.3 9.9 149.3.2 25-9.8 239.2-2.8 239.2-2.8z" fill="#498457"/><path d="m1582.2 2214.5s38.5-45.5 79.4 10.3c7.4 10.1 35.9 1.8 46.3 22.9 5.4 10.9 17 17.1 29 14.9 29.8-5.5 78.6-6 102.7 40.8 18.4 35.7 4.2 56.6-14.2 68.5-13.5 8.7-18.3 26.5-10.2 40.4 7.8 13.3 9.3 31.3-10.9 52.9-45.3 48.5-134.9-30.8-134.9-30.8l-71.2-168.2z" fill="#003f3c"/><path d="m1653.1 2663.8s-64.3-61.2-96-101.8c-17.1-21.9-22.5-50.8-14.6-77.4 14.5-48.7 40.1-99.1 42.5-107 3.6-12 75.7-11.5 75.7-11.5s141.9 92.1 197.6 248.1l-62.6 19.5s-37-62.2-73.7-101.7c0 0 63.3 83.7 65.6 117.9z" fill="#498457"/><path d="m1530.6 2688 48.3-52.6 55.8 15s65.1 10.1 102.3 0 37.2-10.1 37.2-10.1l84.1-26.2 13.2 37.3c3.4 9.5 0 20-8.2 25.8-7.3 5.2-15.8 10.9-21.3 13.2-11.1 4.8-255.3 1.5-255.3 1.5z" fill="url(#h)"/><path d="m1611.2 2279.4 48.5 90.1c-3.2 19.7-52.7 20.2-60.4 8.5-.8-1.2-1.2-2.6-1.5-4l-29-60.2c-1.2-5.9 14.9-25.7 20.1-28.5l19.3-10.3c7.4-3.9-23.6-4.2 3 4.4z" fill="url(#i)"/><path d="m1513.1 2258.2s-5.5 30.4 18.5 69.2c23.9 38.7 47.8 37 59.9 23.2s26.6-36.8 20-75.4c-6.6-38.7-90.1-55.8-98.4-17z" fill="url(#j)"/><path d="m1582.5 2279.3s-38.7-50.9-68.5-6.5l.5 15.3s-38.7-1.8-34.5-37.5 35.8-60 79.6-47.8 69.4 26.1 74.3 56.5-19.9 25.4-19.9 25.4-9.5-21-20.9-22.4-7.3 15.2-7.3 15.2z" fill="#003f3c"/><path d="m1591.4 2278s-20.1-26-1.8-31.5c18.3-5.4 17.6 25.5 16.4 37z" fill="url(#k)"/><path d="m1690.5 2708.8c-.2 0-.3 0-.5 0l-222.2-.2c-5.5 0-9.9-4.5-9.9-10s4.5-10 10-9.9l222.2.2c5.5 0 9.9 4.5 9.9 10 0 5.3-4.2 9.6-9.5 9.9z" fill="#005957"/><path d="m1268 2507h185.1c13.7 0 26.1 7.9 31.9 20.2l85.6 181.4h-230c-8.8 0-16.7-5.4-19.9-13.6l-66.4-167.9c-3.9-9.6 3.2-20.1 13.7-20.1z" fill="#005957"/><path d="m1398.4 2600c4 12.5 1 24.6-6.6 27-7.7 2.5-17.1-5.6-21.1-18.1s-1-24.6 6.6-27 17.1 5.7 21.1 18.1z" fill="#fff"/><path d="m2883 1414.3c3-12.7-14.9-21.1-25.8-12.3-111 90-377.7 359.5-311.2 830.5 83.4 590.9-59.2 806.6-236.6 938.1 0 0 243.7-61.9 397-280.7 376.4-537.2 123.6-1250 176.6-1475.6z" fill="#ffb265"/><path d="m2798.5 1598.8c-13.9 65.8-26.3 131.8-35.8 198.1-10 66.2-17.6 132.7-22.8 199.3-4.9 66.6-8.4 133.2-8.6 199.9-.5 66.7 2.2 133.3 5.3 200.2 2.6 66.9 5.7 134.2.8 202-4.8 67.7-19.1 135.9-47.3 199.9-7.1 15.9-14.5 31.8-22.9 47.2-8.1 15.5-17 30.7-26.3 45.8-18.6 30-39.6 59.1-63 86.6-46.9 55-103.5 103.8-165.8 145.1-6.6 4.3-16 3.3-21-2.4-4.9-5.6-3.8-13.5 2.4-17.9 14.8-10.4 29.5-21 43.6-32 7.1-5.4 14-11.1 21-16.7 6.7-5.8 13.7-11.4 20.2-17.4 26.5-23.6 51-48.7 73.2-75.2 44.7-52.9 80.5-111.8 107.7-172.9 13.2-30.7 23.7-62.2 31.4-94.2 7.7-32.1 12.5-64.7 15.1-97.6 5.3-65.8 2.9-132.5.9-199.4s-3.4-134.1-1.6-201.3c.8-33.6 2.3-67.2 4.4-100.7 1-16.8 2.3-33.5 3.6-50.3 1.5-16.7 3.1-33.5 4.9-50.2 7.2-66.8 16.8-133.5 28.8-199.7 12.4-66.2 26.7-132.1 44-197.5.5-1.9 2.6-3 4.8-2.6 2.1.4 3.4 2.1 3 3.9z" fill="#51af65"/><path d="m2591.2 3018.2c14.7 15.6 40.5 11.1 49.3-8.4 48.7-107.5 158.9-423.9-23.1-788.5-153.7-307.8-207.8-489.3-226.6-573.5-4-17.8-28.4-20.1-35.7-3.5-81.2 184.1-295.5 809.9 236.1 1373.9z" fill="#51af65"/><path d="m2617.9 3006.9c.5.1 1.1.1 1.6.1 4.6-.1 8.3-3.9 8.2-8.5-.1-5.2-10.3-527.8-204.6-965.5-1.9-4.2-6.8-6.1-11-4.2s-6.1 6.8-4.2 11c192.9 434.5 203.1 953.7 203.2 958.9 0 4.2 2.9 7.5 6.8 8.2z" fill="#93f9a4"/><path d="m1943 2227.8c-3.4 160.2-14.4 713-9.2 908.8.6 20.8 14.8 37.4 32.5 38.1 87.7 3.4 409.3 11.9 552.8 4.8 29.9-1.5 53.7-29.8 54.3-64.8 3-168.2 9.6-641.2-6.1-858-1.9-26-19.3-46.6-41.5-49.2-95.5-11.2-418.5-38.5-542.5-29.1-22.2 1.8-39.7 23.2-40.3 49.4z" fill="#005957"/><path d="m1982.1 2277c-4.7 129.3-19.6 559.6-14.9 718.7.7 23.3 16.4 42.1 36.2 43.4 81.8 5.6 360.7 17.9 480.6 6.7 21.6-2 38.5-22.5 39.7-47.8 6.1-131.9 23.5-532.6 19-689.9-.7-25.1-17.3-45.6-38.7-47.8-88.4-9.3-384.8-31.4-486.7-24.9-19.1 1.3-34.3 19.2-35.2 41.6z" fill="#49b3b3"/><path d="m2159.8 2206.5c0 4.9 3.3 9 7.5 9.2 20.7 1.3 79.1 4.9 105.2 6.6 5.1.3 9.2-5.1 8.2-11l-.2-1c-.7-4-3.5-7.1-7-7.5-17.6-1.9-70.8-7.1-106.1-5.7-4.3.4-7.6 4.5-7.6 9.4z" fill="#fff" opacity=".5"/><path d="m2543.5 2357.1c-.1-17.4-.3-34.5-.7-48.8-.7-25.1-17.3-45.7-38.7-47.9-88.4-9.3-384.8-31.4-486.7-24.9-19.1 1.2-34.3 19.3-35.2 41.7-.7 20.1-1.3 35.9-2.4 67.2z" fill="#ffb265"/><g fill="#8afff9"><path d="m2257.6 2632.8h-230.5c-13.6 0-24.7-11.4-24.7-25.4v-202.4c0-12.8 10.3-23.1 22.7-22.8l232.7 5.7c12.8.3 23 11.1 23 24.3v196.8c0 13.1-10.4 23.8-23.2 23.8z" opacity=".39"/><path d="m2507.4 2632.8h-197.2c-5 0-9-4-9-9v-228.4c0-3.9 3.1-7 7-7h199.7c3.9 0 7.1 3.2 7.1 7.1v229.8c-.1 4.1-3.4 7.5-7.6 7.5z" opacity=".39"/><path d="m2507.7 2831.1h-505.5c-4.4 0-8-3.6-8-8v-151.8c0-3.6 2.9-6.5 6.5-6.5h506.7c4.2 0 7.6 3.4 7.6 7.6v151.5c-.1 4-3.3 7.2-7.3 7.2z" opacity=".39"/><path d="m2460.9 3018.9-443.3-6.2c-13.1-.2-23.7-9.8-23.7-21.5v-107.3c0-10.4 9.4-18.7 20.9-18.7h466.3c11.1 0 20 8 20.1 17.9l.3 99.9c.2 20-18.1 36.2-40.6 35.9z" opacity=".39"/></g><ellipse cx="2028.3" cy="2304.4" fill="#fff" opacity=".74" rx="15.6" ry="15.6" transform="matrix(.9239 -.3827 .3827 .9239 -727.4528 951.6175)"/><ellipse cx="2080.5" cy="2305.9" fill="#fff" opacity=".74" rx="15.6" ry="15.6" transform="matrix(.7071 -.7071 .7071 .7071 -1021.1549 2146.5037)"/><ellipse cx="2129.2" cy="2308.8" fill="#fff" opacity=".74" rx="15.6" ry="15.6" transform="matrix(.9239 -.3827 .3827 .9239 -721.4635 990.5389)"/><ellipse cx="2277.5" cy="2602.9" fill="#fff" rx="203.3" ry="205.9"/><path d="m2270.3 2713.9c-8.8 0-17-4.7-21.6-12.4l-76.5-129c-7.2-12.1-3.3-27.7 8.6-35 11.9-7.2 27.4-3.3 34.5 8.7l53.1 89.5 70.2-139.6c6.3-12.5 21.5-17.5 33.9-11.2 12.4 6.4 17.3 21.7 11 34.3l-90.8 180.6c-4.2 8.3-12.4 13.6-21.5 13.9-.3.2-.6.2-.9.2z" fill="#67c081"/></svg>