<svg width="18" height="14" viewBox="0 0 18 14" fill="none" xmlns="http://www.w3.org/2000/svg">
<g clip-path="url(#clip0_618_1449)">
<path d="M17.6279 13.0137C15.104 13.0137 12.5802 13.0122 10.0561 13.0171C9.91428 13.0174 9.87886 12.9859 9.87935 12.8418C9.88539 11.0405 9.88245 9.23918 9.88441 7.43788C9.88572 6.30137 9.95737 5.17009 10.1971 4.0566C10.364 3.28212 10.6152 2.53685 11.0838 1.88348C11.6655 1.07243 12.4599 0.577874 13.4119 0.31313C14.168 0.102902 14.9428 0.0430009 15.721 0.00154288C15.808 -0.00302712 15.8529 0.00627598 15.8526 0.115144C15.8483 1.18212 15.849 2.24925 15.8519 3.31623C15.8523 3.41465 15.8175 3.43685 15.7243 3.44648C15.4625 3.47357 15.1997 3.50263 14.9421 3.55518C14.3416 3.67792 13.9595 4.05888 13.7367 4.61612C13.5174 5.16454 13.4428 5.74201 13.3941 6.32455C13.3783 6.51307 13.3782 6.70322 13.3576 6.89109C13.3429 7.02379 13.3889 7.05153 13.5164 7.05104C14.8243 7.04615 16.132 7.04794 17.4399 7.04843C17.5026 7.04843 17.5653 7.0548 17.6279 7.05823C17.6279 9.04315 17.6279 11.0284 17.6279 13.0137Z" fill="#010101" fill-opacity="0.56"/>
<path d="M3.87676 13.0135C2.63808 13.0135 1.3994 13.0125 0.160714 13.0151C0.0575585 13.0153 -0.000220775 13.0154 0.000268948 12.8772C0.00728721 10.9043 -0.00250495 8.93133 0.0133277 6.95849C0.0214888 5.94423 0.118767 4.93504 0.35054 3.94413C0.497929 3.3136 0.70522 2.7043 1.04374 2.14674C1.59543 1.23776 2.40157 0.663064 3.40767 0.354903C4.19667 0.113173 5.0118 0.0467422 5.83002 0.00201971C5.92094 -0.00287644 5.97301 -0.000264323 5.97235 0.121988C5.9668 1.18292 5.96795 2.24402 5.97121 3.30495C5.97154 3.40746 5.94314 3.43814 5.83851 3.44826C5.58813 3.47242 5.33742 3.50474 5.09112 3.55517C4.48655 3.67889 4.11327 4.07128 3.89847 4.62949C3.70603 5.12992 3.62638 5.65517 3.58345 6.18645C3.56452 6.42051 3.56436 6.6562 3.54167 6.88961C3.52877 7.02231 3.57056 7.05119 3.69934 7.05071C4.9896 7.04581 6.28002 7.0512 7.57028 7.0432C7.72844 7.04222 7.75244 7.08874 7.75211 7.23253C7.74721 9.10223 7.74689 10.9719 7.75244 12.8416C7.75293 12.9856 7.71783 13.0179 7.57583 13.0171C6.3427 13.0109 5.10973 13.0135 3.87676 13.0135Z" fill="#010101" fill-opacity="0.56"/>
</g>
<defs>
<clipPath id="clip0_618_1449">
<rect width="17.6278" height="13.0164" fill="white" transform="translate(17.6279 13.0166) rotate(-180)"/>
</clipPath>
</defs>
</svg>
