<svg width="18" height="14" viewBox="0 0 18 14" fill="none" xmlns="http://www.w3.org/2000/svg">
<g clip-path="url(#clip0_618_1457)">
<path d="M0 0.00294185C2.52388 0.00294185 5.04776 0.00441084 7.57181 -0.000485781C7.71365 -0.000812222 7.74907 0.0306894 7.74858 0.174813C7.74254 1.97612 7.74548 3.77742 7.74352 5.57872C7.74221 6.71523 7.67056 7.84651 7.43079 8.96C7.26397 9.73449 7.01278 10.4798 6.54417 11.1331C5.96245 11.9442 5.16806 12.4387 4.21599 12.7035C3.45995 12.9137 2.68514 12.9736 1.90691 13.0151C1.81991 13.0196 1.77503 13.0103 1.77535 12.9015C1.7796 11.8345 1.77894 10.7673 1.776 9.70037C1.77568 9.60195 1.81044 9.57975 1.90364 9.57012C2.16545 9.54303 2.42823 9.51398 2.6858 9.46142C3.28629 9.33868 3.66839 8.95772 3.89118 8.40048C4.11055 7.85206 4.18514 7.27459 4.23378 6.69205C4.24961 6.50353 4.24978 6.31338 4.27034 6.12551C4.28503 5.99282 4.23901 5.96507 4.11153 5.96556C2.80364 5.97045 1.49592 5.96866 0.18803 5.96817C0.125354 5.96817 0.0626768 5.9618 0 5.95837C0 3.97345 0 1.9882 0 0.00294185Z" fill="#010101" fill-opacity="0.56"/>
<path d="M13.7512 0.00311751C14.9899 0.00311751 16.2285 0.00409683 17.4672 0.0014853C17.5704 0.00132208 17.6282 0.00115884 17.6277 0.139407C17.6206 2.11226 17.6304 4.08527 17.6146 6.05812C17.6064 7.07237 17.5092 8.08156 17.2774 9.07248C17.13 9.703 16.9227 10.3123 16.5842 10.8699C16.0325 11.7788 15.2264 12.3535 14.2203 12.6617C13.4313 12.9034 12.6161 12.9699 11.7979 13.0146C11.707 13.0195 11.6549 13.0169 11.6556 12.8946C11.6611 11.8337 11.66 10.7726 11.6567 9.71165C11.6564 9.60915 11.6848 9.57846 11.7894 9.56834C12.0398 9.54418 12.2905 9.51187 12.5368 9.46143C13.1414 9.33771 13.5147 8.94533 13.7295 8.38711C13.9219 7.88668 14.0016 7.36143 14.0445 6.83015C14.0634 6.59609 14.0636 6.3604 14.0863 6.12699C14.0992 5.9943 14.0574 5.96541 13.9286 5.9659C12.6383 5.97079 11.3479 5.96541 10.0576 5.9734C9.89949 5.97438 9.87549 5.92787 9.87582 5.78407C9.88072 3.91437 9.88104 2.04468 9.87549 0.174989C9.875 0.0310282 9.9101 -0.00128945 10.0521 -0.000473349C11.2852 0.00572904 12.5182 0.00311751 13.7512 0.00311751Z" fill="#010101" fill-opacity="0.56"/>
</g>
<defs>
<clipPath id="clip0_618_1457">
<rect width="17.6278" height="13.0164" fill="white"/>
</clipPath>
</defs>
</svg>
