<svg width="234" height="231" viewBox="0 0 234 231" fill="none" xmlns="http://www.w3.org/2000/svg">
<g clip-path="url(#clip0_129_176)">
<path d="M34.2686 195.326C20.5656 180.295 10.5998 163.187 5.78299 143.338C2.95934 131.877 1.63057 120.168 2.5441 108.458C4.37116 84.4568 12.5099 62.8642 27.6247 43.8461C41.6599 26.2398 59.4323 14.0317 80.6096 6.55737C88.8314 3.65067 97.3854 1.90666 106.189 1.07617C109.261 1.9897 112.417 2.23885 115.49 2.98629C131.601 6.72347 146.135 13.8656 159.173 23.9975C179.188 39.6106 192.891 59.5423 199.867 83.9585C203.854 97.9107 205.099 112.195 203.687 126.645C202.442 139.352 199.369 151.56 194.054 163.27C193.223 165.18 192.227 166.343 189.984 165.595C180.517 160.944 170.053 158.868 160.17 155.214C152.363 151.394 144.806 147.075 136.75 143.919C136.335 143.587 136.169 143.172 136.003 142.674C135.754 138.272 135.588 133.788 136.086 129.386C136.501 128.14 137.581 127.559 138.494 126.812C145.969 120.998 150.786 113.524 152.114 104.056C152.53 101.15 153.36 98.9903 156.599 98.1598C158.841 97.5785 159.921 95.7514 159.921 93.343C159.921 89.3567 159.921 85.3703 159.921 81.384C159.838 74.0758 159.921 66.8505 159.921 59.5423C159.838 53.3136 157.014 49.9087 150.869 48.829C147.713 48.2477 145.803 46.7528 145.387 43.5139C144.806 39.1954 142.481 36.1226 138.162 34.7938C136.916 34.2125 135.588 34.3786 134.342 34.3786C122.881 34.4616 111.338 34.3786 99.8769 34.4616C85.3434 34.5447 75.3776 44.5105 75.2945 59.044C75.2115 66.4353 75.3776 73.8266 75.2115 81.2179C75.2115 84.872 75.2115 88.6092 75.2115 92.2634C75.2115 95.2531 76.2911 97.4954 79.3639 98.4089C81.5232 99.0733 82.6028 100.651 82.8519 102.811C84.1807 112.776 88.7484 120.915 96.8041 126.978C98.465 128.223 99.2125 129.801 99.1294 131.877C98.9633 135.532 99.3786 139.269 98.8803 142.923C98.7142 143.421 98.465 143.753 98.0498 144.086C93.9804 145.248 90.4924 147.491 86.6722 149.318C82.6028 151.228 78.6995 153.304 74.7132 155.38C67.571 157.955 60.3458 160.197 53.1206 162.273C41.6599 165.512 34.0195 176.142 34.8499 187.52C35.0991 190.011 35.5974 192.752 34.2686 195.326Z" fill="#D0EBEA"/>
<path d="M189.984 164.848C191.729 165.512 192.393 164.848 193.223 163.104C198.04 152.723 200.947 141.76 202.442 130.549C203.604 122.327 203.604 113.939 202.774 105.551C201.943 97.1632 200.532 88.8584 197.957 80.8027C195.217 72.2487 191.645 64.11 186.995 56.3865C181.181 46.7528 174.205 38.1158 165.9 30.6414C154.191 20.1773 141.069 11.8725 126.037 6.88959C119.892 4.81337 113.663 3.23545 107.268 2.23887C106.521 2.15582 106.272 1.74058 106.189 1.07619C130.19 -1.41526 152.696 3.4846 173.79 15.1114C185.334 21.5061 195.466 29.811 204.186 39.8598C214.484 51.6527 222.041 65.0235 227.024 79.8061C229.765 88.0279 231.343 96.4989 232.173 105.136C234.831 134.95 226.775 161.609 209.086 185.527C206.594 188.932 203.604 192.005 200.864 195.243C199.867 193.915 200.199 192.337 200.199 190.925C200.033 187.271 200.532 183.534 199.618 179.88C198.372 175.229 195.964 171.326 192.559 167.921C191.645 166.841 189.984 166.509 189.984 164.848Z" fill="#C5E7E5"/>
<path d="M34.2687 195.327C33.6043 186.524 33.3552 177.72 39.4177 170.246C42.5735 166.343 46.4768 163.519 51.2106 161.941C59.1002 159.367 66.9898 156.958 74.8794 154.467C75.0455 158.287 77.0386 161.443 78.7827 164.682C81.025 168.917 80.9419 170.993 77.4539 174.232C74.298 177.139 73.7998 180.129 75.5438 183.866C79.1149 191.174 83.8486 197.652 89.0807 203.881C95.1432 211.189 101.787 217.916 108.597 224.56C109.511 225.473 110.59 226.304 110.673 227.716C110.092 230.29 107.434 228.795 106.106 229.958C92.9009 228.795 80.3606 225.224 68.3186 219.577C55.5291 213.68 44.3176 205.292 34.2687 195.327Z" fill="#4DA89F"/>
<path d="M192.559 167.173C197.874 171.907 200.781 177.803 201.03 184.945C201.113 188.433 201.362 191.922 200.781 195.326C190.732 205.292 179.603 213.68 166.731 219.743C152.28 226.47 137.083 230.207 121.22 230.705C123.463 227.217 126.535 224.56 129.774 222.151C130.854 222.151 131.767 221.819 132.681 221.155C143.643 216.421 153.692 210.358 162.745 202.469C172.793 193.749 181.181 183.783 187.742 172.239C188.49 170.91 189.237 169.665 190.067 168.419C190.566 167.422 191.147 166.426 192.559 167.173Z" fill="#41948C"/>
<path d="M110.341 227.715C106.604 223.978 102.867 220.241 99.2956 216.421C90.9077 207.618 82.935 198.565 76.7064 187.935C75.6268 186.025 74.7132 184.032 74.0489 181.956C73.1353 179.298 73.7997 176.973 75.8759 174.896C80.6927 170.163 80.6097 169.997 77.4539 163.851C76.6234 162.273 75.8759 160.612 75.0454 159.034C74.215 157.539 74.0489 156.044 74.8793 154.467C81.8554 150.231 89.4128 147.158 96.638 143.421C96.9702 143.255 97.3855 143.255 97.6346 143.753C97.8838 146.494 95.8076 148.653 95.7245 151.311C93.5652 161.858 95.3923 172.156 97.8007 182.371C99.7939 190.759 102.701 198.814 105.773 206.87C108.431 213.846 111.67 220.573 114.743 227.383C115.075 228.463 115.988 229.376 115.573 230.705C114.826 230.705 113.995 230.705 113.248 230.705C111.919 230.041 110.756 229.293 110.341 227.715Z" fill="#397D76"/>
<path d="M130.106 222.317C127.117 225.058 124.127 227.882 121.137 230.622C120.556 230.622 119.975 230.622 119.393 230.622C118.978 228.546 120.639 227.134 121.137 225.39C123.795 219.244 126.785 213.182 129.11 206.87C134.259 194.164 138.245 181.042 139.906 167.422C140.571 162.107 140.488 156.626 139.242 151.311C139.159 148.653 137.083 146.494 137.332 143.753C137.581 143.338 137.913 143.255 138.328 143.421C145.637 147.075 153.111 150.231 160.17 154.467C161.748 155.629 161.582 157.207 160.917 158.785C159.921 160.944 158.841 163.104 157.679 165.18C155.685 168.668 155.768 170.495 158.675 173.153C162.412 176.558 162.911 180.295 160.834 184.696C157.512 191.672 152.945 197.901 148.045 203.797C142.979 209.86 137.83 215.756 132.017 221.155C131.435 221.736 130.854 222.234 130.106 222.317Z" fill="#397D76"/>
<path d="M121.469 225.971C120.805 227.549 120.058 229.127 119.393 230.705C118.148 230.705 116.902 230.705 115.656 230.705C115.324 229.709 114.909 228.795 114.576 227.798C116.57 226.137 118.812 225.141 121.469 225.971Z" fill="#D86570"/>
<path d="M110.341 227.715C111.338 228.712 112.334 229.708 113.331 230.622C110.922 230.954 108.514 230.456 106.105 230.041C106.272 228.961 107.019 228.878 107.849 228.878C108.929 228.961 109.843 228.795 110.341 227.715Z" fill="#4C799B"/>
<path d="M98.382 143.255C98.382 139.269 98.2989 135.282 98.382 131.296C98.382 129.801 97.9667 128.805 96.638 127.808C88.2501 121.579 83.1841 113.358 82.1045 102.894C81.8553 100.817 81.0249 99.4055 78.7826 98.9902C75.4606 98.3258 74.381 95.9174 74.381 92.8446C74.381 89.0244 74.381 85.2872 74.464 81.467C75.8759 80.1382 77.7029 80.4704 79.3639 80.5535C84.9281 80.8857 88.5823 78.5603 88.0009 72.4147C87.8348 71.0029 88.2501 69.6741 88.5823 68.2623C89.828 63.3624 94.4787 60.3727 99.2955 61.7845C104.777 63.3624 110.424 64.276 116.071 64.7743C119.31 65.0234 122.383 64.276 125.622 64.1099C126.951 64.0268 128.196 63.7777 129.525 63.8607C131.767 64.0268 132.183 65.6047 132.266 67.4318C132.349 71.5842 132.266 75.8197 132.266 79.9721C132.266 87.6126 132.183 95.3361 132.266 102.977C132.432 115.019 127.532 124.569 118.48 132.21C118.064 132.542 117.649 132.791 117.4 133.206C117.317 133.289 117.4 133.372 117.317 133.788C123.047 133.704 128.446 132.542 133.595 129.884C134.591 129.386 135.505 128.389 136.916 128.888C136.916 133.704 136.833 138.521 136.833 143.255C134.757 146.909 131.601 149.733 129.027 152.972C125.622 157.207 121.719 161.027 118.812 165.678C118.231 166.01 117.732 166.01 117.151 165.678C115.739 162.107 112.666 159.948 110.258 157.124C106.77 153.055 103.199 148.985 99.5447 145.082C98.9633 144.501 98.6311 143.919 98.382 143.255Z" fill="#FDDCCE"/>
<path d="M129.359 64.6083C121.885 65.6879 114.493 66.2692 107.019 64.6083C104.611 64.11 102.202 63.4456 99.7939 62.7812C93.9805 61.2033 89.5789 64.193 89.0806 70.1725C88.9146 71.7505 89.0806 73.4114 88.9145 74.9893C88.5824 78.6435 85.8418 81.301 82.1876 81.4671C79.6131 81.6332 76.9556 81.4671 74.3811 81.4671C74.3811 73.4114 74.215 65.2727 74.3811 57.217C74.5472 44.9258 84.4299 34.2126 96.8041 33.7143C109.926 33.216 123.131 33.4651 136.335 33.4651C137.166 33.4651 137.913 33.5482 138.578 34.0465C137.747 34.96 136.584 35.043 135.588 34.96C132.847 34.7108 132.266 36.2057 132.266 38.6141C132.349 46.1715 132.266 53.7289 132.349 61.2863C132.349 61.8677 132.432 62.449 132.349 63.1134C132.1 65.1066 130.273 63.9439 129.359 64.6083Z" fill="#385F7E"/>
<path d="M129.359 64.6081C130.273 64.2759 131.103 63.8607 132.017 63.5285C137.913 59.293 145.055 61.8675 146.716 68.8436C147.048 70.0893 147.131 71.4181 147.131 72.6638C147.298 78.7263 149.291 80.5534 155.436 80.6365C157.18 80.6365 159.09 80.1382 160.585 81.4669C160.585 85.3702 160.502 89.2735 160.668 93.0937C160.834 96.3326 159.257 98.4919 156.35 98.9902C153.775 99.4885 153.111 101.066 152.945 103.06C152.363 110.036 149.374 116.015 145.138 121.413C142.813 124.403 139.989 126.894 136.667 128.805C130.937 132.874 124.376 134.203 117.566 134.784C116.653 134.867 115.241 135.199 114.909 134.12C114.576 133.04 115.988 132.874 116.653 132.376C125.788 125.4 131.02 116.264 131.186 104.554C131.352 92.1802 131.186 79.806 131.269 67.4318C131.352 65.9369 131.435 64.5251 129.359 64.6081Z" fill="#FBCBBF"/>
<path d="M131.269 221.155C136.335 215.757 141.567 210.441 146.301 204.628C151.865 197.901 157.263 191.008 160.668 182.786C161.914 179.797 161.416 177.222 159.09 174.897C154.357 170.163 154.523 169.582 157.596 163.602C159.007 160.861 161.914 158.287 160.17 154.55C168.143 157.041 176.115 159.533 184.088 162.107C186.164 162.772 188.074 163.934 190.067 164.848C190.898 165.595 191.811 166.426 192.642 167.173C190.151 167.588 189.901 169.997 188.988 171.575C182.759 183.035 174.62 192.918 165.07 201.555C155.519 210.192 144.723 217.168 132.598 221.819C131.767 222.151 131.269 222.151 131.269 221.155Z" fill="#4DA89F"/>
<path d="M160.585 81.4672C158.094 81.4672 155.602 81.5502 153.111 81.4672C149.208 81.3011 146.384 78.5605 146.135 74.6572C146.052 73.0793 146.135 71.5014 145.969 69.9234C145.304 64.11 141.069 61.2864 135.339 62.6982C134.176 63.0304 133.013 63.2796 131.851 63.5287C130.854 62.6982 131.186 61.5355 131.186 60.4559C131.186 52.8154 131.269 45.175 131.103 37.5345C131.02 34.7939 131.768 33.7143 134.591 34.0465C135.837 34.2126 137.166 34.0465 138.494 34.0465C143.228 35.3753 145.554 38.8633 146.052 43.431C146.384 46.6699 148.045 47.6664 150.869 47.9156C156.433 48.4139 160.502 52.4833 160.585 57.8814C160.751 65.688 160.668 73.5776 160.585 81.4672Z" fill="#2C4E67"/>
<path d="M98.382 143.255C103.531 147.74 107.434 153.304 112.085 158.121C113.414 159.45 114.66 160.944 115.905 162.273C116.736 163.187 117.566 164.017 116.985 165.429C117.151 166.509 116.404 167.09 115.739 167.588C112.666 170.08 109.677 172.82 106.521 175.229C101.621 177.554 96.555 175.395 95.3092 170.163C94.0635 165.014 94.0635 159.782 94.977 154.55C95.2262 153.304 94.811 151.975 95.3092 150.729C95.4753 148.155 96.555 145.913 97.8007 143.753C97.9668 143.587 98.1329 143.421 98.382 143.255Z" fill="#F4FBFE"/>
<path d="M118.729 165.346C117.981 164.1 119.061 163.602 119.642 162.855C125.207 156.211 130.439 149.318 136.667 143.255C136.916 143.421 137.083 143.587 137.332 143.836C138.577 145.996 139.574 148.321 139.823 150.813C140.654 156.958 141.235 163.021 140.072 169.166C138.91 175.229 133.428 177.886 128.529 174.73C125.539 172.322 122.549 169.997 119.808 167.256C119.31 166.758 118.397 166.343 118.729 165.346Z" fill="#F4FBFE"/>
<path d="M131.269 221.155C131.518 221.653 132.017 221.736 132.515 221.819C131.768 222.4 131.186 223.397 130.107 222.4C130.522 221.902 130.854 221.487 131.269 221.155Z" fill="#487BA3"/>
<path d="M121.469 225.971C119.144 226.553 116.902 227.134 114.576 227.798C111.005 221.321 107.933 214.677 105.607 207.618C105.441 206.04 105.69 204.462 106.105 202.884C107.683 196.572 109.261 190.261 110.922 184.032C111.171 182.952 111.421 181.873 112.417 181.208C115.822 180.378 119.227 180.461 122.632 181.125C123.629 181.624 123.878 182.62 124.127 183.617C125.871 190.427 127.615 197.237 129.359 204.13C129.691 205.292 129.608 206.455 129.608 207.701C127.449 213.929 124.542 219.992 121.469 225.971Z" fill="#E28086"/>
<path d="M112.002 181.623C110.341 190.427 107.933 198.981 105.524 207.618C101.04 197.901 98.1329 187.769 95.8906 177.388C94.1466 169.166 93.3161 160.944 94.7279 152.556C94.811 151.975 95.0601 151.477 95.2262 150.896C95.2262 155.38 94.3127 159.782 94.7279 164.183C94.9771 167.671 95.4754 170.993 98.299 173.568C101.123 176.142 102.867 176.474 106.521 174.481C108.929 176.308 111.005 178.551 112.002 181.623Z" fill="#E5F5FD"/>
<path d="M129.525 207.618C127.117 199.064 124.708 190.427 123.047 181.623C124.127 178.468 126.286 176.142 128.529 173.817C133.013 177.139 138.91 174.398 139.74 168.668C140.488 163.934 140.737 159.2 139.823 154.467C139.574 153.304 139.823 152.058 139.823 150.896C141.65 157.456 141.235 164.1 140.321 170.744C138.411 183.45 134.757 195.742 129.525 207.618Z" fill="#E5F5FD"/>
<path d="M128.529 173.817C127.366 176.89 125.041 179.132 123.047 181.623C119.393 181.623 115.739 181.623 112.085 181.623C110.092 179.298 108.016 177.056 106.521 174.398C110.009 171.408 113.497 168.419 117.068 165.512C117.649 165.512 118.231 165.429 118.812 165.429C121.968 168.17 125.207 170.993 128.529 173.817Z" fill="#DE646F"/>
</g>
<defs>
<clipPath id="clip0_129_176">
<rect width="233.2" height="230.21" fill="white" transform="translate(0.800049 0.494873)"/>
</clipPath>
</defs>
</svg>
