<svg width="374" height="226" viewBox="0 0 374 226" fill="none" xmlns="http://www.w3.org/2000/svg">
<g clip-path="url(#clip0_750_1229)">
<path d="M374 0H0V225.982H374V0Z" fill="white"/>
<path opacity="0.21" d="M21.152 208.028C-23.9766 172.967 39.7164 162.696 17.8075 133.081C3.14124 113.24 8.03375 78.9694 32.1799 69.5008C61.953 57.8175 102.799 80.4722 127.838 54.3487C145.905 35.5018 162.187 17.412 190.322 13.0392C239.225 5.42363 241.914 55.5125 279.438 56.7102C302.443 57.4447 325.346 46.3264 344.012 66.2693C370.825 94.9125 376.136 138.448 363.447 175.023C358.78 188.492 349.3 207.858 349.3 207.858L21.152 208.028Z" fill="#40C1BA"/>
<path d="M157.939 161.893C157.939 161.893 159.893 165.441 156.775 171.735C153.6 178.153 154.176 182.638 154.176 182.638L151.238 185.407C151.238 185.407 150.741 178.277 153.543 173.238C157.046 166.944 157.939 161.893 157.939 161.893Z" fill="#67C081"/>
<path d="M166.504 163.893C166.504 163.893 167.023 166.831 163.509 170.91C159.916 175.068 159.306 178.458 159.306 178.458L156.888 180.379C156.888 180.379 157.95 174.661 160.978 171.452C164.764 167.441 166.504 163.893 166.504 163.893Z" fill="#67C081"/>
<path d="M151.646 168.605C151.646 168.605 149.013 170.424 147.307 177.825C145.917 183.847 147.284 187.011 146.414 190.706L150.154 186.706C150.391 184.085 148.708 182.356 149.702 176.831C150.629 171.644 151.646 168.605 151.646 168.605Z" fill="#67C081"/>
<path d="M127.974 190.887C127.974 190.887 126.798 193.881 129.51 200.954C131.725 206.728 134.73 207.508 135.307 208.841L136.617 205.937C135.024 203.666 133.205 203.937 130.945 198.796C128.821 193.96 127.974 190.887 127.974 190.887Z" fill="#67C081"/>
<path d="M145.487 173.204C145.487 173.204 143.657 178.424 143.239 181.757C142.628 186.492 144.481 189.034 144.199 193.915L141.566 197.079C141.566 197.079 139.284 191.949 140.278 186.141C141.95 176.39 145.487 173.204 145.487 173.204Z" fill="#67C081"/>
<path d="M136.425 175.61C136.934 178.673 136.99 181.791 136.595 184.864C135.329 194.175 140.222 201.271 140.222 201.271L138.267 203.124C138.267 203.124 132.267 198.175 133.544 190.378C134.911 182.153 136.425 175.61 136.425 175.61Z" fill="#67C081"/>
<path d="M149.95 187.362C149.95 187.362 152.154 186.593 161.295 187.825C167.148 188.616 165.453 186.378 170.967 188.096C166.752 188.435 165.306 191.497 159.814 191.079C155.43 190.74 151.012 190.751 146.628 191.102L149.95 187.362Z" fill="#67C081"/>
<path d="M167.645 193.429C167.645 193.429 164.018 197.926 155.916 197.293C150.922 196.921 145.905 197.361 141.058 198.604L143.533 194.536C143.533 194.536 146.911 192.118 155.272 193.587C161.024 194.593 167.645 193.429 167.645 193.429Z" fill="#67C081"/>
<path d="M162.752 201.101C162.752 201.101 159.125 205.598 151.024 204.966C146.03 204.581 141.013 205.033 136.166 206.276L138.64 202.209C138.64 202.209 142.018 199.791 150.38 201.259C156.142 202.276 162.752 201.101 162.752 201.101Z" fill="#67C081"/>
<path d="M173.475 178.616C173.475 178.616 170.865 180.944 165.758 180.345C160.583 179.735 156.764 180.831 156.764 180.831L158.233 179.317C158.233 179.317 160.368 177.791 165.656 178.718C169.294 179.35 173.475 178.616 173.475 178.616Z" fill="#67C081"/>
<path d="M154.549 183.316C154.549 183.316 158.549 182.944 164.413 183.497C168.119 183.836 173.057 181.644 173.057 181.644C173.057 181.644 169.226 186.921 163.69 186.073C157.351 185.09 151.069 185.904 151.069 185.904L154.549 183.316Z" fill="#67C081"/>
<path d="M157.837 179.927C157.837 179.927 161.193 174.752 166.763 173.758C170.063 173.136 173.238 171.972 176.153 170.311C176.153 170.311 173.034 175.656 167.825 176.017C163.012 176.368 159.645 179.52 159.645 179.52L157.837 179.927Z" fill="#67C081"/>
<path d="M135.758 208.932L134.922 208.581C137.114 203.44 146.933 186.751 159.204 178.48L159.713 179.238C147.611 187.384 137.917 203.858 135.758 208.932Z" fill="#67C081"/>
<path d="M325.855 203.983C324.555 204.649 323.188 204.898 322.567 203.983C322.024 203.192 323.968 201.847 325.855 201.067V197.791C324.747 198.503 323.606 199.022 322.567 199.09C320.883 199.203 320.906 198.243 323.764 196.604C324.499 196.186 325.199 195.723 325.855 195.192V186.074C323.9 189.203 319.911 195.237 318.533 194.39C316.612 193.203 325.244 185.588 325.719 183.091C326.013 181.565 322.804 175.113 322.804 175.113C322.804 175.113 317.245 188.311 314.578 187.339C313.29 186.876 321.052 175.407 319.9 173.328C318.759 171.249 315.55 169.532 315.55 169.532C315.55 169.532 312.906 179.622 311.527 178.458C310.42 177.52 313.911 170.899 313.188 168.221C312.635 166.074 311.109 164.3 309.075 163.441C309.075 163.441 307.347 169.532 305.347 168.277C304.567 167.78 307.358 163.464 307.109 161.555C304.42 161.701 302.104 161.656 300.341 160.255C300.307 161.735 298.24 163.464 295.313 165.306C296.375 167.78 301.81 168.707 301.087 170.526C300.488 172.04 294.172 167.871 294.172 167.871C294.172 167.871 291.889 170.888 293.031 173.984C293.923 176.39 299.799 178.82 298.805 180.029C297.584 181.52 291.155 175.95 291.313 176.481C292.556 180.548 290.793 185.486 290.793 185.486C293.675 193 305.234 194.943 303.641 196.751C302.217 198.356 291.166 190.638 291.166 190.638L292.454 196.017C292.454 196.017 298.477 202.028 306.409 203.768C302.319 205.768 293.584 200.638 293.584 200.638C293.584 200.638 294.861 205.146 297.596 208.807H325.855V203.983ZM295.381 172.447C295.833 171.859 301.403 174.379 300.624 175.837C299.844 177.294 294.353 173.769 295.381 172.447ZM304.42 190.017C303.946 191.452 300.093 189.994 297.923 188.627C295.144 186.876 293.709 184.808 294.613 183.87C295.596 182.842 297.482 184.819 300.036 186.04C303.053 187.486 304.872 188.627 304.42 190.017ZM304.759 182.932C304.217 184.22 300.691 182.763 300.985 181.328C301.177 180.39 305.301 181.644 304.759 182.932ZM309.629 198.638C309.064 200.164 305.234 198.367 305.878 196.977C306.375 195.904 310.194 197.113 309.629 198.638ZM308.341 175.735C306.816 175.226 309.301 170.289 310.691 171.102C312.07 171.916 309.844 176.232 308.341 175.735ZM310.861 169.351C310.465 169.215 310.25 168.797 310.386 168.402C310.522 168.006 310.94 167.792 311.335 167.927C311.731 168.063 311.945 168.481 311.81 168.876C311.685 169.272 311.256 169.486 310.861 169.351C310.861 169.362 310.861 169.362 310.861 169.351Z" fill="#67C081"/>
<path d="M304.499 171.746L316.747 208.796H318.397L304.499 171.746Z" fill="#3D704A"/>
<path d="M304.013 192.356L312.985 194.367L313.052 195.35L304.013 192.356Z" fill="#3D704A"/>
<path d="M310.33 187.294L314.94 178.639L309.912 186.198L310.33 187.294Z" fill="#3D704A"/>
<path d="M314.973 201.033L320.758 195.429L314.883 199.44L314.973 201.033Z" fill="#3D704A"/>
<path d="M58.5635 208.796H86.8225C89.5569 205.135 90.8337 200.627 90.8337 200.627C90.8337 200.627 82.0995 205.768 78.0092 203.757C85.9412 202.017 91.9636 196.005 91.9636 196.005L93.2517 190.627C93.2517 190.627 82.2012 198.344 80.7775 196.74C79.173 194.943 90.7433 192.989 93.6246 185.475C93.6246 185.475 91.8619 180.537 93.1048 176.469C93.263 175.938 86.8338 181.509 85.6135 180.017C84.6305 178.808 90.4947 176.379 91.3873 173.972C92.5285 170.876 90.2461 167.859 90.2461 167.859C90.2461 167.859 83.9299 172.029 83.3311 170.515C82.6079 168.695 88.0315 167.769 89.1049 165.294C86.1785 163.453 84.1107 161.724 84.0768 160.244C82.3255 161.645 79.9979 161.69 77.3087 161.543C77.0601 163.453 79.851 167.78 79.0713 168.266C77.0714 169.52 75.3426 163.43 75.3426 163.43C73.2975 164.3 71.7721 166.063 71.2298 168.21C70.5066 170.888 74.0093 177.509 72.8907 178.447C71.5122 179.61 68.8683 169.52 68.8683 169.52C68.8683 169.52 65.6706 171.238 64.5181 173.317C63.3769 175.396 71.1281 186.864 69.84 187.328C67.1734 188.288 61.6142 175.102 61.6142 175.102C61.6142 175.102 58.4166 181.565 58.6991 183.079C59.1736 185.576 67.8061 193.192 65.8853 194.378C64.5181 195.237 60.5182 189.203 58.5635 186.062V195.181C59.2188 195.712 59.9194 196.175 60.6538 196.593C63.5238 198.231 63.5351 199.192 61.8515 199.079C60.812 199.011 59.6708 198.491 58.5635 197.779V201.056C60.4504 201.836 62.3939 203.18 61.8515 203.971C61.2301 204.886 59.8629 204.638 58.5635 203.971V208.796ZM83.7943 175.848C83.0147 174.39 88.5852 171.871 89.0371 172.458C90.0653 173.769 84.574 177.294 83.7943 175.848ZM84.4045 186.028C86.9581 184.808 88.8337 182.831 89.8281 183.859C90.732 184.797 89.297 186.864 86.5174 188.616C84.348 189.972 80.495 191.441 80.0205 190.006C79.5459 188.627 81.365 187.486 84.4045 186.028ZM83.4328 181.328C83.7266 182.763 80.2012 184.22 79.6589 182.932C79.1165 181.644 83.2407 180.39 83.4328 181.328ZM74.789 198.638C74.224 197.113 78.0544 195.904 78.5403 196.977C79.1843 198.367 75.3539 200.163 74.789 198.638ZM76.0771 175.735C74.5743 176.243 72.3484 171.916 73.7269 171.102C75.1054 170.289 77.6024 175.226 76.0771 175.735ZM73.5687 169.362C73.1619 169.498 72.7438 169.272 72.6082 168.876C72.4727 168.481 72.6873 168.051 73.0828 167.927C73.4783 167.792 73.9076 168.006 74.0319 168.402C74.1675 168.797 73.9641 169.227 73.5687 169.362Z" fill="#67C081"/>
<path d="M79.9188 171.746L67.6819 208.796H66.0322L79.9188 171.746Z" fill="#3D704A"/>
<path d="M80.4045 192.356L71.4443 194.367L71.3652 195.35L80.4045 192.356Z" fill="#3D704A"/>
<path d="M74.0998 187.294L69.4897 178.639L74.5065 186.198L74.0998 187.294Z" fill="#3D704A"/>
<path d="M69.4555 201.034L63.6704 195.429L69.5346 199.44L69.4555 201.034Z" fill="#3D704A"/>
<path d="M344.137 198.333C341.504 195.056 340.984 190.729 342.611 185.339C345.425 190.209 345.933 194.537 344.137 198.333Z" fill="#67C081"/>
<path d="M347.301 190.842C345.38 187.52 345.515 183.554 347.719 178.921C349.594 183.701 349.447 187.678 347.301 190.842Z" fill="#67C081"/>
<path d="M350.815 183.418C349.47 180.028 350.159 176.322 352.871 172.277C353.967 177.034 353.289 180.752 350.815 183.418Z" fill="#67C081"/>
<path d="M358.792 167.972C358.859 172.096 357.639 175.046 355.119 176.831C354.611 173.791 355.831 170.831 358.792 167.972Z" fill="#67C081"/>
<path d="M364.136 166.323C363.582 169.724 362.136 171.984 359.809 173.08C359.831 170.492 361.277 168.244 364.136 166.323Z" fill="#67C081"/>
<path d="M362.498 173.215C363.447 170.82 365.594 169.227 368.961 168.458C367.221 171.441 365.074 173.023 362.498 173.215Z" fill="#67C081"/>
<path d="M358.125 193.96C354.611 198.412 350.736 200.503 346.499 200.209C348.6 196.537 352.476 194.446 358.125 193.96Z" fill="#67C081"/>
<path d="M351.391 186.13C354.035 183.881 357.594 183.35 362.08 184.559C358.136 187 354.566 187.52 351.391 186.13Z" fill="#67C081"/>
<path d="M363.921 179.949C360.486 182.074 357.379 182.526 354.622 181.317C356.916 179.351 360.012 178.887 363.921 179.949Z" fill="#67C081"/>
<path d="M358.792 177.102C361.085 175.147 364.192 174.695 368.091 175.735C364.656 177.87 361.548 178.322 358.792 177.102Z" fill="#67C081"/>
<path d="M342.826 206.683C345.041 196.864 345.301 197.655 347.617 191.949C348.238 190.401 348.905 188.943 349.617 187.565C351.108 184.751 352.894 182.096 354.95 179.667C357.3 176.763 359.345 174.853 361.085 173.938L361.255 173.746C361.278 173.678 361.357 173.633 361.424 173.644C361.492 173.611 361.571 173.611 361.639 173.633C361.696 173.678 361.752 173.746 361.775 173.814C361.809 173.882 361.809 173.961 361.786 174.029L361.73 174.176C361.673 174.232 361.617 174.289 361.549 174.322V174.356L361.391 174.424C359.707 175.362 357.73 177.226 355.436 180.028C353.413 182.446 351.673 185.079 350.227 187.881C349.481 189.282 348.815 190.717 348.227 192.186L348.08 192.57C350.442 189.565 354.17 188.22 359.278 188.537C355.549 192.039 351.82 193.384 348.08 192.57C345.843 198.186 345.64 197.237 343.493 206.807L342.826 206.683Z" fill="#67C081"/>
<path d="M36.6542 199.542C39.2869 196.265 39.8066 191.938 38.1796 186.548C35.3661 191.418 34.8576 195.757 36.6542 199.542Z" fill="#67C081"/>
<path d="M33.4904 192.062C35.4113 188.74 35.2757 184.774 33.0723 180.142C31.208 184.921 31.3436 188.887 33.4904 192.062Z" fill="#67C081"/>
<path d="M29.9762 184.639C31.3208 181.249 30.6316 177.543 27.9198 173.498C26.8238 178.243 27.5017 181.961 29.9762 184.639Z" fill="#67C081"/>
<path d="M21.9993 169.181C21.9315 173.305 23.1518 176.254 25.6715 178.04C26.1799 175 24.9596 172.04 21.9993 169.181Z" fill="#67C081"/>
<path d="M16.6548 167.532C17.2084 170.933 18.6547 173.193 20.9823 174.289C20.9597 171.712 19.5135 169.453 16.6548 167.532Z" fill="#67C081"/>
<path d="M18.2932 174.424C17.344 172.029 15.1972 170.436 11.8301 169.667C13.5701 172.65 15.7283 174.232 18.2932 174.424Z" fill="#67C081"/>
<path d="M23.8521 194.119C27.3661 198.57 31.2417 200.661 35.4788 200.367C33.3885 196.683 29.5129 194.604 23.8521 194.119Z" fill="#67C081"/>
<path d="M29.3999 187.339C26.7559 185.09 23.1967 184.559 18.7109 185.768C22.6543 188.209 26.2248 188.74 29.3999 187.339Z" fill="#67C081"/>
<path d="M16.8696 181.158C20.3046 183.283 23.4118 183.735 26.1688 182.526C23.8864 180.56 20.7791 180.108 16.8696 181.158Z" fill="#67C081"/>
<path d="M22.0101 178.322C19.7164 176.367 16.6091 175.915 12.7109 176.955C16.1459 179.079 19.2418 179.531 22.0101 178.322Z" fill="#67C081"/>
<path d="M37.9644 207.903C35.7498 198.084 35.4899 198.875 33.1736 193.169C32.5521 191.621 31.8855 190.164 31.1736 188.785C29.6822 185.972 27.8969 183.317 25.8405 180.887C23.4903 177.983 21.4451 176.074 19.7051 175.159L19.5356 174.967C19.513 174.899 19.4339 174.854 19.3661 174.865C19.2983 174.831 19.2192 174.831 19.1514 174.854C19.0949 174.899 19.0384 174.967 19.0158 175.034C18.9819 175.102 18.9819 175.181 19.0045 175.249L19.061 175.396C19.1175 175.452 19.174 175.509 19.2418 175.543V175.577L19.4 175.644C21.0836 176.582 23.0609 178.447 25.3546 181.249C27.3771 183.667 29.1172 186.299 30.5635 189.102C31.3092 190.503 31.9759 191.938 32.5634 193.407L32.7103 193.791C30.3488 190.785 26.6201 189.441 21.5129 189.757C25.2416 193.26 28.9703 194.604 32.7103 193.791C34.9475 199.406 35.1509 198.457 37.2978 208.028L37.9644 207.903Z" fill="#67C081"/>
<path d="M22.8812 196.311C22.2823 193.542 20.2259 191.452 16.7231 190.017C18.079 193.565 20.1242 195.655 22.8812 196.311Z" fill="#67C081"/>
<path d="M11.0396 189.813C12.7796 192.503 14.8473 193.87 17.2428 193.938C16.2597 191.746 14.192 190.367 11.0396 189.813Z" fill="#67C081"/>
<path d="M6.88135 191.068C8.7118 193.022 10.6213 193.847 12.5987 193.542C11.4575 191.893 9.55923 191.068 6.88135 191.068Z" fill="#67C081"/>
<path d="M10.9153 194.796C9.26559 193.655 7.18655 193.576 4.68945 194.536C7.10746 195.7 9.18649 195.791 10.9153 194.796Z" fill="#67C081"/>
<path d="M22.7339 206.276C26.9372 207.621 30.3382 207.282 32.937 205.271C29.9992 203.79 26.5869 204.129 22.7339 206.276Z" fill="#67C081"/>
<path d="M23.6832 198.299C21.0053 197.994 18.4856 199.203 16.1128 201.926C19.7172 201.791 22.2369 200.582 23.6832 198.299Z" fill="#67C081"/>
<path d="M12.9263 199.757C16.0674 199.632 18.2594 198.582 19.5136 196.604C17.186 196.322 14.9827 197.384 12.9263 199.757Z" fill="#67C081"/>
<path d="M15.0058 195.7C12.6782 195.44 10.4862 196.491 8.41846 198.853C11.5596 198.728 13.7516 197.678 15.0058 195.7Z" fill="#67C081"/>
<path d="M38.1121 207.847C32.4286 202.48 32.5981 203.101 28.6321 200.423C27.5587 199.7 26.4966 199.045 25.4458 198.457C23.265 197.282 20.9713 196.356 18.5872 195.678C15.8189 194.83 13.6721 194.491 12.1467 194.65L11.9547 194.593C11.9095 194.559 11.8417 194.559 11.7965 194.604C11.74 194.616 11.6835 194.65 11.6496 194.695C11.627 194.751 11.627 194.819 11.6383 194.875C11.6496 194.932 11.6835 194.988 11.7287 195.022L11.8304 195.09C11.8869 195.101 11.9547 195.113 12.0112 195.101L12.0225 195.124L12.158 195.101C13.6495 194.977 15.7399 195.316 18.4177 196.13C20.7679 196.819 23.0391 197.757 25.1859 198.932C26.2706 199.508 27.3214 200.152 28.3383 200.841L28.5982 201.022C25.7734 200.107 22.7905 200.864 19.6267 203.282C23.5475 203.926 26.5418 203.169 28.5982 201.022C32.4738 203.677 32.1913 202.977 37.7279 208.208L38.1121 207.847Z" fill="#67C081"/>
<path d="M223.247 200.503C225.824 196.909 226.106 192.333 224.095 186.785C221.417 192.051 221.135 196.627 223.247 200.503Z" fill="#67C081"/>
<path d="M219.485 192.83C221.304 189.237 220.931 185.079 218.355 180.356C216.672 185.475 217.045 189.633 219.485 192.83Z" fill="#67C081"/>
<path d="M215.361 185.249C216.57 181.622 215.643 177.757 212.558 173.678C211.688 178.729 212.626 182.593 215.361 185.249Z" fill="#67C081"/>
<path d="M206.106 169.509C206.276 173.837 207.734 176.865 210.468 178.594C210.829 175.362 209.372 172.334 206.106 169.509Z" fill="#67C081"/>
<path d="M200.401 168.097C201.181 171.633 202.83 173.916 205.339 174.921C205.158 172.221 203.508 169.938 200.401 168.097Z" fill="#67C081"/>
<path d="M202.514 175.226C201.384 172.763 199.033 171.226 195.463 170.616C197.463 173.633 199.813 175.181 202.514 175.226Z" fill="#67C081"/>
<path d="M208.31 196.729C212.253 201.203 216.445 203.158 220.875 202.615C218.468 198.875 214.276 196.909 208.31 196.729Z" fill="#67C081"/>
<path d="M214.92 188.119C212.016 185.904 208.253 185.565 203.609 187.102C207.903 189.429 211.666 189.768 214.92 188.119Z" fill="#67C081"/>
<path d="M201.417 182.367C205.146 184.401 208.423 184.695 211.259 183.249C208.739 181.328 205.463 181.034 201.417 182.367Z" fill="#67C081"/>
<path d="M206.638 179.091C204.118 177.17 200.83 176.876 196.796 178.209C200.525 180.232 203.813 180.526 206.638 179.091Z" fill="#67C081"/>
<path d="M225.101 209.191C222.208 199.022 221.971 199.87 219.214 194.017C218.468 192.435 217.688 190.943 216.864 189.531C215.135 186.661 213.112 183.994 210.807 181.565C208.175 178.661 205.915 176.774 204.039 175.916L203.858 175.723C203.824 175.644 203.745 175.61 203.666 175.622C203.598 175.588 203.508 175.599 203.44 175.633C203.384 175.69 203.339 175.757 203.305 175.836C203.271 175.904 203.282 175.995 203.316 176.062L203.384 176.209C203.44 176.266 203.508 176.311 203.587 176.345V176.379L203.757 176.435C205.576 177.317 207.756 179.158 210.321 181.961C212.581 184.379 214.57 187.045 216.253 189.893C217.112 191.316 217.892 192.785 218.604 194.288L218.784 194.683C216.14 191.666 212.141 190.48 206.796 191.113C210.909 194.57 214.909 195.757 218.784 194.683C221.462 200.446 221.609 199.429 224.434 209.35L225.101 209.191Z" fill="#67C081"/>
<path d="M352.86 211.643H20.8134C19.7625 211.643 18.9038 210.785 18.9038 209.734C18.9038 208.683 19.7625 207.824 20.8134 207.824H352.86C353.911 207.824 354.769 208.683 354.769 209.734C354.769 210.796 353.922 211.643 352.86 211.643Z" fill="#3D704A"/>
<path d="M67.9187 82.2912L67.4667 79.2744C67.4667 79.2744 69.5797 78.9467 69.4667 77.4552L67.2407 77.4326C67.2407 77.4326 66.043 76.3366 67.4215 72.9921C67.7379 69.8509 65.6702 71.4215 65.3877 70.4385C64.9696 68.9696 62.3482 71.9074 62.2691 75.0146C62.1675 79.0371 64.303 82.2912 64.303 82.2912H67.9187Z" fill="#F37A50"/>
<path d="M100.11 202.74C100.833 200.751 102.358 200.536 102.358 200.536C105.341 204.728 112.663 202.152 112.426 207.836C101.285 207.768 96.6636 207.836 96.6636 207.836C96.6749 206.536 96.9009 203.44 97.1607 202.231L97.737 202.344L100.11 202.74Z" fill="black"/>
<path d="M83.455 202.853C84.1782 200.864 85.7035 200.649 85.7035 200.649C88.6865 204.841 96.0083 202.265 95.771 207.949C84.6301 207.881 80.0088 207.949 80.0088 207.949C80.0201 206.649 80.2461 203.553 80.506 202.344L81.0822 202.457L83.455 202.853Z" fill="black"/>
<path d="M107.522 136.482C107.522 136.482 109.33 163.374 108.596 169.351C107.861 175.328 105.262 182.989 105.556 202.762C101.929 203.689 96.6639 202.762 96.6639 202.762C96.6639 202.762 95.8842 180.401 99.7259 170.424C98.1666 160.73 93.1611 138.504 93.1611 138.504L107.522 136.482Z" fill="#201D40"/>
<path d="M102.121 137.216C102.121 137.216 98.4716 167.407 96.6863 173.125C94.9011 178.853 91.4096 183.689 88.1781 203.169C84.4494 203.361 79.9976 202.389 79.9976 202.389C79.9976 202.389 81.4777 178.458 87.2855 172.842C87.4776 163.001 86.3477 137.408 86.3477 137.408L102.121 137.216Z" fill="#2C2858"/>
<path d="M88.0313 100.969C88.0313 100.969 87.7601 101.172 72.721 98.5845H72.7097L67.3879 103.115C67.3766 103.115 67.3766 103.127 67.3879 103.138C71.3539 107.522 88.4494 110.211 88.4494 110.211L88.0313 100.969Z" fill="#95A6DB"/>
<path d="M94.4268 97.6693L99.7147 96.8105L104.958 97.9066L99.5565 104.257L94.4268 97.6693Z" fill="#95A6DB"/>
<path d="M96.3701 100.754C98.4604 102.381 100.675 103.082 102.969 101.432L103.285 93.2966L96.3927 93.2175L96.3701 100.754Z" fill="#F37A50"/>
<path d="M106.517 100.664L104.901 100.144L104.957 97.9066L100.822 101.714L99.6016 101.997L98.3926 101.658L94.4267 97.6693L94.3815 99.9065L93.0143 100.279L87.2065 101.082V126.923L85.0371 138.866C91.8392 140.64 101.974 140.73 109.228 139.227L108.031 128.335L110.336 102.121L106.517 100.664Z" fill="#95A6DB"/>
<path d="M99.85 104.867C99.85 104.867 99.1269 120.674 97.9292 128.753C98.3134 129.216 100.042 131.318 100.042 131.318C100.042 131.318 102.144 129.329 102.72 128.968C104.019 114.708 101.681 104.946 101.681 104.946L99.85 104.867Z" fill="#398E8A"/>
<path d="M98.5166 102.121L100.743 101.545L102.381 102.2L101.68 104.946L99.7143 104.935L98.5166 102.121Z" fill="#318482"/>
<path d="M100.743 101.545C100.743 101.545 98.9465 103.918 97.3082 104.867L93.1162 100.415L94.4043 97.6693L100.743 101.545Z" fill="white"/>
<path d="M100.743 101.545C100.743 101.545 102.166 103.613 104.008 104.98L107.274 100.89L104.946 97.9178L100.743 101.545Z" fill="white"/>
<path d="M63.7383 81.828C66.1337 81.2744 67.3879 81.0484 69.1844 81.2179C72.2352 94.3248 74.8227 99.3981 73.2069 102.923C71.8623 105.861 68.5404 105.296 67.128 102.867C65.2524 99.658 64.4388 88.0538 63.7383 81.828Z" fill="#95A6DB"/>
<path d="M110.335 102.132C113.906 102.268 118.075 118.968 118.075 118.968L125.036 111.545L127.815 118.087C127.815 118.087 118.742 129.646 114.821 128.471C111.149 127.375 109.285 114.189 109.285 114.189L110.335 102.132Z" fill="#95A6DB"/>
<path d="M94.2459 92.9238C90.8562 93.3305 89.0822 88.9917 89.0822 88.9917C87.0032 88.6527 87.3535 86.5737 87.3535 86.5737C86.3705 86.2686 85.0485 85.2178 85.4778 83.3308C85.8394 81.7377 87.3987 81.8167 87.6021 79.9411C87.7602 78.4383 86.6868 74.7774 91.4663 74.4949C91.4663 74.4949 91.5793 71.7154 94.4606 71.0487C97.9859 70.2352 98.856 72.3481 100.393 72.7323C102.121 73.1616 105.816 71.5685 106.302 75.557C106.302 75.557 108.765 75.6135 109.895 77.4101C110.946 79.0824 110.336 81.2066 109.624 81.9975C109.624 81.9975 111.601 82.6755 112.053 84.5398C112.358 85.794 111.873 87.4098 110.618 88.2007C109.827 88.6979 109.07 88.7431 109.07 88.7431C108.268 88.8787 108.212 91.0368 107.5 91.4436C106.359 92.1102 105.127 92.5848 103.861 92.9577L94.2459 92.9238Z" fill="#18263A"/>
<path d="M107.285 84.6415C107.68 90.4945 104.46 95.4774 100.11 95.7712C95.7599 96.0649 91.9069 91.5566 91.5228 85.7037C91.1273 79.8507 94.6187 76.0655 98.9689 75.7831C103.319 75.478 106.901 78.7886 107.285 84.6415Z" fill="#F37A50"/>
<path d="M96.2343 87.6472C95.771 87.6811 95.3755 87.3308 95.3416 86.8675C95.3077 86.4043 95.658 86.0088 96.1213 85.9749C96.5845 85.941 96.98 86.2913 97.0139 86.7546C97.0478 87.2178 96.6975 87.6133 96.2343 87.6472Z" fill="black"/>
<path d="M102.912 87.2064C102.449 87.2403 102.053 86.89 102.019 86.4268C101.985 85.9635 102.336 85.568 102.799 85.5341C103.262 85.5002 103.658 85.8505 103.692 86.3138C103.726 86.7657 103.375 87.1725 102.912 87.2064Z" fill="black"/>
<path d="M104.291 85.5115C104.155 85.5228 104.019 85.455 103.929 85.342C103.703 85.003 103.432 84.811 103.138 84.7658C102.63 84.6867 102.166 85.0482 102.155 85.0595C101.985 85.1951 101.726 85.1725 101.59 84.9917C101.454 84.8223 101.477 84.5624 101.647 84.4268C101.68 84.4042 102.381 83.8392 103.24 83.9635C103.759 84.0426 104.211 84.3477 104.584 84.8788C104.709 85.0595 104.663 85.3081 104.483 85.4437C104.426 85.4776 104.358 85.5002 104.291 85.5115Z" fill="#2C2858"/>
<path d="M94.5508 86.2008C94.4604 86.2121 94.3701 86.1782 94.291 86.133C94.1102 86.0087 94.065 85.7488 94.1893 85.568C94.6751 84.8675 95.2401 84.472 95.8615 84.3816C96.6638 84.2686 97.2513 84.7206 97.2739 84.7432C97.4434 84.8788 97.4773 85.1387 97.3417 85.3082C97.2061 85.4776 96.9463 85.5115 96.7768 85.3759C96.7655 85.3646 96.4152 85.1048 95.9632 85.1839C95.5791 85.2404 95.1949 85.5341 94.8559 86.0313C94.7768 86.133 94.6638 86.1895 94.5508 86.2008Z" fill="#2C2858"/>
<path d="M100.404 87.6357C101.545 88.3476 101.895 88.6414 102.336 88.8786C102.11 89.8617 100.63 90.4492 100.189 90.3701C101.206 89.7826 101.308 89.0594 101.308 89.0594L100.404 87.6357Z" fill="#DE623C"/>
<path d="M92.9234 86.6528C93.737 87.8618 93.6692 89.342 92.7653 89.9408C91.8613 90.5397 90.4715 90.0538 89.6693 88.8335C88.8558 87.6245 88.9236 86.1443 89.8275 85.5455C90.7314 84.9466 92.1099 85.4438 92.9234 86.6528Z" fill="#F37A50"/>
<path d="M92.1215 88.9577C92.0876 88.9577 92.0537 88.9577 92.0198 88.9464C91.8842 88.9012 91.8051 88.7431 91.8503 88.6075C92.0085 88.1442 91.9859 87.7713 91.7938 87.5228C91.4887 87.1273 90.8108 87.0482 90.3249 87.0934C90.178 87.1047 90.0424 87.003 90.0311 86.8561C90.0198 86.7092 90.1215 86.5736 90.2684 86.5623C90.9125 86.4945 91.7712 86.6301 92.2119 87.1838C92.4378 87.4663 92.6412 87.9634 92.3587 88.777C92.3248 88.8786 92.2345 88.9464 92.1215 88.9577Z" fill="#DE623C"/>
<path d="M97.1156 91.7148C96.98 91.5227 97.1382 91.2628 97.3642 91.2967C97.9517 91.3758 98.9121 91.5001 99.8387 91.5227C100.765 91.5453 101.737 91.4662 102.324 91.4097C102.55 91.3871 102.697 91.647 102.562 91.8391C102.121 92.404 101.228 93.2515 99.8048 93.2176C98.3811 93.1837 97.5224 92.291 97.1156 91.7148Z" fill="white"/>
<path d="M88.7544 81.523L98.0649 73.7153L108.618 78.8338L107.477 86.3929C107.138 82.9128 105.036 84.0879 103.906 83.0823C102.765 82.0767 102.257 80.4722 99.658 81.9524C99.658 81.9524 97.4999 80.5287 96.4491 82.619C95.6355 84.2348 94.483 83.9523 93.3418 84.054C91.9972 84.1783 92.3362 85.489 91.5114 85.4551L88.7544 81.523Z" fill="#18263A"/>
<path d="M88.6527 57.5462C88.5397 57.1846 88.3476 56.8796 88.1104 56.6197C86.1895 53.8514 81.7716 55.4785 75.3537 57.3428C74.2803 57.6479 74.495 56.2129 74.0091 53.343C73.6927 51.4786 71.6702 49.0945 69.7154 49.7046C66.5065 50.7103 70.3821 52.2695 69.5121 59.388C69.0488 63.1958 65.0715 62.3935 66.1223 65.7494L68.5177 73.3649C68.9245 74.6643 69.4556 75.8846 71.3538 75.5005C73.1956 75.1389 73.1956 76.5287 75.7718 75.7152L88.6527 71.6588C89.9634 71.2407 90.6979 69.8509 90.2911 68.5402C90.1216 67.9979 89.7713 67.5685 89.342 67.2634C89.9408 66.6307 90.2007 65.7042 89.9182 64.8115C89.7487 64.2692 89.3985 63.8398 88.9691 63.5347C89.568 62.902 89.8278 61.9755 89.5566 61.0828C89.3533 60.4388 88.9013 59.9303 88.3477 59.6365C88.7431 59.049 88.8787 58.292 88.6527 57.5462Z" fill="#FFB265"/>
<path d="M80.8787 62.5969L87.0254 60.6648C87.8615 60.4049 88.5055 59.7157 88.7089 58.8569C88.788 58.5067 88.5733 58.1564 88.2231 58.0773C87.8728 57.9982 87.5225 58.2129 87.4321 58.5632C87.3417 58.9699 87.0254 59.2976 86.6299 59.4219L80.3363 61.3992C79.7148 61.5913 79.0482 61.2523 78.8561 60.6309C78.664 60.0094 79.0143 59.3428 79.6358 59.1507L83.839 57.8287C84.1893 57.7157 84.3814 57.3542 84.2684 57.0152C84.1554 56.6762 83.7938 56.4841 83.4435 56.5858L79.2403 57.9078C77.9296 58.3259 77.1951 59.7157 77.6019 61.0264C77.8279 61.7495 78.3703 62.2919 79.0256 62.563C78.7205 63.128 78.6414 63.8172 78.8448 64.4726C79.0708 65.207 79.6245 65.7381 80.2798 66.0093C79.9747 66.5742 79.8956 67.2522 80.099 67.9188C80.3476 68.7097 80.969 69.286 81.7148 69.5346C81.4775 70.0656 81.4097 70.6871 81.6018 71.2972C82.0086 72.6079 83.4097 73.3311 84.7316 72.913L88.6411 71.6814C89.4773 71.4215 90.1213 70.7323 90.3247 69.8735C90.4038 69.5233 90.1891 69.173 89.8388 69.0939C89.4886 69.0148 89.1383 69.2295 89.0479 69.5798C88.9462 69.9865 88.6411 70.3142 88.2457 70.4385L84.3362 71.6701C83.7147 71.8622 83.0481 71.5232 82.856 70.9018C82.6639 70.2803 83.0142 69.6137 83.6356 69.4216L88.2796 67.964C89.1157 67.7041 89.7597 67.0036 89.9631 66.1561C90.0422 65.8059 89.8275 65.4556 89.4773 65.3765C89.127 65.2974 88.7767 65.5121 88.6863 65.8624C88.5846 66.2691 88.2909 66.5968 87.8841 66.7211L82.8447 68.303C82.2232 68.4951 81.5566 68.1561 81.3645 67.5346C81.1724 66.9132 81.5227 66.2465 82.1442 66.0544L87.918 64.2353C88.7541 63.9754 89.3982 63.2862 89.6016 62.4274C89.6806 62.0772 89.466 61.7269 89.1157 61.6478C88.7654 61.5687 88.4152 61.7834 88.3248 62.1337C88.2231 62.5404 87.9293 62.8681 87.5225 62.9924L81.5792 64.8455C80.9577 65.0375 80.2911 64.6986 80.099 64.0771C79.9069 63.4557 80.2459 62.789 80.8787 62.5969Z" fill="#BC814B"/>
<path d="M69.7494 76.6418L65.7382 77.9073C65.1846 78.0768 64.5857 77.7717 64.4162 77.218L60.6649 65.2975C60.4955 64.7438 60.8005 64.145 61.3542 63.9755L65.3654 62.71C65.919 62.5405 66.5179 62.8456 66.6874 63.3992L70.4387 75.3198C70.6194 75.8734 70.3031 76.461 69.7494 76.6418Z" fill="#7F99EB"/>
<path d="M66.7437 77.6473C67.286 77.444 67.6137 77.3536 67.6928 76.5287C67.7719 75.7039 67.7041 74.6644 68.3933 75.0033C69.0826 75.3423 69.5571 76.9581 69.4441 77.6247C68.6645 78.0993 66.7437 77.6473 66.7437 77.6473Z" fill="#F37A50"/>
<path d="M63.7383 81.8281L63.2524 84.7998L70.755 83.975L69.128 81.105C69.128 81.105 66.1224 81.0598 63.7383 81.8281Z" fill="white"/>
<path d="M297.822 82.7771C297.822 82.7771 297.889 86.4945 298.274 89.5114L301.403 85.3985C301.121 84.1895 300.782 81.8958 300.872 80.5625C300.895 80.2235 294.5 79.9636 297.822 82.7771Z" fill="#F37A50"/>
<path d="M323.606 200.898C320.668 204.818 313.437 202.412 313.674 207.722C324.657 207.655 329.222 207.722 329.222 207.722C329.21 206.502 328.996 203.609 328.736 202.48L323.606 200.898Z" fill="black"/>
<path d="M340.046 201C337.108 204.92 329.877 202.514 330.114 207.824C341.097 207.756 345.662 207.824 345.662 207.824C345.65 206.604 345.436 203.711 345.176 202.581L340.046 201Z" fill="black"/>
<path d="M318.522 140.99C318.522 140.99 316.736 166.142 317.46 171.735C318.183 177.328 320.748 184.492 320.454 202.988C324.036 203.858 329.222 202.988 329.222 202.988C329.222 202.988 329.99 182.074 326.205 172.741C327.742 163.667 332.679 142.888 332.679 142.888L318.522 140.99Z" fill="#201D40"/>
<path d="M325.301 141.679C325.301 141.679 328.905 169.916 330.668 175.272C332.431 180.627 334.204 184.187 337.402 202.412C341.086 202.593 347.131 202.649 347.131 202.649C347.131 202.649 345.673 180.266 339.944 175.012C339.752 165.814 340.871 141.86 340.871 141.86L325.301 141.679Z" fill="#2C2858"/>
<path d="M339.968 95.4772C338.013 100.358 333.324 103.07 329.493 101.534C325.663 99.9969 324.138 94.7993 326.092 89.9294C328.047 85.0482 332.736 82.3364 336.567 83.8731C340.397 85.4097 341.922 90.6073 339.968 95.4772Z" fill="#F37A50"/>
<path d="M327.753 91.5339C327.527 91.8616 327.075 91.9407 326.759 91.7147C326.431 91.4887 326.352 91.0367 326.578 90.7204C326.804 90.3927 327.256 90.3136 327.572 90.5396C327.9 90.7543 327.979 91.2062 327.753 91.5339Z" fill="black"/>
<path d="M333.131 93.726C332.882 94.0762 332.397 94.1666 332.046 93.9181C331.696 93.6695 331.606 93.1836 331.854 92.8333C332.103 92.4831 332.589 92.3927 332.939 92.6413C333.289 92.8898 333.38 93.3757 333.131 93.726Z" fill="black"/>
<path d="M328.849 92.675C327.877 93.4434 326.668 94.3586 326.668 94.3586C326.668 94.3586 326.657 95.5337 328.024 96.0309C327.527 95.5789 327.098 94.9801 327.606 94.2908C328.115 93.6129 328.849 92.675 328.849 92.675Z" fill="#DE623C"/>
<path d="M334.544 93.2513C334.386 93.2513 334.239 93.1383 334.194 92.9801C334.182 92.9462 333.945 92.0084 333.143 92.0084C332.939 92.0084 332.781 91.8502 332.781 91.6468C332.781 91.4435 332.939 91.2853 333.143 91.2853C334.239 91.2853 334.759 92.2796 334.883 92.8107C334.928 93.0027 334.815 93.1948 334.623 93.24C334.6 93.2513 334.578 93.2513 334.544 93.2513Z" fill="black"/>
<path d="M328.51 90.0085C328.408 90.0085 328.307 89.952 328.25 89.8616C328.25 89.8503 328.047 89.5452 327.73 89.4888C327.504 89.4436 327.244 89.5453 326.973 89.7599C326.849 89.8616 326.657 89.839 326.555 89.7147C326.454 89.5904 326.476 89.3984 326.6 89.2967C327.019 88.9577 327.437 88.8221 327.843 88.9012C328.431 89.0142 328.747 89.5339 328.759 89.5565C328.838 89.7034 328.792 89.8842 328.657 89.9633C328.612 89.9972 328.555 90.0085 328.51 90.0085Z" fill="black"/>
<path d="M338.6 95.9858C337.188 91.4435 338.973 89.0368 338.973 89.0368C337.764 88.7996 337.289 89.2176 337.289 89.2176C336.623 87.8617 337.142 86.89 337.142 86.89C334.634 85.9183 333.391 87.5341 331.131 88.0877C328.035 88.8334 324.216 87.6019 323.855 83.828C323.798 83.2856 324.408 82.924 324.86 83.2291C325.29 83.5116 325.843 83.7376 326.544 83.7263C326.544 83.7263 325.9 82.9918 325.866 81.9862C325.843 81.4325 326.499 81.1275 326.928 81.489C327.572 82.0201 328.77 82.5286 330.894 82.1331C332.306 81.8732 335.549 79.6021 337.572 80.0428C339.222 80.4043 340.532 81.8054 341.097 83.828C341.097 83.828 345.154 84.246 345.56 88.7205C345.956 93.1045 340.871 96.4829 340.871 96.4829L338.6 95.9858Z" fill="#18263A"/>
<path d="M338.046 95.2287C336.973 95.8388 336.498 97.0478 337.007 97.9292C337.504 98.8105 338.781 99.0252 339.854 98.415C340.927 97.8049 341.402 96.5959 340.894 95.7145C340.396 94.8445 339.12 94.6185 338.046 95.2287Z" fill="#F37A50"/>
<path d="M338.227 97.8726C338.193 97.85 338.171 97.8161 338.148 97.7822C337.854 97.2399 337.899 96.6749 338.272 96.2907C338.656 95.8953 339.278 95.771 339.752 96.0083C339.888 96.0761 339.944 96.2342 339.877 96.3698C339.809 96.5054 339.651 96.5619 339.515 96.4941C339.255 96.3585 338.882 96.4376 338.668 96.6636C338.453 96.8783 338.442 97.1834 338.634 97.5223C338.702 97.6579 338.656 97.8161 338.521 97.8839C338.419 97.9404 338.306 97.9291 338.227 97.8726Z" fill="#DE623C"/>
<path d="M326.883 97.6014C326.781 97.4319 326.928 97.2173 327.12 97.2625C327.617 97.3642 328.453 97.5223 329.256 97.6014C330.058 97.6692 330.905 97.6692 331.414 97.6466C331.617 97.6353 331.73 97.8726 331.595 98.0308C331.188 98.4941 330.352 99.1833 329.131 99.0703C327.9 98.946 327.21 98.1325 326.883 97.6014Z" fill="white"/>
<path d="M321.098 103.748C321.098 103.748 320.544 103.511 306.669 100.155H306.658L301.403 104.053C301.392 104.053 301.392 104.065 301.403 104.076C304.827 108.415 320.499 111.838 320.499 111.838L321.098 103.748C321.098 103.748 321.098 103.76 321.098 103.748Z" fill="#201D40"/>
<path d="M327.471 103.579L332.465 103.115L337.29 104.46L331.855 110.053L327.471 103.579Z" fill="#95A6DB"/>
<path d="M329.199 106.155C331.233 107.827 331.843 108.98 335.967 106.742L336.611 100.11L329.583 99.5562L329.199 106.155Z" fill="#F37A50"/>
<path d="M338.566 107.138L337.086 106.551L337.29 104.46L333.188 107.748L332.035 107.929L330.928 107.545L327.482 103.579L327.301 105.669L326.002 105.929L321.301 106.686L320.736 132.787L318.883 141.668C325.12 143.747 332.103 144.267 338.962 143.318L338.736 134.403L343.606 108.901L338.566 107.138Z" fill="#95A6DB"/>
<path d="M331.131 110.573L328.182 130.504L329.809 132.764L331.933 131.137L332.657 110.742L331.131 110.573Z" fill="#2C2858"/>
<path d="M330.951 108.223L332.024 107.94L333.12 108.415L332.657 110.776L331.12 110.641L330.951 108.223Z" fill="#2C2858"/>
<path d="M327.403 103.805L326.612 127.861L323.425 143.363C323.425 143.363 318.386 142.854 315.29 139.905L319.256 128.233L320.973 103.703L327.403 103.805Z" fill="#2C2858"/>
<path d="M327.403 103.805L326.612 127.544L322.951 109.353L327.403 103.805Z" fill="#494C7F"/>
<path d="M337.662 105.285L331.12 144.312C331.12 144.312 339.798 145.374 343.368 143.035L341.436 130.211L343.809 108.426L337.662 105.285Z" fill="#2C2858"/>
<path d="M337.662 105.285L333.843 128.166L340.69 110.901L337.662 105.285Z" fill="#494C7F"/>
<path d="M296.387 84.8223C298.567 84.0992 299.709 83.7715 301.404 83.7715C305.403 95.7033 308.262 100.2 307.076 103.624C306.081 106.483 302.94 106.257 301.404 104.11C299.381 101.285 297.584 90.5622 296.387 84.8223Z" fill="#201D40"/>
<path d="M327.922 159.747C327.843 159.43 327.832 159.103 327.888 158.798C328.013 155.826 332.08 154.967 337.752 153.317C338.702 153.046 337.854 152.063 336.871 149.69C336.227 148.142 336.623 145.419 338.363 144.956C341.233 144.199 339.063 147.182 343.086 152.086C345.232 154.707 347.82 152.233 348.611 155.227L350.407 162.04C350.713 163.204 350.893 164.357 349.3 164.978C347.752 165.577 348.408 166.616 346.102 167.227L334.577 170.277C333.402 170.582 332.193 169.893 331.888 168.718C331.764 168.232 331.809 167.746 331.99 167.317C331.244 167.125 330.611 166.56 330.408 165.769C330.284 165.283 330.329 164.797 330.51 164.368C329.764 164.176 329.131 163.611 328.917 162.809C328.758 162.232 328.86 161.645 329.143 161.159C328.566 160.91 328.103 160.413 327.922 159.747Z" fill="#FFB265"/>
<path d="M336.102 159.848L330.611 161.306C329.865 161.498 329.052 161.295 328.509 160.752C328.283 160.526 328.283 160.165 328.509 159.939C328.735 159.713 329.097 159.713 329.323 159.927C329.583 160.187 329.967 160.289 330.317 160.187L335.944 158.696C336.498 158.549 336.837 157.973 336.69 157.419C336.543 156.865 335.967 156.538 335.413 156.685L331.65 157.679C331.345 157.758 331.029 157.577 330.95 157.272C330.871 156.967 331.052 156.651 331.357 156.572L335.119 155.577C336.294 155.272 337.503 155.961 337.808 157.137C337.978 157.792 337.831 158.447 337.47 158.956C337.967 159.238 338.351 159.701 338.509 160.3C338.679 160.956 338.532 161.611 338.159 162.131C338.656 162.413 339.029 162.876 339.187 163.464C339.379 164.176 339.187 164.899 338.746 165.43C339.176 165.713 339.515 166.153 339.662 166.684C339.967 167.848 339.266 169.057 338.091 169.362L334.588 170.289C333.843 170.481 333.029 170.277 332.487 169.735C332.261 169.509 332.261 169.147 332.475 168.922C332.701 168.696 333.063 168.696 333.289 168.91C333.549 169.17 333.933 169.272 334.294 169.17L337.797 168.244C338.351 168.097 338.69 167.52 338.543 166.967C338.396 166.413 337.82 166.085 337.266 166.232L333.108 167.328C332.362 167.52 331.549 167.317 331.006 166.775C330.78 166.549 330.78 166.187 330.995 165.961C331.221 165.735 331.583 165.735 331.809 165.95C332.08 166.21 332.453 166.311 332.814 166.21L337.323 165.012C337.876 164.865 338.215 164.289 338.068 163.735C337.921 163.182 337.345 162.854 336.792 163.001L331.628 164.368C330.882 164.56 330.069 164.357 329.526 163.814C329.3 163.588 329.3 163.227 329.515 163.001C329.741 162.775 330.103 162.775 330.328 162.989C330.6 163.249 330.973 163.351 331.334 163.249L336.645 161.848C337.198 161.701 337.537 161.125 337.39 160.571C337.232 160.029 336.667 159.701 336.102 159.848Z" fill="#BC814B"/>
<path d="M351.029 165.091L354.622 164.142C355.119 164.006 355.413 163.498 355.288 163.001L352.475 152.334C352.339 151.837 351.831 151.543 351.334 151.668L347.741 152.617C347.243 152.752 346.95 153.261 347.074 153.758L349.887 164.424C350.023 164.921 350.531 165.215 351.029 165.091Z" fill="#7F99EB"/>
<path d="M350.17 148.323L350.238 151.182C350.238 151.182 348.204 151.125 348.125 152.515L350.035 152.572C350.035 152.572 351.198 154.074 349.526 157.012C348.859 159.893 350.972 158.673 351.108 159.622C351.323 161.035 354.102 158.617 354.543 155.747C355.119 152.029 354.351 151.577 354.351 151.577L353.515 148.752L350.17 148.323Z" fill="#F37A50"/>
<path d="M343.797 108.426C347.119 108.776 355.311 129.239 355.311 129.239L354.769 149.905L349.39 149.035L348.17 131.397L342.498 120.324L343.797 108.426Z" fill="#201D40"/>
<path d="M332.024 107.94C332.024 107.94 330.171 109.816 328.465 110.291L326.454 104.98L327.471 103.579L332.024 107.94Z" fill="white"/>
<path d="M332.024 107.94C332.024 107.94 333.086 109.759 335.109 110.889L338.035 105.997L337.278 104.46L332.024 107.94Z" fill="white"/>
<path d="M255.744 72.9015C255.688 73.8506 255.948 74.924 255.609 75.828L257.722 76.9353C260.298 75.3308 260.648 71.8394 260.682 71.4439C260.773 70.4383 260.874 69.9637 260.739 69.8846C260.603 69.8056 259.71 69.557 259.53 71.0259C259.304 72.8563 257.846 71.6473 259.236 67.9186C259.586 66.9921 259.134 65.2294 258.456 65.8622C257.711 66.5853 256.004 68.5966 255.744 72.9015Z" fill="#F37A50"/>
<path d="M273.313 199.497L273.02 202.548L275.573 203.327L277.63 201.135L277.969 199.87L273.313 199.497Z" fill="#F37A50"/>
<path d="M265.325 202.084L264.975 199.305L270.409 198.943L270.342 202.073L265.325 202.084Z" fill="#F37A50"/>
<path d="M269.732 85.6585C266.76 82.958 261.483 83.1275 260.67 87.3647C259.868 91.6018 260.139 94.4153 254.873 93.76C250.681 93.2402 246.365 97.0028 246.365 102.935C246.365 110.517 251.619 107.556 250.399 111.307C249.179 115.047 248.399 118.844 253.823 118.968C259.235 119.093 263.449 114.55 262.805 108.392C262.173 102.234 266.116 104.494 267.257 101.443C268.896 97.1045 269.732 85.6585 269.732 85.6585Z" fill="#18263A"/>
<path d="M281.483 137.781C281.483 137.781 285.404 162.639 284.353 173.283C283.291 183.938 277.969 199.87 277.969 199.87L273.314 199.497C273.314 199.497 273.607 197.859 273.46 191.599C273.314 185.328 272.376 176.503 275.991 172.323C275.539 164.176 270.41 137.781 270.41 137.781H281.483Z" fill="#0E6A41"/>
<path d="M262.173 136.945C260.139 144.256 260.026 164.515 261.709 176.209C263.393 187.904 264.963 199.305 264.963 199.305L270.398 199.384C270.398 199.384 270.398 176.006 270.398 170.989C270.398 165.972 271.754 150.515 271.754 150.515L273.449 137.77L262.173 136.945Z" fill="#0E6A41"/>
<path d="M272.704 102.935C276.335 102.935 279.28 98.9738 279.28 94.0877C279.28 89.2015 276.335 85.2405 272.704 85.2405C269.072 85.2405 266.127 89.2015 266.127 94.0877C266.127 98.9738 269.072 102.935 272.704 102.935Z" fill="#F37A50"/>
<path d="M270.139 101.116V110.516C270.139 110.516 273.269 112.189 275.992 110.516C275.574 108.426 275.325 101.771 275.325 101.771L270.139 101.116Z" fill="#F37A50"/>
<path d="M264.534 106.189H280.127C280.127 106.189 282.929 112.471 282.545 117.861C282.161 123.239 281.483 137.883 281.483 137.883C281.483 137.883 268.195 139.171 262.082 137.295C261.596 126.256 262.048 117.748 262.274 114.166C262.5 110.573 264.534 106.189 264.534 106.189Z" fill="#F5A3B7"/>
<path d="M270.138 106.189C269.743 105.997 266.218 105.861 266.218 105.861C266.218 105.861 260.805 94.5735 258.918 91.2177C257.63 85.828 257.721 76.9469 257.721 76.9469L255.608 75.8396C255.608 75.8396 252.071 86.4268 252.964 91.3307C253.201 92.6188 259.867 109.906 259.867 109.906C259.867 109.906 258.24 130.414 257.404 135.273C263.223 136.572 267.009 135.612 267.009 135.612L270.138 106.189Z" fill="#3F964F"/>
<path d="M275.551 106.189L278.511 135.6C278.511 135.6 280.94 136.38 286.161 134.832C286.364 128.618 284.149 109.093 284.149 109.093C284.149 109.093 288.805 101.409 291.618 90.0764C291.415 85.8054 289.562 76.0203 289.562 76.0203L284.149 75.7266L286.07 89.5566C286.07 89.5566 279.438 104.031 278.748 106.121C276.455 105.94 275.551 106.189 275.551 106.189Z" fill="#3F964F"/>
<path d="M265.686 94.0877C269.313 93.6244 272.692 91.6019 274.601 88.9805C275.833 92.0425 279.279 94.0877 279.279 94.0877C279.279 94.0877 281.867 88.2347 277.166 85.0823C272.681 82.0654 261.98 84.1219 265.686 94.0877Z" fill="#18263A"/>
<path d="M269.935 95.9746C269.551 95.9746 269.235 95.6582 269.235 95.274C269.235 94.8899 269.551 94.5735 269.935 94.5735C270.32 94.5735 270.636 94.8899 270.636 95.274C270.636 95.6582 270.32 95.9746 269.935 95.9746Z" fill="black"/>
<path d="M275.506 95.9746C275.122 95.9746 274.805 95.6582 274.805 95.274C274.805 94.8899 275.122 94.5735 275.506 94.5735C275.89 94.5735 276.206 94.8899 276.206 95.274C276.206 95.6582 275.89 95.9746 275.506 95.9746Z" fill="black"/>
<path d="M276.737 94.6414C276.624 94.6414 276.511 94.5849 276.444 94.4719C276.274 94.1782 276.059 94.0087 275.822 93.9522C275.404 93.8618 274.997 94.133 274.997 94.1443C274.85 94.246 274.636 94.2121 274.534 94.0539C274.432 93.907 274.466 93.6923 274.613 93.5906C274.636 93.568 275.257 93.1499 275.969 93.2968C276.398 93.3872 276.76 93.6697 277.031 94.133C277.122 94.2911 277.076 94.4945 276.918 94.5962C276.85 94.6301 276.794 94.6414 276.737 94.6414Z" fill="#2C2858"/>
<path d="M268.602 94.6752C268.523 94.6752 268.455 94.6526 268.387 94.5961C268.24 94.4831 268.218 94.2684 268.331 94.1215C268.771 93.5679 269.257 93.2741 269.788 93.2289C270.466 93.1724 270.93 93.5905 270.941 93.613C271.076 93.7373 271.088 93.952 270.963 94.0876C270.839 94.2232 270.624 94.2345 270.489 94.1102C270.478 94.0989 270.206 93.8729 269.822 93.9068C269.495 93.9407 269.167 94.1554 268.85 94.5509C268.805 94.63 268.704 94.6752 268.602 94.6752Z" fill="#2C2858"/>
<path d="M273.393 96.1893C274.297 96.8447 274.579 97.1046 274.929 97.3305C274.692 98.1328 273.427 98.5395 273.065 98.4491C273.946 98.0198 274.071 97.4209 274.071 97.4209L273.393 96.1893Z" fill="#DE623C"/>
<path d="M267.099 94.7656C267.856 95.726 267.89 96.9463 267.178 97.5113C266.466 98.065 265.28 97.7486 264.534 96.7995C263.777 95.839 263.743 94.6187 264.455 94.0538C265.167 93.4888 266.353 93.8052 267.099 94.7656Z" fill="#F37A50"/>
<path d="M266.444 96.8333C266.41 96.8333 266.387 96.822 266.354 96.8107C266.241 96.7655 266.184 96.6299 266.229 96.517C266.387 96.1328 266.387 95.839 266.241 95.613C266.003 95.2741 265.45 95.1611 265.043 95.1724C264.919 95.1724 264.817 95.082 264.817 94.9577C264.817 94.8334 264.907 94.7317 265.032 94.7317C265.574 94.7091 266.274 94.8673 266.613 95.3644C266.783 95.613 266.93 96.0424 266.647 96.6977C266.613 96.7768 266.523 96.8333 266.444 96.8333Z" fill="#DE623C"/>
<path d="M270.952 99.6355C270.862 99.4773 270.986 99.2965 271.167 99.3304C271.619 99.4208 272.353 99.5677 273.065 99.6242C273.777 99.692 274.534 99.6807 274.986 99.6694C275.167 99.6694 275.257 99.8728 275.144 100.008C274.783 100.426 274.037 101.037 272.952 100.935C271.867 100.833 271.246 100.11 270.952 99.6355Z" fill="white"/>
<path d="M275.629 202.988C276.262 201.316 277.618 201.135 277.618 201.135C280.262 204.661 286.736 202.491 286.522 207.259C276.669 207.203 272.567 207.259 272.567 207.259C272.579 206.163 272.771 203.565 273.008 202.548L273.516 202.638L275.629 202.988Z" fill="#E62552"/>
<path d="M285.968 208.525H273.155C272.839 208.525 272.579 208.265 272.579 207.949V207.124H286.544V207.949C286.544 208.265 286.284 208.525 285.968 208.525Z" fill="white"/>
<path d="M271.539 207.271C271.539 207.271 270.76 204.378 270.692 204.005C270.613 203.587 270.387 202.582 270.342 202.073C270.33 201.949 268.997 201.135 267.98 201.135C266.602 201.135 265.347 201.937 265.325 202.084C265.167 203.045 265.155 204.186 264.895 205.124C264.703 205.824 264.172 207.451 264.172 207.451L271.539 207.271Z" fill="#E62552"/>
<path d="M271.539 207.045C271.358 207.621 269.133 206.954 267.505 206.954C266.138 206.954 264.376 207.485 264.172 207.282C263.833 207.881 264.116 209.135 264.116 209.135C264.116 209.135 265.539 209.214 267.246 209.135C268.952 209.056 270.929 209.169 271.664 208.954C272.127 208.163 271.539 207.045 271.539 207.045Z" fill="white"/>
<path d="M57.1283 202.096L59.761 191.746L53.2414 190.853C53.0154 195.746 52.6539 200.57 52.6878 201.881L57.1283 202.096Z" fill="#F37A50"/>
<path d="M41.5692 190.785H34.7559C34.9818 192.412 35.8745 201.26 35.8745 201.26C36.4507 202.57 41.524 202.265 41.524 201.531C41.1398 199.938 41.5353 190.989 41.5692 190.785Z" fill="#F37A50"/>
<path d="M52.6992 194.83L59.4108 195.825L64.066 167.972C63.1056 157.408 53.8065 134.911 53.8065 134.911L43.3209 138.583L43.061 148.504L55.6934 169.893C54.0551 174.029 52.9251 187.396 52.6992 194.83Z" fill="#318482"/>
<path d="M47.5129 135.668C47.4225 135.013 47.3886 134.81 46.8462 134.482L36.7787 131.623L34.3833 133.985C32.1122 142.233 33.5246 153.69 35.3099 162.797C32.6885 170.673 33.7167 186.91 34.7675 194.537H41.9198C42.3379 189.441 42.2023 179.972 42.2362 175.407C43.1627 171.735 44.0554 167.814 44.8576 163.69C45.8858 158.425 47.1626 153.329 47.5129 148.549C47.8293 144.03 47.931 139.171 47.5129 135.668Z" fill="#49B3B3"/>
<path d="M52.2924 106.223C56.1567 105.398 64.5293 102.426 61.4785 96.5961C58.4278 90.7658 56.5634 92.8109 58.8119 86.5512C61.0605 80.2915 57.1736 74.5855 52.6313 75.2634C48.0778 75.9413 46.4846 79.3311 41.2418 77.6927C36.0104 76.0543 30.858 80.461 32.2817 85.0823C33.7054 89.7036 34.2703 91.9183 32.0557 94.0651C29.8411 96.2119 20.9826 97.6356 23.7283 103.884C26.4739 110.132 28.1462 110.008 26.5078 112.788C24.8695 115.567 27.2423 119.33 32.2365 119.545C37.2307 119.759 41.9424 118.516 44.5073 113.262C47.0835 108.008 52.2924 106.223 52.2924 106.223Z" fill="#18263A"/>
<path d="M38.6995 88.8563C38.1685 93.8957 40.9367 98.325 44.9027 98.7431C48.8687 99.1611 52.507 95.4211 53.0381 90.3704C53.5691 85.331 50.8009 80.9018 46.8349 80.4837C42.8802 80.0657 39.2306 83.817 38.6995 88.8563Z" fill="#F37A50"/>
<path d="M39.8184 94.8899L46.0668 98.7655C46.0668 98.7655 46.6204 101.534 46.9029 102.426C47.4791 104.279 45.2871 105.082 43.4341 103.929C41.581 102.777 40.3833 101.24 40.3833 101.24L39.8184 94.8899Z" fill="#F37A50"/>
<path d="M54.6426 88.2008C52.8122 88.0765 51.4676 86.8336 50.3038 84.924C47.9874 89.8052 38.8013 91.2063 38.2363 90.1781C38.6431 86.6302 39.5018 81.1501 46.2474 79.4327C51.5354 78.0881 54.6426 88.2008 54.6426 88.2008Z" fill="#18263A"/>
<path d="M50.9814 90.8222C51.1509 91.1611 51.5689 91.308 51.9079 91.1385C52.2469 90.9691 52.3938 90.551 52.2243 90.212C52.0548 89.8731 51.6367 89.7262 51.2978 89.8956C50.9475 90.0651 50.8119 90.4832 50.9814 90.8222Z" fill="black"/>
<path d="M45.5239 90.2121C45.7047 90.585 46.1567 90.7319 46.5296 90.5511C46.9024 90.3703 47.0493 89.9183 46.8685 89.5455C46.6877 89.1726 46.2358 89.0257 45.8629 89.2065C45.49 89.3986 45.3319 89.8392 45.5239 90.2121Z" fill="black"/>
<path d="M52.7671 89.907C52.7897 89.8957 52.8236 89.8844 52.8462 89.8618C52.9592 89.7714 52.9818 89.6132 52.8914 89.5002C52.2135 88.6076 51.1966 88.7997 51.1514 88.811C51.0158 88.8335 50.9141 88.9804 50.948 89.116C50.9706 89.2516 51.1062 89.3533 51.2531 89.3194C51.287 89.3081 51.9988 89.1951 52.4734 89.8166C52.5524 89.9183 52.6654 89.9522 52.7671 89.907Z" fill="#2C2858"/>
<path d="M49.7051 91.7827C49.8859 92.2912 50.0215 92.7996 50.2588 93.1612C50.3378 93.2855 50.304 93.4437 50.191 93.5341C49.7051 93.8843 48.756 93.9182 48.1797 93.9069C48.1006 93.9069 48.078 93.7826 48.1571 93.76C48.8351 93.5567 49.1853 93.342 49.3435 93.2064C49.4226 93.1386 49.4678 93.0369 49.4678 92.9352C49.4565 92.6979 49.4452 92.2121 49.4565 91.8166C49.4791 91.681 49.6599 91.6584 49.7051 91.7827Z" fill="#DE623C"/>
<path d="M40.3716 91.0481C41.1174 91.9859 41.0948 93.2288 40.3377 93.839C39.5694 94.4491 38.3491 94.1892 37.6147 93.2514C36.8689 92.3136 36.8915 91.0707 37.6486 90.4605C38.4056 89.8617 39.6259 90.1216 40.3716 91.0481Z" fill="#F37A50"/>
<path d="M39.6143 93.0595C39.6482 93.0369 39.6821 93.0143 39.7047 92.9804C40.0663 92.4945 40.1002 91.9634 39.7951 91.5341C39.4787 91.1047 38.9025 90.9013 38.4166 91.0595C38.281 91.1047 38.2019 91.2516 38.2471 91.3872C38.2923 91.5228 38.4392 91.6019 38.5748 91.5567C38.846 91.4663 39.185 91.5906 39.3658 91.8392C39.5352 92.0764 39.5013 92.3702 39.2867 92.664C39.1963 92.777 39.2189 92.9465 39.3432 93.0256C39.4222 93.0934 39.5239 93.1047 39.6143 93.0595Z" fill="#DE623C"/>
<path d="M54.1228 110.98L52.3827 103.703C51.411 103.172 46.801 102.065 46.801 102.065L46.2586 103.839L41.1176 101.24L35.0838 102.155C34.0782 106.517 34.8805 107.839 35.1855 113.036C35.355 115.488 35.2759 121.465 35.8183 125.714C33.6037 130.719 32.2365 135.431 32.2139 136.877C32.2139 136.877 48.3264 140.482 48.8574 140.482L50.0664 137.307L52.3827 139.827C52.8234 139.601 55.3996 136.538 55.3996 136.538C54.3601 132.64 53.7838 126.415 53.7838 126.415L54.1228 110.98Z" fill="#3F964F"/>
<path d="M40.3149 100.427L36.8687 101.895C37.1737 105.353 45.761 107.375 45.761 107.375L46.2469 103.839L40.3149 100.427Z" fill="#0E6A41"/>
<path d="M46.2476 103.839L47.7842 105.918C47.7842 105.918 49.5469 103.816 48.8238 102.551C48.1119 101.285 46.53 100.958 46.53 100.958L46.2476 103.839Z" fill="#0E6A41"/>
<path d="M47.7615 96.5961C47.592 96.5961 47.4225 96.5848 47.2644 96.5509C46.0441 96.3136 45.3548 95.2854 45.3322 95.2402C45.2418 95.1046 45.287 94.9238 45.4113 94.8334C45.5469 94.743 45.7277 94.7769 45.8181 94.9125C45.8294 94.9238 46.4056 95.7825 47.3886 95.9633C48.0214 96.0876 48.7106 95.8955 49.4112 95.4097C49.5468 95.3193 49.7276 95.3532 49.8179 95.4775C49.9083 95.613 49.8744 95.7938 49.7502 95.8842C49.0609 96.3588 48.4056 96.5961 47.7615 96.5961Z" fill="#DE623C"/>
<path d="M75.6925 107.839C75.6473 107.376 75.4891 106.958 75.2631 106.585C73.6361 102.766 67.9074 103.636 59.693 104.28C58.3258 104.393 58.9359 102.698 59.0602 99.1159C59.1393 96.7883 57.2863 93.4099 54.7892 93.6585C50.665 94.0765 54.9587 96.9126 52.1339 105.297C50.6198 109.771 46.0211 107.828 46.4617 112.121L47.4561 121.906C47.6256 123.578 47.9532 125.172 50.3486 125.194C52.6649 125.217 52.3147 126.9 55.6253 126.561L72.1785 124.878C73.862 124.708 75.0936 123.206 74.9242 121.522C74.8564 120.821 74.54 120.223 74.0993 119.748C74.9807 119.127 75.523 118.076 75.41 116.935C75.3422 116.245 75.0259 115.635 74.5852 115.161C75.4665 114.539 76.0089 113.488 75.8959 112.347C75.8168 111.522 75.3987 110.799 74.7999 110.302C75.4213 109.681 75.7942 108.788 75.6925 107.839Z" fill="#FFB265"/>
<path d="M65.0602 111.997L72.947 111.195C74.0204 111.082 74.9695 110.415 75.4215 109.432C75.6136 109.025 75.4328 108.551 75.026 108.37C74.6193 108.178 74.1447 108.359 73.9526 108.765C73.7379 109.229 73.286 109.545 72.7775 109.601L64.6987 110.426C63.8964 110.505 63.1846 109.929 63.0942 109.127C63.0151 108.325 63.6026 107.613 64.3936 107.534L69.7945 106.98C70.2352 106.935 70.5629 106.539 70.5177 106.099C70.4725 105.658 70.077 105.342 69.6364 105.387L64.2354 105.941C62.5518 106.11 61.3202 107.613 61.4897 109.296C61.5801 110.234 62.0999 111.014 62.8343 111.511C62.3258 112.121 62.0547 112.923 62.1451 113.771C62.2355 114.709 62.7665 115.5 63.4897 115.985C62.9812 116.596 62.7213 117.398 62.8004 118.234C62.9021 119.262 63.5123 120.11 64.3484 120.584C63.919 121.172 63.693 121.906 63.7721 122.674C63.9416 124.358 65.4557 125.578 67.1393 125.409L72.1674 124.9C73.2408 124.787 74.1899 124.121 74.6419 123.138C74.8339 122.731 74.6532 122.256 74.2464 122.076C73.8396 121.895 73.3651 122.064 73.173 122.471C72.9583 122.934 72.5063 123.251 71.9979 123.307L66.9698 123.816C66.1675 123.895 65.4557 123.319 65.3653 122.516C65.2862 121.714 65.8738 121.002 66.6647 120.923L72.6306 120.313C73.704 120.2 74.6532 119.533 75.1051 118.55C75.2972 118.144 75.1164 117.669 74.7097 117.488C74.3029 117.296 73.8283 117.477 73.6362 117.884C73.4216 118.358 72.9809 118.663 72.4611 118.72L65.9868 119.375C65.1845 119.454 64.4727 118.878 64.3823 118.076C64.3032 117.274 64.8907 116.562 65.6817 116.483L73.1052 115.726C74.1786 115.613 75.1277 114.946 75.5797 113.963C75.7718 113.556 75.591 113.082 75.1842 112.901C74.7775 112.72 74.3029 112.889 74.1108 113.296C73.8961 113.771 73.4555 114.076 72.9357 114.132L65.3088 114.912C64.5066 114.991 63.7947 114.415 63.7043 113.613C63.6704 112.799 64.258 112.076 65.0602 111.997Z" fill="#BC814B"/>
<path d="M48.1452 126.177L42.9928 126.708C42.281 126.776 41.6369 126.256 41.5691 125.545L40.0099 110.234C39.9421 109.522 40.4618 108.878 41.1737 108.811L46.326 108.28C47.0379 108.212 47.6819 108.731 47.7497 109.443L49.309 124.754C49.3768 125.465 48.857 126.098 48.1452 126.177Z" fill="#7F99EB"/>
<path d="M52.7785 126.708C51.8068 126.561 50.756 126.008 49.9764 126.573L48.7222 124.301C50.9029 122.053 54.9141 121.985 55.3095 122.042C56.3491 122.166 56.8462 122.166 56.8914 122.324C56.9366 122.482 56.9931 123.443 55.479 123.296C53.5808 123.115 54.4847 124.866 58.5524 124.268C59.5693 124.121 61.2416 124.957 60.4506 125.51C59.5919 126.087 57.1965 127.375 52.7785 126.708Z" fill="#F37A50"/>
<path d="M33.0835 120.821C31.5694 121.33 30.6881 126.075 31.1175 126.437C37.5579 129.025 50.292 126.505 50.292 126.505L51.388 124.155C51.388 124.155 41.5691 123.228 33.0835 120.821Z" fill="#F37A50"/>
<path d="M30.8466 106.63C29.8523 110.901 30.0896 125.217 31.1065 126.437L36.2702 122.934C36.2702 122.934 37.8069 108.573 37.9764 106.121C38.2927 101.884 32.4511 99.6468 30.8466 106.63Z" fill="#F37A50"/>
<path d="M30.8463 106.63C29.852 110.901 28.6882 122.991 29.7051 124.211L37.0721 120.72C37.0721 120.72 37.8066 108.562 37.9873 106.121C38.2924 101.884 32.4508 99.6468 30.8463 106.63Z" fill="#0E6A41"/>
<path d="M29.1631 124.2L37.0725 120.731C37.0725 120.731 37.6261 120.731 37.4566 121.364C37.4566 121.364 38.7221 121.601 38.982 122.313L33.5019 128.166C33.5019 128.166 31.6828 127.996 31.163 126.493C31.1404 126.482 29.2648 125.917 29.1631 124.2Z" fill="#097A48"/>
<path d="M73.4669 105.364C73.4217 105.296 73.3878 105.229 73.3652 105.161C73.3539 105.172 73.3426 105.183 73.3313 105.183C72.6872 105.669 71.885 105.692 71.546 105.229C71.4895 105.15 71.4443 105.07 71.4217 104.98C70.9359 105.138 70.45 105.059 70.2014 104.731C70.0997 104.596 70.0545 104.449 70.0432 104.279C69.5687 104.472 69.0489 104.37 68.7664 104.008C68.4162 103.545 68.5744 102.845 69.128 102.426C69.6704 102.008 70.4048 102.054 70.7438 102.506C70.8342 102.619 70.8907 102.754 70.9133 102.89C71.5121 102.528 72.2014 102.551 72.5177 102.969C72.5742 103.048 72.6194 103.127 72.642 103.217C73.1279 103.059 73.6138 103.138 73.8623 103.466C73.9527 103.59 74.0092 103.726 74.0205 103.884C74.4386 103.703 74.9019 103.771 75.1504 104.087C75.4442 104.472 75.3086 105.07 74.8454 105.421C74.3708 105.782 73.7606 105.748 73.4669 105.364Z" fill="#F37A50"/>
<path d="M55.5468 201.926C56.2247 200.13 57.6823 199.938 57.6823 199.938C60.5184 203.723 67.4786 201.395 67.2526 206.514C56.6654 206.446 52.27 206.514 52.27 206.514C52.2813 205.339 52.496 202.548 52.7333 201.463L53.2869 201.565L55.5468 201.926Z" fill="#2C2858"/>
<path d="M66.6307 207.881H52.8798C52.5408 207.881 52.2583 207.61 52.2583 207.259V206.367H67.2522V207.259C67.2522 207.61 66.981 207.881 66.6307 207.881Z" fill="white"/>
<path d="M42.7332 206.57C42.7332 206.57 41.8858 203.395 41.8067 202.988C41.7163 202.525 41.4677 201.429 41.4225 200.864C41.4112 200.728 39.9536 199.836 38.835 199.836C37.321 199.836 35.9538 200.717 35.9199 200.875C35.7391 201.937 35.7391 203.18 35.4453 204.209C35.2306 204.977 34.6431 206.762 34.6431 206.762L42.7332 206.57Z" fill="#2C2858"/>
<path d="M42.7334 206.322C42.53 206.955 40.0894 206.22 38.3042 206.22C36.8127 206.22 34.8692 206.796 34.6546 206.57C34.2817 207.237 34.5868 208.604 34.5868 208.604C34.5868 208.604 36.146 208.683 38.0217 208.604C39.8973 208.525 42.0555 208.638 42.869 208.401C43.3888 207.542 42.7334 206.322 42.7334 206.322Z" fill="white"/>
<path d="M231.564 94.6299L228.118 94.6412L227.338 102.099V102.765L231.361 104.889L235.643 102.788L234.954 94.6412L231.564 94.6299Z" fill="#F37A50"/>
<path d="M241.021 91.048C238.909 96.336 233.824 99.2738 229.666 97.6128C225.508 95.9518 223.858 90.3136 225.971 85.0256C228.084 79.7376 233.169 76.7999 237.327 78.4608C241.485 80.1105 243.134 85.7488 241.021 91.048Z" fill="#F37A50"/>
<path d="M227.779 86.7544C227.53 87.1047 227.045 87.1951 226.694 86.9465C226.344 86.6979 226.254 86.2121 226.502 85.8618C226.751 85.5115 227.237 85.4211 227.587 85.6697C227.937 85.9183 228.028 86.4041 227.779 86.7544Z" fill="black"/>
<path d="M233.609 89.1387C233.338 89.5228 232.818 89.6132 232.434 89.3533C232.05 89.0822 231.96 88.5624 232.219 88.1782C232.491 87.7941 233.01 87.7037 233.395 87.9635C233.779 88.2347 233.869 88.7545 233.609 89.1387Z" fill="black"/>
<path d="M228.954 87.9973C227.903 88.8221 226.581 89.8278 226.581 89.8278C226.581 89.8278 226.57 91.0933 228.05 91.6469C227.519 91.1611 227.044 90.517 227.598 89.76C228.163 89.0142 228.954 87.9973 228.954 87.9973Z" fill="#DE623C"/>
<path d="M235.135 88.6301C235.169 88.6301 235.191 88.6301 235.225 88.6188C235.428 88.5736 235.564 88.3589 235.508 88.1555C235.372 87.5906 234.807 86.5059 233.621 86.5059C233.406 86.5059 233.236 86.6753 233.225 86.89C233.225 87.1047 233.395 87.2742 233.609 87.2855C234.491 87.2855 234.75 88.3363 234.75 88.3476C234.807 88.5058 234.965 88.6301 235.135 88.6301Z" fill="#201D40"/>
<path d="M228.592 85.1161C228.649 85.1161 228.705 85.1048 228.751 85.0709C228.909 84.9805 228.954 84.7771 228.864 84.6302C228.852 84.6076 228.513 84.0314 227.869 83.9184C227.429 83.8393 226.977 83.9862 226.525 84.3478C226.389 84.4608 226.367 84.6641 226.48 84.7997C226.593 84.9353 226.796 84.9579 226.932 84.8449C227.237 84.6077 227.508 84.506 227.756 84.5512C228.107 84.6189 228.31 84.9466 228.31 84.9579C228.378 85.0596 228.48 85.1161 228.592 85.1161Z" fill="#201D40"/>
<path d="M243.903 87.0935C245.688 81.9976 241.327 79.0599 241.327 79.0599C241.327 79.0599 242.502 78.9582 242.638 77.3085C241.756 77.5797 240.785 77.5571 239.914 77.252C234.095 75.1504 230.096 75.173 230.096 77.6588C230.096 78.5401 226.118 77.9864 226.446 83.9411C226.977 83.3874 227.937 81.0259 229.226 80.7773C230.525 80.5287 229.35 82.2688 232.062 82.6417C234.796 83.0145 236.807 82.3479 238.479 83.8959C239.79 85.2405 240.107 92.0877 239.914 92.4945C240.378 91.5566 243.123 89.3307 243.903 87.0935Z" fill="#18263A"/>
<path d="M225.169 87.9973C225.169 87.9973 224.92 91.1046 225.372 92.065C225.835 90.8221 226.841 92.1441 227.779 92.2684C230.05 92.5734 234.14 91.8164 234.547 95.2174C237.327 96.0988 239.914 90.1554 239.914 90.1554C240.072 96.788 235.214 100.562 228.231 99.4546C223.632 98.7202 223.203 92.3136 225.169 87.9973Z" fill="#18263A"/>
<path d="M229.948 94.3588C230.4 94.2571 230.863 94.065 231.349 93.8051C231.474 93.7373 231.519 93.5791 231.451 93.4548C231.383 93.3305 231.225 93.2853 231.101 93.3531C230.027 93.9294 229.067 94.0876 228.242 93.839C227.225 93.5226 226.751 92.6639 226.751 92.6639C226.683 92.5396 226.525 92.4944 226.4 92.5509C226.276 92.6187 226.22 92.7769 226.287 92.9012C226.31 92.9464 226.852 93.952 228.073 94.3362C228.66 94.5057 229.293 94.5169 229.948 94.3588Z" fill="#DE623C"/>
<path d="M239.982 90.1894C238.818 90.8448 238.298 92.1555 238.841 93.1046C239.383 94.065 240.762 94.3023 241.925 93.647C243.089 92.9916 243.609 91.6809 243.067 90.7318C242.536 89.7827 241.157 89.5341 239.982 90.1894Z" fill="#F37A50"/>
<path d="M240.163 93.0594C240.129 93.0368 240.095 93.0029 240.072 92.9577C239.756 92.3589 239.801 91.76 240.208 91.3419C240.626 90.9126 241.304 90.7883 241.812 91.0482C241.959 91.116 242.016 91.2967 241.937 91.4436C241.869 91.5905 241.688 91.647 241.541 91.5679C241.259 91.421 240.852 91.5001 240.615 91.7487C240.389 91.986 240.366 92.3137 240.57 92.6865C240.649 92.8334 240.592 93.0029 240.445 93.082C240.366 93.1272 240.253 93.1159 240.163 93.0594Z" fill="#DE623C"/>
<path d="M225.293 200.921C222.254 205.113 214.785 202.536 215.033 208.22C226.389 208.152 231.112 208.22 231.112 208.22C231.101 206.92 230.875 203.825 230.615 202.616L225.293 200.921Z" fill="black"/>
<path d="M243.202 200.921C240.163 205.113 232.694 202.536 232.943 208.22C244.298 208.152 249.021 208.22 249.021 208.22C249.01 206.92 248.784 203.825 248.524 202.616L243.202 200.921Z" fill="black"/>
<path d="M220.118 136.764C220.118 136.764 216.819 164.628 217.576 170.616C218.321 176.594 222.423 183.294 222.129 203.067C225.835 203.994 231.191 203.067 231.191 203.067C231.191 203.067 231.982 180.706 228.073 170.718C229.666 161.012 234.773 138.787 234.773 138.787L220.118 136.764Z" fill="#201D40"/>
<path d="M227.044 137.589C227.044 137.589 230.773 167.78 232.592 173.509C234.411 179.238 236.897 183.576 240.197 203.067C244.004 203.259 248.614 203.565 248.614 203.565C248.614 203.565 248.106 178.853 242.174 173.226C241.971 163.385 243.134 137.781 243.134 137.781L227.044 137.589Z" fill="#2C2858"/>
<path d="M244.208 103.319C244.208 103.319 237.745 101.059 235.586 102.099C228.886 105.33 227.349 102.099 227.349 102.099C224.999 101.579 219.451 101.579 219.451 101.579C218.751 110.957 217.587 140.956 217.587 140.956C217.587 140.956 224.717 142.821 231.462 142.877C238.208 142.832 245.078 141.035 245.078 141.035C245.078 141.035 244.716 127.917 244.422 123.047C244.501 117.578 244.208 110.517 244.208 103.319Z" fill="#49B3B3"/>
<path d="M247.869 131.962L246.637 133.476C246.637 133.476 246.185 131.408 244.761 131.68V133.894C244.761 133.894 243.959 135.171 240.581 134.233C237.519 134.29 239.27 136.109 238.344 136.493C236.976 137.058 240.118 139.261 243.123 138.979C247.01 138.617 247.27 137.747 247.27 137.747L249.575 136.086L247.869 131.962Z" fill="#F37A50"/>
<path d="M244.208 103.319C250.117 105.861 257.371 111.714 261.834 121.002C263.359 124.188 256.094 124.832 254.637 123.567C253.19 122.313 244.208 112.946 244.208 112.946V103.319Z" fill="#318482"/>
<path d="M246.999 132.844C252.162 125.895 254.479 120.392 256.139 119.545C258.365 118.415 262.038 118.471 262.038 122.347C262.038 126.234 247.857 137.996 247.857 137.996L246.999 132.844Z" fill="#318482"/>
<path d="M219.44 101.568L193.961 92.5057L189.995 98.5056L218.785 112.742L219.44 101.568Z" fill="#318482"/>
<path d="M151.938 100.234C152.447 101.681 157.034 102.494 157.385 102.076C159.814 95.8277 157.249 83.5682 157.249 83.5682L154.967 82.5287C154.967 82.54 154.176 92.0312 151.938 100.234Z" fill="#F37A50"/>
<path d="M140.526 112.415C144.798 111.048 156.91 103.387 157.453 101.861L152.391 99.1497C152.391 99.1497 138.594 105.274 136.357 106.404C132.47 108.358 133.555 114.663 140.526 112.415Z" fill="#F37A50"/>
<path d="M143.747 89.2855C144.063 84.9015 142.798 81.0259 139.306 79.0598C135.759 77.0599 131.329 79.0259 131.329 79.0259C131.329 79.0259 127.578 77.6927 124.166 81.444C120.765 85.1953 123.341 88.4946 121.94 91.229C121.115 92.8447 116.923 93.1837 118.008 98.4604C118.324 99.9858 120.154 101.003 121.702 101.104C124.426 101.285 126.957 100.234 128.064 101.285C131.702 104.754 139.758 103.5 140.888 100.325C141.239 99.3417 148.493 101.24 147.769 94.5396C147.397 91.1386 143.453 93.2063 143.747 89.2855Z" fill="#18263A"/>
<path d="M144.154 125.691C144.154 122.03 147.329 116.539 145.803 112.833C144.696 109.861 142.843 104.856 140.572 104.031C139.498 103.635 138.402 103.364 137.069 102.991C137.069 102.991 137.487 105.432 135.917 105.556C132.9 105.793 131.318 101.929 131.318 101.929C129.691 101.771 122.278 104.189 121.928 105.387C121.951 110.189 126.143 116.652 127.42 121.838C127.917 127.443 126.719 130.437 126.719 131.07C126.719 131.07 137.318 134.606 144.436 130.697C144.436 130.685 144.154 128.166 144.154 125.691Z" fill="#3F964F"/>
<path d="M135.646 98.7541L130.968 98.0536L131.205 101.918C131.205 101.918 132.482 106.189 135.137 106.245C137.792 106.302 137.058 102.991 137.058 102.991L135.646 98.7541Z" fill="#F37A50"/>
<path d="M126.64 92.4833C127.849 97.5226 132.03 100.845 135.996 99.8955C139.95 98.9463 142.187 94.099 140.978 89.0483C139.769 84.0089 135.589 80.687 131.623 81.6361C127.668 82.5852 125.442 87.4439 126.64 92.4833Z" fill="#F37A50"/>
<path d="M139.126 90.3704C139.295 90.7207 139.725 90.8676 140.075 90.6868C140.425 90.5173 140.572 90.0879 140.391 89.7376C140.222 89.3874 139.793 89.2405 139.442 89.4213C139.092 89.6021 138.956 90.0201 139.126 90.3704Z" fill="black"/>
<path d="M133.566 91.7488C133.759 92.133 134.21 92.2799 134.595 92.0878C134.979 91.8957 135.126 91.4437 134.934 91.0596C134.742 90.6754 134.29 90.5285 133.905 90.7206C133.533 90.9127 133.374 91.3646 133.566 91.7488Z" fill="black"/>
<path d="M132.719 91.1161C132.775 91.0935 132.821 91.0483 132.843 90.9918C133.227 90.1669 134.267 89.9975 134.278 89.9975C134.425 89.9749 134.527 89.8393 134.504 89.6924C134.482 89.5455 134.346 89.4438 134.199 89.4664C134.143 89.4777 132.866 89.6698 132.357 90.7658C132.301 90.9014 132.357 91.0596 132.482 91.1161C132.561 91.15 132.651 91.15 132.719 91.1161Z" fill="#2C2858"/>
<path d="M140.674 89.3535C140.696 89.3422 140.719 89.3196 140.741 89.297C140.843 89.1953 140.843 89.0258 140.741 88.9241C139.928 88.1219 138.922 88.4495 138.888 88.4721C138.753 88.5173 138.674 88.6755 138.719 88.8111C138.764 88.9467 138.922 89.0258 139.058 88.9806C139.092 88.9693 139.792 88.7433 140.369 89.3083C140.448 89.3874 140.572 89.3987 140.674 89.3535Z" fill="#2C2858"/>
<path d="M138.674 91.9184C139.058 92.3139 139.408 92.7319 139.77 92.9579C139.894 93.037 139.939 93.2065 139.86 93.3308C139.555 93.8618 138.685 94.3025 138.154 94.5285C138.075 94.5624 138.007 94.4607 138.075 94.4042C138.617 93.9296 138.843 93.5794 138.945 93.3873C138.99 93.2969 138.99 93.1839 138.945 93.0822C138.832 92.8675 138.617 92.4156 138.459 92.0427C138.414 91.9184 138.572 91.8167 138.674 91.9184Z" fill="#DE623C"/>
<path d="M128.55 92.5172C129.51 93.263 129.793 94.5059 129.182 95.2968C128.572 96.0877 127.295 96.1103 126.335 95.3646C125.375 94.6189 125.092 93.376 125.702 92.585C126.312 91.7941 127.589 91.7715 128.55 92.5172Z" fill="#F37A50"/>
<path d="M128.008 95.0708C128.041 95.0482 128.075 95.0256 128.098 94.9917C128.471 94.5059 128.505 93.9522 128.188 93.5116C127.872 93.0709 127.273 92.8675 126.787 93.0257C126.652 93.0709 126.573 93.2178 126.618 93.3647C126.663 93.5003 126.81 93.5794 126.957 93.5342C127.228 93.4438 127.578 93.5681 127.759 93.8166C127.928 94.0539 127.906 94.359 127.669 94.6641C127.578 94.7771 127.601 94.9465 127.725 95.0369C127.804 95.1047 127.917 95.116 128.008 95.0708Z" fill="#DE623C"/>
<path d="M134.29 95.9294C134.177 95.7825 134.301 95.5678 134.482 95.5904C134.956 95.6469 135.736 95.726 136.482 95.726C137.228 95.726 138.007 95.6469 138.482 95.5904C138.663 95.5678 138.787 95.7825 138.674 95.9294C138.335 96.3926 137.623 97.0932 136.482 97.0932C135.341 97.0932 134.64 96.3926 134.29 95.9294Z" fill="white"/>
<path d="M126.55 92.0426C131.273 91.4098 137.883 86.5964 138.425 84.1219C137.51 81.1503 132.64 79.6588 129.894 81.0373C127.148 82.4158 124.55 88.3026 126.55 92.0426Z" fill="#18263A"/>
<path d="M140.018 197.011C139.702 193.893 141.318 170.131 141.318 170.131C145.871 149.238 144.086 134.29 144.086 134.29L136.256 134.843L133.171 146.651L134.64 166.368C134.64 166.368 134.086 167.882 133.804 169.102C132.233 175.678 133.793 183.543 134.764 188.785C135.216 191.215 135.906 196.322 135.928 197.474L133.962 200.017C133.962 200.017 141.08 207.892 142.177 207.949C144.301 208.05 143.679 205.937 143.679 205.937C140.742 202.92 140.109 197.904 140.018 197.011Z" fill="#F37A50"/>
<path d="M133.826 202.796L134.222 207.858L135.137 207.903L135.6 203.203C138.018 203.824 139.758 208.22 139.758 208.22C141.431 208.819 145.668 209.225 147.17 208.446C147.532 206.966 143.668 205.926 143.668 205.926C143.317 206.344 141.25 206.66 140.515 206.208C137.815 203.903 136.493 200.57 135.917 197.452C135.917 197.463 131.657 197.757 133.826 202.796Z" fill="#E62552"/>
<path d="M137.374 135.804L126.347 134.29C122.132 143.838 120.753 160.458 119.601 166.379C115.002 174.085 113.545 197.463 113.545 197.463L111.579 200.005C111.579 200.005 118.697 207.881 119.793 207.937C121.917 208.039 121.296 205.926 121.296 205.926C118.369 202.92 117.804 198.932 117.612 198.051C117.33 196.729 126.539 170.797 126.539 170.797L127.522 168.334C138.776 149.747 140.617 135.702 140.617 135.702L137.374 135.804Z" fill="#F37A50"/>
<path d="M111.454 202.796L111.85 207.858L112.765 207.903L113.228 203.203C115.646 203.824 117.386 208.22 117.386 208.22C119.058 208.819 123.296 209.225 124.798 208.446C125.16 206.966 121.296 205.926 121.296 205.926C120.945 206.344 118.878 206.66 118.143 206.208C115.443 203.903 114.121 200.57 113.544 197.452C113.544 197.463 109.273 197.757 111.454 202.796Z" fill="#E62552"/>
<path d="M116.866 165.295C117.962 161.611 117.51 135.634 127.239 128.459L143.95 129.815C147.814 136.075 146.402 152.357 145.091 165.769C137.227 168.571 130.967 169.701 116.866 165.295Z" fill="#3F964F"/>
<path d="M215.7 58.4052C215.417 57.5013 214.943 56.7104 214.332 56.0437C209.485 48.9818 198.265 53.0721 181.938 57.7047C179.203 58.4843 179.768 54.8121 178.559 47.5242C177.769 42.7786 172.673 36.711 167.712 38.2364C159.543 40.7561 169.385 44.7446 167.068 62.8345C165.825 72.4952 155.735 70.4162 158.368 78.9244L164.356 98.3023C165.385 101.613 166.695 104.698 171.531 103.771C176.221 102.878 176.198 106.415 182.74 104.393L215.496 94.2686C218.829 93.2403 220.716 89.6924 219.688 86.3705C219.259 84.992 218.389 83.8847 217.293 83.1163C218.829 81.5119 219.496 79.173 218.796 76.9132C218.366 75.5347 217.496 74.4387 216.411 73.659C217.948 72.0545 218.626 69.7156 217.925 67.4445C217.417 65.8061 216.287 64.518 214.875 63.761C215.903 62.2469 216.287 60.2922 215.7 58.4052Z" fill="#FFB265"/>
<path d="M195.892 71.128L211.507 66.3033C213.632 65.6479 215.27 63.8966 215.801 61.7385C216.016 60.8458 215.462 59.9532 214.569 59.7385C213.677 59.5238 212.784 60.0775 212.57 60.9701C212.321 61.9983 211.541 62.8232 210.536 63.1395L194.547 68.0772C192.966 68.5631 191.282 67.6818 190.785 66.0999C190.299 64.518 191.192 62.8458 192.773 62.3486L203.462 59.0493C204.344 58.7781 204.83 57.8516 204.558 56.9815C204.287 56.1115 203.361 55.6256 202.479 55.8855L191.79 59.1849C188.457 60.2131 186.57 63.761 187.599 67.0829C188.175 68.936 189.542 70.3032 191.203 71.0037C190.423 72.4387 190.197 74.1787 190.717 75.851C191.293 77.7041 192.672 79.0826 194.344 79.7831C193.576 81.2181 193.35 82.9468 193.87 84.6191C194.491 86.6417 196.062 88.1105 197.937 88.732C197.316 90.0879 197.146 91.6584 197.621 93.1951C198.649 96.5171 202.197 98.3814 205.53 97.3532L215.485 94.2798C217.609 93.6245 219.259 91.8731 219.778 89.7263C219.993 88.8337 219.451 87.941 218.558 87.7264C217.665 87.5117 216.761 88.0653 216.547 88.9467C216.298 89.9749 215.519 90.7997 214.502 91.1161L204.547 94.1894C202.965 94.6753 201.282 93.794 200.785 92.2121C200.299 90.6302 201.191 88.958 202.773 88.4608L214.581 84.8112C216.705 84.1558 218.355 82.4045 218.874 80.2464C219.089 79.3537 218.547 78.4611 217.654 78.2464C216.75 78.0317 215.858 78.5854 215.643 79.4667C215.394 80.5062 214.626 81.3198 213.598 81.6362L200.773 85.6021C199.191 86.088 197.508 85.2067 197.011 83.6248C196.525 82.0429 197.417 80.3707 198.999 79.8735L213.688 75.3313C215.812 74.6759 217.462 72.9246 217.982 70.7777C218.196 69.8851 217.654 68.9925 216.761 68.7778C215.869 68.5631 214.965 69.1168 214.75 69.9981C214.502 71.0376 213.733 71.8511 212.705 72.1675L197.621 76.834C196.039 77.3199 194.355 76.4386 193.858 74.8567C193.418 73.2974 194.31 71.6139 195.892 71.128Z" fill="#BC814B"/>
<path d="M167.464 106.641L157.261 109.794C155.848 110.234 154.346 109.443 153.916 108.031L144.549 77.7268C144.109 76.3144 144.9 74.8116 146.312 74.3822L156.515 71.2298C157.927 70.7891 159.43 71.5801 159.86 72.9924L169.226 103.297C169.667 104.698 168.876 106.2 167.464 106.641Z" fill="#7F99EB"/>
<path d="M165.893 106.099C164.831 106.166 163.588 105.816 162.888 106.596L161.035 104.471C162.843 101.579 167.08 100.596 167.509 100.562C168.639 100.46 169.17 100.347 169.249 100.494C169.34 100.641 169.611 101.658 167.972 101.85C165.916 102.099 167.283 103.748 171.464 102.178C172.515 101.782 174.481 102.291 173.769 103.059C172.989 103.895 170.741 105.805 165.893 106.099Z" fill="#F37A50"/>
<path d="M144.403 112.392C143.408 113.805 145.68 118.528 146.278 118.584C153.589 116.72 163.125 106.336 163.125 106.336L162.583 103.568C162.572 103.568 153.374 109.059 144.403 112.392Z" fill="#F37A50"/>
<path d="M124.742 112.584C129.138 115.07 144.719 119.217 146.391 118.505L144.764 112.245C144.764 112.245 129.16 105.534 126.516 104.539C121.951 102.822 117.567 108.539 124.742 112.584Z" fill="#F37A50"/>
<path d="M312.691 60.2129C312.77 59.5349 312.669 58.8796 312.465 58.2807C311.29 52.2696 302.759 51.7724 290.737 50.168C288.726 49.8968 290.138 47.6596 291.415 42.5298C292.24 39.1966 290.624 33.7617 286.941 33.3549C280.862 32.6883 286.195 38.1005 279.528 49.3092C275.969 55.2978 269.947 51.0719 269.246 57.3994L267.676 71.817C267.405 74.2802 267.393 76.6757 270.828 77.444C274.161 78.1897 273.144 80.506 278.014 81.0371L302.386 83.6924C304.872 83.9636 307.11 82.167 307.381 79.7038C307.494 78.6756 307.234 77.7039 306.737 76.8903C308.194 76.2689 309.302 74.9243 309.482 73.2407C309.595 72.2238 309.335 71.2521 308.838 70.4272C310.307 69.8171 311.414 68.4612 311.595 66.7776C311.731 65.5573 311.347 64.3935 310.635 63.5009C311.731 62.7891 312.533 61.614 312.691 60.2129Z" fill="#FFB265"/>
<path d="M296.081 62.936L307.697 64.2015C309.279 64.371 310.849 63.693 311.81 62.4275C312.205 61.9078 312.092 61.162 311.572 60.7666C311.053 60.3711 310.307 60.4841 309.911 61.0038C309.459 61.6027 308.714 61.9304 307.957 61.84L296.059 60.5406C294.884 60.4163 294.025 59.3542 294.149 58.1791C294.273 57.004 295.336 56.1565 296.522 56.2808L304.477 57.1509C305.132 57.2186 305.719 56.7554 305.787 56.1C305.855 55.456 305.38 54.8684 304.736 54.7893L296.782 53.9193C294.296 53.6481 292.059 55.4334 291.788 57.9079C291.641 59.2864 292.149 60.5745 293.042 61.501C292.127 62.2241 291.483 63.2976 291.347 64.5405C291.2 65.919 291.709 67.2183 292.613 68.1449C291.697 68.868 291.065 69.9414 290.929 71.1843C290.759 72.6871 291.37 74.0995 292.432 75.0373C291.641 75.7492 291.087 76.7322 290.963 77.8734C290.692 80.3479 292.488 82.5738 294.974 82.845L302.375 83.6472C303.957 83.8167 305.527 83.1388 306.488 81.8733C306.883 81.3535 306.77 80.6078 306.251 80.2123C305.719 79.8168 304.985 79.9185 304.59 80.4496C304.138 81.0484 303.381 81.3761 302.635 81.297L295.234 80.4948C294.059 80.3705 293.2 79.3084 293.324 78.1333C293.449 76.9582 294.511 76.1107 295.697 76.235L304.488 77.1954C306.07 77.3649 307.64 76.687 308.601 75.4215C308.996 74.9017 308.895 74.156 308.363 73.7605C307.832 73.3651 307.087 73.4667 306.702 73.9978C306.239 74.608 305.505 74.9243 304.748 74.8452L295.211 73.8057C294.036 73.6814 293.177 72.6193 293.302 71.4442C293.426 70.2691 294.488 69.4217 295.675 69.546L306.601 70.7324C308.183 70.9019 309.753 70.2239 310.714 68.9584C311.109 68.4386 310.996 67.6929 310.476 67.2974C309.945 66.902 309.211 67.0037 308.815 67.5347C308.352 68.1449 307.618 68.4612 306.861 68.3822L295.641 67.1619C294.466 67.0376 293.607 65.9754 293.731 64.8003C293.844 63.6591 294.906 62.8117 296.081 62.936Z" fill="#BC814B"/>
<path d="M267.664 78.201L260.082 77.3761C258.715 77.2292 257.958 76.2801 258.071 75.2293L260.534 52.6876C260.647 51.6368 261.596 50.8797 262.647 50.9927L270.229 51.8176C271.28 51.9306 272.037 52.8797 271.924 53.9305L269.461 76.4722C269.348 77.523 268.398 78.28 267.664 78.201Z" fill="#7F99EB"/>
<path d="M173.396 126.154L178.413 126.188L173.904 128.38C173.294 128.674 172.921 129.307 172.967 129.985L173.407 137.442L170.594 130.516C170.345 129.894 169.735 129.476 169.068 129.476L164.165 129.42L168.56 127.262C169.159 126.968 169.532 126.335 169.486 125.669L169.046 118.2L171.859 125.126C172.119 125.736 172.718 126.143 173.396 126.154Z" fill="#FFB265"/>
<path d="M233.304 46.2361L237.518 48.462L232.75 48.3377C232.106 48.3264 231.518 48.688 231.258 49.2755L228.366 55.7725L229.021 48.688C229.078 48.0552 228.75 47.4338 228.185 47.14L224.072 44.948L228.739 45.0497C229.383 45.061 229.97 44.6881 230.23 44.1118L233.123 37.6149L232.467 44.6994C232.4 45.3209 232.739 45.931 233.304 46.2361Z" fill="#FFB265"/>
<path d="M154.933 42.1344L158.074 42.1231L155.261 43.5242C154.876 43.7163 154.65 44.1118 154.684 44.5299L155.012 49.2077L153.204 44.8801C153.046 44.496 152.662 44.2361 152.244 44.2361L149.17 44.2248L151.916 42.8463C152.289 42.6542 152.515 42.2587 152.492 41.8407L152.165 37.1628L153.973 41.4904C154.131 41.8859 154.515 42.1344 154.933 42.1344Z" fill="#FFB265"/>
<path d="M196.819 150.176L199.836 152.063L196.299 151.713C195.825 151.668 195.361 151.905 195.135 152.335L192.638 157.001L193.508 151.77C193.587 151.295 193.373 150.832 192.977 150.572L190.04 148.719L193.497 149.047C193.972 149.092 194.424 148.843 194.65 148.425L197.158 143.759L196.288 148.979C196.198 149.453 196.412 149.928 196.819 150.176Z" fill="#FFB265"/>
<path d="M322.408 67.2298L325.177 68.7213L322.036 68.6196C321.606 68.6083 321.222 68.8456 321.041 69.2298L319.109 73.5008L319.572 68.8343C319.618 68.4162 319.403 68.0095 319.03 67.8061L316.33 66.3372L319.403 66.4276C319.821 66.4389 320.216 66.2016 320.386 65.8174L322.329 61.5464L321.866 66.2129C321.821 66.631 322.036 67.0377 322.408 67.2298Z" fill="#FFB265"/>
<path d="M73.8168 140.527L76.958 140.312L74.2462 141.905C73.8846 142.12 73.6812 142.538 73.7377 142.956L74.3705 147.6L72.2801 143.397C72.0881 143.024 71.6926 142.787 71.2745 142.821L68.2012 143.024L70.8452 141.465C71.2067 141.25 71.4101 140.843 71.3536 140.425L70.7209 135.781L72.8112 139.973C72.992 140.335 73.3875 140.561 73.8168 140.527Z" fill="#FFB265"/>
<path d="M300.601 141.758C300.601 143.724 299.008 145.318 297.042 145.318C295.076 145.318 293.482 143.724 293.482 141.758C293.482 139.792 295.076 138.199 297.042 138.199C298.996 138.199 300.601 139.792 300.601 141.758Z" fill="#318482"/>
<path d="M171.961 163.86C170.876 164.944 169.114 164.944 168.029 163.86C166.944 162.775 166.944 161.012 168.029 159.927C169.114 158.843 170.876 158.843 171.961 159.927C173.046 161.012 173.046 162.775 171.961 163.86Z" fill="#318482"/>
<path d="M302.612 132.132C303.674 132.132 304.533 132.99 304.533 134.053C304.533 135.115 303.674 135.973 302.612 135.973C301.55 135.973 300.691 135.115 300.691 134.053C300.691 132.99 301.55 132.132 302.612 132.132ZM302.612 131.307C301.098 131.307 299.878 132.527 299.878 134.041C299.878 135.555 301.098 136.776 302.612 136.776C304.126 136.776 305.347 135.555 305.347 134.041C305.347 132.538 304.126 131.307 302.612 131.307Z" fill="#318482"/>
<path d="M132.821 59.1282C134.324 59.1282 135.544 60.3485 135.544 61.8512C135.544 63.354 134.324 64.5743 132.821 64.5743C131.318 64.5743 130.098 63.354 130.098 61.8512C130.098 60.3485 131.318 59.1282 132.821 59.1282ZM132.821 57.9644C130.674 57.9644 128.923 59.7044 128.923 61.8625C128.923 64.0094 130.663 65.7607 132.821 65.7607C134.968 65.7607 136.719 64.0207 136.719 61.8625C136.719 59.7044 134.968 57.9644 132.821 57.9644Z" fill="#318482"/>
<path d="M20.5642 84.8224C21.9201 84.8224 23.0161 85.9184 23.0161 87.2743C23.0161 88.6302 21.9201 89.7262 20.5642 89.7262C19.2083 89.7262 18.1123 88.6302 18.1123 87.2743C18.1123 85.9184 19.2083 84.8224 20.5642 84.8224ZM20.5642 83.7716C18.632 83.7716 17.0728 85.3422 17.0728 87.263C17.0728 89.1952 18.6433 90.7544 20.5642 90.7544C22.4963 90.7544 24.0556 89.1839 24.0556 87.263C24.0556 85.3422 22.4963 83.7716 20.5642 83.7716Z" fill="#318482"/>
</g>
<defs>
<clipPath id="clip0_750_1229">
<rect width="374" height="225.982" fill="white"/>
</clipPath>
</defs>
</svg>
