<svg width="330" height="151" viewBox="0 0 330 151" fill="none" xmlns="http://www.w3.org/2000/svg">
<g clip-path="url(#clip0_795_1193)">
<path d="M52.4728 148.688C52.4728 148.688 18.3661 119.262 14.1962 107.517C10.0263 95.7692 20.0443 97.7048 20.0443 97.7048C20.0443 97.7048 6.91576 76.3355 11.1764 69.8207C15.4387 63.3076 22.8578 72.4461 22.8578 72.4461C22.8578 72.4461 17.9255 44.3541 23.8446 43.1858C34.8708 41.0109 41.8707 71.352 41.8707 71.352C41.8707 71.352 41.8608 58.9397 48.5422 61.037C58.618 64.2003 51.5075 90.4673 51.5075 90.4673C51.5075 90.4673 55.2269 80.6473 60.5536 85.4937C70.1128 94.1933 52.4728 148.688 52.4728 148.688Z" fill="#50BFA5"/>
<path d="M60.5552 85.4953C55.2286 80.6489 51.5091 90.4688 51.5091 90.4688C51.5091 90.4688 58.6196 64.2003 48.5438 61.0386C41.8624 58.9413 41.8723 71.3536 41.8723 71.3536C41.8723 71.3536 34.8724 41.0125 23.8462 43.1874L52.4514 148.699C54.8111 142.498 69.4825 93.619 60.5552 85.4953Z" fill="#3C8F7C"/>
<path d="M59.758 148.679C59.758 148.679 21.5077 149.298 14.7273 142.247C9.77853 137.102 18.587 132.919 18.587 132.919C18.587 132.919 1.86116 122.625 2.50472 116.515C3.14827 110.403 8.93696 112.011 8.93696 112.011C8.93696 112.011 -2.34505 100.53 0.442041 95.4919C4.7258 87.7478 24.3757 106.545 24.3757 106.545C24.3757 106.545 19.9517 97.8252 25.341 96.8945C33.4679 95.4919 40.1362 118.767 40.1362 118.767C40.1362 118.767 36.9613 108.272 42.3886 109.761C52.1244 112.432 59.758 148.679 59.758 148.679Z" fill="#466EB6"/>
<path d="M0.442041 95.4919C-2.34505 100.531 8.93696 112.011 8.93696 112.011C8.93696 112.011 3.14662 110.403 2.50472 116.515C1.86116 122.627 18.587 132.919 18.587 132.919C18.587 132.919 6.27529 137.082 13.7818 143.356C23.3608 151.362 59.758 148.679 59.758 148.679L0.442041 95.4919Z" fill="#355389"/>
<path d="M68.9033 148.772C68.9033 148.772 39.4961 149.438 35.3939 149.055C31.2933 148.671 35.7305 144.919 35.7305 144.919C35.7305 144.919 26.5871 145.456 25.1432 143.262C23.6993 141.067 27.4171 140.107 27.4171 140.107C27.4171 140.107 19.9403 136.861 20.3331 134.914C21.0624 131.287 29.4847 134.222 29.4847 134.222C29.4847 134.222 25.9419 132.401 27.4237 130.679C29.658 128.084 36.5176 133.988 36.5176 133.988C36.5176 133.988 34.8823 127.949 37.2206 127.896C42.9037 127.77 68.9033 148.772 68.9033 148.772Z" fill="#50BFA5"/>
<path d="M138.896 135.985L149.621 112.964C149.621 112.964 150.244 111.185 155.918 115.695C161.593 120.204 161.593 129.222 161.593 129.222C161.593 129.222 164.879 118.389 169.964 118.389C172.619 118.389 168.836 136.062 168.836 136.062C168.836 136.062 172.453 129.579 175.738 129.579C179.024 129.579 173.946 137.707 173.946 137.707C173.946 137.707 179.986 133.472 183.868 133.972C187.751 134.473 180.185 141.488 180.185 141.488C180.185 141.488 189.943 136.693 192.066 140.277C193.187 142.168 180.119 143.219 180.119 143.219L135.186 143.33L138.896 135.985Z" fill="#50BFA5"/>
<path d="M157.288 142.303L53.2994 142.343C49.8291 142.344 46.9034 140.305 46.4876 137.592L26.3047 6.1863C25.9698 4.00316 28.1909 2.10055 30.9829 2.17976L132 5.0774C134.232 5.14176 136.074 6.47177 136.346 8.21762L157.288 142.303Z" fill="#004F4F"/>
<path d="M36.4416 6.13176L127.721 8.75053C129.953 8.81489 131.795 10.1449 132.067 11.8907L151.844 138.513L51.4859 138.552L31.7618 10.1366C31.4268 7.95351 33.6495 6.0509 36.4416 6.13176Z" fill="#184655"/>
<path d="M94.7954 5.88437C94.7954 6.35631 94.4043 6.7375 93.9225 6.7375C93.4406 6.7375 93.0496 6.35631 93.0496 5.88437C93.0496 5.41408 93.4406 5.03125 93.9225 5.03125C94.4043 5.03125 94.7954 5.41408 94.7954 5.88437Z" fill="#F47458"/>
<path d="M119.107 121.361C117.987 123.026 116.71 124.366 116.548 124.519C116.47 124.592 115.95 124.76 115.868 124.835C115.14 127.14 116.076 129.097 117.082 130.638C117.249 129.389 117.368 127.683 117.561 127.472C117.866 127.135 118.912 125.694 121.02 123.919C119.906 123.29 119.772 122.442 119.107 121.361Z" fill="#F7A491"/>
<path d="M116.482 124.557C115.658 124.607 114.102 125.12 114.112 125.285C114.124 125.482 115.005 132.277 116.079 132.874C116.724 133.234 116.843 132.176 117.081 130.635C116.076 129.095 115.975 124.77 116.482 124.557Z" fill="#F47458"/>
<path d="M102.032 118.183C100.309 119.213 98.601 119.993 98.3881 120.062C98.2858 120.095 97.7445 120.026 97.6389 120.058C95.9987 121.833 96.0119 124.003 96.266 125.826C96.9492 124.767 97.7841 123.274 98.0465 123.165C98.4656 122.991 99.9838 122.331 102.647 121.622C101.908 120.581 102.174 119.445 102.032 118.183Z" fill="#F7A491"/>
<path d="M120.885 72.4443C120.885 72.4443 123.49 67.5433 123.875 65.7876C124.259 64.0318 125.596 55.192 125.483 54.6227C125.371 54.0534 123.259 52.6838 123.52 52.2003C123.781 51.7168 125.792 51.7152 126.252 51.7564C126.713 51.7977 127.639 52.0667 128.035 52.3934C128.431 52.7201 127.589 63.314 127.338 65.5945C127.087 67.875 123.267 75.3468 123.267 75.3468L120.885 72.4443Z" fill="#F7A491"/>
<path d="M109.178 79.5284C109.178 79.5284 103.87 88.03 102.942 89.6999C102.015 91.3699 98.5595 95.6256 98.3862 95.8318C98.213 96.0381 94.5579 95.8516 94.6619 96.2757C94.7658 96.6982 96.444 96.2807 96.477 96.7774C96.5084 97.274 93.5876 100.434 93.8814 100.561C94.4292 100.799 95.7427 98.6948 95.977 98.8549C96.2114 99.0149 94.4045 100.924 94.6998 101.332C94.9936 101.739 96.2427 99.3648 96.477 99.3928C96.7113 99.4209 95.5975 101.782 96.109 101.805C96.3863 101.819 97.048 99.6816 97.312 99.8697C97.576 100.058 97.3219 101.769 97.6437 101.753C97.9655 101.736 97.6651 100.291 98.1585 99.5281C98.6519 98.7658 98.6189 97.9622 99.7526 96.977C100.888 95.9919 105.284 92.9886 106.878 90.3352C108.472 87.6818 112.008 81.8287 112.008 81.8287L109.178 79.5284Z" fill="#F7A491"/>
<path d="M121.863 92.1735L112.644 95.1437C112.644 95.1437 117.714 103.767 118.718 105.487C119.721 107.206 124.038 111.45 124.044 112.561C124.049 113.346 119.98 118.559 117.526 121.739C118.081 122.769 119.596 124.095 120.554 124.683C124.64 120.81 130.597 114.704 130.708 112.703C130.868 109.779 121.863 92.1735 121.863 92.1735Z" fill="#3C8F7C"/>
<path d="M98.3137 120.072C97.5464 119.767 95.921 119.569 95.8599 119.721C95.7857 119.902 93.6916 126.427 94.4078 127.425C94.8385 128.026 95.3979 127.12 96.2675 125.826C96.0134 124.005 97.7625 120.048 98.3137 120.072Z" fill="#F47458"/>
<path d="M119.972 97.4952C120.089 96.9276 120.849 95.2593 121.241 93.9309C121.566 92.8303 121.625 91.6686 121.415 90.5399L114.633 90.2247L114.374 90.728C114.094 91.2726 113.699 91.7511 113.211 92.1207C112.194 92.8881 110.412 94.5729 110.467 96.9177C110.543 100.19 112.871 112.185 112.095 112.634C110.698 113.444 104.868 116.28 101.388 118.025C101.436 119.294 101.79 121.099 102.452 122.191C105.208 121.137 114.907 116.843 116.711 115.79C117.528 115.315 119.772 98.4606 119.972 97.4952Z" fill="#50BFA5"/>
<path d="M103.588 59.3307C104.125 60.7515 103.274 61.8109 102.683 63.2102C102.286 64.1491 103.162 65.6409 104.152 66.329C106.66 68.0699 107.248 68.1144 107.066 70.4791C106.629 76.1721 113.437 73.7447 114.531 73.5648C115.627 73.3833 116.452 73.4328 116.975 73.0715C118.553 71.9807 120.031 68.7035 119.754 65.9428C119.477 63.1822 116.19 64.131 115.437 62.8637C114.685 61.5964 116.957 60.0188 115.021 57.9017C109.46 51.8226 103.657 55.9001 103.451 58.2251C103.413 58.6542 103.469 59.0205 103.588 59.3307Z" fill="#F47458"/>
<path d="M122.688 79.4425C122.688 79.4425 124.581 74.9475 124.883 74.2C124.883 74.2 122.241 71.8469 120.663 72.0301C120.663 72.0301 118.619 75.2412 117.414 75.3567C116.21 75.4723 111.97 75.6521 111.228 76.0944C110.485 76.5366 107.332 81.284 107.332 81.284C107.332 81.284 110.165 84.1223 111.304 84.1157C111.304 84.1157 112.078 82.1982 112.343 82.5481C112.607 82.8979 113.655 90.345 114.183 90.911C114.673 91.4357 120.607 93.439 122.322 93.0693C122.322 93.0693 123.244 85.9011 123.195 81.4887C123.19 80.8171 122.688 79.4425 122.688 79.4425Z" fill="#FAE0B2"/>
<path d="M114.422 73.2464C114.422 73.2464 115.091 75.4559 115.096 76.3552C115.101 77.2545 115.817 80.0779 117.701 79.8931C119.586 79.7083 117.681 76.2117 117.414 75.3569C117.147 74.5038 116.827 71.8091 116.827 71.8091L114.422 73.2464Z" fill="#F7A491"/>
<path d="M117.005 73.1589C116.899 72.4246 116.827 71.8091 116.827 71.8091L114.422 73.2464C114.422 73.2464 114.559 73.6985 114.709 74.276C115.838 74.3833 116.597 73.8916 117.005 73.1589Z" fill="#F47458"/>
<path d="M112.856 67.1161C112.856 67.1161 111.939 67.7564 111.704 68.9626C111.47 70.1689 112.186 73.1458 114.775 73.616C117.364 74.0847 118.206 71.5814 117.495 69.7663C116.783 67.9511 115.414 65.7003 112.856 67.1161Z" fill="#F7A491"/>
<path d="M117.734 69.0104C117.737 69.517 117.5 69.9296 117.204 69.9312C116.909 69.9329 116.668 69.522 116.665 69.0154C116.662 68.5088 116.899 68.0963 117.195 68.0946C117.49 68.093 117.732 68.5022 117.734 69.0104Z" fill="#F7A491"/>
<path d="M112.83 71.5351C113.17 71.9443 113.223 72.4608 112.947 72.6919C112.671 72.9229 112.171 72.7777 111.83 72.3701C111.49 71.9625 111.437 71.4444 111.713 71.2133C111.99 70.984 112.488 71.1275 112.83 71.5351Z" fill="#F7A491"/>
<path d="M110.205 44.5835L116.606 48.2732C116.932 48.4613 117.144 48.798 117.173 49.1742L117.757 56.5569C117.832 57.5041 118.959 57.9513 119.663 57.3144L125.157 52.3441C125.437 52.0917 125.823 51.9927 126.188 52.0785L133.376 53.7864C134.298 54.0058 135.074 53.0685 134.688 52.2022L131.681 45.4416C131.528 45.0967 131.554 44.699 131.751 44.3773L135.609 38.049C136.104 37.2371 135.457 36.2107 134.513 36.313L127.162 37.1051C126.787 37.1463 126.417 36.9978 126.173 36.7123L121.37 31.0936C120.754 30.3725 119.577 30.6745 119.381 31.6052L117.843 38.8542C117.766 39.2239 117.51 39.5308 117.163 39.676L110.335 42.5307C109.462 42.8971 109.385 44.1099 110.205 44.5835Z" fill="#F7CC7F"/>
<path d="M125.315 52.2269C125.26 52.2616 125.206 52.2995 125.158 52.3441L124.869 52.6048C125.1 52.5916 125.597 52.5289 125.988 52.9282C125.988 52.9282 125.907 52.5916 125.315 52.2269Z" fill="#F47257"/>
<path d="M125.057 53.2516L124.894 52.6064C124.386 52.6179 124.01 52.4975 123.726 52.4216L123.275 52.2252C123.132 52.1625 122.965 52.2301 122.907 52.3754C122.861 52.4892 122.896 52.6212 122.991 52.6971C122.991 52.6971 124.208 53.6988 124.637 54.004C124.848 54.1542 125.514 54.5618 125.514 54.5618L125.902 53.8357L125.057 53.2516Z" fill="#F7A491"/>
<path d="M316.817 150.333H20.9898C20.498 150.333 20.1003 149.94 20.1003 149.453C20.1003 148.968 20.4997 148.573 20.9898 148.573H316.817C317.309 148.573 317.708 148.966 317.708 149.453C317.708 149.938 317.309 150.333 316.817 150.333Z" fill="#007F7F"/>
<path d="M290.845 141.81C290.845 141.81 289.91 142.735 289.888 143.074C289.867 143.414 289.806 147.049 290.187 147.389C290.568 147.729 291.69 147.97 291.329 148.351C291.057 148.64 288.959 148.579 287.572 148.501C287.166 148.478 286.657 145.197 286.497 144.716C286.265 144.016 285.423 142.491 285.636 142.003C285.74 141.765 286.507 141.224 287.204 140.767C287.936 140.287 288.638 139.219 288.638 139.219L290.845 141.81Z" fill="#F7A491"/>
<path d="M303.355 144.082C303.355 144.082 302.519 146.478 302.517 146.485C302.454 146.864 302.21 147.803 302.21 148.148C302.21 149.445 307.979 147.047 306.685 146.473C306.568 146.422 306.202 146.006 306.162 145.564C306.103 144.884 306.647 144.031 306.647 144.031L303.355 144.082Z" fill="#F7A491"/>
<path d="M312.988 98.7673C312.988 98.7673 313.422 102.733 313.422 102.797C313.422 109.747 314.234 123.321 313.975 124.628C313.345 127.815 306.459 145.161 306.459 145.161L302.891 144.651L307.67 124.165L305.911 116.33L303.422 100.843L312.988 98.7673Z" fill="#184655"/>
<path d="M299.54 102.236L298.843 106.308L296.961 123.066L287.745 140.072C287.745 140.072 289.131 142.199 290.619 142.534L303.701 125.346L310.79 103.828L310.541 99.0479L299.54 102.236Z" fill="#355389"/>
<path d="M314.332 55.5751C314.444 55.7946 314.901 56.3804 314.901 56.3804C314.901 56.3804 313.86 67.5304 313.778 68.2267L310.608 73.0237L314.159 75.6292C314.159 75.6292 317.776 69.8356 317.809 69.5534C317.842 69.2713 317.693 60.9215 317.693 60.9215C317.693 60.9215 317.428 56.5899 317.428 56.3738C317.428 56.1576 318.065 54.7616 318.19 54.1989C318.307 53.6791 318.34 52.0735 318.34 52.0735L318.075 51.6923L316.842 51.4233L315.971 51.5223C315.971 51.5223 313.959 52.3359 313.88 52.5933C313.844 52.7104 313.948 54.2566 314.066 54.7962C314.111 54.9992 314.24 55.3919 314.332 55.5751Z" fill="#F7A491"/>
<path d="M314.721 53.4793C314.721 53.4793 314.921 53.9529 315.228 54.3176C315.535 54.6822 316.141 54.5915 316.497 54.1179C316.853 53.6443 316.987 53.1724 316.987 53.1724L314.721 53.4793Z" fill="#FE875E"/>
<path d="M304.743 43.7567L311.675 45.788C312.028 45.8919 312.307 46.1626 312.423 46.5124L314.678 53.3951C314.967 54.278 316.14 54.443 316.663 53.6757L320.738 47.6856C320.946 47.3804 321.289 47.1972 321.657 47.1956L328.881 47.1626C329.809 47.1576 330.328 46.09 329.762 45.354L325.348 39.6214C325.124 39.3293 325.056 38.9449 325.168 38.5934L327.376 31.6892C327.66 30.8031 326.809 29.978 325.936 30.2915L319.134 32.7387C318.787 32.8641 318.401 32.8096 318.104 32.5935L312.244 28.3609C311.494 27.818 310.446 28.3757 310.474 29.3047L310.683 36.5505C310.693 36.9201 310.523 37.27 310.226 37.4894L304.396 41.7765C303.65 42.3243 303.853 43.4959 304.743 43.7567Z" fill="#F7CC7F"/>
<path d="M314.713 53.5157C314.728 53.2731 314.688 52.7632 314.688 52.7632C314.688 52.7632 315.205 51.7533 315.086 51.6857C314.675 51.4497 313.87 52.5867 313.87 52.5867C313.87 52.5867 314.667 54.3044 314.713 53.5157Z" fill="#F7A491"/>
<path d="M318.162 54.1773C318.162 54.1773 318.72 52.0849 318.48 51.4941C318.327 51.1162 316.258 50.2994 315.992 50.6641C315.749 50.9974 317.736 51.6888 317.677 51.768C317.578 51.9001 316.175 50.9463 315.918 51.1294C315.629 51.3341 317.271 52.3324 317.195 52.4908C317.147 52.5915 316.23 51.636 316.134 52.0585C316.036 52.4826 318.162 54.1773 318.162 54.1773Z" fill="#F7A491"/>
<path d="M313.048 96.3517L312.324 86.4443C312.091 83.9988 312 82.045 312.2 81.3404C312.622 79.8404 315.702 74.8009 315.702 74.8009C315.702 74.8009 312.748 71.5138 310.657 71.5138C310.657 71.5138 308.339 75.9807 305.581 76.3751C302.826 76.7678 303.418 76.786 302.296 76.9048C300.981 77.0434 299.735 77.253 298.723 77.6738C296.619 78.5516 298.203 86.4311 298.443 87.7132C298.806 89.6505 298.126 105.974 298.126 105.974C298.126 105.974 304.165 107.333 313.426 102.799L313.048 96.3517Z" fill="#50BFA5"/>
<path d="M302.86 72.5716L302.207 76.9857C302.207 76.9857 304.627 82.1292 306.081 81.6787C307.301 81.3008 306.535 76.593 306.535 76.593C306.535 76.593 305.885 74.2366 306.084 73.0006C306.284 71.7663 302.86 72.5716 302.86 72.5716Z" fill="#F7A491"/>
<path d="M303.33 73.9064C303.956 74.2216 305.19 74.6506 306.15 74.7546C306.058 74.1374 306.007 73.484 306.084 73.0005C306.177 72.4312 305.497 72.2959 304.738 72.3157C303.746 72.4064 302.86 72.5714 302.86 72.5714L302.735 73.4196C302.923 73.6325 303.122 73.8025 303.33 73.9064Z" fill="#FE875E"/>
<path d="M299.715 67.4792C299.613 67.4792 300.7 72.4114 302.383 73.2596C304.067 74.1078 306.578 73.6655 307.05 72.3372C307.571 70.8685 305.67 65.8356 303.301 65.197C300.935 64.5584 299.715 67.4792 299.715 67.4792Z" fill="#F7A491"/>
<path d="M283.357 101.031L290.512 102.031C290.877 102.083 291.192 102.31 291.357 102.64L294.592 109.122C295.006 109.954 296.19 109.947 296.596 109.111L299.756 102.591C299.917 102.259 300.232 102.028 300.595 101.972L307.737 100.888C308.652 100.749 309.012 99.6156 308.345 98.9704L303.144 93.9408C302.879 93.685 302.756 93.3137 302.817 92.949L303.997 85.7973C304.149 84.8799 303.187 84.1868 302.369 84.6241L295.994 88.0349C295.669 88.2082 295.28 88.2115 294.955 88.0415L288.542 84.7066C287.719 84.2792 286.765 84.9838 286.927 85.8996L288.187 93.0365C288.252 93.3995 288.133 93.7725 287.872 94.0315L282.729 99.1222C282.067 99.774 282.44 100.903 283.357 101.031Z" fill="#F7CC7F"/>
<path d="M292.868 85.8204C292.868 85.8204 290.712 88.7412 290.578 89.256C290.446 89.7709 291.392 101.904 291.441 102.975C291.441 102.975 291.043 104.271 290.819 105.092C290.595 105.914 290.496 106.525 290.608 106.686C290.72 106.848 291.068 106.736 291.205 107.048C291.342 107.36 291.74 107.31 291.865 107.371C291.989 107.434 292.357 107.894 292.494 107.881C292.631 107.868 292.855 107.843 292.972 107.919C293.091 107.993 293.289 108.2 293.57 108.15C293.85 108.101 293.989 107.941 293.989 107.941C293.989 107.941 293.769 105.71 293.931 105.716C294.093 105.723 294.504 105.909 294.56 106.046C294.616 106.183 294.591 106.488 294.647 106.625C294.703 106.762 294.89 106.893 295.058 106.837C295.226 106.781 295.202 106.015 295.202 106.015C295.202 106.015 295.177 105.393 294.953 105.025C294.177 103.753 294.007 103.931 293.908 103.767C293.859 103.687 293.921 100.543 293.921 100.543C293.921 100.543 294.231 91.6141 294.264 91.1339L296.538 87.7643L292.868 85.8204Z" fill="#F8A492"/>
<path d="M291.973 85.8534L296.519 89.2725C296.519 89.2725 299.002 85.5267 300.336 84.1934C302.006 82.5234 299.659 77.2182 298.651 77.6951C296.176 78.8684 291.973 85.8534 291.973 85.8534Z" fill="#50BFA5"/>
<path d="M301.664 62.9478C300.319 63.7762 299.702 65.0039 299.494 65.5072C298.862 65.8273 298.098 66.5187 297.731 68.3817C297.281 70.6721 298.883 72.4394 300.583 72.9691C302.283 73.5005 302.57 74.7001 302.57 74.7001L302.738 73.408C302.738 73.408 302.36 72.2843 301.792 71.7216C301.223 71.1589 302.061 70.3388 302.136 69.6688C302.192 69.154 301.837 68.154 301.915 67.3091L302.121 66.6095C302.121 66.6095 302.794 65.5369 303.789 65.4032C304.783 65.2712 303.39 61.8851 301.664 62.9478Z" fill="#13375B"/>
<path d="M302.38 70.5286C302.599 71.0979 302.51 71.6639 302.179 71.7909C301.847 71.9196 301.401 71.5616 301.18 70.9906C300.961 70.4213 301.05 69.8553 301.382 69.7282C301.712 69.6012 302.159 69.9593 302.38 70.5286Z" fill="#F7A491"/>
<path d="M287.248 140.745C287.248 140.745 289.403 146.897 290.246 147.194C290.471 147.273 291.545 147.473 291.748 147.955C291.809 148.1 291.748 148.585 291.748 148.585H287.256C287.256 148.585 286.689 145.874 286.464 144.684C286.464 144.684 285.274 141.775 285.406 141.509C285.538 141.244 287.248 140.745 287.248 140.745Z" fill="#3C8F7C"/>
<path d="M301.883 148.575L302.543 146.46C302.543 146.46 303.931 147.055 304.624 146.956C305.317 146.857 306.672 146.46 306.672 146.46C309.441 147.384 311.71 147.833 311.297 148.575H301.883Z" fill="#3C8F7C"/>
<path d="M64.301 56.4048C63.9066 56.6408 63.5716 56.9642 63.3241 57.3504C62.8192 58.1358 61.971 59.4493 61.8621 59.5863C60.9001 60.7926 58.1179 63.6671 58.1179 63.6671L60.8043 64.4922L66.0501 58.6045C66.0501 58.6045 68.3372 56.3784 67.9544 56.4477C67.7894 56.4774 65.7251 57.9972 65.6871 57.9048C65.6772 57.8801 68.4692 55.6425 67.9874 55.5187C67.857 55.4857 65.5501 57.22 65.4313 57.1771C65.3769 57.1573 67.7168 55.5435 67.2778 55.3686C67.06 55.2827 65.2053 56.5798 65.0667 56.5468C64.9115 56.5104 66.7482 55.1804 66.3323 55.2695C66.1607 55.3058 65.0238 55.9742 64.301 56.4048Z" fill="#F7A491"/>
<path d="M57.4083 54.2828L64.3982 56.1013C64.7547 56.1937 65.0435 56.4561 65.1689 56.8043L67.6325 63.6127C67.9477 64.484 69.1276 64.6144 69.6259 63.8322L73.5169 57.7234C73.7149 57.4132 74.0532 57.2184 74.4229 57.2052L81.6373 56.9528C82.5663 56.9198 83.0547 55.8373 82.4656 55.1195L77.8799 49.5255C77.6456 49.24 77.5664 48.8572 77.6687 48.5024L79.667 41.5372C79.9228 40.6444 79.0465 39.8441 78.1852 40.184L71.4592 42.8358C71.1176 42.9711 70.7298 42.9282 70.4246 42.722L64.4395 38.6692C63.6722 38.1494 62.6425 38.7385 62.697 39.6659L63.126 46.9001C63.1474 47.2681 62.9874 47.6229 62.697 47.8506L56.9974 52.3142C56.2697 52.8885 56.5106 54.0502 57.4083 54.2828Z" fill="#F7CC7F"/>
<path d="M67.6603 136.775C67.6603 136.775 66.7957 140.841 66.8897 141.735C67.025 143.024 73.1372 140.14 71.7923 139.702C71.4821 139.602 70.5002 139.211 70.4243 139.155C70.0085 138.857 70.1256 136.94 70.1256 136.94L67.6603 136.775Z" fill="#F7A491"/>
<path d="M74.7049 119.534C74.9211 118.292 70.9129 103.695 68.6803 99.2079L63.0549 98.3696L63.6374 107.414C65.05 107.822 69.0796 121.427 69.0796 121.427L67.1209 137.455L70.4723 137.655C70.474 137.653 74.2066 122.389 74.7049 119.534Z" fill="#B75742"/>
<path d="M65.8455 99.7377L59.2152 99.4291L57.0667 100.32C56.768 100.452 58.3109 118.937 57.9297 119.468C57.7169 119.764 52.5833 122.861 49.3804 124.831L50.08 129.41C55.075 127.287 62.6095 123.151 63.6541 121.774C64.0683 120.628 64.7432 108.376 64.9643 106.226C65.0633 105.267 67.3867 99.7542 67.3867 99.7542L65.8455 99.7377Z" fill="#F47458"/>
<path d="M70.1918 79.5812L66.6886 79.4145C66.6886 79.4145 63.9229 79.0185 63.583 78.9624C63.2414 78.9063 59.3454 89.1207 58.0649 92.9952C56.7861 96.8697 57.1111 98.4406 57.1111 98.4406C57.1111 98.4406 59.2464 100.134 63.1078 100.785C66.1374 101.297 69.4789 98.9604 69.4789 98.9604C69.4789 98.9604 70.3172 91.312 70.1407 88.8319C69.9641 86.3501 70.1918 79.5812 70.1918 79.5812Z" fill="white"/>
<path d="M66.6969 77.4409L66.5517 79.4359C66.5517 79.4359 66.9378 82.4095 66.1507 82.8055C65.3636 83.2016 63.7563 78.997 63.7563 78.997L64.5831 73.9459L66.6969 77.4409Z" fill="#F7A491"/>
<path d="M66.5979 78.8254C65.5385 78.2759 64.3636 76.5466 64.5847 73.9707L66.6969 77.4409L66.5979 78.8254Z" fill="#F47458"/>
<path d="M68.9278 70.5086C69.6357 70.7331 70.1142 71.4294 70.1357 72.2165C70.1538 72.87 70.139 73.8254 69.9872 74.8782C69.7067 76.8171 68.1242 78.1669 67.172 78.0102C66.2199 77.8534 64.2496 76.5564 64.6061 73.7974C64.7579 72.6142 64.9576 71.0631 66.1209 70.5862C67.0268 70.2149 68.1143 70.2512 68.9278 70.5086Z" fill="#F7A491"/>
<path d="M62.8686 62.116C62.999 62.2761 62.9494 62.484 62.8191 62.6441C62.0765 63.5632 58.7185 68.6209 58.7317 68.6621C58.7828 68.8403 58.9314 69.3453 59.0238 69.5697C60.1508 72.2941 63.7564 78.9837 63.7564 78.9837L63.2597 102.114C63.258 102.228 63.1722 102.322 63.06 102.335C62.4033 102.412 60.2531 102.652 59.1244 102.61C55.8274 102.488 53.2565 100.028 53.3258 99.0758C53.3951 98.1237 55.6179 94.6634 56.7169 88.7823C57.4083 85.0876 57.9297 80.9821 57.9297 80.9821C57.9297 80.9821 57.3324 79.1785 57.1327 78.6174C55.905 75.167 53.7978 68.7859 53.9595 68.271C54.5139 66.5169 59.5188 60.923 60.2399 60.1556C60.7366 59.6292 62.2762 61.3932 62.8686 62.116Z" fill="#50BFA5"/>
<path d="M74.4757 140.057L70.6044 139.184C70.6044 139.184 69.2332 140.301 67.0368 140.057C67.0368 140.057 66.4873 140.907 66.6194 142.262C66.6194 142.262 68.8652 142.463 71.8652 142.265C71.8652 142.265 73.7364 142.25 75.6093 141.44C77.4806 140.63 74.4757 140.057 74.4757 140.057Z" fill="#F7CC7F"/>
<path d="M64.2346 75.9278C64.2346 75.9278 61.9822 71.9873 62.5581 69.7051C63.1356 67.423 65.5778 66.8834 67.3583 67.385C68.162 67.6111 68.69 67.819 69.4771 68.187C71.1702 68.9757 72.0612 70.1259 71.1949 71.4477C70.0316 73.2216 66.8963 70.4064 65.9541 70.7711C65.1769 71.0714 65.794 72.5929 65.0465 72.8585C64.3452 73.1077 64.6241 73.0763 64.5482 73.9542C64.4756 74.8321 64.2346 75.9278 64.2346 75.9278Z" fill="#F7CC7F"/>
<path d="M63.8636 72.8881C63.7712 73.4492 63.9709 73.9508 64.3092 74.0053C64.6475 74.0614 64.9973 73.6505 65.0897 73.0895C65.1821 72.5284 64.9824 72.0268 64.6442 71.9723C64.3059 71.9162 63.956 72.3254 63.8636 72.8881Z" fill="#F7A491"/>
<path d="M67.6655 57.5402C67.3371 57.461 66.9922 57.5699 66.7695 57.8224L66.1292 58.5501C66.0104 58.6854 65.8421 58.7663 65.6622 58.7745L64.3322 58.8356L63.0435 61.7101L64.4527 60.3273C64.7184 60.0666 65.0665 59.9115 65.4378 59.8867L66.1408 59.7745C66.3157 59.7613 66.621 59.5567 66.7134 59.4082L67.8058 57.8653C67.88 57.7366 67.8091 57.5749 67.6655 57.5402Z" fill="#F7A491"/>
<path d="M76.0269 56.0205V57.8456C76.0269 57.8456 76.5186 59.1409 76.7942 59.5056C76.913 59.6607 77.3899 60.0138 77.3899 60.0138C77.545 60.1459 77.6291 60.3439 77.6176 60.5485L77.4542 63.3092L79.9921 63.7696L80.0136 60.027L80.3849 58.5403V57.0007L76.8866 57.1195L76.0269 56.0205Z" fill="#F7A491"/>
<path d="M77.9593 58.2927L76.7943 59.5072L76.027 57.8472C76.027 57.8472 75.6788 55.5915 75.7795 55.5139C75.9115 55.4099 76.2811 55.4462 76.433 55.6773C76.6359 55.9891 76.8702 57.0964 76.8702 57.0964L77.961 57.7977V58.2927H77.9593Z" fill="#F7A491"/>
<path d="M76.9031 57.1178L77.4097 57.4347C77.743 57.6492 77.9971 57.9677 78.1308 58.3406L78.2215 58.5914L78.2479 58.1954C78.271 57.8637 78.1935 57.5337 78.0285 57.2449L77.9344 57.0848L76.9031 57.1178Z" fill="#F57258"/>
<path d="M65.796 58.5386C65.796 58.5386 65.6293 58.5947 65.5716 58.5947C65.4494 58.5963 65.093 58.4841 65.093 58.4841C65.093 58.4841 65.3438 58.6937 65.4395 58.7399C65.5683 58.8026 65.7267 58.7696 65.8653 58.7317L65.796 58.5386Z" fill="#F57258"/>
<path d="M76.9476 63.253C76.7347 63.9114 75.0565 72.8931 75.0565 72.8931C75.0565 72.8931 66.5104 79.3237 66.5401 79.3947C66.5599 79.4392 66.5781 79.4854 66.5979 79.5316C66.7299 79.5795 67.0517 79.761 67.4889 80.4392C68.0995 81.3864 69.0962 82.7313 69.1919 86.4259C69.1985 86.6817 68.7744 99.3977 68.7744 99.3977L69.1193 100.127L69.6869 101.495C70.0797 101.662 71.2397 101.797 71.4212 101.591C71.7942 101.167 71.8057 98.104 71.6704 95.5925C71.4427 91.3928 70.6754 84.8566 70.7414 84.0266C70.908 83.5613 79.0828 76.2066 79.0828 76.2066C79.1538 76.139 79.2 76.0515 79.2148 75.9541C79.3254 75.2116 79.8188 71.9195 79.8518 71.7463C80.5597 67.9658 80.6983 63.9147 80.6983 63.9147C80.0828 62.6557 77.1126 62.7382 76.9476 63.253Z" fill="#52BEA7"/>
<path d="M253.917 148.721H111.409C107.34 148.721 104.04 145.853 104.04 142.315V142.252H261.357C261.357 145.825 258.026 148.721 253.917 148.721Z" fill="#358787"/>
<path d="M183.57 148.721H58.7829C55.2186 148.721 52.3308 145.853 52.3308 142.315V142.252H190.086C190.086 145.825 187.169 148.721 183.57 148.721Z" fill="#47B5B5"/>
<path d="M171.659 66.027C171.659 66.027 170.167 64.4544 168.968 66.3669C168.968 66.3669 168.044 65.8487 167.395 66.7728C167.395 66.7728 165.725 66.2712 165.319 68.7678C165.319 68.7678 164.46 68.6061 164.347 69.6276C164.234 70.649 164.752 71.3289 164.752 71.3289C164.752 71.3289 164.27 71.6902 164.488 72.6292C164.674 73.4278 165.334 73.5499 165.334 73.5499C165.334 73.5499 165.512 74.8948 166.097 75.3007C166.681 75.7067 167.474 75.512 167.474 75.512C167.474 75.512 167.686 76.2413 168.365 76.177C169.047 76.1126 169.89 75.4641 170.651 75.7562C171.413 76.0483 173.39 75.7397 173.39 75.7397C173.39 75.7397 175.611 74.7512 174.946 72.4807C174.946 72.4807 176.113 71.4262 175.091 70.1622C175.091 70.1622 175.837 68.1853 174.362 67.017C172.892 65.8487 171.659 66.027 171.659 66.027Z" fill="#07345A"/>
<path d="M154.308 50.712L153.526 53.6377L153.161 58.8175L155.986 59.4182C155.986 59.4182 156.001 56.1014 156.588 55.4314C157.05 54.905 157.658 54.0684 157.758 53.7417C158.096 52.6262 154.308 50.712 154.308 50.712Z" fill="#F7A491"/>
<path d="M157.635 53.0883L155.962 55.1394C155.467 55.7417 154.676 55.5585 154.501 54.7945L154.295 53.3655C154.297 53.3655 156.679 52.0437 157.635 53.0883Z" fill="#F47458"/>
<path d="M169.306 49.3836L162.048 48.6691C161.679 48.6328 161.316 48.7781 161.078 49.0569L156.407 54.5337C155.808 55.2367 154.646 54.9512 154.44 54.0519L152.841 47.0405C152.76 46.684 152.504 46.387 152.161 46.2484L145.397 43.5323C144.529 43.1841 144.437 42.0092 145.242 41.5455L151.511 37.9267C151.831 37.7419 152.035 37.4152 152.06 37.0505L152.552 29.8955C152.615 28.978 153.72 28.5358 154.423 29.1496L159.897 33.9235C160.176 34.1661 160.557 34.2601 160.916 34.1727L167.984 32.4664C168.892 32.2469 169.666 33.1496 169.296 33.9911L166.41 40.5604C166.263 40.8953 166.293 41.2798 166.491 41.5917L170.367 47.6939C170.864 48.4777 170.236 49.4761 169.306 49.3836Z" fill="#F7CC7F"/>
<path d="M156.831 54.2896L156.471 53.3408C156.471 53.3408 155.717 52.3457 156.024 52.0701C156.536 51.6131 157.668 53.2021 157.668 53.2021C157.668 53.2021 157.587 54.4051 156.831 54.2896Z" fill="#F7A491"/>
<path d="M153.526 53.6377C153.526 53.6377 153.684 51.58 153.743 51.5305C154.077 51.2516 155.031 50.8672 155.316 51.0553C155.602 51.2434 154.669 52.1642 154.669 52.1642C154.669 52.1642 155.098 52.3473 155.108 52.7615C155.121 53.1757 153.526 53.6377 153.526 53.6377Z" fill="#F7A491"/>
<path d="M184.568 53.1542L184.755 56.1772L184.083 61.3257L181.195 61.3537C181.195 61.3537 181.839 58.0996 181.397 57.3274C181.048 56.7201 180.618 55.7795 180.586 55.438C180.476 54.2796 184.568 53.1542 184.568 53.1542Z" fill="#F7A491"/>
<path d="M180.837 54.8242L182.068 57.1674C182.433 57.8572 183.245 57.8341 183.568 57.1196L184.053 55.7599C184.053 55.7599 181.979 53.9909 180.837 54.8242Z" fill="#F47458"/>
<path d="M172.004 50.3423L178.174 50.9727C178.489 51.004 178.766 51.1872 178.918 51.4595L181.888 56.8125C182.269 57.499 183.286 57.4577 183.609 56.7432L186.126 51.1691C186.255 50.8852 186.517 50.6806 186.827 50.6245L192.924 49.5024C193.707 49.3589 193.982 48.3952 193.39 47.8721L188.774 43.7979C188.54 43.59 188.423 43.283 188.464 42.9745L189.263 36.9267C189.365 36.1511 188.519 35.5967 187.83 35.9878L182.463 39.0438C182.189 39.1989 181.855 39.2121 181.57 39.0801L175.966 36.4647C175.246 36.1297 174.449 36.7501 174.616 37.5141L175.913 43.4778C175.979 43.7814 175.888 44.0982 175.672 44.3243L171.41 48.7549C170.86 49.3242 171.214 50.2615 172.004 50.3423Z" fill="#F7CC7F"/>
<path d="M161.389 131.907C161.389 131.907 159.763 133.922 159.359 134.17C158.955 134.417 159.539 137.344 160.643 137.536C161.265 137.645 161.61 136.96 161.61 136.96L161.432 136.117L163.753 133.724L161.389 131.907Z" fill="#F7A491"/>
<path d="M169.76 132.406C169.76 132.406 168.405 134.612 168.036 134.909C167.666 135.206 168.62 138.034 169.738 138.084C170.369 138.112 170.625 137.389 170.625 137.389L170.341 136.575L172.337 133.907L169.76 132.406Z" fill="#F7A491"/>
<path d="M168.116 134.821C168.116 134.821 168.893 135.813 169.319 136.209C169.867 136.719 170.568 137.217 170.568 137.217C170.568 137.217 171.364 138.66 171.58 139.163C172.063 140.283 172.606 141.532 172.529 142.159C172.504 142.361 172.052 142.574 171.674 142.458C170.105 141.976 166.092 138.305 165.585 137.32C165.001 136.181 168.116 134.821 168.116 134.821Z" fill="#07345A"/>
<path d="M179.572 101.226C179.426 100.819 179.286 100.441 179.151 100.086C177.481 100.451 175.596 100.852 173.656 101.264L173.42 108.373C173.421 107.823 174.879 119.713 174.879 119.713C174.879 119.713 171.45 127.973 168.872 132.836C169.93 134.156 170.21 134.345 171.742 135.244C175.743 130.447 180.857 121.992 181.075 120.531C181.2 119.695 181.312 106.122 179.572 101.226Z" fill="#B75742"/>
<path d="M164.672 103.282C165.182 108.822 166.316 119.412 166.222 120.265C165.936 121.326 161.098 131.128 160.191 132.554C160.912 133.64 161.974 134.661 163.174 134.986C163.41 135.051 171.583 123.354 172.039 122.415C172.552 121.353 173.407 115.554 173.421 108.374L173.657 101.266C170.425 101.954 167.453 102.63 164.672 103.282Z" fill="#F47458"/>
<path d="M175.284 78.03L171.481 78.5531C171.481 78.5531 168.431 78.6274 168.053 78.6274C167.675 78.6274 165.286 92.5034 164.595 97.7261C163.903 102.949 164.438 103.873 164.438 103.873C164.438 103.873 169.261 104.957 172.829 104.642C176.54 104.313 180.715 102.31 180.715 102.31C180.715 102.31 176.415 92.5034 175.786 89.3698C175.159 86.2362 175.284 78.03 175.284 78.03Z" fill="white"/>
<path d="M184.509 61.22C184.509 61.22 184.753 71.5664 184.363 72.3585C183.796 73.5086 177.408 81.6719 177.408 81.6719C177.408 81.6719 180.459 94.4423 181.743 98.8515C181.872 99.2954 182.444 102.165 182.444 102.444C182.444 103.064 179.745 103.851 179.425 103.805C179.137 103.764 176.783 91.6156 175.279 85.6718C174.77 83.657 173.897 81.7544 172.7 80.0547L171.654 78.5696L179.679 70.5252C179.679 70.5252 180.667 61.5715 180.667 60.8306C180.667 60.6359 184.119 60.4907 184.509 61.22Z" fill="#466EB6"/>
<path d="M168.192 78.6077L158.186 68.4115C158.186 68.4115 156.792 58.7697 156.693 58.4067C156.595 58.0503 154.11 57.8572 153.108 57.7598C152.787 57.7285 153.277 68.0303 153.755 69.7564C154.321 71.7959 161.886 81.0912 161.886 81.0912C161.886 81.0912 163.242 86.1257 162.915 89.8171C162.372 95.9507 160.91 104.386 161.173 104.652C162.798 105.677 169.041 105.786 169.437 105.15C173.798 98.1223 168.192 78.6077 168.192 78.6077Z" fill="#466EB6"/>
<path d="M171.408 76.7033L171.679 78.7066C171.679 78.7066 172.284 81.5927 171.506 82.1487C170.728 82.7048 168.197 78.6241 168.197 78.6241L168.464 73.5482L171.408 76.7033Z" fill="#F7A491"/>
<path d="M168.377 75.1934C169.021 76.9244 170.55 77.9887 171.638 78.4013L171.408 76.7033L168.463 73.5482L168.377 75.1934Z" fill="#F47458"/>
<path d="M164.321 70.0995C164.321 70.8734 164.76 71.4988 165.303 71.4988C165.846 71.4988 166.284 70.8718 166.284 70.0995C166.284 69.3273 165.844 68.7002 165.303 68.7002C164.761 68.6985 164.321 69.3256 164.321 70.0995Z" fill="#07345A"/>
<path d="M167.266 67.0897C167.266 67.5336 167.801 67.8933 168.461 67.8933C169.121 67.8933 169.656 67.5336 169.656 67.0897C169.656 66.6458 169.121 66.2844 168.461 66.2844C167.803 66.2861 167.266 66.6458 167.266 67.0897Z" fill="#07345A"/>
<path d="M170.262 68.215C171.841 67.6721 173.524 68.7199 173.765 70.3486C173.869 71.0565 173.964 71.946 173.983 72.9179C174.025 75.2578 172.814 77.535 171.752 77.535C170.689 77.535 167.753 76.0202 167.648 72.6984C167.58 70.6489 168.603 68.7859 170.262 68.215Z" fill="#F7A491"/>
<path d="M168.428 72.9625C168.428 73.479 168.087 73.8965 167.664 73.8965C167.242 73.8965 166.9 73.4774 166.9 72.9625C166.9 72.4461 167.242 72.0286 167.664 72.0286C168.087 72.0286 168.428 72.4461 168.428 72.9625Z" fill="#F7A491"/>
<path d="M174.864 67.0517C175.961 67.9214 176.345 69.2415 175.723 70.0022C175.1 70.7629 173.705 70.6738 172.608 69.8042C171.51 68.9345 171.126 67.6144 171.748 66.8537C172.372 66.0947 173.766 66.1821 174.864 67.0517Z" fill="#07345A"/>
<path d="M171.994 67.7646C171.994 68.1425 171.539 68.4494 170.976 68.4494C170.413 68.4494 169.958 68.1425 169.958 67.7646C169.958 67.3868 170.413 67.0798 170.976 67.0798C171.539 67.0798 171.994 67.3868 171.994 67.7646Z" fill="#07345A"/>
<path d="M175.025 70.6721C175.025 71.1573 174.636 71.5516 174.156 71.5516C173.676 71.5516 173.286 71.1573 173.286 70.6721C173.286 70.187 173.676 69.7926 174.156 69.7926C174.636 69.7926 175.025 70.1853 175.025 70.6721Z" fill="#07345A"/>
<path d="M181.385 56.1608L181.926 55.3027C181.926 55.3027 182.862 54.476 182.616 54.146C182.207 53.5965 180.781 54.9298 180.781 54.9298C180.781 54.9298 180.621 56.1245 181.385 56.1608Z" fill="#F7A491"/>
<path d="M184.755 56.1788C184.755 56.1788 185.007 54.131 184.958 54.0699C184.685 53.73 183.827 53.164 183.51 53.2911C183.194 53.4198 183.923 54.5072 183.923 54.5072C183.923 54.5072 183.466 54.6013 183.373 55.0056C183.283 55.4082 184.755 56.1788 184.755 56.1788Z" fill="#F7A491"/>
<path d="M159.451 134.095C159.451 134.095 160.097 135.178 160.466 135.623C160.945 136.199 161.577 136.783 161.577 136.783C161.577 136.783 162.181 138.315 162.333 138.843C162.669 140.016 163.049 141.432 162.89 142.044C162.839 142.24 162.407 142.615 162.05 142.384C160.674 141.488 156.998 137.29 156.62 136.249C156.186 135.046 159.451 134.095 159.451 134.095Z" fill="#07345A"/>
<path d="M218.983 79.5383C218.348 78.0102 217.703 76.4789 216.056 75.7066C214.723 75.0812 213.33 75.3156 212.145 76.2066C208.789 78.7297 211.713 81.5102 207.893 86.2972C206.706 87.784 205.269 88.9853 204.558 90.7279C203.563 93.1668 204.748 94.3384 206.649 95.5067C215.743 101.096 220.51 89.6206 220.338 86.9953C220.21 85.0398 219.391 80.5218 218.983 79.5383Z" fill="#13375B"/>
<path d="M224.457 130.43C224.008 132.458 223.302 134.232 223.208 134.44C223.162 134.541 222.744 134.897 222.695 135C222.827 137.496 224.361 139.029 225.814 140.135C225.535 138.867 224.865 137.404 224.967 137.128C225.13 136.689 225.776 134.681 227.091 132.171C225.856 131.988 225.441 131.221 224.457 130.43Z" fill="#F7A491"/>
<path d="M218.845 100.776L211.104 106.655C211.104 106.655 214.937 110.343 216.375 111.713C217.812 113.084 226.683 119.467 226.808 119.78C226.901 120.013 224.79 127.351 223.429 131.267C224.247 132.104 226.049 132.924 227.117 133.193C229.8 128.071 233.099 119.331 233.099 118.145C233.099 116.213 218.845 100.776 218.845 100.776Z" fill="#355389"/>
<path d="M197.129 112.505C197.382 112.752 199.063 116.025 199.702 117.777C200.637 117.188 201.203 116.485 202.25 116.089C201.424 114.894 199.816 112.021 199.684 111.338C199.37 109.716 199.002 109.477 199.002 109.477C199.002 109.477 193.563 111.317 193.202 111.833C192.839 112.35 196.113 111.515 197.129 112.505Z" fill="#F7A491"/>
<path d="M199.748 111.7C200.17 111.701 199.711 109.794 199.614 109.355C199.505 108.86 199.22 108.713 199.147 108.695C198.954 108.647 192.91 110.691 191.888 111.426C191.819 111.475 191.695 111.632 191.675 111.668C191.116 112.711 196.099 112.911 196.815 112.454C197.456 112.048 197.85 111.695 199.748 111.7Z" fill="#3C8F7C"/>
<path d="M220.498 102.512C220.498 102.512 213.741 99.7823 213.741 99.7806C213.768 99.7922 213.7 100.056 213.695 100.076C213.061 102.543 209.679 101.591 208.284 105.876C207.299 108.904 205.855 120.229 205.855 120.229C205.855 120.229 204.832 118.282 201.652 114.701C201.406 114.424 198.274 116.574 198.274 116.574C200.604 122.749 206.324 127.767 207.098 127.412C212.33 125.011 218.614 106.071 218.607 106.073C219.201 104.914 220.498 102.512 220.498 102.512Z" fill="#466EB6"/>
<path d="M220.749 82.5779C220.749 82.5779 223.919 77.5599 224.468 75.8916C225.02 74.2233 224.473 66.2729 224.421 65.7085C224.368 65.1442 222.452 63.5997 222.754 63.1558C223.056 62.7119 225.699 62.3489 226.143 62.4363C226.587 62.5238 227.45 62.4446 227.802 62.801C227.848 62.8472 226.96 64.9412 226.978 65.2647C227.104 67.4791 228.363 74.5318 227.95 76.4394C227.477 78.6324 222.77 85.6406 222.77 85.6406L220.749 82.5779Z" fill="#F7A491"/>
<path d="M209.239 85.5003C209.239 85.5003 200.761 85.7115 198.9 85.8633C197.038 86.0151 190.284 85.4541 190.022 85.4244C189.76 85.3947 188.03 82.464 187.743 82.7792C187.456 83.0944 188.705 84.2313 188.319 84.5267C187.933 84.8221 183.778 84.1604 183.834 84.4673C183.938 85.0415 186.36 84.9689 186.359 85.2462C186.355 85.5234 183.822 85.0911 183.651 85.5514C183.479 86.0118 186.088 85.7396 186.192 85.9442C186.296 86.1488 183.771 86.5267 184.03 86.9541C184.17 87.1867 186.266 86.5663 186.256 86.8831C186.246 87.1999 184.717 87.921 184.903 88.1752C185.091 88.4276 186.104 87.3996 186.991 87.3864C187.878 87.3732 188.514 86.9112 189.929 87.2989C191.347 87.6884 196.175 89.6355 199.198 89.492C202.221 89.3484 208.899 89.0497 208.899 89.0497L209.239 85.5003Z" fill="#F7A491"/>
<path d="M221.683 94.3534C221.799 92.9557 221.993 89.1818 221.931 88.7181C222.353 87.266 223.898 85.1126 224.221 84.5037C224.221 84.5037 222.127 82.1324 220.574 82.1522C220.574 82.1522 218.922 84.238 217.698 84.8766C217.68 84.8717 217.264 85.0614 217.081 85.0598C215.898 85.0515 211.763 84.9261 210.99 85.1571L211.428 91.5465C211.65 91.9128 211.919 99.2609 212.378 99.8648C212.835 100.47 219.492 103.223 220.596 102.512C220.639 102.485 221.45 97.18 221.683 94.3534Z" fill="#50BFA5"/>
<path d="M213.145 85.3056C212.383 84.9409 206.81 84.9524 206.81 84.9524C206.81 84.9524 206.04 88.7956 206.662 89.7197C206.662 89.7197 211.597 90.454 211.457 90.8583L213.145 85.3056Z" fill="#50BFA5"/>
<path d="M214.385 82.7083C214.385 82.7083 214.814 84.9245 214.728 85.799C214.642 86.6736 215.054 89.4921 216.906 89.5003C218.757 89.5102 217.257 85.9178 217.083 85.0598C216.908 84.2033 216.866 81.5499 216.866 81.5499L214.385 82.7083Z" fill="#F7A491"/>
<path d="M216.904 82.8814C216.875 82.1553 216.866 81.5514 216.866 81.5514L214.385 82.7081C214.385 82.7081 214.472 83.1619 214.559 83.7395C215.645 83.9556 216.432 83.5547 216.904 82.8814Z" fill="#F47458"/>
<path d="M213.477 76.5896C213.477 76.5896 212.522 77.1209 212.172 78.2711C211.822 79.4212 212.22 82.3882 214.69 83.1043C217.16 83.8205 218.231 81.4707 217.721 79.6341C217.213 77.7958 216.106 75.4691 213.477 76.5896Z" fill="#F7A491"/>
<path d="M218.03 78.9212C217.982 79.4146 217.71 79.7908 217.422 79.7628C217.135 79.7347 216.941 79.3123 216.99 78.8189C217.038 78.3255 217.31 77.9492 217.597 77.9773C217.884 78.0037 218.079 78.4278 218.03 78.9212Z" fill="#F7A491"/>
<path d="M223.186 134.5C223.044 134.102 221.426 135.297 221.046 135.538C220.619 135.808 220.576 136.128 220.584 136.201C220.604 136.394 224.44 141.466 225.589 142.189C225.698 142.257 225.931 142.267 226 142.244C226.66 142.016 225.739 137.942 224.912 137.113C224.379 136.579 223.828 136.287 223.186 134.5Z" fill="#3C8F7C"/>
<path d="M209.111 58.6971L215.917 61.1162C216.264 61.24 216.528 61.5255 216.624 61.8819L218.487 68.8801C218.726 69.7778 219.888 70.0088 220.454 69.2729L224.861 63.5254C225.086 63.2334 225.439 63.0684 225.807 63.0882L233.021 63.4644C233.947 63.5122 234.528 62.476 234.003 61.7103L229.92 55.7384C229.713 55.4348 229.668 55.047 229.8 54.7021L232.396 47.9366C232.729 47.0686 231.925 46.1957 231.036 46.4597L224.105 48.5158C223.752 48.6214 223.371 48.5438 223.086 48.3128L217.475 43.7551C216.756 43.171 215.678 43.6677 215.653 44.5967L215.452 51.8391C215.442 52.2088 215.251 52.5487 214.942 52.75L208.879 56.6988C208.101 57.2071 208.238 58.3869 209.111 58.6971Z" fill="#F7CC7F"/>
<path d="M222.8 63.2251C222.546 63.5981 223.922 64.7796 224.304 65.4314L225.168 64.2548C224.743 64.1723 223.091 62.7994 222.8 63.2251Z" fill="#F7A491"/>
<path d="M213.766 76.4393C213.766 76.4393 213.319 79.7495 212.248 80.3469C211.177 80.9442 211.625 82.4128 211.625 82.4128C211.625 82.4128 210.655 79.0036 211.5 77.908C212.348 76.8123 213.766 76.4393 213.766 76.4393Z" fill="#13375B"/>
<path d="M212.881 80.8222C213.171 81.2528 213.17 81.7627 212.879 81.9575C212.587 82.1538 212.117 81.9624 211.827 81.5317C211.536 81.101 211.538 80.5911 211.828 80.3964C212.119 80.2017 212.592 80.3915 212.881 80.8222Z" fill="#F7A491"/>
<path d="M224.879 63.5022C224.873 63.5104 224.866 63.5171 224.86 63.5253L224.546 63.9329C224.777 63.8702 225.214 63.7464 225.642 64.0385C225.643 64.0401 225.502 63.7365 224.879 63.5022Z" fill="#F47257"/>
<path d="M258.551 104.35C258.638 104.386 257.391 105.995 256.175 107.132C255.194 108.361 254.275 109.819 253.958 111.406C253.477 113.82 253.878 125.747 253.458 126.596C249.861 130.112 247.257 138.939 246.525 141.632C246.383 142.156 246.094 142.628 245.693 142.998L245.853 146.041L247.64 147.688C247.64 147.688 247.242 145.207 248.038 143.369C248.038 143.369 257.094 129.653 257.632 128.605C258.66 125.62 262.399 110.322 262.399 110.322L263.267 106.805C263.27 106.804 258.559 104.353 258.551 104.35Z" fill="#F7A491"/>
<path d="M243.737 143.976C243.737 143.976 244.869 145.719 244.965 146.399C245.062 147.079 245.665 148.62 246.331 148.717C246.483 148.739 249.074 148.93 249.056 148.605C249.041 148.357 248.104 148.004 247.668 147.702C246.915 147.183 245.746 142.947 245.746 142.947C245.746 142.947 243.785 143.433 243.737 143.976Z" fill="#F47458"/>
<path d="M266.293 109.635C266.293 109.635 272.126 122.109 272.164 124.302C272.196 126.181 271.145 136.729 271.438 145.511C271.448 145.828 271.851 146.25 272.435 146.518C272.763 146.668 274.352 147.377 274.352 147.377L274.57 147.945L269.1 147.555L269.022 146.062C269.022 146.062 266.844 132.924 267.067 129.208C267.102 128.623 267.386 125.128 267.386 125.128L260.806 112.426L264.945 106.988L266.293 109.635Z" fill="#F7A491"/>
<path d="M266.839 81.6389C265.955 79.2841 263.646 77.8584 261.242 78.299C260.504 77.1076 259.273 76.2231 257.935 75.9376C255.295 75.3716 251.724 76.4145 251.821 79.2099C250.797 81.0877 250.757 83.7725 252.325 85.2015C251.78 87.7262 254.145 90.1684 257.219 90.0793C258.29 91.845 260.329 92.9803 262.359 92.7377C262.846 92.68 263.588 92.5578 263.712 92.5892C263.557 92.5611 266.971 95.1766 269.864 91.1536C272.813 87.048 270.739 82.0778 266.839 81.6389Z" fill="#355389"/>
<path d="M266.491 67.5138C266.633 67.1755 266.809 66.8537 267.016 66.5518L267.243 66.2201C267.271 66.1607 267.293 66.1112 267.304 66.0782C267.403 65.7845 267.328 64.8373 267.328 64.8373L265.333 65.3208L264.895 66.4726C264.451 66.2679 263.692 64.7234 263.415 65.0931C263.088 65.5303 264.321 67.4296 264.418 67.9445C264.516 68.4577 263.359 76.4394 263.024 78.0235C262.689 79.6077 260.432 84.0334 260.432 84.0334L262.498 86.6538C262.498 86.6538 265.809 79.908 266.027 77.8486C266.05 77.6325 266.075 77.3074 266.103 76.9064L266.491 67.5138Z" fill="#F7A491"/>
<path d="M252.734 92.505L250.282 90.4259C250.282 90.4259 248.297 93.736 246.706 96.4357C245.128 95.8647 241.051 93.2063 240.85 93.0842C240.648 92.9621 240.201 89.9572 239.856 90.1173C239.511 90.2774 240.122 91.7031 239.703 91.8087C239.284 91.9159 236.145 89.817 236.079 90.0975C235.959 90.6222 237.954 91.4572 237.853 91.6915C237.752 91.9258 235.848 90.6206 235.544 90.9473C235.241 91.2724 237.459 92.0084 237.47 92.2212C237.482 92.4341 235.297 91.8169 235.355 92.2757C235.386 92.5248 237.31 92.7757 237.19 93.0397C237.067 93.3037 235.569 93.3483 235.632 93.6304C235.695 93.9143 236.883 93.4192 237.609 93.7377C238.335 94.0562 239.015 93.8994 240.028 94.7525C241.039 95.6057 246.015 100.475 247.564 100.058C248.914 99.6931 252.734 92.505 252.734 92.505Z" fill="#F7A491"/>
<path d="M252.92 124.619C252.92 124.62 252.922 124.62 252.922 124.619H252.92Z" fill="#F47458"/>
<path d="M261.265 89.411C261.422 88.4523 262.905 86.0514 263.14 85.4639C263.14 85.4639 261.418 83.2775 260.022 83.4425C260.022 83.4425 258.145 86.5546 257.079 86.6586C256.011 86.7626 252.258 86.9259 251.6 87.3253C250.942 87.7246 248.15 92.0117 248.15 92.0117C248.15 92.0117 250.66 94.5743 251.668 94.5677C251.668 94.5677 252.204 93.5116 252.419 93.2806C252.57 93.7707 254.909 101.345 254.905 103.061L254.923 103.076C257.108 104.848 260.296 104.439 261.983 102.168C261.983 102.168 261.785 99.8069 261.897 97.6304C262.072 94.2196 262.762 92.406 261.265 89.411Z" fill="#F47458"/>
<path d="M273.432 118.709L261.981 102.168C261.275 102.454 260.607 102.703 259.853 102.848C258.211 103.165 256.567 103.114 254.904 103.061C254.904 103.124 254.9 103.178 254.894 103.223C254.702 104.586 252.894 106.698 252.521 110.837C252.099 115.535 252.354 123.693 252.496 124.229C260.112 123.303 271.272 120.977 273.432 118.709Z" fill="#466EB6"/>
<path d="M266.755 66.2713C266.755 66.2713 266.036 66.7532 265.425 66.598C264.814 66.4429 264.534 66.2152 264.534 66.2152C264.534 66.2152 264.872 66.8324 265.371 67.0997C266.229 67.5617 266.755 66.2713 266.755 66.2713Z" fill="#F47458"/>
<path d="M252.557 62.8588L259.214 61.4859C259.552 61.4166 259.904 61.5255 260.151 61.7763L265.019 66.7251C265.643 67.3604 266.692 66.9726 266.795 66.07L267.59 59.0321C267.631 58.674 267.838 58.3589 268.143 58.1922L274.148 54.8969C274.918 54.4744 274.889 53.3127 274.097 52.9299L267.93 49.9547C267.617 49.8029 267.394 49.4993 267.334 49.1445L266.178 42.1578C266.029 41.2617 264.961 40.9301 264.371 41.5967L259.765 46.7947C259.531 47.0587 259.186 47.1874 258.844 47.1346L252.125 46.1132C251.264 45.9828 250.633 46.9399 251.059 47.7336L254.379 53.9216C254.549 54.2368 254.557 54.618 254.406 54.9431L251.411 61.2978C251.024 62.1113 251.703 63.0353 252.557 62.8588Z" fill="#F7CC7F"/>
<path d="M255.148 83.9013C255.148 83.9013 255.551 86.0696 255.47 86.9261C255.389 87.7808 255.777 90.5382 257.516 90.5481C259.255 90.5564 257.846 87.0432 257.683 86.2049C257.519 85.3667 257.48 82.771 257.48 82.771L255.148 83.9013Z" fill="#F7A491"/>
<path d="M257.516 84.073C257.489 83.3634 257.48 82.771 257.48 82.771L255.148 83.9013C255.148 83.9013 255.23 84.3452 255.313 84.9096C256.334 85.1241 257.074 84.7297 257.516 84.073Z" fill="#F47458"/>
<path d="M254.297 77.9161C254.297 77.9161 253.399 78.4359 253.069 79.5596C252.74 80.685 253.115 83.5876 255.435 84.2873C257.757 84.9886 258.762 82.69 258.283 80.8913C257.806 79.096 256.765 76.8204 254.297 77.9161Z" fill="#F7A491"/>
<path d="M258.574 80.1967C258.527 80.6786 258.272 81.0482 258.003 81.0201C257.732 80.9921 257.551 80.5796 257.597 80.0961C257.641 79.6126 257.899 79.2446 258.168 79.271C258.437 79.3007 258.62 79.7149 258.574 80.1967Z" fill="#F7A491"/>
<path d="M253.737 82.0581C254.01 82.4805 254.01 82.9772 253.736 83.1703C253.462 83.3617 253.018 83.1752 252.746 82.7544C252.473 82.332 252.473 81.8353 252.747 81.6423C253.021 81.4492 253.465 81.6356 253.737 82.0581Z" fill="#F7A491"/>
<path d="M267.092 63.6227C266.641 63.5352 264.737 65.0303 264.753 65.2547C264.772 65.4857 266.63 64.5303 266.682 64.6821C266.724 64.8009 264.602 65.357 264.712 65.5715C264.788 65.7167 266.692 65.3158 266.743 65.4098C266.823 65.5567 265.154 65.6177 265.263 65.7794C265.387 65.9659 266.976 65.89 266.976 65.89C266.976 65.89 267.296 65.3752 267.328 65.1837C267.343 65.1012 267.342 64.9874 267.336 64.8554C267.329 64.7498 267.377 64.6573 267.362 64.5385C267.301 64.0534 267.341 63.6706 267.092 63.6227Z" fill="#F7A491"/>
<path d="M264.554 64.7663L263.844 65.6425L263.377 65.2927C263.377 65.2927 263.338 65.2201 263.392 65.098C263.446 64.9775 264.537 64.4429 264.554 64.7663Z" fill="#F7A491"/>
<path d="M269.08 148.597H275.991C276.247 148.574 276.309 148.367 276.22 148.24C276.037 147.978 275.232 147.786 274.326 147.369C272.737 147.534 269.275 146.448 269.024 146.083C268.879 146.815 268.938 148.565 269.08 148.597Z" fill="#F47458"/>
<path d="M263.895 65.5831C263.895 65.5831 264.832 66.1557 265.222 66.8257C265.61 67.4956 265.431 68.0501 265.431 68.0501L263.824 66.0732L263.895 65.5831Z" fill="#F7A491"/>
<path d="M109.267 31.0984L98.6257 33.4152C97.37 33.6891 96.1307 32.8921 95.8584 31.6364L94.5532 25.6447C94.2792 24.3889 95.0763 23.1497 96.332 22.8774L106.974 20.5606C108.23 20.2867 109.469 21.0837 109.741 22.3378L111.046 28.3311C111.32 29.5869 110.523 30.8261 109.267 31.0984Z" fill="#50BFA5"/>
<path d="M95.6605 28.4896L92.177 34.1166L97.5202 31.818L95.6605 28.4896Z" fill="#50BFA5"/>
<path d="M99.5924 26.9187L100.947 26.587C100.947 26.587 102.373 24.9204 102.323 24.455C102.274 23.9913 101.777 23.097 102.015 22.9155C102.254 22.7356 102.795 22.5128 103.287 23.0326C103.644 23.4088 103.787 25.0458 103.97 25.1151C104.086 25.1596 104.87 24.9897 105.441 24.8577C105.817 24.7702 106.208 24.8989 106.459 25.1926C106.629 25.3907 106.637 25.6794 106.478 25.8874L106.233 26.2091L106.543 26.4732C106.774 26.6695 106.804 27.0161 106.609 27.2471L106.411 27.4847L106.617 27.6349C106.883 27.8279 106.922 28.2091 106.701 28.4517L106.521 28.6497L106.566 28.7008C106.754 28.9154 106.747 29.2388 106.549 29.4451L106.368 29.6348L102.757 30.5176C102.419 30.6002 102.068 30.6134 101.724 30.5556L100.404 30.6563C100.262 30.6678 100.134 30.5721 100.102 30.4335L99.3779 27.2636C99.3449 27.1101 99.439 26.9566 99.5924 26.9187Z" fill="white"/>
<path d="M189.286 1.51798C196.614 2.88265 201.875 7.63835 201.037 12.1399C200.618 14.3907 198.753 16.1514 196.076 17.1795L197.814 24.3708L192.515 18.0458C190.581 18.2867 188.446 18.229 186.248 17.8197C178.92 16.4551 173.659 11.6993 174.497 7.19776C175.337 2.69618 181.958 0.153315 189.286 1.51798Z" fill="#FAE0B2"/>
<path d="M192.641 11.4106C191.515 13.7522 188.707 14.739 186.365 13.6136C184.024 12.4882 183.037 9.678 184.162 7.33645C185.288 4.9949 188.096 4.00812 190.438 5.13351C192.779 6.25891 193.766 9.0691 192.641 11.4106Z" fill="#F7CC7F"/>
<path d="M185.812 8.95691C185.212 10.2094 185.738 11.711 186.991 12.3133C188.243 12.9139 189.745 12.3876 190.345 11.1351L185.812 8.95691Z" fill="#EFEFEF"/>
<path d="M227.691 9.85617L213.962 9.85452C213.069 9.85452 212.464 8.94859 212.802 8.12352L215.82 0.777094C216.013 0.306804 216.472 -0.00012207 216.98 -0.00012207L230.709 0.00152807C231.602 0.00152807 232.208 0.907455 231.87 1.73253L228.851 9.07895C228.658 9.54924 228.201 9.85617 227.691 9.85617Z" fill="#466EB6"/>
<path d="M222.49 5.64163L217.178 1.7836C216.975 1.63674 216.929 1.35126 217.078 1.14829C217.225 0.945327 217.51 0.899123 217.713 1.04764L222.602 4.59709L229.647 1.48492C229.876 1.38426 230.145 1.48822 230.247 1.71759C230.35 1.94696 230.244 2.21593 230.015 2.31824L222.49 5.64163Z" fill="white"/>
</g>
<defs>
<clipPath id="clip0_795_1193">
<rect width="330" height="150.333" fill="white"/>
</clipPath>
</defs>
</svg>
