<svg width="277" height="282" viewBox="0 0 277 282" fill="none" xmlns="http://www.w3.org/2000/svg">
<path d="M220.82 153.96C220.82 156.96 220.64 159.9 220.34 162.84C216.38 200.76 187.4 231.24 150.2 237.42C145.64 238.2 140.9 238.62 136.1 238.62C115.76 238.62 97.0399 231.42 82.4599 219.48C63.4999 203.94 51.4399 180.36 51.4399 153.96C51.4399 147.12 52.2799 140.46 53.7799 134.04C57.1999 119.76 64.2799 106.92 73.8799 96.5398C89.3599 79.7998 111.5 69.2998 136.1 69.2998C150.62 69.2998 164.24 72.9598 176.18 79.3798C192.14 87.9598 205.04 101.58 212.78 118.08C216.02 125.04 218.42 132.54 219.68 140.34C220.46 144.78 220.82 149.34 220.82 153.96Z" fill="#49B3B3"/>
<path d="M177.2 88.0798C177.02 93.1198 175.04 98.3998 170.9 101.34C164.42 105.96 154.88 103.26 149.42 97.5598C146.36 94.3798 143.9 90.2398 139.76 88.7398C133.52 86.5198 126.86 91.7998 124.22 97.9198C120.62 106.32 121.7 116.58 116.06 123.72C112.16 128.64 105.44 130.98 99.26 130.08C93.08 129.12 87.5 125.1 84.32 119.7C81.32 114.6 80.36 108.6 78.08 103.2C77.12 100.8 75.74 98.4598 74 96.5398C89.48 79.7998 111.62 69.2998 136.22 69.2998C150.74 69.2998 164.36 72.9598 176.3 79.3798C176.9 82.2598 177.26 85.1398 177.2 88.0798Z" fill="#318482"/>
<path d="M82.4601 163.8C83.4201 159.24 87.38 155.46 92 154.62C99.86 153.24 108.26 159.84 115.52 156.54C120.98 154.08 122.9 147.24 127.28 143.16C133.64 137.22 144.98 138.66 150.56 145.44C156.08 152.22 155.84 162.66 150.92 169.86C146.84 175.86 140.3 179.64 135.08 184.62C131.84 187.74 129.02 191.34 125.42 194.04C121.82 196.74 117.08 198.42 112.82 196.98C107.66 195.24 105.08 189.66 102.2 185.04C96.68 176.16 79.58 177.3 82.4601 163.8Z" fill="#318482"/>
<path d="M220.4 162.84C216.44 200.76 187.46 231.24 150.26 237.42C149.54 230.88 146.9 224.52 144.8 218.16C142.04 209.64 140.48 199.56 145.58 192.18C150.32 185.28 160.64 183 167.9 187.26C171.38 189.3 174.08 192.6 177.56 194.64C181.04 196.74 186.14 197.16 188.72 193.98C190.52 191.76 190.34 188.52 189.62 185.76C188.9 183 187.7 180.3 187.7 177.42C187.7 171.96 192.74 167.04 198.14 167.16C200.84 167.22 203.42 168.36 206.06 168.6C211.46 169.26 216.2 166.5 220.4 162.84Z" fill="#318482"/>
<path d="M186.08 133.62C185.36 130.74 185.66 127.38 187.7 125.16C189.56 123.18 192.38 122.52 195.02 121.92C200.96 120.66 206.9 119.34 212.9 118.02C216.14 124.98 218.54 132.48 219.8 140.28C214.82 143.7 209.24 146.1 203.24 145.92C195.62 145.8 187.94 140.94 186.08 133.62Z" fill="#318482"/>
<path d="M98.2999 212.58C96.7999 214.5 94.0999 214.98 91.6999 215.58C88.4599 216.42 85.3399 217.74 82.4599 219.48C63.4999 203.94 51.4399 180.36 51.4399 153.96C51.4399 147.12 52.2799 140.46 53.7799 134.04C60.6199 135.48 66.5599 141.3 67.5199 148.32C68.4199 155.16 65.1799 161.76 63.9199 168.48C62.4799 176.04 63.6799 184.14 67.2799 190.98C69.5599 195.36 73.0399 199.38 77.7199 200.88C80.7799 201.84 84.0799 201.6 87.3199 201.66C90.5599 201.72 93.9199 202.08 96.4999 204.06C99.0799 206.04 100.28 210.06 98.2999 212.58Z" fill="#318482"/>
<path d="M136.28 281.46C135.8 281.46 135.32 281.46 134.78 281.46C134.6 281.46 134.48 281.34 134.48 281.16C134.48 280.98 134.6 280.86 134.78 280.86C135.26 280.86 135.74 280.86 136.22 280.86C137.06 280.86 137.9 280.86 138.74 280.86C138.92 280.86 139.04 280.98 139.04 281.16C139.04 281.34 138.92 281.46 138.74 281.46C137.96 281.46 137.12 281.46 136.28 281.46ZM128.42 281.22C127.1 281.16 125.72 281.04 124.4 280.92C124.22 280.92 124.1 280.74 124.16 280.62C124.16 280.44 124.34 280.32 124.46 280.38C125.78 280.5 127.1 280.62 128.42 280.68C128.6 280.68 128.72 280.86 128.72 280.98C128.72 281.1 128.6 281.22 128.42 281.22ZM145.16 281.16C144.98 281.16 144.86 281.04 144.86 280.86C144.86 280.68 144.98 280.56 145.16 280.56C146.48 280.44 147.8 280.38 149.12 280.2C149.3 280.2 149.42 280.32 149.42 280.44C149.42 280.62 149.3 280.74 149.18 280.74C147.86 280.92 146.54 281.04 145.16 281.16C145.22 281.16 145.22 281.16 145.16 281.16ZM118.1 280.2C118.1 280.2 118.04 280.2 118.1 280.2C116.72 280.02 115.4 279.78 114.08 279.54C113.9 279.54 113.78 279.36 113.84 279.18C113.84 279 114.02 278.88 114.2 278.94C115.52 279.18 116.84 279.36 118.16 279.54C118.34 279.54 118.46 279.72 118.4 279.9C118.34 280.08 118.22 280.2 118.1 280.2ZM155.48 279.96C155.36 279.96 155.18 279.84 155.18 279.72C155.18 279.54 155.24 279.42 155.42 279.36C156.02 279.24 156.62 279.18 157.28 279.06C158 278.94 158.66 278.82 159.38 278.7C159.56 278.7 159.68 278.76 159.74 278.94C159.74 279.12 159.68 279.24 159.5 279.3C158.78 279.42 158.12 279.54 157.4 279.66C156.74 279.78 156.14 279.9 155.48 279.96C155.54 279.96 155.48 279.96 155.48 279.96ZM107.9 278.28H107.84C106.52 277.98 105.26 277.68 103.94 277.32C103.76 277.26 103.7 277.14 103.7 276.96C103.76 276.78 103.88 276.72 104.06 276.72C105.32 277.08 106.64 277.38 107.96 277.68C108.14 277.74 108.2 277.86 108.2 278.04C108.14 278.22 108.02 278.28 107.9 278.28ZM165.68 277.98C165.56 277.98 165.44 277.86 165.38 277.74C165.32 277.56 165.44 277.44 165.62 277.38C166.88 277.08 168.2 276.72 169.46 276.42C169.64 276.36 169.76 276.48 169.82 276.66C169.88 276.84 169.76 276.96 169.64 277.02C168.32 277.38 167.06 277.68 165.74 277.98H165.68ZM97.8797 275.58H97.8197C96.5597 275.16 95.2397 274.74 94.0397 274.32C93.8597 274.26 93.7997 274.08 93.8597 273.96C93.9197 273.78 94.0997 273.72 94.2197 273.78C95.4797 274.2 96.7397 274.62 97.9997 275.04C98.1797 275.1 98.2397 275.28 98.1797 275.4C98.1197 275.52 97.9997 275.58 97.8797 275.58ZM175.64 275.22C175.52 275.22 175.4 275.16 175.34 275.04C175.28 274.86 175.4 274.74 175.52 274.68C176.78 274.26 178.04 273.84 179.3 273.36C179.48 273.3 179.6 273.36 179.66 273.54C179.72 273.72 179.66 273.84 179.48 273.9C178.22 274.32 176.96 274.8 175.7 275.22C175.7 275.22 175.7 275.22 175.64 275.22ZM88.0997 272.04C88.0397 272.04 88.0397 272.04 87.9797 272.04C86.7197 271.56 85.5197 271.02 84.3197 270.48C84.1397 270.42 84.0797 270.24 84.1397 270.06C84.1997 269.94 84.3797 269.82 84.5597 269.88C85.7597 270.42 86.9597 270.96 88.2197 271.44C88.3997 271.5 88.4597 271.68 88.3997 271.8C88.3397 271.98 88.2197 272.04 88.0997 272.04ZM185.36 271.56C185.24 271.56 185.12 271.5 185.06 271.38C185 271.2 185.06 271.08 185.24 270.96C186.44 270.42 187.7 269.94 188.9 269.34C189.02 269.28 189.2 269.34 189.32 269.46C189.38 269.58 189.32 269.76 189.2 269.88C188 270.42 186.74 270.96 185.54 271.5C185.42 271.56 185.42 271.56 185.36 271.56ZM78.6797 267.72C78.6197 267.72 78.5597 267.72 78.5597 267.66C77.3597 267.06 76.1597 266.4 75.0197 265.8C74.8997 265.74 74.8397 265.56 74.8997 265.38C74.9597 265.26 75.1397 265.2 75.3197 265.26C76.4597 265.92 77.6597 266.52 78.8597 267.12C78.9797 267.18 79.0397 267.36 78.9797 267.54C78.8597 267.66 78.7997 267.72 78.6797 267.72ZM194.72 267.18C194.6 267.18 194.48 267.12 194.48 267C194.42 266.88 194.48 266.7 194.6 266.58C195.8 265.98 196.94 265.32 198.08 264.72C198.2 264.66 198.38 264.72 198.5 264.84C198.56 264.96 198.5 265.14 198.38 265.26C197.24 265.92 196.04 266.52 194.84 267.18C194.84 267.18 194.78 267.18 194.72 267.18ZM69.6197 262.68C69.5597 262.68 69.4997 262.68 69.4397 262.62C68.2997 261.9 67.1597 261.18 66.0797 260.46C65.9597 260.34 65.8997 260.16 66.0197 260.04C66.1397 259.92 66.3197 259.86 66.4397 259.98C67.5197 260.7 68.6597 261.42 69.7997 262.14C69.9197 262.2 69.9797 262.44 69.9197 262.56C69.7997 262.62 69.7397 262.68 69.6197 262.68ZM203.72 262.02C203.6 262.02 203.54 261.96 203.48 261.9C203.42 261.78 203.42 261.6 203.6 261.48C204.74 260.76 205.82 260.04 206.96 259.32C207.08 259.2 207.26 259.26 207.38 259.38C207.5 259.5 207.44 259.68 207.32 259.8C206.24 260.52 205.1 261.3 203.96 261.96C203.84 262.02 203.78 262.02 203.72 262.02ZM61.0397 256.86C60.9797 256.86 60.9197 256.86 60.8597 256.8C59.7797 256.02 58.6997 255.18 57.6797 254.4C57.5597 254.28 57.4997 254.1 57.6197 253.98C57.7397 253.86 57.9197 253.8 58.0397 253.92C59.0597 254.76 60.1397 255.54 61.2197 256.32C61.3397 256.44 61.3997 256.62 61.2797 256.74C61.2197 256.86 61.0997 256.86 61.0397 256.86ZM212.3 256.2C212.18 256.2 212.12 256.14 212.06 256.08C211.94 255.96 212 255.78 212.12 255.66C213.2 254.88 214.22 254.04 215.24 253.2C215.36 253.08 215.54 253.14 215.66 253.26C215.78 253.38 215.72 253.56 215.6 253.68C214.58 254.52 213.5 255.36 212.42 256.14C212.42 256.14 212.36 256.2 212.3 256.2ZM52.8797 250.38C52.8197 250.38 52.7597 250.38 52.6997 250.32C51.6797 249.48 50.7197 248.58 49.6997 247.68C49.5797 247.56 49.5797 247.38 49.6997 247.26C49.8197 247.14 49.9997 247.14 50.1197 247.26C51.0797 248.16 52.0997 249.06 53.0597 249.9C53.1797 250.02 53.1797 250.2 53.0597 250.32C53.0597 250.38 52.9997 250.38 52.8797 250.38ZM220.34 249.6C220.28 249.6 220.16 249.54 220.1 249.48C219.98 249.36 219.98 249.18 220.1 249.06C221.06 248.22 222.08 247.32 223.04 246.36C223.16 246.24 223.34 246.24 223.46 246.36C223.58 246.48 223.58 246.66 223.46 246.78C222.5 247.68 221.48 248.58 220.52 249.48C220.46 249.6 220.4 249.6 220.34 249.6ZM45.3197 243.3C45.2597 243.3 45.1397 243.3 45.0797 243.24C44.1197 242.28 43.2197 241.32 42.3197 240.36C42.1997 240.24 42.1997 240.06 42.3197 239.94C42.4397 239.82 42.6197 239.82 42.7397 239.94C43.6397 240.9 44.5397 241.86 45.4997 242.82C45.6197 242.94 45.6197 243.12 45.4997 243.24C45.4997 243.24 45.4397 243.3 45.3197 243.3ZM227.84 242.46C227.78 242.46 227.72 242.46 227.66 242.4C227.54 242.28 227.54 242.1 227.66 241.98C228.56 241.02 229.52 240.06 230.36 239.04C230.48 238.92 230.66 238.92 230.78 239.04C230.9 239.16 230.9 239.34 230.78 239.46C229.88 240.42 228.98 241.44 228.08 242.4C227.96 242.4 227.9 242.46 227.84 242.46ZM38.4197 235.62C38.3597 235.62 38.2397 235.56 38.1797 235.5C37.3397 234.48 36.4997 233.46 35.6597 232.38C35.5397 232.26 35.5997 232.08 35.7197 231.96C35.8397 231.84 36.0197 231.9 36.1397 232.02C36.9797 233.04 37.8197 234.12 38.6597 235.14C38.7797 235.26 38.7197 235.44 38.5997 235.56C38.5397 235.56 38.4797 235.62 38.4197 235.62ZM234.68 234.72C234.62 234.72 234.56 234.72 234.5 234.66C234.38 234.54 234.38 234.36 234.44 234.24C235.28 233.22 236.12 232.14 236.9 231.12C237.02 231 237.2 230.94 237.32 231.06C237.44 231.18 237.5 231.36 237.38 231.48C236.6 232.5 235.76 233.58 234.92 234.6C234.86 234.66 234.8 234.72 234.68 234.72ZM32.0597 227.34C31.9397 227.34 31.8797 227.28 31.8197 227.22C31.0397 226.14 30.3197 225 29.5997 223.92C29.4797 223.8 29.5397 223.62 29.6597 223.5C29.7797 223.38 29.9597 223.44 30.0797 223.56C30.7997 224.64 31.5797 225.78 32.2997 226.86C32.4197 226.98 32.3597 227.16 32.2397 227.28C32.1797 227.34 32.1197 227.34 32.0597 227.34ZM240.92 226.38C240.86 226.38 240.8 226.38 240.74 226.32C240.62 226.2 240.56 226.02 240.68 225.9C241.4 224.82 242.18 223.68 242.9 222.6C243.02 222.48 243.2 222.42 243.32 222.54C243.44 222.6 243.5 222.84 243.38 222.96C242.66 224.1 241.88 225.18 241.16 226.32C241.1 226.38 241.04 226.38 240.92 226.38ZM26.4797 218.64C26.3597 218.64 26.2997 218.58 26.2397 218.52C25.5797 217.38 24.9197 216.18 24.2597 215.04C24.1997 214.92 24.2597 214.74 24.3797 214.62C24.4997 214.56 24.6797 214.62 24.7997 214.74C25.4597 215.88 26.1197 217.08 26.7797 218.22C26.8397 218.34 26.8397 218.52 26.6597 218.64C26.5997 218.64 26.5397 218.64 26.4797 218.64ZM246.5 217.62C246.44 217.62 246.38 217.62 246.38 217.56C246.26 217.5 246.2 217.32 246.26 217.14C246.92 216 247.58 214.8 248.18 213.66C248.24 213.54 248.42 213.48 248.6 213.54C248.72 213.6 248.78 213.78 248.72 213.96C248.06 215.16 247.46 216.3 246.8 217.44C246.68 217.56 246.56 217.62 246.5 217.62ZM21.5597 209.52C21.4397 209.52 21.3197 209.46 21.3197 209.34C20.7197 208.14 20.1797 206.94 19.6397 205.74C19.5797 205.56 19.6397 205.44 19.8197 205.32C19.9397 205.26 20.1197 205.32 20.2397 205.5C20.7797 206.7 21.3197 207.9 21.9197 209.1C21.9797 209.22 21.9197 209.4 21.7997 209.52C21.6797 209.46 21.6197 209.52 21.5597 209.52ZM251.3 208.44C251.24 208.44 251.24 208.44 251.18 208.44C251.06 208.38 250.94 208.2 251.06 208.02C251.6 206.82 252.2 205.62 252.68 204.36C252.74 204.18 252.92 204.12 253.1 204.18C253.28 204.24 253.34 204.42 253.28 204.6C252.74 205.8 252.2 207.06 251.6 208.26C251.48 208.38 251.42 208.44 251.3 208.44ZM17.4797 199.98C17.3597 199.98 17.2397 199.92 17.1797 199.8C16.6997 198.54 16.2197 197.28 15.7997 196.02C15.7397 195.84 15.7997 195.72 15.9797 195.66C16.1597 195.6 16.2797 195.66 16.3397 195.84C16.7597 197.1 17.2397 198.36 17.7197 199.56C17.7797 199.74 17.7197 199.86 17.5397 199.92C17.5397 199.98 17.4797 199.98 17.4797 199.98ZM255.32 198.84C255.26 198.84 255.26 198.84 255.2 198.84C255.02 198.78 254.96 198.6 255.02 198.48C255.5 197.22 255.92 195.96 256.34 194.7C256.4 194.52 256.58 194.46 256.7 194.52C256.88 194.58 256.94 194.76 256.88 194.88C256.46 196.14 255.98 197.4 255.56 198.66C255.56 198.78 255.44 198.84 255.32 198.84ZM14.1197 190.14C13.9997 190.14 13.8797 190.08 13.8197 189.9C13.4597 188.64 13.0997 187.32 12.7397 186.06C12.6797 185.88 12.7997 185.76 12.9797 185.7C13.1597 185.64 13.2797 185.76 13.3397 185.94C13.6397 187.2 13.9997 188.52 14.4197 189.78C14.4797 189.96 14.3597 190.08 14.2397 190.14C14.1797 190.14 14.1797 190.14 14.1197 190.14ZM258.56 188.94H258.5C258.32 188.88 258.26 188.76 258.32 188.58C258.68 187.32 259.04 186 259.34 184.74C259.4 184.56 259.52 184.5 259.7 184.5C259.88 184.56 259.94 184.68 259.94 184.86C259.64 186.18 259.28 187.44 258.92 188.76C258.8 188.88 258.68 188.94 258.56 188.94ZM11.5997 180.12C11.4797 180.12 11.3597 180 11.2997 179.88C11.0597 178.56 10.7597 177.24 10.5797 175.98C10.5797 175.8 10.6397 175.68 10.8197 175.62C10.9997 175.62 11.1197 175.68 11.1797 175.86C11.4197 177.18 11.6597 178.5 11.8997 179.76C11.9597 179.94 11.8397 180.06 11.6597 180.12C11.6597 180.12 11.6597 180.12 11.5997 180.12ZM260.96 178.86C260.72 178.8 260.66 178.68 260.66 178.5C260.9 177.24 261.14 175.92 261.38 174.6C261.38 174.42 261.56 174.36 261.74 174.36C261.92 174.36 262.04 174.54 261.98 174.72C261.74 176.04 261.5 177.36 261.26 178.68C261.26 178.74 261.14 178.86 260.96 178.86ZM9.91967 169.86C9.79967 169.86 9.61967 169.74 9.61967 169.62C9.43967 168.3 9.31967 166.98 9.19967 165.66C9.19967 165.48 9.31967 165.36 9.43967 165.36C9.61967 165.36 9.73967 165.48 9.73967 165.6C9.85967 166.92 9.97967 168.24 10.1597 169.56C10.2797 169.68 10.1597 169.86 9.91967 169.86C9.97967 169.86 9.97967 169.86 9.91967 169.86ZM262.52 168.6C262.34 168.6 262.22 168.42 262.22 168.24C262.28 167.94 262.28 167.58 262.34 167.28C262.46 166.32 262.52 165.3 262.64 164.28C262.64 164.1 262.76 163.98 262.94 163.98C263.12 163.98 263.24 164.16 263.24 164.28C263.18 165.3 263.06 166.26 262.94 167.28C262.88 167.64 262.88 167.94 262.82 168.24C262.82 168.48 262.7 168.6 262.52 168.6ZM9.07967 159.54C8.89967 159.54 8.77967 159.42 8.77967 159.24C8.71967 157.92 8.71967 156.6 8.65967 155.22C8.65967 155.04 8.77967 154.92 8.95967 154.92C9.13967 154.92 9.25967 155.04 9.25967 155.22C9.25967 156.54 9.31967 157.86 9.37967 159.18C9.43967 159.42 9.25967 159.54 9.07967 159.54C9.13967 159.54 9.13967 159.54 9.07967 159.54ZM263.3 158.28C263.12 158.28 263 158.16 263 157.98C263.06 156.66 263.06 155.34 263.06 154.02V153.84C263.06 153.66 263.18 153.54 263.36 153.54C263.54 153.54 263.66 153.66 263.66 153.84V154.02C263.66 155.34 263.66 156.66 263.6 158.04C263.6 158.16 263.48 158.28 263.3 158.28ZM9.07967 149.16C8.89967 149.16 8.77967 149.04 8.77967 148.86C8.83967 147.54 8.89967 146.16 9.01967 144.84C9.01967 144.66 9.19967 144.54 9.31967 144.54C9.49967 144.54 9.61967 144.72 9.61967 144.84C9.49967 146.16 9.43967 147.48 9.37967 148.8C9.37967 149.04 9.25967 149.16 9.07967 149.16ZM263.18 147.72C263 147.72 262.88 147.6 262.88 147.42C262.82 146.1 262.7 144.78 262.64 143.46C262.64 143.28 262.76 143.16 262.94 143.16C263.12 143.16 263.24 143.28 263.24 143.46C263.36 144.78 263.42 146.1 263.48 147.48C263.48 147.6 263.36 147.72 263.18 147.72ZM9.91967 138.84C9.73967 138.84 9.61967 138.66 9.61967 138.48C9.79967 137.16 9.97967 135.84 10.1597 134.52C10.1597 134.34 10.3397 134.22 10.5197 134.28C10.6997 134.28 10.8197 134.46 10.7597 134.64C10.5797 135.96 10.3997 137.28 10.2197 138.6C10.2197 138.72 10.0997 138.84 9.91967 138.84ZM262.22 137.4C262.1 137.4 261.92 137.28 261.92 137.16C261.74 135.96 261.56 134.76 261.38 133.56L261.32 133.26C261.32 133.08 261.38 132.96 261.56 132.9C261.74 132.9 261.86 132.96 261.92 133.14L261.98 133.44C262.16 134.64 262.34 135.84 262.52 137.04C262.58 137.22 262.46 137.4 262.22 137.4C262.28 137.4 262.28 137.4 262.22 137.4ZM11.5997 128.58H11.5397C11.3597 128.52 11.2997 128.4 11.2997 128.22C11.5397 126.9 11.8397 125.58 12.1397 124.32C12.1997 124.14 12.3197 124.08 12.4997 124.08C12.6797 124.14 12.7397 124.26 12.7397 124.44C12.4397 125.7 12.1397 127.02 11.8997 128.34C11.8397 128.46 11.7197 128.58 11.5997 128.58ZM260.48 127.2C260.36 127.2 260.24 127.08 260.18 126.96C259.88 125.64 259.58 124.38 259.28 123.06C259.22 122.88 259.34 122.76 259.52 122.7C259.7 122.64 259.82 122.76 259.88 122.94C260.18 124.2 260.48 125.52 260.78 126.84C260.84 127.02 260.72 127.14 260.54 127.2C260.48 127.2 260.48 127.2 260.48 127.2ZM14.1197 118.5H14.0597C13.8797 118.44 13.8197 118.26 13.8797 118.14C14.2397 116.88 14.6597 115.56 15.0797 114.3C15.1397 114.12 15.3197 114.06 15.4397 114.12C15.6197 114.18 15.6797 114.36 15.6197 114.48C15.1997 115.74 14.8397 117 14.4197 118.26C14.3597 118.44 14.2397 118.5 14.1197 118.5ZM257.84 117.18C257.72 117.18 257.6 117.12 257.54 116.94C257.18 115.68 256.76 114.42 256.34 113.16C256.28 112.98 256.4 112.86 256.52 112.8C256.7 112.74 256.82 112.8 256.88 112.98C257.3 114.24 257.72 115.5 258.08 116.76C258.14 116.94 258.02 117.06 257.9 117.12C257.9 117.12 257.9 117.18 257.84 117.18ZM17.4197 108.66C17.3597 108.66 17.3597 108.66 17.2997 108.66C17.1197 108.6 17.0597 108.42 17.1197 108.3C17.5997 107.04 18.0797 105.84 18.6197 104.58C18.6797 104.4 18.8597 104.34 19.0397 104.4C19.2197 104.46 19.2797 104.64 19.2197 104.82C18.6797 106.02 18.1997 107.28 17.7197 108.54C17.6597 108.6 17.5397 108.66 17.4197 108.66ZM254.42 107.34C254.3 107.34 254.18 107.28 254.12 107.16C253.64 105.96 253.1 104.7 252.62 103.5C252.56 103.32 252.62 103.2 252.8 103.08C252.98 103.02 253.1 103.08 253.22 103.26C253.76 104.46 254.24 105.72 254.78 106.98C254.84 107.16 254.78 107.28 254.6 107.34C254.48 107.34 254.48 107.34 254.42 107.34ZM21.5597 99.18C21.4997 99.18 21.4997 99.18 21.4397 99.18C21.3197 99.12 21.1997 98.94 21.3197 98.76C21.9197 97.56 22.5197 96.36 23.1197 95.16C23.1797 95.04 23.3597 94.98 23.5397 95.04C23.6597 95.1 23.7197 95.28 23.6597 95.46C23.0597 96.66 22.4597 97.86 21.8597 99C21.7397 99.12 21.6197 99.18 21.5597 99.18ZM250.22 97.86C250.1 97.86 249.98 97.8 249.98 97.68C249.38 96.48 248.78 95.28 248.18 94.14C248.12 94.02 248.18 93.84 248.3 93.72C248.42 93.66 248.6 93.72 248.72 93.84C249.32 94.98 249.98 96.18 250.58 97.38C250.64 97.5 250.58 97.68 250.46 97.8C250.28 97.86 250.22 97.86 250.22 97.86ZM26.4197 90C26.3597 90 26.2997 90 26.2397 89.94C26.1197 89.88 26.0597 89.7 26.1197 89.52C26.7797 88.38 27.4997 87.24 28.2197 86.1C28.2797 85.98 28.5197 85.92 28.6397 85.98C28.7597 86.04 28.8197 86.28 28.7597 86.4C28.0397 87.54 27.3797 88.68 26.6597 89.82C26.5997 89.94 26.5397 90 26.4197 90ZM245.24 88.8C245.12 88.8 245.06 88.74 245 88.68C244.34 87.54 243.62 86.4 242.9 85.32C242.84 85.2 242.84 85.02 242.96 84.9C243.08 84.84 243.26 84.84 243.38 84.96C244.1 86.04 244.82 87.18 245.48 88.38C245.54 88.5 245.54 88.68 245.36 88.8C245.3 88.8 245.24 88.8 245.24 88.8ZM32.0597 81.3C31.9997 81.3 31.9397 81.3 31.8797 81.24C31.7597 81.12 31.6997 80.94 31.8197 80.82C32.5997 79.74 33.3797 78.66 34.1597 77.58C34.2797 77.46 34.4597 77.4 34.5797 77.52C34.6997 77.64 34.7597 77.82 34.6397 77.94C33.8597 79.02 33.0797 80.1 32.2997 81.18C32.2397 81.24 32.1197 81.3 32.0597 81.3ZM239.48 80.1C239.36 80.1 239.3 80.04 239.24 79.98C238.46 78.9 237.68 77.82 236.84 76.8C236.72 76.68 236.78 76.5 236.9 76.38C237.02 76.26 237.2 76.32 237.32 76.44C238.16 77.52 238.94 78.6 239.72 79.68C239.84 79.8 239.78 79.98 239.66 80.1C239.66 80.1 239.54 80.1 239.48 80.1ZM38.3597 73.02C38.2997 73.02 38.2397 73.02 38.1797 72.96C38.0597 72.84 38.0597 72.66 38.1197 72.54C38.9597 71.52 39.8597 70.5 40.6997 69.48C40.8197 69.36 40.9997 69.36 41.1197 69.48C41.2397 69.6 41.2397 69.78 41.1197 69.9C40.2197 70.86 39.3797 71.88 38.5397 72.9C38.4797 73.02 38.4197 73.02 38.3597 73.02ZM233.12 71.94C233.06 71.94 232.94 71.88 232.88 71.82C232.04 70.8 231.14 69.78 230.24 68.82C230.12 68.7 230.12 68.52 230.24 68.4C230.36 68.28 230.54 68.28 230.66 68.4C231.56 69.36 232.46 70.38 233.3 71.4C233.42 71.52 233.42 71.7 233.24 71.82C233.24 71.94 233.18 71.94 233.12 71.94ZM45.2597 65.34C45.1997 65.34 45.0797 65.34 45.0797 65.28C44.9597 65.16 44.9597 64.98 45.0797 64.86C46.0397 63.9 46.9997 62.94 47.8997 62.04C48.0197 61.92 48.1997 61.92 48.3197 62.04C48.4397 62.16 48.4397 62.34 48.3197 62.46C47.3597 63.36 46.3997 64.32 45.4997 65.28C45.4397 65.28 45.3797 65.34 45.2597 65.34ZM226.1 64.32C226.04 64.32 225.92 64.32 225.86 64.26C224.9 63.3 223.94 62.4 222.98 61.5C222.86 61.38 222.86 61.2 222.98 61.08C223.1 60.96 223.28 60.96 223.4 61.08C224.36 61.98 225.32 62.94 226.28 63.84C226.4 63.96 226.4 64.14 226.28 64.26C226.22 64.32 226.16 64.32 226.1 64.32ZM52.8197 58.2C52.7597 58.2 52.6397 58.14 52.5797 58.08C52.4597 57.96 52.4597 57.78 52.5797 57.66C53.5997 56.76 54.6197 55.92 55.6397 55.08C55.7597 54.96 55.9397 55.02 56.0597 55.14C56.1797 55.26 56.1197 55.44 55.9997 55.56C54.9797 56.4 53.9597 57.24 52.9397 58.14C52.9997 58.2 52.8797 58.2 52.8197 58.2ZM218.48 57.3C218.42 57.3 218.36 57.3 218.3 57.24C217.28 56.4 216.26 55.56 215.24 54.72C215.12 54.6 215.06 54.42 215.18 54.3C215.3 54.18 215.48 54.18 215.6 54.24C216.62 55.08 217.7 55.92 218.72 56.76C218.84 56.88 218.84 57.06 218.78 57.18C218.6 57.24 218.54 57.3 218.48 57.3ZM60.9197 51.72C60.7997 51.72 60.7397 51.66 60.6797 51.6C60.5597 51.48 60.6197 51.3 60.7397 51.18C61.8197 50.4 62.8997 49.62 63.9797 48.84C64.0997 48.72 64.2797 48.78 64.3997 48.9C64.5197 49.02 64.4597 49.2 64.3397 49.32C63.2597 50.04 62.1797 50.82 61.0997 51.6C61.0397 51.72 60.9797 51.72 60.9197 51.72ZM210.26 50.94C210.2 50.94 210.14 50.94 210.08 50.88C209 50.1 207.92 49.32 206.78 48.6C206.66 48.48 206.6 48.3 206.72 48.18C206.84 48.06 207.02 48 207.14 48.12C208.22 48.84 209.36 49.62 210.44 50.4C210.56 50.52 210.62 50.7 210.5 50.82C210.44 50.88 210.38 50.94 210.26 50.94ZM69.5597 45.96C69.4397 45.96 69.3797 45.9 69.3197 45.84C69.2597 45.72 69.2597 45.54 69.4397 45.42C70.5797 44.7 71.7197 44.04 72.8597 43.38C72.9797 43.32 73.1597 43.32 73.2797 43.5C73.3397 43.62 73.3397 43.8 73.1597 43.92C72.0197 44.58 70.8797 45.24 69.7397 45.96C69.6197 45.9 69.6197 45.96 69.5597 45.96ZM201.62 45.18C201.56 45.18 201.5 45.18 201.44 45.12C200.3 44.46 199.16 43.74 198.02 43.14C197.9 43.08 197.84 42.9 197.9 42.72C197.96 42.6 198.14 42.54 198.32 42.6C199.46 43.26 200.66 43.92 201.8 44.58C201.92 44.64 201.98 44.82 201.92 45C201.8 45.18 201.74 45.18 201.62 45.18ZM78.5597 40.86C78.4397 40.86 78.3197 40.8 78.3197 40.68C78.2597 40.56 78.3197 40.38 78.4397 40.26C79.6397 39.66 80.8397 39.06 82.0397 38.52C82.1597 38.46 82.3397 38.52 82.4597 38.64C82.5197 38.76 82.4597 38.94 82.3397 39.06C81.1397 39.6 79.9397 40.2 78.7397 40.8C78.6797 40.86 78.6197 40.86 78.5597 40.86ZM192.5 40.2C192.44 40.2 192.44 40.2 192.38 40.14C191.18 39.54 189.98 39 188.78 38.4C188.66 38.34 188.54 38.16 188.66 37.98C188.72 37.86 188.9 37.74 189.08 37.86C190.28 38.4 191.48 39 192.68 39.6C192.8 39.66 192.86 39.84 192.8 40.02C192.74 40.14 192.62 40.2 192.5 40.2ZM87.9797 36.54C87.8597 36.54 87.7397 36.48 87.6797 36.36C87.6197 36.18 87.6797 36.06 87.8597 36C89.0597 35.52 90.3197 34.98 91.5797 34.56C91.7597 34.5 91.8797 34.56 91.9397 34.74C91.9997 34.92 91.9397 35.04 91.7597 35.1C90.4997 35.58 89.2997 36.06 88.0397 36.54C88.0997 36.54 88.0397 36.54 87.9797 36.54ZM183.02 36C182.96 36 182.96 36 182.9 36C181.7 35.52 180.44 35.04 179.18 34.62C179 34.56 178.94 34.38 179 34.26C179.06 34.08 179.24 34.02 179.36 34.08C180.62 34.5 181.88 34.98 183.08 35.52C183.26 35.58 183.32 35.76 183.26 35.88C183.26 35.94 183.14 36 183.02 36ZM97.7597 33C97.6397 33 97.5197 32.94 97.4597 32.82C97.3997 32.64 97.5197 32.52 97.6397 32.46C98.8997 32.04 100.16 31.68 101.48 31.32C101.66 31.26 101.78 31.38 101.84 31.5C101.9 31.68 101.78 31.8 101.66 31.86C100.4 32.22 99.0797 32.58 97.8797 33C97.8197 33 97.7597 33 97.7597 33ZM173.24 32.58H173.18C171.92 32.22 170.6 31.8 169.34 31.5C169.16 31.44 169.1 31.32 169.1 31.14C169.16 30.96 169.28 30.9 169.46 30.96C170.72 31.32 172.04 31.68 173.3 32.04C173.48 32.1 173.54 32.28 173.48 32.4C173.48 32.52 173.36 32.58 173.24 32.58ZM107.78 30.3C107.66 30.3 107.54 30.18 107.48 30.06C107.42 29.88 107.54 29.76 107.72 29.7C109.04 29.4 110.36 29.1 111.62 28.86C111.8 28.8 111.92 28.92 111.98 29.1C112.04 29.28 111.92 29.4 111.74 29.46C110.48 29.7 109.16 30 107.84 30.3C107.78 30.3 107.78 30.3 107.78 30.3ZM163.16 30H163.1C161.78 29.7 160.46 29.46 159.2 29.22C159.02 29.22 158.96 29.04 158.96 28.86C159.02 28.68 159.14 28.62 159.32 28.62C160.64 28.86 161.96 29.1 163.22 29.4C163.4 29.46 163.46 29.58 163.46 29.76C163.46 29.88 163.34 30 163.16 30ZM117.98 28.38C117.86 28.38 117.68 28.26 117.68 28.14C117.68 27.96 117.74 27.84 117.92 27.78C119.24 27.6 120.56 27.42 121.88 27.3C122.06 27.3 122.18 27.42 122.18 27.54C122.18 27.72 122.06 27.84 121.94 27.84C120.62 28.02 119.3 28.2 117.98 28.38ZM152.96 28.2C151.64 28.02 150.26 27.9 148.94 27.72C148.76 27.72 148.64 27.54 148.7 27.42C148.7 27.24 148.82 27.12 149 27.18C150.32 27.3 151.64 27.48 152.96 27.66C153.14 27.66 153.26 27.84 153.2 28.02C153.26 28.08 153.14 28.2 152.96 28.2ZM128.24 27.36C128.06 27.36 127.94 27.24 127.94 27.06C127.94 26.88 128.06 26.76 128.24 26.76C129.56 26.7 130.88 26.64 132.26 26.58C132.44 26.58 132.56 26.7 132.56 26.88C132.56 27.06 132.44 27.18 132.26 27.18C130.94 27.18 129.62 27.24 128.24 27.36C128.3 27.36 128.3 27.36 128.24 27.36ZM142.64 27.24C141.32 27.18 139.94 27.12 138.62 27.12C138.44 27.12 138.32 27 138.32 26.82C138.32 26.64 138.5 26.52 138.62 26.52C139.94 26.52 141.32 26.58 142.64 26.64C142.82 26.64 142.94 26.76 142.94 26.94C142.94 27.12 142.82 27.24 142.64 27.24Z" fill="#4C78BC"/>
<path d="M22.5194 97.26C22.4594 97.26 22.3994 97.26 22.3994 97.2C22.2794 97.14 22.2194 96.96 22.2794 96.78C22.5794 96.18 22.9394 95.58 23.3594 95.04C23.4794 94.92 23.6594 94.86 23.7794 94.98C23.8994 95.1 23.9594 95.28 23.8394 95.4C23.4794 95.94 23.1194 96.48 22.8194 97.02C22.6994 97.2 22.5794 97.26 22.5194 97.26Z" fill="#4C78BC"/>
<path d="M249.379 206.64C249.259 206.64 249.079 206.52 249.079 206.4C248.959 205.2 248.659 203.88 248.299 202.56C248.239 202.38 248.359 202.26 248.479 202.2C248.659 202.14 248.779 202.26 248.839 202.38C249.259 203.76 249.499 205.08 249.679 206.34C249.679 206.46 249.559 206.64 249.379 206.64ZM246.199 196.86C246.079 196.86 245.959 196.8 245.959 196.68C245.419 195.54 244.759 194.4 244.039 193.2C243.979 193.08 243.979 192.9 244.159 192.78C244.279 192.72 244.459 192.72 244.579 192.9C245.299 194.1 245.959 195.3 246.499 196.38C246.559 196.5 246.499 196.68 246.379 196.8C246.259 196.86 246.259 196.86 246.199 196.86ZM240.739 188.04C240.619 188.04 240.559 187.98 240.499 187.92C239.719 186.9 238.939 185.82 238.099 184.74C237.979 184.62 238.039 184.44 238.159 184.32C238.279 184.2 238.459 184.26 238.579 184.38C239.419 185.46 240.259 186.48 240.979 187.56C241.099 187.68 241.039 187.86 240.919 187.98C240.859 188.04 240.799 188.04 240.739 188.04ZM234.199 180.06C234.139 180.06 234.019 180 233.959 179.94C233.119 178.98 232.159 177.96 231.259 177C231.139 176.88 231.139 176.7 231.259 176.58C231.379 176.46 231.559 176.46 231.679 176.58C232.579 177.54 233.539 178.56 234.379 179.52C234.499 179.64 234.499 179.82 234.379 179.94C234.319 180 234.259 180.06 234.199 180.06ZM226.999 172.56C226.939 172.56 226.879 172.56 226.819 172.5C225.859 171.6 224.899 170.7 223.939 169.74C223.819 169.62 223.819 169.44 223.939 169.32C224.059 169.2 224.239 169.2 224.359 169.32C225.379 170.22 226.339 171.18 227.239 172.08C227.359 172.2 227.359 172.38 227.239 172.5C227.179 172.56 227.059 172.56 226.999 172.56ZM219.379 165.6C219.319 165.6 219.259 165.6 219.199 165.54C218.239 164.7 217.219 163.8 216.199 162.96C216.079 162.84 216.079 162.66 216.139 162.54C216.259 162.42 216.439 162.42 216.559 162.48C217.579 163.32 218.599 164.22 219.559 165.06C219.679 165.18 219.679 165.36 219.559 165.48C219.559 165.54 219.439 165.6 219.379 165.6ZM211.459 158.94C211.399 158.94 211.339 158.94 211.279 158.88C210.259 158.04 209.239 157.26 208.159 156.42C208.039 156.3 207.979 156.12 208.099 156C208.219 155.88 208.399 155.82 208.519 155.94C209.599 156.78 210.619 157.56 211.639 158.4C211.759 158.52 211.759 158.7 211.699 158.82C211.639 158.88 211.519 158.94 211.459 158.94ZM203.239 152.64C203.179 152.64 203.119 152.64 203.059 152.58C201.979 151.8 200.959 151.02 199.819 150.24C199.699 150.12 199.639 149.94 199.759 149.82C199.879 149.7 200.059 149.64 200.179 149.76C201.259 150.54 202.339 151.32 203.419 152.1C203.539 152.22 203.599 152.4 203.479 152.52C203.419 152.58 203.299 152.64 203.239 152.64ZM194.839 146.58C194.779 146.58 194.719 146.58 194.659 146.52C193.579 145.8 192.499 145.02 191.359 144.3C191.239 144.18 191.179 144 191.299 143.88C191.419 143.76 191.599 143.7 191.719 143.82C192.799 144.54 193.939 145.32 195.019 146.1C195.139 146.22 195.199 146.4 195.079 146.52C195.019 146.58 194.899 146.58 194.839 146.58ZM186.199 140.82C186.139 140.82 186.079 140.82 186.019 140.76C184.939 140.04 183.799 139.32 182.659 138.6C182.539 138.54 182.479 138.3 182.539 138.18C182.599 138.06 182.839 138 182.959 138.06C184.099 138.78 185.179 139.5 186.319 140.22C186.439 140.28 186.499 140.52 186.379 140.64C186.379 140.76 186.319 140.82 186.199 140.82ZM177.439 135.3C177.379 135.3 177.319 135.3 177.259 135.24C176.119 134.58 174.979 133.86 173.839 133.2C173.719 133.14 173.659 132.96 173.719 132.78C173.779 132.66 173.959 132.6 174.139 132.66C175.279 133.32 176.419 134.04 177.559 134.7C177.679 134.76 177.739 134.94 177.679 135.12C177.619 135.24 177.559 135.3 177.439 135.3ZM168.559 130.02C168.499 130.02 168.439 130.02 168.439 129.96C167.299 129.3 166.159 128.64 164.959 127.98C164.839 127.92 164.779 127.74 164.839 127.56C164.899 127.44 165.079 127.38 165.259 127.44C166.399 128.1 167.599 128.76 168.739 129.42C168.859 129.48 168.919 129.66 168.859 129.84C168.739 129.96 168.619 130.02 168.559 130.02ZM159.499 124.98C159.439 124.98 159.379 124.98 159.379 124.92C158.239 124.26 157.039 123.66 155.899 123.06C155.779 123 155.719 122.82 155.779 122.64C155.839 122.52 156.019 122.46 156.199 122.52C157.399 123.12 158.539 123.78 159.739 124.38C159.859 124.44 159.919 124.62 159.859 124.8C159.739 124.92 159.619 124.98 159.499 124.98ZM150.319 120.12C150.259 120.12 150.199 120.12 150.199 120.06C148.999 119.46 147.859 118.86 146.659 118.26C146.539 118.2 146.479 118.02 146.539 117.84C146.599 117.72 146.779 117.66 146.959 117.72C148.159 118.32 149.299 118.92 150.499 119.52C150.619 119.58 150.679 119.76 150.619 119.94C150.559 120.06 150.439 120.12 150.319 120.12ZM141.079 115.56C141.019 115.56 141.019 115.56 140.959 115.56C139.759 114.96 138.559 114.42 137.359 113.88C137.239 113.82 137.119 113.64 137.239 113.46C137.299 113.34 137.479 113.22 137.659 113.34C138.859 113.88 140.059 114.48 141.259 115.02C141.379 115.08 141.499 115.26 141.379 115.44C141.259 115.5 141.199 115.56 141.079 115.56ZM131.659 111.18C131.599 111.18 131.599 111.18 131.539 111.18C130.339 110.64 129.139 110.1 127.879 109.56C127.699 109.5 127.639 109.32 127.699 109.14C127.759 108.96 127.939 108.9 128.119 108.96C129.319 109.5 130.519 110.04 131.779 110.58C131.959 110.64 132.019 110.82 131.899 111C131.899 111.12 131.779 111.18 131.659 111.18ZM122.179 107.04C122.119 107.04 122.119 107.04 122.059 107.04C120.799 106.5 119.599 106.02 118.399 105.54C118.219 105.48 118.159 105.3 118.219 105.18C118.279 105 118.459 104.94 118.579 105C119.779 105.48 121.039 106.02 122.239 106.5C122.419 106.56 122.479 106.74 122.419 106.86C122.419 106.98 122.299 107.04 122.179 107.04ZM112.579 103.2C112.519 103.2 112.519 103.2 112.459 103.2C111.199 102.72 109.999 102.24 108.739 101.82C108.559 101.76 108.499 101.58 108.559 101.46C108.619 101.28 108.799 101.22 108.919 101.28C110.179 101.76 111.379 102.18 112.639 102.66C112.819 102.72 112.879 102.9 112.819 103.02C112.819 103.14 112.699 103.2 112.579 103.2ZM102.859 99.6598C102.799 99.6598 102.799 99.6598 102.739 99.6598C101.479 99.2398 100.219 98.8198 98.9593 98.3998C98.7793 98.3398 98.7193 98.1598 98.7793 98.0398C98.8393 97.8598 99.0193 97.7998 99.1393 97.8598C100.399 98.2798 101.659 98.6998 102.919 99.1198C103.099 99.1798 103.159 99.3598 103.099 99.4798C103.099 99.5398 102.979 99.6598 102.859 99.6598ZM93.0193 96.4198H92.9593C91.6993 95.9998 90.4393 95.6398 89.1793 95.2798C88.9993 95.2198 88.9393 95.0398 88.9993 94.9198C89.0593 94.7398 89.1793 94.6798 89.3593 94.7398C90.6193 95.0998 91.8793 95.5198 93.1993 95.8798C93.3793 95.9398 93.4393 96.1198 93.3793 96.2398C93.2593 96.2998 93.1393 96.4198 93.0193 96.4198ZM83.0593 93.5398H82.9993C81.6793 93.1798 80.4193 92.8798 79.1593 92.5198C78.9793 92.4598 78.9193 92.3398 78.9193 92.1598C78.9793 91.9798 79.0993 91.9198 79.2793 91.9198C80.5393 92.2198 81.8593 92.5798 83.1193 92.9398C83.2993 92.9998 83.3593 93.1198 83.3593 93.2998C83.3593 93.4198 83.2393 93.5398 83.0593 93.5398ZM28.3993 91.4998C28.2793 91.4998 28.2193 91.4398 28.1593 91.3198C28.0993 91.1998 28.1593 91.0198 28.2793 90.8998C29.3593 90.2998 30.6193 89.7598 31.9993 89.2798C32.1793 89.2198 32.2993 89.3398 32.3593 89.4598C32.4193 89.6398 32.2993 89.7598 32.1793 89.8198C30.8593 90.2398 29.6593 90.7798 28.5793 91.3798C28.5193 91.4998 28.4593 91.4998 28.3993 91.4998ZM73.0393 91.0798H72.9793C71.6593 90.7798 70.3393 90.5398 69.0793 90.2998C68.8993 90.2398 68.8393 90.1198 68.8393 89.9398C68.8993 89.7598 69.0193 89.6398 69.1993 89.6998C70.4593 89.9398 71.7793 90.2398 73.0993 90.4798C73.2793 90.5398 73.3393 90.6598 73.3393 90.8398C73.2793 91.0198 73.1593 91.0798 73.0393 91.0798ZM62.8393 89.2198C62.8393 89.2198 62.7793 89.2198 62.8393 89.2198C61.4593 89.0398 60.1393 88.8598 58.8793 88.6798C58.6993 88.6798 58.5793 88.4998 58.6393 88.3198C58.6393 88.1398 58.8193 88.0198 58.9993 88.0798C60.2593 88.2598 61.6393 88.4398 62.9593 88.6198C63.1393 88.6198 63.2593 88.7998 63.1993 88.9798C63.1393 89.0998 62.9593 89.2198 62.8393 89.2198ZM38.2393 88.4998C38.1193 88.4998 37.9393 88.3798 37.9393 88.2598C37.9393 88.0798 37.9993 87.9598 38.1793 87.8998C39.4393 87.7198 40.7593 87.5998 42.1393 87.4798C42.3193 87.4798 42.4393 87.5998 42.4393 87.7798C42.4393 87.9598 42.3193 88.0798 42.1393 88.0798C40.8793 88.1398 39.5593 88.3198 38.2393 88.4998C38.2993 88.4998 38.2393 88.4998 38.2393 88.4998ZM52.5793 88.0798C52.5193 88.0798 52.5193 88.0798 52.5793 88.0798C51.1993 88.0198 49.8793 87.9598 48.6193 87.8998C48.4393 87.8998 48.3193 87.7798 48.3193 87.5998C48.3193 87.4198 48.4393 87.2998 48.6193 87.2998C49.8793 87.2998 51.2593 87.3598 52.6393 87.4798C52.8193 87.4798 52.9393 87.6598 52.9393 87.7798C52.8193 87.9598 52.6993 88.0798 52.5793 88.0798Z" fill="#4C78BC"/>
<path d="M248.059 214.8C247.999 214.8 247.939 214.8 247.939 214.74C247.819 214.68 247.759 214.5 247.819 214.32C248.119 213.78 248.359 213.18 248.539 212.52C248.599 212.34 248.779 212.28 248.899 212.34C249.079 212.4 249.139 212.58 249.079 212.7C248.839 213.36 248.599 213.96 248.299 214.56C248.239 214.74 248.179 214.8 248.059 214.8Z" fill="#18187C"/>
<path d="M254.12 107.04C254 107.04 253.88 106.92 253.82 106.8C253.7 106.2 253.52 105.54 253.28 104.94C253.22 104.76 253.28 104.64 253.46 104.58C253.64 104.52 253.76 104.58 253.82 104.76C254.06 105.36 254.24 106.02 254.42 106.68C254.48 106.86 254.36 106.98 254.18 107.04H254.12Z" fill="#18187C"/>
<path d="M52.34 210.9C52.16 210.9 52.04 210.78 52.04 210.6C52.04 210.42 52.16 210.3 52.34 210.3C53.6 210.3 54.98 210.24 56.3 210.18C56.48 210.18 56.6 210.3 56.6 210.48C56.6 210.66 56.48 210.78 56.3 210.78C54.92 210.84 53.6 210.84 52.34 210.9ZM45.92 210.84C44.54 210.78 43.22 210.72 41.9 210.6C41.72 210.6 41.6 210.42 41.6 210.3C41.6 210.18 41.78 210 41.9 210C43.16 210.12 44.48 210.18 45.86 210.24C46.04 210.24 46.16 210.36 46.16 210.54C46.22 210.72 46.1 210.84 45.92 210.84ZM62.66 210.36C62.48 210.36 62.36 210.24 62.36 210.06C62.36 209.88 62.48 209.76 62.66 209.76C63.98 209.64 65.3 209.52 66.62 209.4C66.8 209.4 66.92 209.52 66.92 209.64C66.92 209.82 66.8 209.94 66.68 209.94C65.3 210.12 63.98 210.24 62.66 210.36ZM35.66 209.76C35.66 209.76 35.6 209.76 35.66 209.76C34.22 209.52 32.9 209.22 31.7 208.92C31.52 208.86 31.46 208.74 31.46 208.56C31.52 208.38 31.64 208.32 31.82 208.32C33.02 208.62 34.34 208.92 35.72 209.16C35.9 209.16 36.02 209.34 35.96 209.52C35.9 209.7 35.78 209.76 35.66 209.76ZM72.92 209.16C72.8 209.16 72.62 209.04 72.62 208.92C72.62 208.74 72.74 208.62 72.86 208.56C74.18 208.38 75.44 208.2 76.82 207.96C77 207.9 77.12 208.02 77.18 208.2C77.18 208.38 77.12 208.5 76.94 208.56C75.62 208.8 74.3 208.98 72.92 209.16C72.98 209.16 72.98 209.16 72.92 209.16ZM83.18 207.54C83.06 207.54 82.94 207.42 82.88 207.3C82.88 207.12 82.94 207 83.12 206.94C84.44 206.7 85.7 206.46 87.02 206.22C87.2 206.16 87.32 206.28 87.38 206.46C87.44 206.64 87.32 206.76 87.14 206.82C85.82 207 84.5 207.3 83.18 207.54ZM25.76 206.88C25.7 206.88 25.7 206.88 25.64 206.88C24.32 206.28 23.18 205.62 22.1 204.9C21.98 204.78 21.92 204.6 22.04 204.48C22.16 204.36 22.34 204.3 22.46 204.42C23.48 205.14 24.62 205.74 25.88 206.34C26 206.4 26.12 206.58 26 206.76C25.94 206.82 25.88 206.88 25.76 206.88ZM93.32 205.44C93.2 205.44 93.08 205.32 93.02 205.2C92.96 205.02 93.08 204.9 93.26 204.84C94.52 204.54 95.84 204.24 97.16 203.94C97.34 203.88 97.46 204 97.52 204.18C97.58 204.36 97.46 204.48 97.28 204.54C95.96 204.84 94.7 205.14 93.38 205.44C93.32 205.44 93.32 205.44 93.32 205.44ZM103.4 203.04C103.28 203.04 103.16 202.98 103.1 202.8C103.04 202.62 103.16 202.5 103.34 202.44C104.6 202.14 105.92 201.78 107.18 201.42C107.36 201.36 107.48 201.48 107.54 201.66C107.6 201.84 107.48 201.96 107.3 202.02C105.98 202.38 104.72 202.68 103.46 203.04C103.4 203.04 103.4 203.04 103.4 203.04ZM113.36 200.34C113.24 200.34 113.12 200.28 113.06 200.1C113 199.92 113.12 199.8 113.24 199.74C114.5 199.38 115.76 199.02 117.08 198.6C117.26 198.54 117.38 198.66 117.44 198.78C117.5 198.96 117.38 199.08 117.26 199.14C116 199.5 114.68 199.92 113.42 200.28C113.42 200.34 113.42 200.34 113.36 200.34ZM123.26 197.34C123.14 197.34 123.02 197.28 122.96 197.16C122.9 196.98 123.02 196.86 123.14 196.8C124.4 196.38 125.66 196.02 126.92 195.6C127.1 195.54 127.22 195.66 127.28 195.78C127.34 195.96 127.22 196.08 127.1 196.14C125.84 196.56 124.58 196.98 123.32 197.34C123.32 197.28 123.32 197.34 123.26 197.34ZM133.1 194.04C132.98 194.04 132.86 193.98 132.8 193.86C132.74 193.68 132.8 193.56 132.98 193.5C134.24 193.08 135.5 192.6 136.76 192.18C136.94 192.12 137.06 192.18 137.12 192.36C137.18 192.54 137.12 192.66 136.94 192.72C135.68 193.2 134.42 193.62 133.16 194.04H133.1ZM142.82 190.5C142.7 190.5 142.58 190.44 142.52 190.32C142.46 190.14 142.52 190.02 142.7 189.96C143.96 189.48 145.16 189 146.42 188.52C146.6 188.46 146.72 188.52 146.78 188.7C146.84 188.88 146.78 189 146.6 189.06C145.34 189.54 144.14 190.02 142.88 190.5C142.88 190.5 142.88 190.5 142.82 190.5ZM152.48 186.78C152.36 186.78 152.24 186.72 152.18 186.6C152.12 186.42 152.18 186.3 152.36 186.24C153.62 185.76 154.82 185.22 156.02 184.74C156.2 184.68 156.32 184.74 156.38 184.92C156.44 185.1 156.38 185.22 156.2 185.28C155 185.76 153.74 186.3 152.54 186.78C152.54 186.78 152.54 186.78 152.48 186.78ZM162.02 182.76C161.9 182.76 161.78 182.7 161.72 182.58C161.66 182.4 161.72 182.28 161.9 182.16C163.1 181.62 164.36 181.08 165.56 180.54C165.74 180.48 165.86 180.54 165.98 180.72C166.04 180.9 165.98 181.02 165.8 181.14C164.6 181.68 163.4 182.22 162.14 182.76C162.14 182.76 162.08 182.76 162.02 182.76ZM171.5 178.56C171.38 178.56 171.26 178.5 171.2 178.38C171.14 178.26 171.2 178.08 171.32 177.96C172.52 177.42 173.72 176.82 174.92 176.28C175.04 176.22 175.22 176.28 175.34 176.4C175.4 176.52 175.34 176.7 175.22 176.82C174.02 177.36 172.82 177.96 171.62 178.5C171.56 178.56 171.5 178.56 171.5 178.56ZM180.8 174.06C180.68 174.06 180.56 174 180.56 173.88C180.5 173.76 180.56 173.58 180.68 173.46C181.88 172.86 183.08 172.26 184.22 171.66C184.34 171.6 184.52 171.66 184.64 171.78C184.7 171.9 184.64 172.08 184.52 172.2C183.32 172.8 182.18 173.4 180.98 174C180.92 174.06 180.86 174.06 180.8 174.06ZM190.04 169.32C189.92 169.32 189.86 169.26 189.8 169.14C189.74 169.02 189.8 168.84 189.92 168.72C191.12 168.12 192.26 167.46 193.4 166.8C193.52 166.74 193.7 166.8 193.82 166.92C193.88 167.04 193.82 167.22 193.7 167.34C192.56 168 191.36 168.6 190.22 169.26C190.1 169.32 190.04 169.32 190.04 169.32ZM199.1 164.34C198.98 164.34 198.92 164.28 198.86 164.22C198.8 164.1 198.8 163.92 198.98 163.8C200.12 163.14 201.26 162.48 202.4 161.82C202.52 161.76 202.7 161.76 202.82 161.94C202.88 162.06 202.88 162.24 202.7 162.36C201.56 163.02 200.42 163.68 199.28 164.34C199.16 164.28 199.1 164.34 199.1 164.34ZM207.98 159C207.86 159 207.8 158.94 207.74 158.88C207.68 158.76 207.68 158.58 207.86 158.46C209 157.74 210.14 157.02 211.22 156.36C211.34 156.3 211.52 156.3 211.64 156.42C211.7 156.54 211.7 156.72 211.58 156.84C210.5 157.56 209.36 158.28 208.22 158.94C208.1 159 208.04 159 207.98 159ZM216.68 153.36C216.56 153.36 216.5 153.3 216.44 153.24C216.32 153.12 216.38 152.94 216.5 152.82C217.64 152.04 218.72 151.32 219.8 150.54C219.92 150.42 220.1 150.48 220.22 150.6C220.34 150.72 220.28 150.9 220.16 151.02C219.08 151.8 218 152.52 216.86 153.3C216.74 153.36 216.74 153.36 216.68 153.36ZM225.08 147.36C224.96 147.36 224.9 147.3 224.84 147.24C224.72 147.12 224.78 146.94 224.9 146.82C225.98 146.04 227 145.2 228.08 144.42C228.2 144.3 228.38 144.36 228.5 144.48C228.62 144.6 228.56 144.78 228.44 144.9C227.42 145.68 226.34 146.52 225.26 147.36C225.2 147.36 225.14 147.36 225.08 147.36ZM233.18 140.88C233.12 140.88 233 140.82 232.94 140.76C232.82 140.64 232.82 140.46 233 140.34C234.02 139.44 235.04 138.6 236 137.7C236.12 137.58 236.3 137.58 236.42 137.7C236.54 137.82 236.54 138 236.42 138.12C235.46 138.96 234.44 139.86 233.42 140.76C233.3 140.88 233.24 140.88 233.18 140.88ZM240.74 133.86C240.68 133.86 240.56 133.86 240.56 133.8C240.44 133.68 240.44 133.5 240.56 133.38C241.52 132.42 242.42 131.46 243.26 130.5C243.38 130.38 243.56 130.38 243.68 130.5C243.8 130.62 243.8 130.8 243.68 130.92C242.84 131.88 241.88 132.84 240.92 133.8C240.92 133.86 240.86 133.86 240.74 133.86ZM247.58 126.06C247.52 126.06 247.46 126.06 247.4 126C247.28 125.88 247.22 125.7 247.34 125.58C248.18 124.5 248.9 123.42 249.62 122.34C249.68 122.22 249.92 122.16 250.04 122.22C250.16 122.28 250.22 122.52 250.16 122.64C249.5 123.72 248.72 124.8 247.88 125.94C247.76 126.06 247.64 126.06 247.58 126.06ZM252.8 117.18C252.74 117.18 252.74 117.18 252.68 117.18C252.5 117.12 252.44 116.94 252.5 116.82C253.04 115.56 253.4 114.3 253.7 113.1C253.76 112.92 253.88 112.86 254.06 112.86C254.24 112.92 254.3 113.04 254.3 113.22C254.06 114.48 253.64 115.74 253.1 117.06C253.04 117.12 252.92 117.18 252.8 117.18Z" fill="#4C78BC"/>
<path d="M17.8397 200.4C17.7197 200.4 17.6597 200.34 17.5997 200.28C17.2397 199.68 16.9397 199.08 16.6997 198.48C16.6397 198.3 16.6997 198.18 16.8797 198.12C17.0597 198.06 17.1797 198.12 17.2397 198.3C17.4797 198.9 17.7797 199.5 18.0797 200.04C18.1397 200.16 18.1397 200.34 17.9597 200.46C17.9597 200.34 17.8997 200.4 17.8397 200.4Z" fill="#18187C"/>
<path d="M107.9 278.82H107.84C107.18 278.64 106.52 278.46 105.92 278.16C105.74 278.1 105.68 277.92 105.74 277.74C105.8 277.56 105.98 277.5 106.16 277.56C106.76 277.8 107.36 278.04 107.96 278.16C108.14 278.22 108.2 278.34 108.2 278.52C108.2 278.76 108.08 278.82 107.9 278.82Z" fill="#18187C"/>
<path d="M101 274.38C100.94 274.38 100.82 274.32 100.76 274.26C99.9195 273.3 99.0795 272.22 98.3595 271.02C98.2995 270.9 98.2995 270.72 98.4795 270.6C98.5995 270.54 98.7795 270.54 98.8995 270.72C99.6195 271.92 100.4 272.94 101.24 273.84C101.36 273.96 101.36 274.14 101.24 274.26C101.12 274.38 101.06 274.38 101 274.38ZM95.7795 265.5C95.6595 265.5 95.5395 265.44 95.4795 265.32C94.9995 264.12 94.5795 262.86 94.1595 261.54C94.0995 261.36 94.2195 261.24 94.3395 261.18C94.5195 261.12 94.6395 261.24 94.6995 261.36C95.1195 262.68 95.5395 263.94 96.0195 265.08C96.0795 265.26 96.0195 265.38 95.8395 265.44C95.8395 265.5 95.8395 265.5 95.7795 265.5ZM92.8395 255.6C92.7195 255.6 92.5995 255.48 92.5395 255.36C92.2995 254.1 91.9995 252.78 91.8195 251.46C91.8195 251.28 91.8795 251.16 92.0595 251.1C92.2395 251.1 92.3595 251.16 92.4195 251.34C92.6595 252.66 92.8995 253.98 93.1395 255.24C93.1995 255.42 93.0795 255.54 92.8995 255.6C92.8995 255.6 92.8995 255.6 92.8395 255.6ZM91.2195 245.34C91.0995 245.34 90.9195 245.22 90.9195 245.1L90.8595 244.62C90.7395 243.48 90.6195 242.34 90.5595 241.14C90.5595 240.96 90.6795 240.84 90.8595 240.84C91.0395 240.84 91.1595 240.96 91.1595 241.14C91.2795 242.34 91.3395 243.48 91.4595 244.62L91.5195 245.1C91.5795 245.22 91.4595 245.34 91.2195 245.34C91.2795 245.34 91.2795 245.34 91.2195 245.34ZM90.4995 235.02C90.3195 235.02 90.1995 234.9 90.1995 234.72C90.1395 233.4 90.0795 232.08 90.0795 230.76C90.0795 230.58 90.1995 230.46 90.3795 230.46C90.5595 230.46 90.6795 230.58 90.6795 230.76C90.6795 232.08 90.7395 233.46 90.7995 234.72C90.7995 234.9 90.6795 235.02 90.4995 235.02ZM90.3195 224.7C90.1395 224.7 90.0195 224.58 90.0195 224.4C90.0195 223.08 90.0795 221.76 90.0795 220.44C90.0795 220.26 90.1995 220.14 90.3795 220.14C90.5595 220.14 90.6795 220.26 90.6795 220.44C90.6195 221.76 90.6195 223.08 90.6195 224.4C90.6195 224.58 90.4995 224.7 90.3195 224.7ZM90.6795 214.32C90.4995 214.32 90.3795 214.2 90.3795 214.02C90.4395 212.7 90.5595 211.38 90.6195 210.06C90.6195 209.88 90.7995 209.76 90.9195 209.76C91.0995 209.76 91.2195 209.94 91.2195 210.06C91.0995 211.38 91.0395 212.7 90.9795 214.02C90.9795 214.2 90.8595 214.32 90.6795 214.32ZM91.4595 204C91.3995 204 91.3995 204 91.4595 204C91.2795 204 91.1595 203.82 91.1595 203.7C91.2795 202.38 91.3995 201.06 91.5195 199.74C91.5195 199.56 91.6995 199.44 91.8195 199.5C91.9995 199.5 92.1195 199.68 92.0595 199.8C91.9395 201.12 91.8195 202.44 91.6995 203.76C91.6995 203.88 91.5795 204 91.4595 204ZM92.5395 193.74C92.3595 193.74 92.2395 193.56 92.2395 193.38C92.4195 192.06 92.5995 190.74 92.7795 189.42C92.7795 189.24 92.9595 189.12 93.1395 189.18C93.3195 189.18 93.4395 189.36 93.3795 189.54C93.1995 190.86 93.0195 192.18 92.8395 193.5C92.8395 193.62 92.7195 193.74 92.5395 193.74ZM93.9795 183.48C93.9795 183.48 93.9195 183.48 93.9795 183.48C93.7995 183.48 93.6795 183.3 93.6795 183.12C93.8595 181.8 94.0995 180.48 94.2795 179.16C94.2795 178.98 94.4595 178.92 94.6395 178.92C94.8195 178.92 94.9395 179.1 94.8795 179.28C94.6395 180.6 94.4595 181.92 94.2795 183.18C94.2195 183.36 94.0995 183.48 93.9795 183.48ZM95.7195 173.28C95.6595 173.28 95.6595 173.28 95.7195 173.28C95.4795 173.22 95.4195 173.1 95.4195 172.92C95.6595 171.6 95.8995 170.34 96.1395 169.02C96.1995 168.84 96.3195 168.78 96.4995 168.78C96.6795 168.84 96.7395 168.96 96.7395 169.14C96.4995 170.46 96.2595 171.78 96.0195 173.04C95.9595 173.16 95.8395 173.28 95.7195 173.28ZM97.6995 163.08H97.6395C97.4595 163.02 97.3995 162.9 97.3995 162.72C97.6995 161.4 97.9395 160.14 98.2395 158.82C98.2995 158.64 98.4195 158.58 98.5995 158.58C98.7795 158.64 98.8395 158.76 98.8395 158.94C98.5395 160.26 98.2995 161.52 97.9995 162.84C97.9395 163.02 97.8195 163.08 97.6995 163.08ZM99.9195 153H99.8595C99.6795 152.94 99.6195 152.82 99.6195 152.64C99.9195 151.38 100.22 150.06 100.58 148.74C100.64 148.56 100.76 148.5 100.94 148.5C101.12 148.56 101.18 148.68 101.18 148.86C100.88 150.18 100.58 151.44 100.22 152.7C100.22 152.88 100.1 153 99.9195 153ZM102.44 142.98H102.38C102.2 142.92 102.14 142.8 102.14 142.62C102.5 141.36 102.8 140.04 103.16 138.78C103.22 138.6 103.34 138.54 103.52 138.6C103.7 138.66 103.76 138.78 103.7 138.96C103.34 140.22 103.04 141.54 102.68 142.8C102.68 142.86 102.56 142.98 102.44 142.98ZM105.2 132.96H105.14C104.96 132.9 104.9 132.72 104.96 132.6C105.32 131.34 105.68 130.02 106.1 128.76C106.16 128.58 106.34 128.52 106.46 128.58C106.64 128.64 106.7 128.82 106.64 128.94C106.28 130.2 105.86 131.46 105.5 132.78C105.44 132.9 105.32 132.96 105.2 132.96ZM108.2 123.06C108.2 123.06 108.14 123.06 108.08 123.06C107.9 123 107.84 122.82 107.9 122.7C108.32 121.44 108.74 120.18 109.1 118.92C109.16 118.74 109.34 118.68 109.46 118.74C109.64 118.8 109.7 118.98 109.64 119.1C109.22 120.36 108.8 121.62 108.44 122.88C108.44 123 108.32 123.06 108.2 123.06ZM111.44 113.22C111.38 113.22 111.38 113.22 111.32 113.22C111.14 113.16 111.08 112.98 111.14 112.86C111.56 111.6 112.04 110.34 112.46 109.08C112.52 108.9 112.7 108.84 112.82 108.9C113 108.96 113.06 109.14 113 109.26C112.58 110.52 112.1 111.78 111.68 113.04C111.68 113.16 111.56 113.22 111.44 113.22ZM114.98 103.5C114.92 103.5 114.92 103.5 114.86 103.5C114.68 103.44 114.62 103.26 114.68 103.14C115.16 101.88 115.64 100.62 116.12 99.4198C116.18 99.2398 116.36 99.1798 116.48 99.2398C116.66 99.2998 116.72 99.4798 116.66 99.5998C116.18 100.8 115.7 102.06 115.22 103.32C115.22 103.44 115.1 103.5 114.98 103.5ZM118.82 93.8998C118.76 93.8998 118.76 93.8998 118.7 93.8998C118.52 93.8398 118.46 93.6598 118.52 93.5398C119.06 92.2798 119.54 91.0798 120.08 89.8798C120.14 89.6998 120.32 89.6398 120.5 89.6998C120.68 89.7598 120.74 89.9398 120.68 90.1198C120.14 91.3198 119.66 92.5198 119.12 93.7798C119 93.7798 118.94 93.8998 118.82 93.8998ZM122.96 84.3598C122.9 84.3598 122.9 84.3598 122.84 84.3598C122.72 84.2998 122.6 84.1198 122.72 83.9398C123.26 82.7398 123.86 81.5398 124.4 80.3398C124.46 80.2198 124.64 80.0998 124.82 80.2198C124.94 80.2798 125.06 80.4598 124.94 80.6398C124.4 81.8398 123.8 83.0398 123.26 84.2398C123.14 84.2998 123.02 84.3598 122.96 84.3598ZM127.4 75.0598C127.34 75.0598 127.28 75.0598 127.28 74.9998C127.16 74.9398 127.1 74.7598 127.16 74.5798C127.76 73.3798 128.36 72.1798 129.02 71.0398C129.08 70.9198 129.26 70.8598 129.44 70.9198C129.56 70.9798 129.62 71.1598 129.56 71.3398C128.96 72.4798 128.36 73.6798 127.76 74.8798C127.64 74.9998 127.52 75.0598 127.4 75.0598ZM132.32 65.9398C132.26 65.9398 132.2 65.9398 132.2 65.8798C132.08 65.8198 132.02 65.6398 132.08 65.4598L132.68 64.4398C133.16 63.5998 133.64 62.8198 134.12 61.9798C134.18 61.8598 134.36 61.7998 134.54 61.8598C134.66 61.9198 134.72 62.0998 134.66 62.2798C134.18 63.0598 133.7 63.8998 133.22 64.7398L132.62 65.7598C132.5 65.8798 132.44 65.9398 132.32 65.9398ZM137.72 57.0598C137.66 57.0598 137.6 57.0598 137.54 56.9998C137.42 56.9398 137.36 56.6998 137.48 56.5798C138.2 55.4398 138.98 54.2998 139.7 53.2798C139.82 53.1598 140 53.0998 140.12 53.2198C140.24 53.3398 140.3 53.5198 140.18 53.6398C139.46 54.7198 138.68 55.7998 137.96 56.9398C137.9 57.0598 137.78 57.0598 137.72 57.0598ZM143.72 48.6598C143.66 48.6598 143.6 48.6598 143.54 48.5998C143.42 48.4798 143.36 48.2998 143.48 48.1798C144.32 47.0998 145.16 46.0798 146 45.0598C146.12 44.9398 146.3 44.9398 146.42 44.9998C146.54 45.1198 146.54 45.2998 146.48 45.4198C145.64 46.3798 144.8 47.3998 143.96 48.4798C143.9 48.5998 143.78 48.6598 143.72 48.6598ZM150.56 40.9198C150.5 40.9198 150.38 40.9198 150.32 40.8598C150.2 40.7398 150.2 40.5598 150.32 40.4398C151.34 39.4798 152.3 38.5798 153.26 37.7398C153.38 37.6198 153.56 37.6798 153.68 37.7998C153.8 37.9198 153.74 38.0998 153.62 38.2198C152.66 38.9998 151.7 39.8998 150.68 40.8598C150.74 40.9198 150.62 40.9198 150.56 40.9198ZM158.72 34.5598C158.6 34.5598 158.54 34.4998 158.48 34.3798C158.42 34.2598 158.42 34.0798 158.6 33.9598C159.86 33.2398 161.06 32.6998 162.26 32.2798C162.44 32.2198 162.56 32.2798 162.62 32.4598C162.68 32.6398 162.62 32.7598 162.44 32.8198C161.3 33.2398 160.1 33.7798 158.9 34.4998C158.84 34.5598 158.78 34.5598 158.72 34.5598Z" fill="#4C78BC"/>
<path d="M170.6 32.3399H170.54C169.94 32.1599 169.28 32.0999 168.62 32.0399C168.44 32.0399 168.32 31.8599 168.32 31.7399C168.32 31.5599 168.5 31.4399 168.62 31.4399C169.28 31.4999 170 31.6199 170.6 31.7999C170.78 31.8599 170.84 31.9799 170.84 32.1599C170.84 32.2199 170.72 32.3399 170.6 32.3399Z" fill="#18187C"/>
<path d="M95.2998 205.62C95.2998 207.84 93.4998 209.64 91.2798 209.64C89.0598 209.64 87.2598 207.84 87.2598 205.62C87.2598 203.4 89.0598 201.6 91.2798 201.6C93.4998 201.54 95.2998 203.34 95.2998 205.62Z" fill="#FF9852"/>
<path d="M210.2 161.76C212.42 161.76 214.22 159.96 214.22 157.74C214.22 155.52 212.42 153.72 210.2 153.72C207.98 153.72 206.18 155.52 206.18 157.74C206.18 159.96 207.98 161.76 210.2 161.76Z" fill="#FFB265"/>
<path d="M254.419 115.98C256.64 115.98 258.439 114.18 258.439 111.96C258.439 109.74 256.64 107.94 254.419 107.94C252.199 107.94 250.399 109.74 250.399 111.96C250.399 114.18 252.199 115.98 254.419 115.98Z" fill="#FF9852"/>
<path d="M30.5595 91.6201C30.5595 93.8401 28.7595 95.6401 26.5395 95.6401C24.3195 95.6401 22.5195 93.8401 22.5195 91.6201C22.5195 89.4001 24.3195 87.6001 26.5395 87.6001C28.7595 87.6001 30.5595 89.4001 30.5595 91.6201Z" fill="#FF9852"/>
<path d="M116.659 104.46C116.659 105.66 115.699 106.62 114.499 106.62C113.299 106.62 112.339 105.66 112.339 104.46C112.339 103.26 113.299 102.3 114.499 102.3C115.699 102.3 116.659 103.26 116.659 104.46Z" fill="#FFB265"/>
<path d="M250.28 210.42C251.473 210.42 252.44 209.453 252.44 208.26C252.44 207.067 251.473 206.1 250.28 206.1C249.087 206.1 248.12 207.067 248.12 208.26C248.12 209.453 249.087 210.42 250.28 210.42Z" fill="#FF9852"/>
<path d="M110.059 278.52C110.059 279.72 109.099 280.68 107.899 280.68C106.699 280.68 105.739 279.72 105.739 278.52C105.739 277.32 106.699 276.36 107.899 276.36C109.099 276.36 110.059 277.38 110.059 278.52Z" fill="#FFB265"/>
<path d="M19.8195 200.58C19.8195 201.78 18.8595 202.74 17.6595 202.74C16.4595 202.74 15.4995 201.78 15.4995 200.58C15.4995 199.38 16.4595 198.42 17.6595 198.42C18.8595 198.42 19.8195 199.38 19.8195 200.58Z" fill="#FFB265"/>
<path d="M172.699 32.0399C172.699 33.2399 171.739 34.1999 170.539 34.1999C169.339 34.1999 168.379 33.2399 168.379 32.0399C168.379 30.8399 169.339 29.8799 170.539 29.8799C171.739 29.8799 172.699 30.8399 172.699 32.0399Z" fill="#FF9852"/>
<path d="M55.9996 207.48C67.5644 207.48 76.9396 198.105 76.9396 186.54C76.9396 174.975 67.5644 165.6 55.9996 165.6C44.4347 165.6 35.0596 174.975 35.0596 186.54C35.0596 198.105 44.4347 207.48 55.9996 207.48Z" fill="#67C081"/>
<path d="M59.9598 194.94C58.3998 195.78 56.8398 196.08 54.9198 196.08C50.2398 196.08 46.3398 192.66 46.3398 187.26C46.3398 181.44 50.4198 176.4 56.7198 176.4C61.6398 176.4 64.9998 179.88 64.9998 184.62C64.9998 188.88 62.5998 191.34 59.9598 191.34C58.8198 191.34 57.7998 190.56 57.8598 188.82H57.7398C56.7198 190.5 55.4598 191.34 53.7198 191.34C52.0998 191.34 50.6598 190.02 50.6598 187.74C50.6598 184.2 53.4198 181.02 57.3798 181.02C58.5798 181.02 59.6598 181.26 60.4398 181.62L59.4798 186.78C59.0598 188.94 59.4198 189.9 60.3198 189.96C61.7598 189.96 63.3798 188.04 63.3798 184.8C63.3798 180.66 60.9198 177.72 56.5398 177.72C51.9198 177.72 48.0198 181.38 48.0198 187.14C48.0198 191.88 51.1398 194.82 55.2798 194.82C56.8998 194.82 58.3998 194.46 59.5398 193.8L59.9598 194.94ZM58.3998 182.7C58.0998 182.64 57.6198 182.52 56.9598 182.52C54.4398 182.52 52.4598 184.86 52.4598 187.62C52.4598 188.88 53.0598 189.78 54.3198 189.78C55.9398 189.78 57.4398 187.68 57.7998 185.94L58.3998 182.7Z" fill="white"/>
<path d="M206.78 239.04C202.4 239.04 202.4 245.82 206.78 245.82C211.1 245.82 211.1 239.04 206.78 239.04Z" fill="#67C081"/>
<path d="M217.28 233.7C214.52 230.7 210.38 228.9 206.3 228.96C202.22 229.08 198.14 230.94 195.5 234.06C194.54 235.2 194.42 236.82 195.5 237.9C196.46 238.86 198.38 239.04 199.34 237.9C199.82 237.3 200.36 236.82 200.9 236.34C200.96 236.28 201.02 236.22 201.08 236.22C201.26 236.1 201.44 235.98 201.68 235.8C201.98 235.62 202.34 235.44 202.64 235.26C203.06 235.08 203.6 234.84 204.38 234.66C204.74 234.54 205.1 234.48 205.46 234.42C205.46 234.42 205.52 234.42 205.58 234.42C205.82 234.42 206.06 234.36 206.3 234.36C206.66 234.36 207.08 234.36 207.44 234.42C207.5 234.42 207.62 234.42 207.68 234.42C207.86 234.42 207.98 234.48 208.16 234.48C208.88 234.6 209.6 234.84 210.26 235.08C210.32 235.08 210.44 235.14 210.44 235.2C210.62 235.26 210.8 235.38 210.92 235.44C211.28 235.62 211.64 235.86 212 236.1C212.06 236.1 212.24 236.28 212.3 236.34C212.36 236.4 212.54 236.58 212.6 236.58C212.9 236.88 213.2 237.18 213.5 237.48C214.46 238.56 216.32 238.5 217.34 237.48C218.36 236.46 218.24 234.84 217.28 233.7Z" fill="#67C081"/>
<path d="M223.1 225.54C218.3 221.64 212.36 219.3 206.12 219.48C199.88 219.6 194 222.06 189.38 226.2C186.8 228.54 190.64 232.32 193.22 230.04C200.48 223.56 211.7 223.2 219.32 229.38C220.46 230.28 222.02 230.46 223.16 229.38C224.06 228.42 224.24 226.5 223.1 225.54Z" fill="#67C081"/>
<path d="M198.86 190.92L166.28 174.54L175.88 209.7L182.18 198.36L190.94 209.04L195.26 205.56L186.44 194.82L198.86 190.92Z" fill="#FFFFFE"/>
<path d="M122.695 60.9577L75.4321 49.1382L68.1396 78.2994L115.403 90.1189L122.695 60.9577Z" fill="#FFB265"/>
<path d="M75.4399 49.1396L95.4199 69.5996L122.66 60.8996L94.6999 72.3597L75.4399 49.1396Z" fill="#4C78BC"/>
<path d="M28.04 122.76C23.18 125.28 27.08 132.9 31.94 130.32C36.8 127.8 32.9 120.24 28.04 122.76Z" fill="#67C081"/>
<path d="M36.02 107.76C31.16 110.28 35.06 117.9 39.92 115.32C44.78 112.8 40.88 105.24 36.02 107.76Z" fill="#67C081"/>
<path d="M30.4401 127.44C30.1401 127.56 29.7801 127.62 29.4801 127.44C29.0001 127.2 28.76 126.54 29.06 126.06L37.0401 111.06C37.2801 110.58 37.94 110.34 38.42 110.64C38.9 110.88 39.1401 111.54 38.8401 112.02L30.86 127.02C30.8 127.2 30.6201 127.38 30.4401 127.44Z" fill="#67C081"/>
<path d="M48.7997 132.54C43.9397 135.06 39.9797 127.5 44.8997 124.98C49.7597 122.46 53.6597 130.02 48.7997 132.54Z" fill="#67C081"/>
<path d="M47.2998 129.66C47.1198 129.78 46.9398 129.78 46.6998 129.78L29.8398 127.56C29.2998 127.5 28.8798 126.96 28.9398 126.42C28.9998 125.88 29.5398 125.46 30.0798 125.52L46.9398 127.74C47.4798 127.8 47.8998 128.34 47.8398 128.88C47.7798 129.24 47.5998 129.54 47.2998 129.66Z" fill="#67C081"/>
<path d="M166.705 142.26L106.572 151.9L109.992 173.228L170.124 163.588L166.705 142.26Z" fill="#67C081"/>
<path d="M123.799 165.06L119.959 156.12L121.219 155.94L123.079 160.5C123.559 161.64 123.979 162.72 124.279 163.62C124.279 162.66 124.399 161.52 124.519 160.26L124.999 155.34L126.259 155.16L128.179 159.72C128.599 160.8 129.019 161.88 129.319 162.84C129.319 161.76 129.439 160.68 129.559 159.48L130.039 154.56L131.299 154.38L130.159 164.16L128.899 164.34L126.919 159.66C126.439 158.52 126.079 157.62 125.839 156.72C125.839 157.68 125.779 158.64 125.599 159.9L125.059 165L123.799 165.06Z" fill="#FFFFFE"/>
<path d="M135.739 163.14L131.899 154.2L133.159 154.02L135.019 158.58C135.499 159.72 135.919 160.8 136.219 161.7C136.219 160.74 136.339 159.6 136.459 158.34L136.939 153.42L138.199 153.24L140.119 157.8C140.539 158.88 140.959 159.96 141.259 160.92C141.259 159.84 141.379 158.76 141.499 157.56L141.979 152.64L143.239 152.46L142.099 162.24L140.839 162.42L138.859 157.74C138.379 156.6 138.019 155.7 137.779 154.8C137.779 155.76 137.719 156.72 137.539 157.98L136.999 163.08L135.739 163.14Z" fill="#FFFFFE"/>
<path d="M147.679 161.22L143.839 152.28L145.099 152.1L146.959 156.66C147.439 157.8 147.859 158.88 148.159 159.78C148.159 158.82 148.279 157.68 148.399 156.42L148.879 151.5L150.139 151.32L152.059 155.88C152.479 156.96 152.899 158.04 153.199 159C153.199 157.92 153.319 156.84 153.439 155.64L153.919 150.72L155.179 150.54L154.099 160.2L152.839 160.38L150.859 155.7C150.379 154.56 150.019 153.66 149.779 152.76C149.779 153.72 149.719 154.68 149.539 155.94L148.999 161.04L147.679 161.22Z" fill="#FFFFFE"/>
<path d="M254.42 262.92C251.24 262.92 248.12 261.9 245.48 259.98C242.18 257.58 239.96 254.04 239.36 250.02C238.04 241.68 243.74 233.82 252.08 232.44C260.42 231.12 268.28 236.82 269.66 245.16C270.32 249.18 269.36 253.26 266.96 256.56C264.56 259.86 261.02 262.08 257 262.68C256.04 262.86 255.26 262.92 254.42 262.92ZM254.48 234.54C253.82 234.54 253.1 234.6 252.38 234.72C245.24 235.86 240.38 242.58 241.52 249.72C242.06 253.14 243.92 256.2 246.74 258.24C249.56 260.28 253.04 261.12 256.46 260.58C263.6 259.44 268.46 252.72 267.32 245.58C266.36 239.1 260.78 234.54 254.48 234.54Z" fill="#07721E"/>
<path d="M256.34 262.74C254.6 262.74 252.8 261.3 251.24 258.66C249.74 256.08 248.54 252.48 247.94 248.64C246.74 241.32 247.76 233.16 252.02 232.5C253.94 232.2 255.92 233.64 257.66 236.52C259.16 239.1 260.36 242.7 260.96 246.54C261.56 250.44 261.56 254.16 260.96 257.1C260.24 260.4 258.8 262.38 256.88 262.68C256.7 262.74 256.52 262.74 256.34 262.74ZM252.56 234.66C252.5 234.66 252.44 234.66 252.38 234.66C250.58 234.96 248.9 240.24 250.16 248.28C250.76 251.88 251.84 255.18 253.16 257.58C254.3 259.56 255.56 260.7 256.46 260.52C257.36 260.4 258.2 258.9 258.68 256.68C259.22 253.98 259.22 250.56 258.68 246.9C258.08 243.3 257 240 255.68 237.6C254.66 235.8 253.46 234.66 252.56 234.66Z" fill="#07721E"/>
<path d="M249.92 254.52C244.52 254.52 239.84 253.14 239.36 250.02C239.06 248.1 240.5 246.12 243.38 244.38C245.96 242.88 249.56 241.68 253.4 241.08C260.72 239.88 268.88 240.9 269.54 245.16C269.84 247.08 268.4 249.06 265.52 250.8C262.94 252.3 259.34 253.5 255.5 254.1C253.64 254.4 251.72 254.52 249.92 254.52ZM259.1 242.88C257.48 242.88 255.74 243 253.76 243.3C250.16 243.9 246.86 244.98 244.46 246.3C242.48 247.44 241.34 248.7 241.52 249.6C241.82 251.4 247.1 253.08 255.14 251.82C258.74 251.22 262.04 250.14 264.44 248.82C266.42 247.68 267.56 246.42 267.38 245.52C267.14 244.14 264.08 242.88 259.1 242.88Z" fill="#07721E"/>
<path d="M44.3 238.26C44.3 238.02 44.36 237.78 44.36 237.48C44.36 230.1 38.36 224.1 30.98 224.1C25.1 224.1 20.18 227.88 18.32 233.1C17.3 232.2 15.92 231.6 14.42 231.6C11.18 231.6 8.54002 234.24 8.54002 237.48V237.54C3.74002 238.08 0.0200195 242.1 0.0200195 247.08C0.0200195 252.36 4.34002 256.68 9.62002 256.68H40.58C45.86 256.68 50.18 252.36 50.18 247.08C50.12 243.12 47.72 239.7 44.3 238.26Z" fill="#FFB265"/>
<path d="M30.9795 245.46V235.62H21.1395V245.46H18.9795L26.0595 253.14L33.0795 245.46H30.9795Z" fill="#FFFFFE"/>
<path d="M108.679 157.02C103.879 149.4 94.2194 144.48 82.2794 143.52C75.9794 142.98 69.4994 143.52 63.2594 144C59.2994 144.3 55.2794 144.6 51.2594 144.66C38.4194 144.84 28.5194 141.96 21.7994 136.08C17.5394 132.36 14.2994 127.14 12.4394 121.08C11.1794 116.94 10.8194 113.28 11.4794 110.04C11.8394 108.06 12.6194 106.26 13.6394 104.7C13.3994 104.1 13.2194 103.5 13.0994 103.02C8.3594 87.5401 12.2594 69.7201 22.9394 57.6001L23.4794 58.0801C12.9194 70.0201 9.0794 87.5401 13.7594 102.78C13.8794 103.14 13.9994 103.56 14.1194 103.98C15.0794 102.72 16.2794 101.7 17.5994 100.98C21.1394 99.0601 25.6394 99.4801 28.2794 102.12C29.6594 103.5 30.4394 105.6 30.3794 107.76C30.2594 109.68 29.4794 111.36 28.0994 112.44C25.1594 114.84 20.8394 113.88 18.2594 111.84C16.1594 110.16 14.8394 107.76 13.9394 105.6C13.0994 106.98 12.4994 108.54 12.1994 110.22C11.5994 113.34 11.8994 116.88 13.1594 120.9C14.9594 126.84 18.1394 131.88 22.2794 135.54C28.8194 141.3 38.5994 144.12 51.2594 143.94C55.2194 143.88 59.2994 143.58 63.2594 143.28C69.5594 142.8 76.0394 142.32 82.3994 142.8C94.6394 143.76 104.479 148.86 109.399 156.66L108.679 157.02ZM14.4194 104.76C15.2594 106.98 16.5794 109.44 18.6794 111.18C21.0194 113.04 24.9194 113.94 27.5594 111.78C28.7594 110.82 29.4794 109.32 29.5394 107.64C29.6594 105.72 28.9394 103.86 27.6794 102.6C25.3394 100.26 21.1394 99.8401 17.8994 101.58C16.5794 102.36 15.3794 103.44 14.4194 104.76Z" fill="#4C78BC"/>
<path d="M26.7795 31.56C34.3995 22.92 44.1795 21.72 50.2395 27.06C56.2995 32.4 56.3595 42.24 48.6795 50.88C48.1395 51.48 45.9795 53.88 44.3595 55.62C43.9995 55.98 43.6995 56.28 43.4595 56.58C43.0995 56.94 42.7995 57.24 42.6795 57.36C35.4195 63.96 29.0595 62.88 23.3595 58.98C23.0595 58.8 22.8195 58.56 22.5195 58.32C22.2795 58.08 21.9795 57.84 21.7395 57.6C17.2395 52.5 15.3195 46.26 20.9595 38.28C21.0795 38.1 21.3195 37.8 21.6795 37.38C21.9195 37.08 22.2195 36.72 22.5195 36.36C24.1395 34.62 26.2395 32.16 26.7795 31.56Z" fill="#67C081"/>
<path d="M33.5257 45.0813L22.0898 58.0361L23.0794 58.9097L34.5154 45.9549L33.5257 45.0813Z" fill="#4C78BC"/>
<path d="M30.7996 47.2798L32.6596 48.8998C32.9596 49.1398 33.0196 49.6198 32.7196 49.9198L29.0596 54.1198C28.8196 54.4198 28.3396 54.4798 28.0396 54.1798L26.1796 52.5598C25.8796 52.3198 25.8196 51.8398 26.1196 51.5398L29.7796 47.3398C30.0196 47.0398 30.4996 46.9798 30.7996 47.2798Z" fill="#FFB265"/>
<path d="M22.5793 36.48C26.8393 38.94 30.7993 41.82 34.3993 45.06C37.9993 48.3 41.3593 51.84 44.3593 55.74C43.9993 56.1 43.6993 56.4 43.4593 56.7C37.5193 48.9 30.1993 42.42 21.7393 37.5C21.9793 37.2 22.2793 36.84 22.5793 36.48Z" fill="#4C78BC"/>
<path d="M247.348 22.3036L225.583 0.539062L213.322 12.8002L235.087 34.5647L247.348 22.3036Z" fill="#FFFFFE"/>
<path d="M233.82 11.8342L226.014 4.02783L216.807 13.2343L224.614 21.0407L233.82 11.8342Z" fill="#FFB265"/>
<path d="M243.673 21.6687L235.867 13.8623L226.66 23.0687L234.467 30.8751L243.673 21.6687Z" fill="#FFB265"/>
<path d="M242.938 42.4264L264.702 64.1909L276.963 51.9298L255.199 30.1653L242.938 42.4264Z" fill="#FFFFFE"/>
<path d="M256.51 52.9456L264.316 60.752L273.522 51.5455L265.716 43.7391L256.51 52.9456Z" fill="#FFB265"/>
<path d="M246.655 43.0745L254.461 50.8809L263.667 41.6744L255.861 33.868L246.655 43.0745Z" fill="#FFB265"/>
<path d="M253.64 43.08C250.22 46.5 244.88 43.2 239.6 37.92C234.32 32.64 231.02 27.3 234.44 23.88C237.86 20.46 246.68 20.28 251.96 25.56C257.3 30.84 257.06 39.66 253.64 43.08Z" fill="#67C081"/>
<path d="M252.622 51.407C256.629 47.4002 253.951 38.2257 246.64 30.9152C239.33 23.6047 230.155 20.9264 226.148 24.9331C222.142 28.9399 224.82 38.1144 232.13 45.4249C239.441 52.7354 248.615 55.4137 252.622 51.407Z" fill="#FFFFFE"/>
<path d="M251.562 50.3473C254.983 46.9263 252.305 38.7016 245.58 31.9768C238.856 25.2521 230.631 22.5738 227.21 25.9948C223.789 29.4157 226.467 37.6405 233.192 44.3652C239.917 51.09 248.141 53.7683 251.562 50.3473Z" fill="#07721E"/>
<path d="M229.46 50.8797C231.018 50.8797 232.28 49.6172 232.28 48.0597C232.28 46.5023 231.018 45.2397 229.46 45.2397C227.903 45.2397 226.64 46.5023 226.64 48.0597C226.64 49.6172 227.903 50.8797 229.46 50.8797Z" fill="#4C78BC"/>
<path d="M229.04 47.6998L238.76 37.0798C239.18 36.5998 239.96 36.5998 240.38 37.0198C240.86 37.4398 240.86 38.2198 240.44 38.6398L240.38 38.6998L229.76 48.4198C229.52 48.5998 229.22 48.5998 228.98 48.3598C228.86 48.2398 228.86 47.8798 229.04 47.6998Z" fill="#4C78BC"/>
<path d="M246.92 95.4599C252.98 89.3999 243.44 69.9599 225.68 52.1399C207.86 34.3199 188.42 24.7799 182.36 30.8999C181.28 31.9799 180.68 33.4199 180.56 35.2199C168.92 29.2199 159.32 27.6599 154.88 32.0999C152.18 34.7999 151.58 39.2999 153.02 45.2399C137.84 37.3199 125.42 35.2799 119.72 41.0399C114.5 46.2599 115.7 57.1199 122 70.4399C122.18 70.3799 122.36 70.3799 122.54 70.3199C116.3 57.1199 115.04 46.5599 120.14 41.3999C122.3 39.2399 125.42 38.2199 129.26 38.2199C135.56 38.2199 143.84 40.9199 153.2 45.8399C154.04 48.9599 155.36 52.4999 157.28 56.3399C160.4 62.6399 164.78 69.4199 170.12 76.1999C170.48 76.3799 170.9 76.5599 171.26 76.7399C165.68 69.6599 161.06 62.5799 157.82 56.0399C156.02 52.4399 154.76 49.1399 153.92 46.1399C167.3 53.3399 182.78 65.0399 197.72 79.9199C212.6 94.7999 224.3 110.28 231.5 123.72C228.56 122.88 225.2 121.62 221.6 119.82C218.06 118.08 214.4 115.92 210.62 113.4C210.8 113.76 210.98 114.12 211.16 114.42C218.78 119.34 225.86 122.76 231.8 124.32C239.78 139.44 241.94 151.8 236.3 157.44C233.12 160.62 227.72 161.4 220.64 159.84C220.64 160.02 220.64 160.26 220.58 160.44C222.98 160.98 225.2 161.22 227.18 161.22C231.26 161.22 234.5 160.14 236.72 157.86C242.48 152.1 240.44 139.68 232.46 124.5C234.56 124.98 236.54 125.28 238.28 125.28C241.4 125.28 243.92 124.44 245.66 122.7C250.1 118.26 248.54 108.72 242.54 97.0199C244.34 97.1399 245.84 96.5399 246.92 95.4599ZM182.78 31.3199C183.92 30.1799 185.66 29.5799 187.76 29.5799C196.22 29.5799 211.22 38.5199 225.26 52.5599C242.84 70.1399 252.38 89.1599 246.5 95.0399C245.48 96.0599 244.04 96.5999 242.3 96.7199C236.72 86.0999 227.54 73.8599 215.72 62.0399C203.96 50.2799 191.66 41.0399 181.1 35.4599C181.16 33.7799 181.76 32.3399 182.78 31.3199ZM215.3 62.5199C227 74.2199 236.12 86.3399 241.7 96.7799C233.3 96.8999 218.18 87.9599 204.02 73.7999C195.5 65.2799 188.54 56.0999 184.58 47.9999C182.24 43.1999 181.04 39.1799 181.1 36.1199C191.48 41.6999 203.6 50.8199 215.3 62.5199ZM245.24 122.52C242.66 125.1 238.1 125.64 232.16 124.08C224.96 110.52 213.14 94.7999 198.08 79.6799C183.02 64.6199 167.3 52.7999 153.68 45.5999C152.18 39.5999 152.66 35.0999 155.24 32.5199C156.92 30.8399 159.32 30.0599 162.32 30.0599C167.12 30.0599 173.36 32.0999 180.44 35.8199C180.32 39.0599 181.52 43.2599 183.98 48.2999C188 56.3999 194.96 65.6399 203.54 74.2199C217.7 88.3799 232.88 97.3199 241.58 97.3199C241.7 97.3199 241.82 97.3199 241.88 97.3199C248 108.84 249.56 118.2 245.24 122.52Z" fill="#FFB265"/>
<path d="M240.2 158.52C239.36 158.52 238.58 158.22 237.98 157.62L201.98 121.62C200.72 120.36 200.72 118.38 201.98 117.12C203.24 115.86 205.22 115.86 206.48 117.12L242.48 153.12C243.74 154.38 243.74 156.36 242.48 157.62C241.82 158.22 241.04 158.52 240.2 158.52Z" fill="#67C081"/>
<path d="M240.2 160.26C238.94 160.26 237.68 159.78 236.72 158.82L216.98 139.08C215.06 137.16 215.06 134.04 216.98 132.12C218.9 130.2 222.02 130.2 223.94 132.12L243.68 151.86C245.6 153.78 245.6 156.9 243.68 158.82C242.72 159.78 241.46 160.26 240.2 160.26Z" fill="#FFB265"/>
<path opacity="0.3" d="M211.82 100.92C211.82 115.32 200.12 127.02 185.72 127.02C184.76 127.02 183.74 126.96 182.84 126.84C180.86 126.6 178.88 126.18 177.08 125.52C175.16 124.86 173.36 123.96 171.68 122.88C168.8 121.02 166.28 118.56 164.3 115.74C161.36 111.54 159.68 106.44 159.68 100.92C159.68 86.7003 171.02 75.1203 185.18 74.8203C185.36 74.8203 185.6 74.8203 185.78 74.8203C189.14 74.8203 192.32 75.4803 195.26 76.6203C197.18 77.3403 198.92 78.3003 200.6 79.4403C202.22 80.5803 203.72 81.9003 205.04 83.3403C209.24 87.9603 211.82 94.1403 211.82 100.92Z" fill="#6262F4"/>
<g opacity="0.5">
<path opacity="0.5" d="M195.259 76.5603L171.619 122.82C168.739 120.96 166.219 118.5 164.239 115.68L185.119 74.7603C185.299 74.7603 185.539 74.7603 185.719 74.7603C189.079 74.8203 192.319 75.4203 195.259 76.5603Z" fill="white"/>
<path opacity="0.5" d="M205.04 83.3404L182.84 126.84C180.86 126.6 178.88 126.18 177.08 125.52L200.6 79.4404C202.22 80.5804 203.72 81.8404 205.04 83.3404Z" fill="white"/>
</g>
<path d="M185.719 130.14C169.579 130.14 156.439 117 156.439 100.86C156.439 84.7201 169.579 71.5801 185.719 71.5801C201.859 71.5801 214.999 84.7201 214.999 100.86C214.999 117 201.859 130.14 185.719 130.14ZM185.719 78.0001C173.059 78.0001 162.799 88.2601 162.799 100.92C162.799 113.58 173.059 123.84 185.719 123.84C198.379 123.84 208.639 113.58 208.639 100.92C208.639 88.2601 198.379 78.0001 185.719 78.0001Z" fill="#67C081"/>
<path d="M176.951 223.202L111.824 207.915L101.555 251.664L166.683 266.951L176.951 223.202Z" fill="white"/>
<path d="M172.62 225.636L114.619 212.022L105.872 249.288L163.873 262.902L172.62 225.636Z" fill="#07721E"/>
<path d="M166.28 252.78L156.62 237.18L144.14 244.98L130.64 223.2L108.86 236.64L105.86 249.3L163.94 262.92L166.28 252.78Z" fill="#67C081"/>
<path d="M152.66 230.34C151.94 233.52 148.7 235.5 145.52 234.78C142.34 234.06 140.36 230.82 141.08 227.64C141.8 224.46 145.04 222.48 148.22 223.2C151.4 223.98 153.38 227.16 152.66 230.34Z" fill="#FFB265"/>
</svg>
