<svg fill="none" height="204" viewBox="0 0 206 204" width="206" xmlns="http://www.w3.org/2000/svg" xmlns:xlink="http://www.w3.org/1999/xlink"><linearGradient id="a" gradientUnits="userSpaceOnUse" x1=".973457" x2="205.555" y1="85.9352" y2="85.9352"><stop offset="0" stop-color="#46c3d3"/><stop offset="1" stop-color="#4c78bc"/></linearGradient><linearGradient id="b"><stop offset="0" stop-color="#218877"/><stop offset="1" stop-color="#67c081"/></linearGradient><linearGradient id="c" gradientUnits="userSpaceOnUse" x1="37.2641" x2="162.595" xlink:href="#b" y1="105.954" y2="3.41107"/><linearGradient id="d" gradientUnits="userSpaceOnUse" x1="46.8516" x2="172.182" xlink:href="#b" y1="117.672" y2="15.1292"/><linearGradient id="e" gradientUnits="userSpaceOnUse" x1="44.3774" x2="169.708" xlink:href="#b" y1="114.648" y2="12.1053"/><linearGradient id="f" gradientUnits="userSpaceOnUse" x1="27.8536" x2="153.183" xlink:href="#b" y1="94.4497" y2="-8.09248"/><linearGradient id="g"><stop offset="0" stop-color="#18444a"/><stop offset="1" stop-color="#49b3b3"/></linearGradient><linearGradient id="h" gradientUnits="userSpaceOnUse" x1="58.9982" x2="184.331" xlink:href="#g" y1="132.519" y2="29.9743"/><linearGradient id="i" gradientUnits="userSpaceOnUse" x1="223.558" x2="-2.0162" xlink:href="#g" y1="190.103" y2="190.103"/><linearGradient id="j" gradientUnits="userSpaceOnUse" x1="223.53" x2="-2.01354" xlink:href="#g" y1="193.77" y2="193.77"/><linearGradient id="k" gradientUnits="userSpaceOnUse" x1="223.529" x2="-2.01366" xlink:href="#g" y1="193.77" y2="193.77"/><linearGradient id="l" gradientUnits="userSpaceOnUse" x1="223.53" x2="-2.01339" xlink:href="#g" y1="189.123" y2="189.123"/><linearGradient id="m" gradientUnits="userSpaceOnUse" x1="223.527" x2="-2.01412" xlink:href="#g" y1="190.062" y2="190.062"/><linearGradient id="n" gradientUnits="userSpaceOnUse" x1="223.53" x2="-2.01336" xlink:href="#g" y1="193.77" y2="193.77"/><linearGradient id="o" gradientUnits="userSpaceOnUse" x1="223.531" x2="-2.01435" xlink:href="#g" y1="190.177" y2="190.177"/><linearGradient id="p" gradientUnits="userSpaceOnUse" x1="223.531" x2="-2.0146" xlink:href="#g" y1="193.788" y2="193.788"/><linearGradient id="q" gradientUnits="userSpaceOnUse" x1="223.532" x2="-2.0338" xlink:href="#g" y1="193.807" y2="193.807"/><linearGradient id="r" gradientUnits="userSpaceOnUse" x1="223.527" x2="-2.0006" y1="189.16" y2="189.16"><stop offset="0" stop-color="#18444a"/><stop offset="0" stop-color="#49b3b3"/></linearGradient><path d="m190.819.670166h-175.1248c-8.10942 0-14.710069 6.600654-14.710069 14.710034v103.7248c0 8.109 6.600649 14.747 14.747769 14.747h23.0457v35.078c0 .943.5658 1.773 1.3955 2.112.2641.114.5658.189.8676.189.6035 0 1.2069-.226 1.6218-.679l36.6619-36.662h111.4946c8.109 0 14.748-6.6 14.748-14.748v-103.7241c0-8.14708-6.639-14.747734-14.748-14.747734zm10.146 118.471834c0 5.62-4.564 10.147-10.146 10.147h-112.4375c-.6035 0-1.1693.226-1.6219.679l-26.7043 26.704-4.9411 4.941-1.7727 1.773v-31.834c0-1.245-1.0184-2.301-2.3008-2.301h-25.3465c-5.62 0-10.14619-4.564-10.14619-10.146v-103.7248c0-5.61999 4.56389-10.14615 10.14619-10.14615h175.1248c5.62 0 10.146 4.56388 10.146 10.14615z" fill="url(#a)"/><path d="m73.5161 75.7289v16.8222l-5.9217 5.9217-12.1075 12.1072c-.1508-.641-.264-1.32-.264-2.036v-32.8151c0-4.6393 3.7718-8.4112 8.4111-8.4112h1.4333c4.677 0 8.4488 3.7719 8.4488 8.4112z" fill="url(#c)"/><path d="m146.953 26.8841v35.4172c-.566.0377-1.131.1132-1.697.2641l-3.697.9806-5.318 1.4333c-.302.0754-.603.1886-.867.3018-2.49.9806-4.376 3.0174-5.092 5.6954-.528 1.999-.34 3.9981.49 5.7708l-1.358 1.3579-.603.6035c-.113-.5281-.151-1.0939-.151-1.6596v-50.165c0-4.941 3.998-8.9769 8.977-8.9769h.339c4.941 0 8.977 4.0359 8.977 8.9769z" fill="url(#d)"/><path d="m121.154 73.1642c-1.169 1.1692-2.716 1.7727-4.262 1.7727-1.547 0-3.093-.5658-4.262-1.7727l-2.377-2.3763v12.5224c-1.207-.9052-2.64-1.3956-4.186-1.3956-1.773 0-3.433.6412-4.715 1.8482-.038.0377-.113.1132-.151.1509l-5.733 5.7331-3.3192 3.3192c-.1131-.5658-.1886-1.1692-.1886-1.7727v-20.5186l-2.4894 2.4894c-2.3385 2.3385-6.148 2.3385-8.5242 0-1.1693-1.1693-1.7728-2.7157-1.7728-4.2622 0-1.5464.6035-3.0929 1.7728-4.2621l13.5785-13.5785.1508-.1509c.4149-.4149.8675-.792 1.3956-1.0938 1.4333-.9429 3.1683-1.471 4.9785-1.471 2.527 0 4.79 1.0184 6.45 2.678.264.264.49.528.717.8298l12.824 12.8618c2.489 2.3008 2.489 6.1103.113 8.4489z" fill="url(#e)"/><path d="m101.088 44.0458c5.249 0 9.505-4.2555 9.505-9.505 0-5.2494-4.256-9.5049-9.505-9.5049-5.2495 0-9.505 4.2555-9.505 9.5049 0 5.2495 4.2555 9.505 9.505 9.505z" fill="url(#f)"/><path d="m150.725 71.6175-2.414 9.0146c-.415 1.6219-1.848 2.5271-3.319 2.5271-.868 0-1.735-.3017-2.414-1.0184-.717-.7166-1.924-.7166-2.641 0l-21.386 21.3112c-.716.716-1.923.716-2.64 0l-8.486-8.487c-.717-.7167-1.924-.7167-2.641 0l-13.6536 13.654c-.7167.717-1.9236.717-2.6403 0l-6.9024-6.903c-.7166-.716-1.9236-.716-2.6402 0l-19.0099 18.973c-.7167.716-1.9236.716-2.6403 0l-1.0938-1.094c-.7166-.717-.7166-1.924 0-2.64l22.744-22.7444c.7166-.7166 1.9236-.7166 2.6402 0l6.9024 6.9024c.7167.717 1.9236.717 2.6403 0l13.6536-13.6539c.717-.7167 1.924-.7167 2.641 0l8.524 8.4865c.716.7167 1.923.7167 2.64 0l17.652-17.5389c.717-.7166.717-1.9236 0-2.6402l-.188-.1886c-1.849-1.8482-1.019-5.0542 1.546-5.7331l9.015-2.414c2.489-.6789 4.79 1.6219 4.111 4.1867z" fill="url(#h)"/><path d="m16.3354 177.19h-12.78642c-.03771 0-.03771 0-.07543 0h-.03772c-1.05611 0-1.84818.83-1.84818 1.849v22.14c0 1.018.82979 1.848 1.84818 1.848s1.84818-.83 1.84818-1.848v-9.165h8.41109c1.0184 0 1.8482-.83 1.8482-1.849 0-1.056-.8675-1.848-1.8482-1.848h-8.41109v-7.43h11.05139c1.0184 0 1.8482-.83 1.8482-1.848 0-1.056-.8675-1.849-1.8482-1.849z" fill="url(#i)"/><path d="m27.1229 184.47c-5.1297 0-9.2787 4.149-9.2787 9.279 0 5.092 4.149 9.278 9.2787 9.278 1.3578 0 3.2437.038 5.6954-1.584.8675-.566 1.3201-1.509.8675-2.451-.4526-.906-1.5842-1.396-2.4517-.868-1.7727 1.132-3.2814 1.207-4.1489 1.207-2.4894 0-4.5639-1.584-5.3183-3.81h12.7864c1.0561 0 1.8482-.829 1.8482-1.81 0-5.959-4.8279-9.241-9.2786-9.241zm-5.356 7.431c.7921-2.188 2.8666-3.772 5.3183-3.772 2.2253 0 4.6015 1.169 5.3559 3.772z" fill="url(#j)"/><path d="m47.9053 184.47c-5.1296 0-9.2786 4.149-9.2786 9.279 0 5.092 4.149 9.278 9.2786 9.278 1.3579 0 3.2438.038 5.6955-1.584.8675-.566 1.3201-1.509.8675-2.451-.4526-.906-1.5842-1.396-2.4517-.868-1.7727 1.132-3.2815 1.207-4.149 1.207-2.4894 0-4.5639-1.584-5.3182-3.81h12.7864c1.0561 0 1.8482-.829 1.8482-1.81.0377-5.959-4.7902-9.241-9.2787-9.241zm-5.3182 7.431c.7921-2.188 2.8666-3.772 5.3182-3.772 2.2254 0 4.6016 1.169 5.356 3.772z" fill="url(#k)"/><path d="m76.2318 175.267c-1.0184 0-1.8105.83-1.8105 1.81v9.241c-1.5464-1.169-3.5078-1.886-5.62-1.886-5.1296 0-9.2786 4.149-9.2786 9.279s4.149 9.279 9.2786 9.279c5.092 0 9.2787-4.187 9.2787-9.279v-16.634c0-1.018-.8298-1.81-1.8482-1.81zm-1.8482 18.444c0 3.131-2.5271 5.62-5.62 5.62s-5.62-2.565-5.62-5.62c0-3.093 2.5271-5.62 5.62-5.62 3.1306-.038 5.62 2.489 5.62 5.62z" fill="url(#l)"/><path d="m107.047 200.802-4.526-22.216c-.151-.868-.905-1.471-1.735-1.509-.8297-.038-1.5841.49-1.8481 1.283l-6.2235 16.897-5.9971-16.86c-.264-.83-1.0561-1.358-1.8859-1.282-.8675.038-1.5842.679-1.735 1.509l-3.7341 22.253c-.1886 1.056.4903 1.961 1.5087 2.15s1.9613-.528 2.1122-1.509l2.7911-14.898 5.1297 15.087c.264.754.9807 1.282 1.7727 1.282.8298 0 1.5088-.528 1.7728-1.282l5.8085-15.615 3.168 15.426c.189.868.943 1.509 1.811 1.509.113 0 .264-.038.377-.038 1.018-.226 1.622-1.169 1.433-2.187z" fill="url(#m)"/><path d="m117.533 184.47c-5.13 0-9.279 4.149-9.279 9.279 0 5.092 4.149 9.278 9.279 9.278 1.358 0 3.244.038 5.695-1.584.868-.566 1.321-1.509.868-2.451-.453-.906-1.584-1.396-2.452-.868-1.772 1.132-3.281 1.207-4.149 1.207-2.489 0-4.564-1.584-5.318-3.81h12.824c1.056 0 1.848-.829 1.848-1.81 0-5.959-4.828-9.241-9.316-9.241zm-5.318 7.431c.792-2.188 2.866-3.772 5.318-3.772 2.225 0 4.602 1.169 5.356 3.772z" fill="url(#n)"/><path d="m143.747 189.26c1.019-1.245 1.584-2.866 1.622-4.601 0-4.074-3.319-7.205-7.204-7.393h-7.167c-1.056 0-1.885.867-1.885 1.848v22.141c0 1.018.829 1.848 1.848 1.848h.037.076 9.731c3.847-.302 6.903-3.395 6.94-7.28 0-2.753-1.622-5.318-3.998-6.563zm-10.938-8.298h5.016c2.113 0 3.81 1.584 3.848 3.659-.038 2.112-1.735 3.772-3.848 3.772h-5.054v-7.431zm7.732 18.444h-7.732v-7.279h7.544c2.036.037 3.696 1.848 3.696 3.696 0 1.999-1.697 3.583-3.508 3.583z" fill="url(#o)"/><path d="m159.249 184.545c-5.205 0-9.354 4.149-9.354 9.354 0 5.206 4.149 9.128 9.354 9.128 2.112 0 3.885-.528 5.469-1.848 0 1.056 1.019 1.848 1.773 1.848 1.056 0 1.848-.792 1.848-1.848v-7.242c.038-5.243-3.885-9.392-9.09-9.392zm0 14.861c-3.093 0-5.733-2.376-5.733-5.469 0-3.13 2.64-5.733 5.733-5.733 3.131 0 5.469 2.64 5.469 5.733s-2.338 5.469-5.469 5.469z" fill="url(#p)"/><path d="m187.123 196.276c-.868-.528-1.999-.302-2.565.565-1.056 1.622-2.829 2.603-4.753 2.603-3.055 0-5.62-2.565-5.62-5.62 0-3.131 2.565-5.62 5.62-5.62 2.037 0 3.885 1.056 4.904 2.829.528.867 1.622 1.131 2.527.679.867-.528 1.169-1.622.679-2.527-1.66-2.867-4.753-4.64-8.072-4.64-5.092 0-9.279 4.149-9.279 9.279 0 5.092 4.149 9.279 9.279 9.279 3.168 0 6.11-1.584 7.808-4.262.565-.83.339-2-.528-2.565z" fill="url(#q)"/><path d="m198.325 191.863 6.488-4.262c.792-.642.905-1.811.264-2.603-.679-.792-1.811-.867-2.603-.226l-8.411 5.507v-13.202c0-1.018-.868-1.81-1.848-1.81-.981 0-1.811.83-1.811 1.81v23.989c0 1.018.83 1.848 1.811 1.848 1.018 0 1.848-.83 1.848-1.848v-6.488l1.131-.792 7.016 8.449c.34.453.868.679 1.396.679.415 0 .829-.151 1.131-.452.792-.642.905-1.773.264-2.565z" fill="url(#r)"/></svg>