<svg width="215" height="108" viewBox="0 0 215 108" fill="none" xmlns="http://www.w3.org/2000/svg">
<path d="M107.502 51.2401C72.262 51.2401 37.0221 51.2429 1.78214 51.2151C1.20882 51.2151 0.206891 51.7355 0.087217 50.6501C-0.0268912 49.6259 -0.266241 48.5906 1.22551 47.9449C18.5143 40.4722 35.7641 32.9077 53.0362 25.4016C53.9156 25.0203 54.425 24.5026 54.7923 23.6287C57.9373 16.1588 61.1434 8.71396 64.2856 1.24127C64.6641 0.342322 65.1205 0 66.1252 0C93.8535 0.0278313 121.582 0.0278313 149.31 0C150.306 0 150.774 0.314495 151.158 1.21901C154.278 8.60264 157.465 15.9584 160.587 23.3421C161.027 24.3857 161.631 25.0509 162.691 25.5185C179.604 32.9244 196.49 40.3971 213.422 47.764C214.867 48.393 215.081 49.2335 214.978 50.5221C214.933 51.0648 214.702 51.2596 214.196 51.2401C213.826 51.2262 213.453 51.2401 213.083 51.2401C177.89 51.2401 142.695 51.2401 107.502 51.2401Z" fill="#FB3D48"/>
<path d="M163.883 100.699C161.89 100.699 159.894 100.699 157.902 100.699C157.3 100.699 156.663 100.782 156.343 100.084C156.054 99.449 156.248 98.8618 156.694 98.4221C157.86 97.2726 158.021 95.8087 158.035 94.3142C158.066 91.1637 158.055 88.0104 158.041 84.8571C158.032 82.9284 156.694 81.5591 154.768 81.4255C153.443 81.3365 152.205 81.7539 150.938 82.0239C150.357 82.1491 150.242 82.5026 150.242 83.0314C150.251 87.2951 150.237 91.5617 150.24 95.8254C150.24 96.8524 151.002 97.473 151.573 98.1911C152.015 98.7449 152.452 99.2988 152.063 100.07C151.692 100.802 151.011 100.713 150.365 100.71C146.424 100.71 142.483 100.693 138.542 100.715C137.729 100.721 137.053 100.568 136.73 99.7552C136.408 98.9397 137.101 98.5835 137.568 98.1911C138.114 97.7319 138.322 97.2114 138.314 96.5017C138.286 93.3039 138.261 90.1033 138.322 86.9055C138.345 85.8145 137.988 85.8173 137.117 86.1039C133.88 87.1699 130.588 87.9185 127.145 87.3564C122.13 86.5381 119.586 82.9507 120.482 77.9605C120.569 77.4735 120.591 76.9001 121.192 76.7109C121.796 76.5216 122.253 76.8167 122.689 77.2091C127.053 81.0943 132.169 81.3866 137.571 80.3095C138.2 80.1843 138.375 79.8141 138.372 79.2213C138.358 75.1412 138.364 71.0639 138.361 66.9839C138.361 66.1601 137.997 65.4754 137.56 64.8019C137.234 64.3009 136.892 63.7833 136.716 63.2211C136.446 62.3528 136.613 61.6681 137.749 61.5985C142.247 61.3258 146.733 61.3258 151.208 61.952C152.032 62.0661 152.238 62.4418 152.015 63.171C151.962 63.3491 151.935 63.5606 151.82 63.6887C149.819 65.8818 150.176 68.5786 150.187 71.2059C150.195 72.9676 150.203 74.7293 150.181 76.491C150.173 77.1952 150.203 77.5765 151.158 77.4095C153.187 77.056 155.233 77.1534 157.172 77.9494C157.915 78.2555 158.044 78.0023 158.041 77.326C158.024 73.8025 158.032 70.2791 158.03 66.7585C158.027 65.7593 157.381 65.0524 156.886 64.2759C156.463 63.6163 155.926 62.9678 156.379 62.1106C156.813 61.2896 157.604 61.4176 158.339 61.4176C162.14 61.4176 165.942 61.4093 169.747 61.4204C171.645 61.426 172.282 62.3722 171.199 63.9586C169.958 65.776 169.816 67.6964 169.827 69.767C169.872 78.019 169.872 86.2682 169.819 94.5201C169.811 95.9952 170.05 97.2448 171.144 98.2996C171.595 98.7338 172.059 99.2737 171.675 100.014C171.311 100.718 170.662 100.707 169.994 100.701C167.963 100.69 165.923 100.699 163.883 100.699Z" fill="black"/>
<path d="M14.2483 81.3644C14.2483 85.7227 14.29 90.0783 14.226 94.4367C14.2065 95.8561 14.4654 97.0723 15.4645 98.1271C15.9321 98.6225 16.4135 99.2126 16.0517 99.989C15.6871 100.771 14.9552 100.707 14.2483 100.704C10.3547 100.688 6.4583 100.674 2.56471 100.682C1.82997 100.685 1.1648 100.626 0.794645 99.8833C0.399441 99.0901 0.903187 98.5724 1.38188 98.0548C2.22517 97.1419 2.44503 95.9702 2.44782 94.8347C2.48956 85.3331 2.46452 75.8287 2.48122 66.3271C2.484 65.2668 1.8912 64.507 1.37632 63.6887C0.950499 63.0152 0.463449 62.2805 0.84752 61.4956C1.23994 60.6913 2.12776 60.9084 2.84859 60.9084C9.19968 60.9001 15.5619 61.1088 21.9019 60.8388C26.8642 60.6273 32.0297 64.5042 32.9091 69.5528C33.3934 72.322 33.6606 75.0523 33.1095 77.8215C32.1298 82.7643 28.1166 86.6217 23.1571 87.4455C20.9166 87.8184 18.8042 87.3175 16.792 86.438C15.1417 85.7172 14.9858 84.1753 16.5833 83.4155C20.6606 81.4757 21.4093 77.969 21.3647 74.0281C21.3397 71.7153 21.3118 69.3802 20.2988 67.2122C19.4137 65.3169 18.0305 64.5961 16.177 65.0024C14.8383 65.2946 14.2344 66.0878 14.2399 67.4571C14.2622 72.0938 14.2483 76.7277 14.2483 81.3644Z" fill="black"/>
<path d="M58.3154 96.9777C61.8555 97.1642 64.7361 98.5057 67.5415 100.067C70.1715 101.531 72.8294 102.747 75.9771 101.74C76.8343 101.464 77.3325 102.191 76.9846 103.126C76.6701 103.963 76.055 104.623 75.3843 105.196C71.6688 108.372 66.4811 108.411 62.8742 105.118C59.0529 101.628 54.7057 99.9028 49.4818 100.109C45.0399 100.284 40.5841 100.125 36.1339 100.12C35.5272 100.12 34.926 100.131 34.4 99.7553C33.5456 99.1458 33.5706 98.3164 34.2441 97.7514C35.8444 96.4044 35.8194 94.6705 35.7971 92.8336C35.7415 88.1997 35.7582 83.5658 35.7943 78.9319C35.8027 77.93 35.5912 77.1257 34.7562 76.5106C34.3109 76.1822 33.8601 75.7564 34.0298 75.1246C34.2107 74.4483 34.8147 74.2034 35.4353 74.1923C38.3075 74.1505 41.1797 74.1422 44.0519 74.1394C44.6753 74.1394 44.9592 74.5763 45.0315 75.119C45.1262 75.851 45.193 76.5941 45.1957 77.3316C45.2069 83.5408 45.1985 89.7499 45.2124 95.9591C45.2124 96.435 44.987 97.0779 45.5798 97.3256C46.1615 97.5705 46.6346 97.0807 47.066 96.769C47.3527 96.563 47.5391 96.2068 47.7395 95.8979C51.2908 90.4735 54.8421 85.0465 58.3822 79.6138C58.6215 79.2492 59.1281 78.9013 58.8692 78.4059C58.6104 77.9133 58.0371 78.1137 57.5974 78.1137C54.1769 78.1137 52.2398 79.4301 50.9958 82.575C50.8594 82.9201 50.7425 83.2708 50.6034 83.6132C50.3362 84.2644 49.799 84.5288 49.1533 84.4175C48.5578 84.3145 48.1514 83.8636 48.1431 83.2486C48.1125 80.6575 47.9176 78.0608 48.3435 75.4808C48.5049 74.5068 49.2118 74.2145 50.0495 74.1811C51.4383 74.1255 52.8299 74.1227 54.2186 74.1199C59.0863 74.1143 63.9512 74.1143 68.8189 74.1199C70.9842 74.1227 71.7273 75.4113 70.5806 77.2927C68.5545 80.6157 66.47 83.8998 64.4104 87.2034C62.4261 90.3789 60.4473 93.5572 58.3154 96.9777Z" fill="black"/>
<path d="M197.639 87.5067C197.639 90.4735 197.67 93.4375 197.623 96.4015C197.606 97.4341 197.77 98.308 198.616 98.9982C199.092 99.3878 199.451 99.9027 199.212 100.579C198.95 101.314 198.31 101.255 197.7 101.255C195.66 101.25 193.62 101.239 191.583 101.261C190.94 101.269 190.272 101.202 190.019 100.598C189.59 99.5687 189.067 99.7608 188.246 100.12C184.812 101.614 181.269 101.881 177.676 100.738C174.606 99.758 172.992 97.5036 172.992 94.3142C172.989 89.402 172.975 84.4925 173.006 79.5803C173.011 78.6897 172.894 77.9411 172.104 77.4011C171.748 77.159 171.481 76.7916 171.659 76.3296C171.837 75.8648 172.296 75.8287 172.714 75.8259C175.449 75.8147 178.182 75.7925 180.918 75.8287C182.134 75.8454 182.26 76.8 182.268 77.7101C182.29 80.9997 182.279 84.2894 182.282 87.579C182.282 89.3853 182.271 91.1943 182.285 93.0005C182.299 94.7929 183.579 96.2791 185.14 96.3403C186.888 96.4099 188.519 95.01 188.547 93.1815C188.614 88.503 188.569 83.8218 188.58 79.1434C188.583 78.3391 187.982 77.9299 187.539 77.4123C187.258 77.0811 187.008 76.7304 187.183 76.2879C187.375 75.8036 187.837 75.8454 188.255 75.8454C190.851 75.8454 193.445 75.8621 196.042 75.837C197.414 75.8231 197.634 76.7165 197.639 77.7741C197.648 81.022 197.636 84.2643 197.639 87.5067Z" fill="black"/>
<path d="M82.2315 97.2028C86.6455 96.905 89.8628 99.2233 93.2777 101.052C95.2621 102.115 97.3049 102.975 99.6121 101.859C100.018 101.661 100.647 101.522 101.004 102.059C101.377 102.613 101.057 103.12 100.753 103.598C98.1844 107.64 90.8202 109.056 87.2773 105.516C84.5749 102.816 81.4216 100.854 77.5447 100.264C76.0641 100.039 74.5863 100.17 73.1056 100.164C72.1872 100.158 71.1073 100.342 70.6036 99.3764C70.1221 98.4552 70.7511 97.5757 71.2409 96.8132C73.2865 93.6153 75.3739 90.4398 77.4529 87.2643C79.1283 84.7093 80.8204 82.1656 82.4959 79.6079C82.7185 79.2683 83.1388 78.9065 82.9468 78.5057C82.7185 78.0243 82.1341 78.1579 81.686 78.1384C78.3769 77.9964 76.1365 79.5077 74.9926 82.6331C74.8506 83.0228 74.7421 83.4374 74.5389 83.7937C74.2328 84.3308 73.7207 84.5618 73.1223 84.3921C72.5991 84.2446 72.2289 83.8883 72.2289 83.2927C72.2234 80.7907 72.1733 78.2887 72.2512 75.7894C72.2902 74.5927 73.2364 74.1836 74.2968 74.1446C75.6856 74.0945 77.0771 74.1195 78.4659 74.1195C83.239 74.1168 88.012 74.1195 92.7851 74.1195C93.5727 74.1195 94.4132 74.0166 94.8724 74.871C95.34 75.7449 95.0756 76.5464 94.5774 77.3396C90.7924 83.379 87.0185 89.4267 83.2446 95.4745C82.9551 95.9337 82.6935 96.4124 82.2315 97.2028Z" fill="black"/>
<path d="M200.678 88.1247C200.678 85.7173 200.645 83.3099 200.695 80.9025C200.714 80.0063 200.483 79.4608 199.601 79.0823C198.084 78.4311 197.845 77.148 199.164 76.096C202.056 73.7888 205.048 71.6041 208.042 69.4304C208.916 68.7959 209.768 69.2746 209.871 70.4157C209.982 71.6597 210.044 72.9149 209.996 74.1618C209.954 75.2889 210.483 75.6507 211.491 75.6201C211.908 75.6062 212.326 75.6312 212.74 75.609C213.756 75.5561 214.494 75.8316 214.499 77.0256C214.505 78.1388 214.079 78.8764 212.874 79.0573C211.983 79.1909 210.845 78.5841 210.247 79.4413C209.696 80.229 210.057 81.3311 210.055 82.2913C210.041 86.3185 210.057 90.3456 210.077 94.3756C210.085 96.0872 210.728 96.5937 212.406 96.2486C213.564 96.0121 213.851 96.3293 213.5 97.4704C212.571 100.496 210.108 101.904 206.359 101.548C203.203 101.247 200.959 99.2238 200.767 96.1846C200.6 93.51 200.731 90.8188 200.731 88.133C200.717 88.1247 200.698 88.1247 200.678 88.1247Z" fill="black"/>
<path d="M40.3365 73.1456C38.6388 73.1762 37.1999 72.7532 35.9809 71.7318C33.9464 70.0229 33.9381 67.3511 35.9364 65.6061C38.1712 63.6551 42.2735 63.619 44.5446 65.5254C46.7265 67.3595 46.6653 70.2011 44.3832 71.9182C43.1558 72.8395 41.7531 73.2319 40.3365 73.1456Z" fill="black"/>
<path fill-rule="evenodd" clip-rule="evenodd" d="M116.439 87.8886C116.441 87.2436 116.443 86.5987 116.443 85.9537C116.443 83.961 116.443 81.971 116.446 79.9811C116.446 77.1284 115.249 75.3611 112.472 74.5568C108.489 73.4046 104.445 73.2376 100.407 74.3119C98.3697 74.8518 96.6525 75.8704 95.6311 77.8186C94.7906 79.4245 94.8574 80.9858 95.8259 81.946C96.9392 83.0509 98.7621 83.1622 100.332 82.2577C101.222 81.7428 101.523 80.8745 101.79 79.9839C102.196 78.6229 103.076 77.7129 104.437 77.3984C105.425 77.1702 106.558 77.0032 107.189 78.0858C107.807 79.1462 107.863 80.2873 107.07 81.3476C106.168 82.5527 104.921 83.2402 103.507 83.6242C102.572 83.8784 101.624 84.0858 100.676 84.2932C100.358 84.3628 100.04 84.4323 99.7223 84.5037C97.8632 84.9239 96.2629 85.7923 94.9631 87.1978C90.9276 91.5673 92.7394 98.7116 98.25 100.064C101.476 100.857 104.526 100.362 107.262 98.4694C108.105 97.885 108.534 97.885 109.305 98.6197C111.921 101.119 116.374 100.599 118.467 97.6289C118.859 97.0695 119.371 96.2429 118.403 95.9089C116.649 95.305 116.471 93.9608 116.452 92.4829C116.43 90.9515 116.435 89.42 116.439 87.8886ZM107.318 92.956C107.688 91.7843 107.621 90.5792 107.546 89.3797C107.546 89.1576 107.547 88.9356 107.547 88.7138C107.549 88.1965 107.551 87.6797 107.543 87.1616C107.542 87.1281 107.543 87.0944 107.543 87.0609C107.545 86.7883 107.547 86.5298 107.081 86.5075C104.348 86.3823 101.373 89.7499 101.793 92.5274C102.03 94.0888 102.99 95.1547 104.284 95.2939C105.612 95.4358 106.828 94.5007 107.318 92.956Z" fill="black"/>
</svg>
