<svg width="367" height="106" viewBox="0 0 367 106" fill="none" xmlns="http://www.w3.org/2000/svg">
<path opacity="0.1" d="M14.8866 104.744C14.8866 104.744 -4.41836 68.4833 14.8866 34.2531C34.193 0.0228562 73.2148 7.38845 93.7514 17.3545C114.289 27.3205 141.81 -2.57755 186.992 0.888775C232.174 4.35509 230.943 25.153 274.894 19.5206C318.844 13.8881 351.294 17.2502 362.385 46.9832C373.475 76.7149 355.812 104.744 355.812 104.744H14.8866Z" fill="#318482"/>
<g opacity="0.5">
<path opacity="0.5" d="M121.624 57.5959C121.624 57.5959 120.089 44.7351 113.498 37.0593C112.623 36.039 110.947 36.6884 110.974 38.0322C110.974 38.0546 110.976 38.0771 110.977 38.1008C111.063 40.395 118.44 50.0732 121.624 57.5959Z" fill="#67C081"/>
<path opacity="0.5" d="M122.426 61.2775C122.426 61.2775 115.859 45.2025 104.641 38.093C103.958 37.66 103.031 37.8171 102.573 38.4837C102.275 38.918 102.14 39.5978 102.475 40.6578C103.369 43.4852 115.879 53.0024 122.426 61.2775Z" fill="#67C081"/>
</g>
<g opacity="0.5">
<path opacity="0.5" d="M48.8125 97.3067C48.8125 97.3067 39.5039 88.3003 29.5484 86.5064C28.2258 86.2675 27.3348 87.8304 28.2047 88.8547C28.2192 88.8719 28.2337 88.889 28.2496 88.9062C29.7636 90.6314 41.5948 93.4813 48.8125 97.3067Z" fill="#67C081"/>
<path opacity="0.5" d="M51.7577 99.6576C51.7577 99.6576 36.5183 91.3337 23.3302 92.8992C22.5263 92.9942 21.9072 93.7017 21.9719 94.5083C22.0142 95.0336 22.3389 95.6448 23.2682 96.256C25.7458 97.8848 41.4564 97.3713 51.7577 99.6576Z" fill="#67C081"/>
</g>
<path opacity="0.5" d="M56.9642 51.8528C56.9642 51.8528 56.4164 64.8429 54.0061 64.5921C51.5958 64.3413 55.66 50.1606 55.66 50.1606C55.66 50.1606 45.3852 41.9106 40.7427 41.2955C40.7427 41.2955 45.0948 55.1145 42.8204 54.2777C40.546 53.4408 35.3479 39.2706 35.3479 39.2706C35.3479 39.2706 23.9972 34.3193 20.4622 40.9061C16.926 47.4929 19.1858 51.7208 20.8411 52.5683C22.4964 53.4157 33.8048 55.8881 33.1725 57.2833C32.5402 58.6799 24.3813 59.2541 20.4411 56.9507C20.4411 56.9507 22.4409 69.6068 28.7268 70.449C35.0126 71.2911 37.8004 67.9265 41.676 68.5178C45.5515 69.1092 48.0951 70.7803 45.9541 71.3637C43.813 71.9472 37.5298 69.7613 33.8484 71.6607C30.1669 73.5602 27.3025 74.5938 32.7422 77.0912C38.1806 79.5887 48.6007 81.2373 51.671 77.3196C51.8043 77.1493 51.9324 76.9856 52.0551 76.8299C51.8466 77.1638 51.671 77.3196 51.671 77.3196C52.5818 78.1789 53.4807 81.4763 54.0549 83.979C54.1222 84.3974 54.2463 84.9848 54.447 85.7887C54.5209 86.1477 54.5776 86.4421 54.6172 86.6467C55.4607 92.1511 52.3746 100.6 52.3746 100.6L53.519 101.212C58.2578 93.0738 55.1888 84.771 55.1888 84.771C53.4398 78.3465 54.7426 73.4018 54.7426 73.4018C54.7426 73.4018 67.1533 69.8022 63.9655 60.2652C63.9602 60.2678 61.0509 54.1905 56.9642 51.8528Z" fill="#67C081"/>
<path opacity="0.5" d="M279.224 41.5423C277.1 33.7636 263.97 36.2227 263.97 36.2227C263.97 36.2227 255.08 49.8623 252.486 50.1923C249.892 50.5223 257.811 37.0464 257.811 37.0464C252.783 36.5699 239.986 42.7581 239.986 42.7581C239.986 42.7581 240.829 58.6482 238.234 58.3288C235.639 58.0093 238.205 44.2206 238.205 44.2206C233.344 45.6898 228.815 51.375 228.815 51.375C223.158 60.6295 235.334 67.4157 235.334 67.4157C235.334 67.4157 235.507 72.928 232.115 79.26C232.115 79.26 231.349 80.4295 230.572 82.4161L231.898 82.4135C232.006 82.0571 232.124 81.7139 232.256 81.3839C232.256 81.3813 232.257 81.3799 232.259 81.3786C232.26 81.3733 232.263 81.3694 232.264 81.3641C232.355 81.1595 232.484 80.8678 232.647 80.5114C232.647 80.5114 232.647 80.5101 232.648 80.5101C232.648 80.5088 232.649 80.5088 232.649 80.5088C233.053 79.7141 233.325 79.128 233.498 78.7043C233.498 78.703 233.499 78.7017 233.499 78.7004C234.708 76.2082 236.451 72.9597 237.615 72.2772C237.615 72.2772 237.469 72.0713 237.33 71.67C237.421 71.8641 237.516 72.066 237.615 72.2772C239.895 77.1375 251.248 77.9255 257.57 76.6147C263.891 75.304 261.131 73.5259 257.72 70.6378C254.309 67.7496 247.176 68.5271 245.065 67.3972C242.955 66.266 246.034 65.1255 250.25 65.4409C254.468 65.7564 256.584 69.9685 263.396 70.6035C270.209 71.2384 275.371 58.4172 275.371 58.4172C270.672 59.8864 262.234 57.3084 261.907 55.6888C261.58 54.0678 274.066 54.2038 276.011 53.7141C277.952 53.2204 281.349 49.3211 279.224 41.5423Z" fill="#67C081"/>
<path d="M75.9816 65.7524C77.5682 65.5953 79.4506 65.3168 80.2003 64.8548C81.3421 64.1579 83.3195 61.2301 84.5392 59.0943C84.5735 59.0415 84.6527 57.9605 84.6791 57.9077C85.3153 56.7751 85.6044 57.4721 85.6387 56.5745C85.6651 56.0253 85.6044 55.5541 85.4909 55.1449C85.343 54.605 85.0988 54.1773 84.8454 53.8552C84.8111 53.8024 84.7754 53.751 84.724 53.7074C84.3055 53.2111 83.8963 53.0012 83.8963 53.0012C83.6878 52.9141 83.4607 53.0184 83.2258 53.2718V53.281C83.0344 53.4817 82.8245 53.7866 82.6238 54.1694C82.6146 54.1786 82.6067 54.1866 82.6067 54.1958C82.5631 54.2737 82.5196 54.3608 82.4668 54.4572C82.4496 54.4743 82.4404 54.5007 82.4324 54.5179C82.3361 54.7185 82.241 54.9271 82.1447 55.1449C81.0728 57.4813 80.265 61.3436 79.3159 62.3983C78.9067 62.8511 76.697 63.4173 75.2068 64.08C74.1336 64.5499 74.9269 65.8659 75.9816 65.7524Z" fill="#FFB27D"/>
<path d="M83.1469 53.2128C82.735 53.5692 82.2677 54.7467 82.1357 55.1427C82.1357 55.1427 83.2762 55.0991 83.7369 55.9756C83.7369 55.9756 83.7395 52.6967 83.1469 53.2128Z" fill="#2B478B"/>
<path d="M42.6032 104.657L29.291 55.8418L40.9268 55.0327L45.2379 78.9247C45.7211 81.5396 46.1105 83.7308 46.4061 85.497C46.7018 87.2644 46.9513 88.8405 47.1546 90.2252C47.1612 88.1581 47.2008 86.1636 47.2707 84.2416C47.3407 82.321 47.4555 80.4717 47.6113 78.695L49.6375 54.4268L61.2733 53.6176L66.5097 77.3486C66.7262 78.3029 67.1499 80.5126 67.7783 83.979C68.1558 85.9986 68.4607 87.5931 68.693 88.76C68.7207 85.7649 68.7564 83.4153 68.7999 81.7112C68.8435 80.0071 68.8897 78.5828 68.9385 77.4383L69.8876 53.0183L81.5564 52.2065L75.1967 102.39L62.6923 103.26L58.5673 82.9731C58.2056 81.1898 57.8651 79.3127 57.5456 77.3433C57.2249 75.3739 56.916 73.3332 56.619 71.2225C56.6177 73.6777 56.5926 75.8649 56.5424 77.7842C56.4923 79.7048 56.4197 81.5066 56.322 83.1935L55.1709 103.783L42.6032 104.657Z" fill="#47B4B4"/>
<path d="M86.5671 40.7201C86.5724 40.563 86.6938 38.8721 89.2704 38.7837C89.2704 38.7837 88.0032 38.9342 87.7854 39.4912C87.7854 39.4912 88.6474 38.8035 89.351 39.0239C90.0532 39.2457 90.4664 40.4759 90.4703 40.8812C90.4743 41.2864 90.0836 42.5906 89.6387 42.7015C89.4698 42.7437 89.2757 42.7318 89.0988 42.7015C89.2176 42.8863 89.3338 43.0908 89.4447 43.3192C90.473 45.4299 89.413 47.4917 88.5418 47.2634C87.9834 47.1168 87.8264 48.0699 87.8264 48.0699L82.4038 43.6796C82.4025 43.6809 84.3944 39.5598 86.5671 40.7201Z" fill="#2C3A64"/>
<path d="M84.6782 102.884L85.8306 103.313C85.8306 103.313 90.8334 96.375 91.4485 90.27C91.5581 89.1796 91.5224 88.1236 91.2835 87.1495C91.2835 87.1495 91.3323 86.8696 91.4181 86.376C91.4577 86.145 91.5066 85.8678 91.562 85.551C91.7244 84.619 91.9488 83.3439 92.2049 81.8919C92.7936 78.551 93.5565 74.2795 94.1479 71.1405L93.8377 71.0415L90.4796 69.9578L89.7853 67.7534L87.2852 67.0947C87.2852 67.0947 86.7269 68.1877 86.2279 73.3489C86.1355 74.026 86.0523 74.7719 85.989 75.5823C85.7949 78.0534 85.7804 81.1184 86.2266 84.623C86.3414 85.5193 86.4866 86.4459 86.6661 87.3976C86.7981 88.0959 86.8179 89.0463 86.7625 90.138C86.5104 95.1289 84.6782 102.884 84.6782 102.884Z" fill="#FFB265"/>
<path d="M85.9902 75.5824L91.4194 86.3761C91.459 86.1451 91.5078 85.8679 91.5633 85.5511C91.7256 84.6191 91.95 83.344 92.2061 81.892C92.7948 78.5511 93.5578 74.2796 94.1492 71.1406L93.839 71.0416L90.4809 69.9579L89.7866 67.7535L86.3664 66.8533C86.3664 66.8533 85.9902 73.5232 85.9902 75.5824Z" fill="#C6884F"/>
<path d="M88.377 68.4809L88.5024 67.4025C90.6091 67.9622 96.2349 65.8396 96.2349 65.8396C96.2349 65.8396 98.2743 67.6322 98.0064 71.9314C97.8757 74.0289 97.6368 82.9442 97.3873 85.5828C97.2975 86.5385 97.2183 87.2196 97.1853 87.4916C97.1853 87.4929 97.1853 87.4942 97.1853 87.4942C97.1761 87.5774 97.2038 87.6552 97.246 87.7278C97.613 88.3509 97.9179 89.0003 98.1661 89.6643C100.613 96.1877 97.7886 104.22 97.7886 104.22L97.056 103.924C97.056 103.924 95.4482 94.9839 94.1427 91.0344C93.921 90.3639 93.7084 89.8385 93.5131 89.523C92.9455 88.607 92.4188 87.1088 91.9396 85.3281C91.0354 81.9608 90.3081 77.5797 89.8237 74.1978C89.759 74.2005 88.377 68.4809 88.377 68.4809Z" fill="#FFB265"/>
<path d="M84.3555 55.4077C85.0168 55.714 85.8154 55.9225 86.7803 55.9753C90.4011 56.1733 91.2221 53.0001 91.3713 50.8933C90.8499 50.7046 90.3918 50.7217 90.1291 50.7363C90.0315 50.7415 89.9311 50.7481 89.8335 50.7574C89.4744 50.7877 89.1233 50.6346 88.9015 50.3508C88.4884 49.8215 88.0053 48.879 87.6858 47.5696L87.5301 47.6422L84.9178 48.8698C84.9178 48.8698 85.195 49.7199 85.3996 50.533C85.488 50.8841 85.562 51.2299 85.595 51.4966C85.6266 51.75 85.4828 51.9916 85.2491 52.0919C85.2491 52.0919 85.2491 52.0932 85.2478 52.0945C85.2227 52.1632 84.6538 53.6099 84.3555 55.4077Z" fill="#FFB27D"/>
<path d="M83.4502 57.7826C83.478 57.8552 83.507 57.9251 83.54 57.9977C84.4574 59.9725 86.1536 68.1525 86.1536 68.1525C86.675 69.7339 97.206 67.8634 97.235 66.5249C97.6323 65.1046 95.8239 62.8237 94.8036 61.6792C94.6755 61.5353 94.5607 61.3809 94.4617 61.2185C94.2096 60.8107 94.0498 60.35 93.9997 59.8682C93.799 57.97 93.8756 56.1907 93.8584 55.1096C93.6591 54.9617 93.4664 54.8258 93.2869 54.6964C93.0123 54.4958 92.7694 54.3097 92.5912 54.1196C92.3946 53.9123 92.2718 53.7011 92.2573 53.4622C92.2467 53.2814 92.252 53.0966 92.2718 52.9118C92.2797 52.8247 92.2916 52.7362 92.3048 52.6491C92.446 51.7304 92.8302 50.8975 92.8302 50.8975C91.8586 50.5041 90.1321 50.7391 90.1321 50.7391C90.1321 50.7391 90.1334 50.8354 90.1347 50.9925C90.14 51.6235 89.6199 52.8379 89.018 53.7421C88.3712 54.7123 86.077 55.5043 85.3326 54.0496C85.0765 53.548 85.2256 52.1897 85.2507 52.1C85.252 52.0987 85.252 52.0973 85.252 52.0973C83.7023 52.7059 83.1479 53.2167 83.1479 53.2167C84.0799 53.8186 82.7282 55.8673 83.4502 57.7826Z" fill="#2B478B"/>
<path d="M84.918 48.8712C84.918 48.8712 85.1952 49.7199 85.3998 50.5343C86.927 50.108 87.3903 48.5029 87.5302 47.6436L84.918 48.8712Z" fill="#ED985F"/>
<path d="M84.5962 49.77C84.5962 49.77 88.2486 48.9252 87.6876 46.6574C87.1266 44.391 87.219 42.7555 84.8628 43.199C82.5066 43.6426 82.269 44.6194 82.273 45.4219C82.277 46.2245 83.6313 49.9311 84.5962 49.77Z" fill="#FFB27D"/>
<path d="M82.0683 44.135C82.4617 43.3139 82.9237 43.3575 83.2127 43.5027C84.9287 41.9147 86.6131 43.2123 86.6131 43.2123C87.2612 44.7778 88.6657 45.418 88.6657 45.418C88.6657 45.418 88.1047 45.9922 86.4784 45.9803C85.9821 45.9764 85.4818 45.748 85.0277 45.4338C85.9042 46.3169 86.9325 46.8542 86.9325 46.8542C84.8971 46.4648 83.5309 44.1073 83.3909 43.8565C83.218 44.1112 82.888 44.6537 82.8603 45.1118C82.822 45.7335 83.0372 46.9426 82.6808 46.9875C82.6795 46.9875 81.4796 45.3678 82.0683 44.135Z" fill="#2C3A64"/>
<path d="M93.5293 104.818H99.3307C99.3307 104.818 99.4693 103.934 99.167 103.263C98.8766 102.619 98.4225 102.327 98.5308 101.548C98.1625 101.928 97.5619 102.352 96.7224 102.24C96.6194 102.406 96.0597 103.299 95.7165 103.544C95.3364 103.817 93.6468 103.72 93.5293 104.818Z" fill="#304B77"/>
<path d="M81.0742 104.818H86.8756C86.8756 104.818 87.0921 103.893 86.7119 103.263C86.3753 102.706 86.5034 102.389 86.7542 101.927C86.4915 102.034 86.1509 102.133 85.7774 102.111C85.4883 102.094 85.1834 101.963 84.9141 101.807C84.6646 102.092 83.5954 103.303 83.2615 103.543C82.8813 103.817 81.1917 103.72 81.0742 104.818Z" fill="#304B77"/>
<path d="M94.0933 54.2129C94.0748 54.6578 93.989 55.1976 93.8583 55.7903C93.6484 56.783 93.2999 57.934 92.8643 59.1022C92.7429 59.415 92.6201 59.7384 92.4895 60.0605C91.5483 62.3969 90.3365 64.5749 89.3162 65.3168C89.2739 65.3511 89.2383 65.3775 89.1947 65.4052C88.7684 65.6758 88.1401 65.9451 87.4167 66.1972C86.3871 66.5457 85.1687 66.8585 84.0784 67.1212H84.0692C83.4329 67.2611 80.5355 67.867 80.5355 67.867L80.3032 66.9668C80.3032 66.9668 85.6651 63.8437 86.5877 63.1718C87.121 62.7877 87.521 62.4471 87.6609 62.2042C87.8787 61.8293 88.1229 61.2353 88.3922 60.504C88.5321 60.1199 88.6786 59.7028 88.8278 59.258C89.0891 58.5267 89.3505 57.732 89.6198 56.94C90.1082 55.4933 90.6309 54.0374 91.1285 52.9127C91.1285 52.9114 91.1299 52.9101 91.1299 52.9101C91.213 52.7266 91.4137 52.6263 91.6103 52.6685L94.0708 53.1846C94.088 53.3642 94.0985 53.5582 94.0999 53.7681C94.1104 53.908 94.1012 54.0545 94.0933 54.2129Z" fill="#FFB27D"/>
<path d="M90.1406 54.1431C92.2526 53.1571 94.1046 53.7656 94.1046 53.7656C94.0835 51.2417 92.8268 50.8972 92.8268 50.8972C92.3226 50.6873 90.1327 50.9896 90.1406 54.1431Z" fill="#2B478B"/>
<path d="M80.8632 66.6409C80.8632 66.6409 79.3888 67.2164 79.1023 67.4395C78.8172 67.6639 78.2681 68.3938 78.1704 68.7806C78.1704 68.7806 78.1757 68.939 78.3222 68.939C78.4687 68.939 78.8 68.374 79.0416 68.4638C79.0416 68.4638 79.2607 69.0657 79.2607 69.4432C79.2607 69.7006 79.1129 70.6629 79.1498 70.8702C79.1868 71.0774 80.1174 70.2233 80.3048 69.562C80.4553 69.0287 80.3748 68.7054 80.4606 68.0506C80.5358 67.4764 82.1198 67.1451 82.1198 67.1451L80.8632 66.6409Z" fill="#FFB27D"/>
<path d="M103.446 104.679V55.0588H130.448V64.6935H114.982V73.8121H129.256V83.7688H114.982V94.5955H130.448V104.68H103.446V104.679Z" fill="#47B4B4"/>
<path d="M161.892 104.679H136.341V55.0588H147.941V94.6588H161.893V104.679H161.892Z" fill="#47B4B4"/>
<path d="M186.7 84.2839H198.107C198.128 84.5848 198.144 84.9069 198.155 85.2501C198.166 85.5946 198.171 86.1094 198.171 86.7971C198.171 92.8546 196.845 97.3492 194.191 100.282C191.538 103.214 187.474 104.681 181.996 104.681C178.774 104.681 176.014 104.143 173.716 103.069C171.416 101.994 169.559 100.373 168.141 98.2033C167.153 96.6562 166.444 94.5086 166.015 91.759C165.584 89.0095 165.371 84.6495 165.371 78.6778C165.371 72.7061 165.584 68.3462 166.015 65.5953C166.444 62.8457 167.153 60.6981 168.141 59.1511C169.538 57.0034 171.374 55.3864 173.651 54.3014C175.928 53.2163 178.646 52.6738 181.803 52.6738C187.238 52.6738 191.314 54.1826 194.032 57.2014C196.748 60.219 198.108 64.736 198.108 70.7499V71.233L186.83 71.2013C186.786 67.8287 186.4 65.4607 185.67 64.0971C184.94 62.7336 183.715 62.0511 181.996 62.0511C180.127 62.0511 178.849 62.884 178.161 64.5485C177.474 66.2131 177.13 70.6113 177.13 77.7433V78.6778C177.13 86.347 177.474 91.0462 178.161 92.7741C178.849 94.5033 180.127 95.3679 181.996 95.3679C183.736 95.3679 184.955 94.7396 185.654 93.483C186.352 92.2263 186.7 89.8899 186.7 86.4751V84.2839Z" fill="#47B4B4"/>
<path d="M203.835 78.6765C203.835 72.7048 204.049 68.3449 204.48 65.594C204.909 62.8444 205.617 60.6968 206.606 59.1497C208.024 56.9585 209.882 55.3323 212.18 54.2684C214.479 53.2058 217.239 52.6738 220.461 52.6738C223.704 52.6738 226.459 53.2058 228.725 54.2684C230.992 55.3323 232.833 56.9585 234.251 59.1497C235.282 60.7179 236.012 62.8774 236.442 65.627C236.871 68.3765 237.086 72.7273 237.086 78.6765C237.086 84.6046 236.871 88.9501 236.442 91.7102C236.012 94.4703 235.282 96.6351 234.251 98.2033C232.854 100.373 231.013 101.994 228.725 103.069C226.438 104.142 223.683 104.681 220.461 104.681C217.239 104.681 214.479 104.143 212.18 103.069C209.881 101.994 208.024 100.373 206.606 98.2033C205.617 96.6562 204.909 94.5086 204.48 91.759C204.049 89.0095 203.835 84.6495 203.835 78.6765ZM225.23 83.1553V74.1977C225.23 68.6986 224.88 65.2996 224.183 63.9994C223.485 62.7006 222.223 62.0498 220.397 62.0498C218.614 62.0498 217.38 62.7164 216.692 64.047C216.005 65.3788 215.661 68.762 215.661 74.1964V83.154C215.661 88.5237 216.005 91.891 216.692 93.2546C217.38 94.6195 218.637 95.3006 220.462 95.3006C222.267 95.3006 223.511 94.6353 224.199 93.3034C224.887 91.9742 225.23 88.591 225.23 83.1553Z" fill="#47B4B4"/>
<path d="M243.817 104.679V55.0587H260.057L264.471 76.1629C264.493 76.2711 264.669 77.5964 265.003 80.1427C265.336 82.6876 265.684 85.2392 266.05 87.7947C266.329 85.8833 266.678 83.5153 267.097 80.6905C267.515 77.8657 267.757 76.3028 267.822 76.0018L272.204 55.0574H288.283V104.678H277.328L278.327 66.3341L270.466 104.678H261.637L253.775 66.3341L254.775 104.678H243.817V104.679Z" fill="#47B4B4"/>
<path d="M33.9463 27.6454C33.9463 27.6454 36.2563 22.1357 41.7792 22.7482C41.7792 22.7482 49.7982 13.565 58.3505 21.5232C58.3505 21.5232 67.4413 19.5512 74.1733 23.2313C78.6613 25.6839 80.1437 28.2579 80.1437 28.2579L33.9463 27.6454Z" fill="#F8FCFF"/>
<path d="M122.663 31.5694C122.663 31.5694 125.717 26.2749 133.019 26.8636C133.019 26.8636 143.622 18.0394 154.929 25.6875C154.929 25.6875 166.947 23.792 175.848 27.3283C181.783 29.6858 183.743 32.1582 183.743 32.1582L122.663 31.5694Z" fill="#F8FCFF"/>
<path d="M174.623 19.2896C174.623 19.2896 176.789 15.2794 181.967 15.7243C181.967 15.7243 189.486 9.0398 197.503 14.8333C197.503 14.8333 206.027 13.3984 212.338 16.0754C216.546 17.8614 217.936 19.7344 217.936 19.7344L174.623 19.2896Z" fill="#F8FCFF"/>
<path d="M288.282 38.1536C288.282 38.1536 289.845 35.2588 293.583 35.5809C293.583 35.5809 299.011 30.7563 304.798 34.938C304.798 34.938 310.951 33.9018 315.506 35.8356C318.543 37.1253 319.546 38.477 319.546 38.477L288.282 38.1536Z" fill="#F8FCFF"/>
<path d="M333.574 58.7319C332.82 60.1298 331.88 61.5435 330.918 62.6919V62.6932C329.909 63.8971 328.877 64.8118 328.007 65.122L328.001 65.1247C327.956 65.1405 327.911 65.155 327.866 65.1669C327.863 65.1682 327.862 65.1682 327.859 65.1682C327.858 65.1682 327.858 65.1682 327.858 65.1682C327.681 65.2184 327.512 65.2408 327.352 65.2329C324.495 65.1049 321.482 58.9735 321.482 58.9735C321.482 58.9735 321.56 58.2462 322.116 57.7327C322.6 57.2852 322.974 57.1677 322.974 57.1677C322.974 57.1677 326.052 60.3291 326.805 60.5562C327.277 60.6987 327.899 58.4917 328.79 55.7197C329.682 52.9477 332.812 52.2639 332.812 52.2639C332.812 52.2639 335.98 54.2703 333.574 58.7319Z" fill="#739AF0"/>
<path d="M330.918 62.6934C329.909 63.8972 328.877 64.812 328.007 65.1222L328 65.1248L327.866 65.1671L327.858 65.1697C327.858 65.1697 327.858 65.1697 327.859 65.1697C327.891 65.1486 328.823 64.6655 328.969 63.7679C329.118 62.8505 328.148 62.1007 330.586 60.683C332.005 59.8554 330.918 62.6934 330.918 62.6934Z" fill="#6385DB"/>
<path d="M328.687 104.743H335.386C335.866 104.417 335.257 101.236 335.257 101.236C335.257 101.236 333.428 100.543 333.113 101.953C332.796 103.362 330.785 103.811 329.719 103.983C328.989 104.101 328.76 104.501 328.687 104.743Z" fill="#24406D"/>
<path d="M338.901 71.7591C338.901 71.7591 338.69 75.6676 338.426 80.1952C338.236 83.4424 338.02 87.0077 337.833 89.6794C337.808 90.0345 337.785 90.3724 337.761 90.6932C337.754 90.7922 337.746 90.8912 337.74 90.9889C337.259 96.9777 335.657 102.225 335.657 102.225C333.773 102.622 332.923 101.896 332.923 101.896C332.923 101.896 331.625 86.687 331.145 80.5529C330.791 76.0372 330.49 69.4636 330.49 69.4636L338.901 71.7591Z" fill="#FFB265"/>
<path d="M338.426 80.1952C338.236 83.4424 338.019 87.0077 337.833 89.6794C336.602 86.7754 334.087 75.4551 334.087 75.4551L338.426 80.1952Z" fill="#C6884F"/>
<path d="M338.622 104.743H345.321C345.801 104.417 345.191 101.236 345.191 101.236C345.191 101.236 343.363 100.543 343.048 101.953C342.731 103.362 340.719 103.811 339.654 103.983C338.925 104.101 338.694 104.501 338.622 104.743Z" fill="#24406D"/>
<path d="M332.308 70.9817C332.308 70.9817 337.092 82.8895 338.622 87.4025C339.711 90.6181 342.784 101.896 342.784 101.896C342.784 101.896 344.119 102.303 345.243 101.517C345.243 101.517 346.386 89.9937 344.077 86.7452C342.852 85.0213 343.774 68.8249 338.806 68.6863C333.839 68.549 332.308 70.9817 332.308 70.9817Z" fill="#FFB265"/>
<path d="M342.104 67.1524C342.084 68.846 342.066 70.0894 342.07 70.4036C342.083 71.4279 341.428 71.6589 340.752 71.816C340.752 71.816 340.128 71.9507 339.341 72.084C338.57 72.2133 337.641 72.3414 336.984 72.3361C333.624 72.3097 330.814 71.321 330.814 71.321C330.182 71.321 329.894 70.3429 329.79 68.978C329.72 68.054 330.005 58.8417 330.041 56.541C330.066 54.891 330.971 53.3664 331.225 53.1433C333.57 51.0696 340.491 51.3309 341.737 52.7618C342.045 53.1156 342.134 56.5265 342.145 60.2634C342.152 62.6658 342.128 65.2068 342.104 67.1524Z" fill="#739AF0"/>
<path d="M337.948 51.9391C337.065 52.8961 334.097 52.7549 334.185 51.9193C334.197 51.8164 334.217 51.2039 334.226 51.1102C334.234 51.0336 334.241 50.9597 334.247 50.8897C334.267 50.6838 334.284 50.5016 334.297 50.3446C334.337 49.8865 334.35 49.6384 334.35 49.6384C334.35 49.6384 334.351 49.6384 334.353 49.6384C334.437 49.6146 336.346 49.0721 337.295 48.8477C337.613 48.7725 337.824 48.7328 337.822 48.7606C337.53 50.8897 338.237 51.625 337.948 51.9391Z" fill="#FFB27D"/>
<path d="M337.395 49.4746C337.395 49.4746 336.598 50.2838 334.297 50.3418C334.337 49.8838 334.35 49.6356 334.35 49.6356C334.35 49.6356 334.351 49.6356 334.353 49.6356C334.437 49.6119 336.346 49.0694 337.295 48.845C337.461 48.9136 337.24 49.3598 337.395 49.4746Z" fill="#ED975D"/>
<path d="M333.765 49.5222C333.765 49.5222 334.347 49.7308 335.091 49.8311C336.177 49.9776 337.605 49.8918 338.054 48.5771C338.81 46.3648 339.775 45.0382 337.551 44.1353C336.36 43.6522 335.599 43.6258 335.081 43.8106C334.631 43.9703 334.367 44.2884 334.167 44.6026C333.735 45.2798 332.866 49.1355 333.765 49.5222Z" fill="#FFB27D"/>
<path d="M334.335 42.8907C333.54 43.4121 333.8 44.6357 334.736 44.7994C335.297 44.8984 335.768 44.9182 336.04 45.0383C336.593 45.2838 337.069 45.5452 336.938 46.4032C336.893 46.6949 336.752 47.05 337.503 46.8744C337.626 46.8454 337.714 46.8546 337.776 46.8903C338.088 47.0751 337.689 47.9713 337.569 48.1654C337.569 48.1654 337.396 48.8069 337.78 49.1197C337.826 49.1567 338.58 49.4867 340.396 46.7068C340.682 46.2712 340.955 45.2878 340.514 44.3413C340.074 43.3949 338.845 42.199 336.533 42.199C335.928 42.2003 335.023 42.4392 334.335 42.8907Z" fill="#233862"/>
<path d="M333.749 48.0939C333.749 48.0939 333.703 48.3803 334.368 48.6087C334.368 48.6087 334.928 48.8001 335.03 48.5071C335.03 48.5071 334.585 48.0847 333.749 48.0939Z" fill="white"/>
<path d="M342.103 67.1527C341.765 68.7235 341.216 69.2673 340.908 68.6812C339.825 66.6286 339.838 65.7693 340.307 64.3133C340.777 62.8587 339.128 60.5817 340.307 59.6115C341.459 58.6637 342.115 60.1923 342.144 60.2596C342.151 62.666 342.127 65.207 342.103 67.1527Z" fill="#6385DB"/>
<path d="M342.053 66.9502C342.053 66.9502 341.257 68.2517 340.734 68.2068C340.211 68.1606 339.508 67.9666 339.101 68.3547C338.695 68.7428 338.039 69.7446 338.222 70.0099C338.406 70.2766 339.142 70.0403 339.671 69.7486C340.201 69.4569 341.034 69.8925 341.479 69.5611C341.922 69.2298 342.986 67.9125 342.986 67.9125L342.053 66.9502Z" fill="#FFB27D"/>
<path d="M341.737 52.7603C341.737 52.7603 348.344 58.9788 347.486 63.1143C347.096 64.9993 345.883 66.5899 342.649 69.1639C342.649 69.1639 341.119 68.1066 340.784 67.2486C340.784 67.2486 343.719 63.1143 343.606 62.4108C343.467 61.5488 341.463 59.388 340.744 59.0527C340.025 58.7174 340.091 53.481 341.737 52.7603Z" fill="#739AF0"/>
<path d="M340.733 68.2055C340.733 68.2055 340.036 67.9006 339.813 67.7699C339.59 67.6392 339.639 67.8504 339.708 67.956C339.776 68.0616 339.962 68.2979 340.236 68.323C340.51 68.3494 340.733 68.2055 340.733 68.2055Z" fill="#FFB27D"/>
<path d="M226.75 69.3993C228.328 69.0627 229.974 69.5392 231.141 70.6533C231.655 71.1444 232.22 71.7582 232.74 72.4828C234.027 74.2794 231.563 76.0574 231.89 76.6659C232.218 77.2745 232.977 77.7549 232.645 79.0261C232.313 80.2973 230.123 81.9459 229.409 82.0198C222.17 82.763 219.028 78.7727 221.448 76.6211C223.867 74.4695 222.88 71.349 224.846 70.1359C225.451 69.7623 226.118 69.5353 226.75 69.3993Z" fill="#233862"/>
<path d="M230.483 80.6514C230.483 80.6514 237.249 83.4973 238.487 83.4432C239.725 83.3891 247.35 81.12 247.35 81.12L247.156 82.432C247.156 82.432 241.271 85.8165 239.213 86.0079C237.188 86.1967 230.262 84.1903 229.593 83.7666C228.925 83.3442 228.54 81.0804 230.483 80.6514Z" fill="#EF9F6A"/>
<path d="M231.26 83.7715C230.661 84.1873 229.911 84.5292 228.969 84.747C225.436 85.5628 224.082 82.5769 223.574 80.5283C224.056 80.2524 224.508 80.1917 224.771 80.16C225.026 80.1296 225.295 80.1099 225.517 80.0993C225.913 79.7957 226.504 78.5523 226.635 76.6211L226.801 76.666L229.585 77.4276C229.585 77.4276 229.457 78.3133 229.395 79.1489C229.346 79.8036 229.339 80.4293 229.464 80.5824C229.681 80.6299 229.811 80.6603 229.811 80.6603C229.811 80.6603 229.811 80.6616 229.812 80.6629C229.85 80.7237 230.658 82.0529 231.26 83.7715Z" fill="#FFB27D"/>
<path d="M229.585 77.4277C229.585 77.4277 229.457 78.312 229.395 79.1489C227.818 78.9905 227.085 77.4897 226.8 76.666L229.585 77.4277Z" fill="#ED985F"/>
<path d="M230.057 78.2594C230.057 78.2594 226.314 78.0522 226.477 75.7237C226.642 73.3939 226.27 71.798 228.667 71.8323C231.064 71.8653 231.466 72.788 231.6 73.5787C231.735 74.368 231.035 78.2528 230.057 78.2594Z" fill="#FFB27D"/>
<path d="M231.581 72.2729C231.053 71.5311 230.606 71.6525 230.346 71.8466C228.382 70.5767 226.945 72.1436 226.945 72.1436C226.576 73.7975 225.301 74.6674 225.301 74.6674C225.301 74.6674 225.965 75.1981 227.553 74.8456C229.584 74.3955 230.282 72.6333 230.377 72.3627C230.591 72.5845 230.867 72.7244 231.078 73.2049C231.329 73.7751 231.488 74.1064 231.492 75.0436C231.493 75.0449 232.373 73.387 231.581 72.2729Z" fill="#233862"/>
<path d="M222.507 91.3842C222.169 89.6564 221.067 82.7501 222.169 80.5286C222.565 79.73 224.119 79.6587 225.823 79.7286C226.354 80.0705 228.375 81.3654 229.205 81.2031C229.214 81.2018 229.23 81.1978 229.251 81.1925C229.642 81.0949 229.79 80.8203 229.464 80.5827C229.464 80.5827 230.309 80.5008 231.357 80.6988C231.949 80.8097 233.547 81.6374 233.547 81.6374C233.547 81.6374 232.743 83.0907 231.556 83.5923C231.758 85.3967 231.458 86.1927 229.587 90.3586C228.005 93.8804 229.8 97.0523 229.8 97.0523C229.8 97.0523 220.49 104.538 220.439 100.726C220.398 97.8562 222.939 93.5939 222.507 91.3842Z" fill="#739AF0"/>
<path d="M230.26 105.19C230.767 105.133 231.222 104.856 231.505 104.432C231.549 104.365 231.597 104.292 231.648 104.216C232.708 102.612 233.12 97.6989 235.504 92.4651C236.085 91.1913 238.169 90.9617 238.737 89.5215C238.737 89.5215 240.136 84.8527 236.06 84.7154C231.984 84.5781 225.143 97.7055 225.037 99.0823C224.932 100.416 222.342 106.084 230.26 105.19Z" fill="#C6884F"/>
<path d="M246.46 105.083H240.659C240.659 105.083 240.443 104.158 240.823 103.528C241.159 102.971 241.031 102.654 240.78 102.192C241.043 102.301 241.384 102.398 241.757 102.376C242.046 102.359 242.351 102.228 242.621 102.072C242.87 102.357 243.939 103.569 244.273 103.808C244.653 104.083 246.344 103.985 246.46 105.083Z" fill="#1A2D4C"/>
<path d="M222.735 83.7672C222.735 83.7672 223.489 86.8415 229.407 88.0915C235.326 89.3416 230.758 85.1176 230.758 85.1176L224.55 83.457L222.735 83.7672Z" fill="#6385DB"/>
<path d="M238.871 86.0631C239.221 88.6819 240.585 96.9478 242.991 100.98C243.767 102.281 241.036 103.009 241.022 103.005C240.655 102.909 240.045 102.325 239.764 102.072C237.81 100.311 233.845 95.3255 233.845 91.3285C233.845 89.3802 233.81 85.6578 235.228 84.7114C236.101 84.1306 238.731 85.0229 238.871 86.0631Z" fill="#C6884F"/>
<path d="M234.904 89.5465C234.336 90.9879 232.737 90.811 232.158 92.0861C231.833 92.8016 231.527 93.5157 231.241 94.2232C231.21 94.2945 231.184 94.3631 231.157 94.4291C230.805 95.303 230.479 96.1623 230.177 96.9899C229.711 98.2611 229.301 99.4544 228.932 100.505C228.334 102.209 227.839 103.54 227.393 104.214C227.018 104.783 226.803 105.082 226.803 105.082C217.915 106.453 220.292 100.512 220.781 99.0795C221.226 97.7727 228.97 84.277 233.046 84.4156C237.12 84.5542 234.904 89.5465 234.904 89.5465Z" fill="#FFB265"/>
<path d="M242.202 105.083H236.4C236.4 105.083 236.184 104.158 236.564 103.528C236.901 102.971 236.772 102.654 236.522 102.192C236.784 102.301 237.125 102.398 237.498 102.376C237.788 102.359 238.092 102.228 238.362 102.072C238.611 102.357 239.68 103.569 240.014 103.808C240.395 104.083 242.085 103.985 242.202 105.083Z" fill="#233862"/>
<path d="M231.239 94.2232C231.209 94.2945 231.183 94.3631 231.156 94.4291C230.804 95.303 230.478 96.1623 230.175 96.9899C228.948 93.6464 229.585 90.3569 229.585 90.3569C230.47 90.9694 230.995 92.4887 231.239 94.2232Z" fill="#C6884F"/>
<path d="M235.485 85.8781C235.835 88.497 236.326 96.9489 238.732 100.982C239.508 102.282 236.777 103.01 236.763 103.006C236.397 102.91 235.786 102.327 235.505 102.073C233.551 100.312 229.586 95.3267 229.586 91.3297C229.586 89.3814 231.874 85.8147 233.29 84.8683C234.164 84.2862 235.346 84.8379 235.485 85.8781Z" fill="#FFB265"/>
<path d="M248.042 77.7474L242.101 77.1164C241.928 77.098 241.765 77.1983 241.702 77.362L239.577 82.9469C239.484 83.1911 239.659 83.4564 239.92 83.467L245.816 83.7045C245.975 83.7111 246.123 83.6174 246.185 83.4696L248.357 78.2767C248.454 78.0391 248.297 77.7738 248.042 77.7474Z" fill="#233862"/>
<path d="M248.559 77.8016L242.618 77.1706C242.445 77.1522 242.281 77.2525 242.219 77.4162L240.094 83.0011C240 83.2453 240.175 83.5106 240.437 83.5212L246.332 83.7588C246.492 83.7654 246.64 83.6716 246.702 83.5238L248.873 78.3309C248.971 78.0933 248.814 77.828 248.559 77.8016Z" fill="#2B478B"/>
<path d="M245.265 80.4087C245.337 80.2094 245.234 80.0483 245.035 80.0483C244.836 80.0483 244.615 80.2094 244.543 80.4087C244.47 80.608 244.573 80.7704 244.772 80.7704C244.972 80.7704 245.192 80.608 245.265 80.4087Z" fill="#EBF3FA"/>
<path d="M248.379 78.3278C248.415 78.2304 248.365 78.1514 248.266 78.1514C248.169 78.1514 248.061 78.2304 248.025 78.3278C247.99 78.4252 248.04 78.5042 248.137 78.5042C248.234 78.5042 248.344 78.4265 248.379 78.3278Z" fill="#EBF3FA"/>
<path d="M223.574 80.5283C223.574 80.5283 231.808 83.5604 233.045 83.4983C233.845 83.4587 240.491 81.1223 240.491 81.1223L241.088 82.2509C241.088 82.2509 234.619 86.4089 232.84 86.3878C229.329 86.3469 223.404 84.1913 222.736 83.7676C222.067 83.3439 221.631 80.9573 223.574 80.5283Z" fill="#FFB27D"/>
<path d="M240.491 81.1211C240.491 81.1211 241.087 80.2024 241.681 80.176C242.275 80.1496 243.302 80.5812 243.653 80.6485C244.005 80.7158 245.004 81.0406 244.707 81.5263C244.41 82.0121 243.032 82.1203 242.438 82.0121C241.844 81.9039 241.087 82.2497 241.087 82.2497L240.491 81.1211Z" fill="#FFB27D"/>
<path d="M241.521 80.2052C241.521 80.2052 242.466 79.7723 242.735 79.6904C243.006 79.6099 242.951 79.6917 242.87 79.9478C242.789 80.2039 242.302 80.4481 242.302 80.5286C242.303 80.6091 241.521 80.2052 241.521 80.2052Z" fill="#FFB27D"/>
<path d="M247.946 80.6352C247.946 80.6352 247.351 79.6927 247.155 79.6544C246.561 79.5369 246.561 80.3197 246.687 80.8239C246.821 81.3651 247.279 81.876 247.406 81.8324C247.533 81.7875 248.086 81.1328 247.946 80.6352Z" fill="#FFB27D"/>
<path d="M247.968 80.8237C247.968 80.8237 248.158 81.881 247.155 82.4328L247.452 81.7055L247.968 80.8237Z" fill="#FFB27D"/>
<path d="M230.758 76.9193C230.758 76.9193 230.404 76.7794 229.407 76.8599C229.407 76.8599 229.46 77.248 230.194 77.2863C230.611 77.3087 230.758 76.9193 230.758 76.9193Z" fill="white"/>
<path d="M227.815 82.0239C227.815 82.0239 227.078 84.355 224.549 84.8856C224.549 84.8856 220.373 83.5986 222.452 80.754C222.453 80.7527 224.51 79.2255 227.815 82.0239Z" fill="#739AF0"/>
<path d="M226.639 41.6941C226.639 41.6941 225.885 43.0933 224.52 43.6345C223.508 44.0358 222.098 43.6358 222.031 43.5962L221.954 45.3267C221.954 45.3267 224.259 45.4812 225.612 44.412C226.026 44.0846 226.536 43.2398 226.696 42.721C226.872 42.1495 226.639 41.6941 226.639 41.6941Z" fill="#6BB7BF"/>
<path d="M225.168 38.9313L226.682 37.1348C226.682 37.1348 228.494 41.2782 225.817 44.2166C225.817 44.2166 226.487 40.3912 225.168 38.9313Z" fill="#86D1CD"/>
<path d="M66.058 39.3964C66.058 39.3964 64.6152 38.3061 64.243 36.6786C63.9671 35.4708 64.6601 33.9541 64.7169 33.8854L62.7817 33.5C62.7817 33.5 62.2089 36.0661 63.1791 37.7715C63.4761 38.2942 64.338 39.0136 64.8924 39.2829C65.5036 39.5799 66.058 39.3964 66.058 39.3964Z" fill="#6BB7BF"/>
<path d="M69.4171 38.2203L71.1767 40.232C71.1767 40.232 66.2043 41.552 63.3623 38.0342C63.3623 38.0355 67.548 39.4505 69.4171 38.2203Z" fill="#86D1CD"/>
<path d="M290.824 46.6542C290.824 46.6542 287.717 46.3586 287.961 43.0902L285.76 42.4197C285.76 42.4197 285.494 44.3522 289.093 46.4378C291.448 47.804 290.824 46.6542 290.824 46.6542Z" fill="#5685D8"/>
<path d="M293.876 46.954C293.876 46.954 291.483 48.703 287.469 45.3093C287.469 45.3093 289.094 46.4379 291.92 45.4796L293.876 46.954Z" fill="#739AF0"/>
<path d="M137.35 46.6542C137.35 46.6542 134.242 46.3586 134.487 43.0902L132.286 42.4197C132.286 42.4197 132.02 44.3522 135.619 46.4378C137.974 47.804 137.35 46.6542 137.35 46.6542Z" fill="#5685D8"/>
<path d="M140.402 46.954C140.402 46.954 138.009 48.703 133.995 45.3093C133.995 45.3093 135.62 46.4379 138.446 45.4796L140.402 46.954Z" fill="#739AF0"/>
<path d="M209.063 32.9598C209.063 32.9598 207.315 31.8562 207.132 30.5217C207.132 30.5217 205.43 30.6141 205.062 31.1659C205.062 31.1659 205.843 33.3729 206.763 33.7874C206.763 33.7874 208.833 33.9247 209.063 32.9598Z" fill="#F99746"/>
<path d="M162.503 15.2679C162.503 15.2679 164.251 14.1644 164.435 12.8298C164.435 12.8298 166.136 12.9222 166.504 13.474C166.504 13.474 165.723 15.681 164.803 16.0955C164.803 16.0968 162.733 16.2341 162.503 15.2679Z" fill="#F99746"/>
<path d="M176.81 43.1157C176.81 43.1157 178.335 42.1521 178.497 40.9866C178.497 40.9866 179.983 41.0671 180.304 41.5489C180.304 41.5489 179.621 43.4774 178.817 43.8391C178.819 43.8391 177.01 43.9592 176.81 43.1157Z" fill="#86D1CD"/>
<path d="M159.482 65.4018C156.489 64.6401 153.201 59.999 153.201 59.999L154.043 59.2677C154.916 60.296 158.542 62.0674 158.542 62.0674C158.522 61.1263 158.547 60.2683 158.607 59.4868C159.009 54.1778 161.01 52.409 161.557 52.0209C161.645 51.9576 161.695 51.9312 161.695 51.9312C161.695 51.9312 161.698 51.9694 161.701 52.0433C161.709 52.2017 161.723 52.5186 161.738 52.9555C161.848 56.204 161.982 66.0393 159.482 65.4018Z" fill="#FFB27D"/>
<path d="M161.879 58.1551C161.872 58.4455 161.862 58.7386 161.85 59.0303C161.754 61.3931 161.496 63.7401 160.917 65.1142C160.774 65.4508 160.613 65.7306 160.428 65.9352C160.16 66.2349 159.846 66.3801 159.479 66.3259C157.458 66.0316 156.932 64.144 156.825 62.7421C156.757 61.8696 156.854 61.1832 156.854 61.1832C156.854 61.1832 157.849 61.1793 158.009 61.0301C158.34 60.7252 158.484 59.256 158.574 57.6285C158.691 55.4953 158.722 53.0969 158.925 52.6837C159.507 51.5037 161.758 51.5037 161.758 51.5037C161.758 51.5037 161.967 54.7192 161.879 58.1551Z" fill="#739AF0"/>
<path d="M164.263 46.1034C164.263 46.1034 162.597 47.0855 163.619 48.9863C163.619 48.9863 162.16 48.7197 161.845 48.2841C161.845 48.2841 161.882 48.4649 161.936 48.5573C161.936 48.5573 160.595 48.2537 160.156 47.6941C159.718 47.1344 161.87 40.4301 165.356 42.1672C165.356 42.1672 168.544 42.7586 167.295 46.2975C166.046 49.8364 167.226 50.1493 167.226 50.1493C167.226 50.1493 166.856 50.2245 166.697 50.1823C166.697 50.1823 166.489 50.0331 166.477 49.8918C166.477 49.8918 166.469 50.1057 166.511 50.1849C166.511 50.1849 165.206 49.9684 164.696 49.319C164.188 48.6695 163.884 46.8017 164.263 46.1034Z" fill="#233862"/>
<path d="M161.856 51.8005C161.854 51.8018 161.852 51.8018 161.851 51.803C161.841 51.8018 161.843 51.8005 161.856 51.8005Z" fill="#FFB27D"/>
<path d="M165.906 50.6351C165.955 51.0733 166.013 51.468 166.04 51.6554C166.098 52.0752 162.11 51.802 161.856 51.802C162.033 51.7254 162.575 50.0094 162.746 49.3547C162.953 48.5614 163.117 47.7034 163.117 47.7034L165.933 47.8816L166.1 47.8921C165.996 48.2763 165.922 48.6379 165.871 48.9745C165.864 49.0194 165.857 49.0656 165.851 49.1105C165.801 49.4827 165.845 50.0939 165.906 50.6351Z" fill="#FFB27D"/>
<path d="M162.728 47.418C162.728 47.418 162.271 45.97 162.363 44.8599C162.429 44.0679 163.558 41.3632 166.271 42.5142C166.271 42.5142 167.068 42.8113 167.7 43.5359C168.203 44.1115 168.85 45.2374 167.214 47.4246L166.739 48.1836L162.728 47.418Z" fill="#233862"/>
<path d="M162.216 58.3819L162.067 63.1616C162.067 63.1616 161.539 64.0671 160.918 65.1139C160.758 65.3832 160.593 65.6604 160.43 65.9349C160.162 66.2346 159.848 66.3798 159.481 66.3257C157.46 66.0313 156.933 64.1437 156.826 62.7418C156.759 61.8693 156.855 61.1829 156.855 61.1829C156.855 61.1829 157.85 61.179 158.01 61.0298C158.341 60.7249 158.485 59.2557 158.575 57.6282L159.955 56.8494L161.88 58.1535L162.216 58.3819Z" fill="#6385DB"/>
<path d="M165.907 50.6347C163.937 50.0579 163.102 47.7822 163.102 47.7822C163.934 47.8073 165.02 48.3855 165.871 48.9729C165.864 49.0177 165.858 49.0639 165.851 49.1088C165.801 49.4824 165.846 50.0935 165.907 50.6347Z" fill="#ED975D"/>
<path d="M166.046 49.8361C166.046 49.8361 162.488 48.9569 163.07 46.7486C163.652 44.5415 163.585 42.9404 165.881 43.409C168.178 43.8776 168.396 44.8359 168.38 45.62C168.364 46.4027 166.986 50.0077 166.046 49.8361Z" fill="#FFB27D"/>
<path d="M168.599 44.365C167.541 42.6899 166.277 42.5157 166.272 42.5157C165.368 41.9098 164.172 43.3975 164.172 43.3975C163.516 44.9181 162.134 45.5227 162.134 45.5227C162.134 45.5227 162.674 46.0929 164.264 46.1035C164.75 46.1074 165.241 45.8909 165.69 45.59C164.82 46.4401 163.808 46.9509 163.808 46.9509C165.715 46.6156 167.051 44.5129 167.287 44.1155C167.544 44.5287 167.799 45.0092 167.812 45.3062C167.84 45.9147 167.613 47.0935 167.962 47.1423C167.96 47.1436 169.312 45.4936 168.599 44.365Z" fill="#233862"/>
<path d="M165.491 48.4198C165.491 48.4198 165.536 48.7564 165.749 48.8356C165.963 48.9148 166.534 49.0587 166.59 49.023C166.648 48.9874 166.861 48.7247 166.861 48.7247C166.861 48.7247 165.965 48.3828 165.491 48.4198Z" fill="white"/>
<path d="M164.161 82.1907C164.116 82.3795 164.07 82.5669 164.027 82.7517C163.759 83.8671 163.508 84.9007 163.351 85.7653C163.146 86.8912 163.097 87.7281 163.367 88.0806C164.472 89.5299 163.367 101.028 163.367 101.028L162.109 102.325C162.109 102.325 159.923 90.9714 159.329 89.1933C159.06 88.3842 158.666 84.931 158.319 81.4053C158.302 81.2284 158.285 81.0529 158.268 80.876C158.208 80.2596 158.15 79.6444 158.095 79.0452C157.783 75.7095 157.551 72.853 157.551 72.853C157.551 72.853 159.87 71.2228 161.977 71.0407C163.219 70.9324 164.386 71.3271 164.963 72.853C165.803 75.0706 164.952 78.9026 164.161 82.1907Z" fill="#FFB27D"/>
<path d="M163.808 82.9535C162.184 81.1834 161.115 78.649 159.134 75.1009C158.966 73.2964 160.389 71.5804 161.977 71.0392C163.219 70.931 164.386 71.3257 164.963 72.8516C165.804 75.0705 164.598 79.6654 163.808 82.9535Z" fill="#ED975D"/>
<path d="M170.445 60.2629L178.915 62.4502V63.4389C178.915 63.4389 170.486 63.3399 169.944 62.4013C169.4 61.4628 170.445 60.2629 170.445 60.2629Z" fill="#FFB27D"/>
<path d="M178.915 92.8564L178.519 94.4906C178.519 94.4906 167.063 88.573 165.582 87.4378C164.987 86.9811 164.2 84.5022 163.471 81.6972C162.386 77.5167 161.431 72.6142 161.431 72.6142C161.431 72.6142 163.037 66.438 167.336 70.2184C169.909 72.4809 169.509 76.8396 169.227 80.2293C169.039 82.5037 168.904 84.3424 169.757 84.819C171.422 85.7482 176.304 90.0264 177.85 92.9686L178.915 92.8564Z" fill="#FFB27D"/>
<path d="M173.7 63.7651C172.985 64.5188 172.019 64.9649 170.447 64.7339C169.762 64.6336 168.553 63.8667 167.922 62.5982C167.827 62.4094 167.587 61.8537 167.587 61.8537C167.587 61.8537 166.715 62.7262 166.682 62.8926L166.681 62.9018C166.667 62.9836 166.62 63.3743 166.595 63.5882C166.591 63.6212 166.587 63.6515 166.585 63.674L166.58 63.7176C166.565 63.8258 166.644 64.2271 166.644 64.2271C166.644 64.2271 162.88 65.8731 159.551 64.2535C159.544 64.2508 159.537 64.2482 159.531 64.2442C159.363 64.1624 159.197 64.0739 159.033 63.9736C159.033 63.9736 158.97 63.5618 158.889 62.8675C158.682 61.0789 158.366 57.4185 158.755 54.1568C158.858 53.2895 161.071 52.1068 161.756 51.5075C161.911 51.3729 162.066 50.9677 162.024 50.7063C161.99 50.4859 162.245 50.1123 162.456 50.1796C162.868 50.3116 164.033 50.8885 164.853 50.668C165.261 50.5598 165.778 50.0872 166.174 50.1955C166.657 50.3288 166.147 51.4917 166.421 51.5075C166.799 51.526 168.496 51.5524 169.011 52.2639C169.433 52.846 169.658 53.9311 170.392 55.9863C170.392 55.9863 170.393 55.9876 170.393 55.9916C171.772 59.8473 173.796 59.1226 174.6 60.2644C175.15 61.0419 174.848 62.5507 173.7 63.7651Z" fill="#739AF0"/>
<path d="M167.587 61.8537C167.587 61.8537 167.168 60.8743 166.861 59.2375C166.776 58.7755 163.223 62.3236 164.113 63.7651C165.003 65.2065 167.587 61.8537 167.587 61.8537Z" fill="#6385DB"/>
<path d="M172.704 76.6362C172.704 76.6362 172.703 76.6375 172.7 76.6375C172.634 76.656 171.536 76.9675 169.912 77.3094C169.515 77.3939 169.086 77.4784 168.633 77.5629C165.137 78.2097 160.206 78.7429 157.236 77.419C157.236 77.419 157.451 72.4848 158.034 68.7558C158.5 65.7713 159.032 63.9721 159.032 63.9721C159.032 63.9721 162.05 64.5952 165.217 63.9893C165.249 63.984 165.278 63.9774 165.308 63.9708C165.723 63.889 166.17 63.852 166.579 63.7161C166.579 63.7161 168.938 67.0728 170.171 69.4567C171.025 71.1067 172.704 76.6362 172.704 76.6362Z" fill="#FFB265"/>
<path d="M172.705 76.6362C172.705 76.6362 172.704 76.6375 172.701 76.6375C172.635 76.656 171.537 76.9675 169.913 77.3094C169.516 77.3939 169.087 77.4784 168.634 77.5629C163.202 70.4626 165.242 64.0065 165.242 64.0065C165.264 63.9933 165.287 63.9814 165.309 63.9708C165.724 63.889 166.171 63.852 166.58 63.7161C166.58 63.7161 168.939 67.0728 170.172 69.4567C171.026 71.1067 172.705 76.6362 172.705 76.6362Z" fill="#C6884F"/>
<path d="M178.915 62.4504C178.915 62.4504 180.469 61.6848 181.086 61.6108C181.704 61.5369 182.742 61.5118 182.742 61.6108C182.742 61.7098 181.63 62.4002 181.333 62.4504C181.036 62.5005 180.469 62.9203 180.642 62.9704C180.815 63.0193 181.729 62.8094 181.741 62.9704C181.753 63.1315 181.185 63.2292 181.086 63.3532C180.987 63.4773 180.642 63.6252 180.086 63.5512C179.53 63.4773 178.915 63.4404 178.915 63.4404V62.4504Z" fill="#FFB27D"/>
<path d="M181.179 93.4914C181.179 93.4914 181.175 93.4914 181.168 93.4888C181.117 93.4756 180.882 93.3977 180.725 93.0228C180.622 92.776 180.591 92.574 180.496 92.3298L180.11 91.6619C179.704 91.1286 179.563 91.254 179.563 91.254C179.563 91.254 179.458 91.39 179.3 91.5682C179.042 91.8639 178.647 92.2744 178.366 92.3813C178.167 92.4552 178.043 92.5793 177.966 92.6942C177.868 92.838 177.847 92.9687 177.847 92.9687C177.847 92.9687 178.677 93.1139 178.605 93.5231C178.464 94.3151 178.497 94.459 178.511 94.4854L178.516 94.4907C178.516 94.4907 179.933 95.2325 180.387 95.3777C181.193 95.6364 181.614 96.1842 181.876 96.4337C181.981 96.5354 182.128 96.5816 182.272 96.5591C182.484 96.5261 182.76 96.4575 182.821 96.3268L181.179 93.4914Z" fill="#2B478B"/>
<path d="M164.631 102.9L163.953 103.267C163.706 103.354 163.503 103.379 163.253 103.476C162.874 103.621 162.608 103.906 162.595 103.957C162.403 104.736 162.123 104.711 162.123 104.711H159.405C159.277 104.647 159.495 104.096 159.599 103.994C159.857 103.741 160.629 103.868 160.91 103.07C161.069 102.622 161.851 101.228 161.851 101.228L161.857 101.222C161.883 101.209 162.028 101.18 162.816 101.344C163.223 101.428 163.392 100.602 163.392 100.602C163.392 100.602 163.521 100.627 163.662 100.729C163.775 100.808 163.895 100.937 163.963 101.138C164.061 101.42 164.461 101.828 164.749 102.095C164.923 102.256 165.055 102.366 165.055 102.366C165.055 102.366 165.175 102.511 164.631 102.9Z" fill="#2B478B"/>
<path d="M154.044 59.269C154.044 59.269 154.169 58.4083 153.947 57.8407C153.712 57.2428 153.661 56.592 153.473 56.8507C153.286 57.1095 153.444 57.8381 153.279 57.8143C153.207 57.8038 152.985 57.6784 152.897 57.3273C152.786 56.8824 153.055 56.2977 152.685 56.3544C152.332 56.4099 151.858 58.0506 152.093 58.4968C152.328 58.9429 153.2 59.9976 153.2 59.9976L154.044 59.269Z" fill="#FFB27D"/>
<path d="M166.682 62.8911L166.681 62.9003L166.595 63.5867C166.591 63.6197 166.587 63.65 166.585 63.6725L166.579 63.7161C164.734 64.4011 163.444 64.7338 162.245 64.7338C160.946 64.7338 160.075 64.4816 159.55 64.252C159.544 64.2493 159.537 64.2467 159.531 64.2427C159.297 64.1411 159.133 64.0408 159.033 63.9721C159.033 63.9721 158.97 63.5603 158.889 62.866C159.521 63.192 162.436 64.4685 166.682 62.8911Z" fill="#C6884F"/>
<path d="M296.22 104.679V55.0588H323.222V64.6935H307.756V73.8121H322.03V83.7688H307.756V94.5955H323.222V104.68H296.22V104.679Z" fill="#47B4B4"/>
<path d="M320.659 55.0592C320.659 55.0592 320.229 54.4771 319.474 54.5206C318.719 54.5642 318.31 55.0381 318.633 55.339C318.957 55.6413 319.667 55.6189 320.163 55.339C320.659 55.0592 320.659 55.0592 320.659 55.0592Z" fill="#FFB27D"/>
<path d="M360.389 105.573H0.502499C0.282059 105.573 0.102539 105.393 0.102539 105.173V105.057C0.102539 104.836 0.282059 104.657 0.502499 104.657H360.389C360.609 104.657 360.789 104.836 360.789 105.057V105.173C360.789 105.392 360.609 105.573 360.389 105.573Z" fill="#2E3552"/>
</svg>
